<?xml version="1.0" encoding="utf-8"?>
<!-- Generator: Adobe Illustrator 25.2.1, SVG Export Plug-In . SVG Version: 6.00 Build 0)  -->
<svg version="1.1" id="Layer_1" xmlns="http://www.w3.org/2000/svg" xmlns:xlink="http://www.w3.org/1999/xlink" x="0px" y="0px"
	 viewBox="0 0 21 25" style="enable-background:new 0 0 21 25;" xml:space="preserve">
<path d="M16,12.5c-0.1,0-0.3,0-0.4,0c0,0,0,0,0,0c-0.7-0.7-1.5-1.4-2.4-1.9c1.2-1.2,1.9-2.8,1.9-4.5c0-3.4-2.8-6.2-6.2-6.2
	S2.7,2.8,2.7,6.2c0,1.7,0.7,3.3,1.9,4.5C1.8,12.2,0,15.2,0,18.5c0,1.9,1.5,3.4,3.4,3.4H11c0.4,1.4,2.4,2.3,5,2.3c2.9,0,5-1.2,5-2.8
	v-6.1C21,13.7,18.8,12.5,16,12.5z M19.6,18.4c0,0.5-1.4,1.4-3.6,1.4c-2.2,0-3.6-0.8-3.6-1.4v-1.1c0.9,0.5,2.2,0.8,3.6,0.8
	c1.4,0,2.7-0.3,3.6-0.8V18.4z M19.6,15.3c0,0.5-1.4,1.4-3.6,1.4c-2.2,0-3.6-0.8-3.6-1.4c0-0.5,1.4-1.4,3.6-1.4
	C18.1,14,19.6,14.8,19.6,15.3z M1.4,18.5c0-3.1,2-5.9,4.9-7c0.3-0.1,0.4-0.3,0.5-0.6s-0.1-0.5-0.3-0.7C5,9.3,4.2,7.8,4.2,6.2
	c0-2.6,2.1-4.8,4.8-4.8s4.8,2.1,4.8,4.8c0,1.6-0.8,3.2-2.3,4c-0.2,0.1-0.4,0.4-0.3,0.7s0.2,0.5,0.5,0.6c0.8,0.3,1.6,0.8,2.2,1.3
	c-1.7,0.4-2.8,1.4-2.8,2.5v5.2H3.4C2.3,20.5,1.4,19.6,1.4,18.5z M16,22.9c-2.2,0-3.6-0.8-3.6-1.4v-1.1c0.9,0.5,2.2,0.8,3.6,0.8
	c1.4,0,2.7-0.3,3.6-0.8v1.1C19.6,22,18.1,22.9,16,22.9z"/>
</svg>
