<?xml version="1.0" encoding="utf-8"?>
<!-- Generator: Adobe Illustrator 25.2.1, SVG Export Plug-In . SVG Version: 6.00 Build 0)  -->
<svg version="1.1" id="Layer_1" xmlns="http://www.w3.org/2000/svg" xmlns:xlink="http://www.w3.org/1999/xlink" x="0px" y="0px"
	 viewBox="0 0 21 20" style="enable-background:new 0 0 21 20;" xml:space="preserve">
<path d="M20.1,6.8C20.1,6.7,20,6.7,20.1,6.8C20,6.6,20,6.6,20,6.6l-6-6.3c0,0,0,0,0,0c0-0.1-0.1-0.1-0.2-0.1c0,0,0,0,0,0
	C13.7,0,13.6,0,13.5,0H0.7C0.3,0,0,0.3,0,0.7v18.7C0,19.7,0.3,20,0.7,20h18.8c0.4,0,0.7-0.3,0.7-0.7V7C20.1,6.9,20.1,6.8,20.1,6.8z
	 M14.2,2.4l3.7,4h-3.7V2.4z M1.3,18.7V1.3h11.5V7c0,0.4,0.3,0.7,0.7,0.7h5.3v11H1.3z M10.8,11.8c0,0.4-0.3,0.7-0.7,0.7H4.9
	c-0.4,0-0.7-0.3-0.7-0.7c0-0.4,0.3-0.7,0.7-0.7h5.3C10.5,11.1,10.8,11.4,10.8,11.8z M10.8,15.1c0,0.4-0.3,0.7-0.7,0.7H4.9
	c-0.4,0-0.7-0.3-0.7-0.7s0.3-0.7,0.7-0.7h5.3C10.5,14.4,10.8,14.7,10.8,15.1z"/>
</svg>
