<?xml version="1.0" encoding="utf-8"?>
<!-- Generator: Adobe Illustrator 25.2.1, SVG Export Plug-In . SVG Version: 6.00 Build 0)  -->
<svg version="1.1" id="Layer_1" xmlns="http://www.w3.org/2000/svg" xmlns:xlink="http://www.w3.org/1999/xlink" x="0px" y="0px"
	 viewBox="0 0 22 17" style="enable-background:new 0 0 22 17;" xml:space="preserve">
<path d="M21,3.1c-0.1-0.2-0.3-0.2-0.5-0.2h-7.3V0.7c0-0.4-0.3-0.7-0.7-0.7c-0.4,0-0.7,0.3-0.7,0.7v2.2H9.4V0.7C9.4,0.3,9.1,0,8.7,0
	C8.3,0,8,0.3,8,0.7v2.2H0.7C0.5,2.9,0.3,3,0.2,3.1C0,3.3,0,3.5,0,3.7l1.9,12.7C1.9,16.7,2.2,17,2.6,17h16c0.4,0,0.6-0.3,0.7-0.6
	l1.9-12.7C21.2,3.5,21.1,3.3,21,3.1z M19.7,4.3L19.3,7c-0.1,0-0.1,0-0.2,0H13c0.1-0.1,0.2-0.3,0.2-0.5V4.3H19.7z M2.1,8.4H19l-0.4,3
	h-16L2.1,8.4z M11.8,4.3v2.2c0,0.2,0.1,0.4,0.2,0.5H9.2c0.1-0.1,0.2-0.3,0.2-0.5V4.3H11.8z M8,4.3v2.2C8,6.7,8.1,6.9,8.2,7H2
	C2,7,2,7,1.9,7L1.5,4.3H8z M3.2,15.6l-0.4-2.8h15.6L18,15.6H3.2z"/>
</svg>
