<?xml version="1.0" encoding="utf-8"?>
<!-- Generator: Adobe Illustrator 25.2.1, SVG Export Plug-In . SVG Version: 6.00 Build 0)  -->
<svg version="1.1" id="Layer_1" xmlns="http://www.w3.org/2000/svg" xmlns:xlink="http://www.w3.org/1999/xlink" x="0px" y="0px"
	 viewBox="0 0 24 24" style="enable-background:new 0 0 24 24;" xml:space="preserve">
<path d="M22,15.1c-0.1,0-0.2-0.1-0.4-0.1c0.1-0.1,0.1-0.2,0.1-0.4V2.7C21.7,2.3,21.4,2,21,2l-4.7,0.1V0.8C16.4,0.4,16,0,15.6,0
	s-0.7,0.3-0.7,0.7V2h-3.2V0.7C11.7,0.3,11.4,0,11,0s-0.7,0.3-0.7,0.7V2H6.9V0.7C6.9,0.3,6.6,0,6.2,0S5.5,0.3,5.5,0.7V2H0.7
	C0.3,2,0,2.3,0,2.7v16.9c0,0.4,0.3,0.7,0.7,0.7H13c0.1,0,0.1,0,0.2,0l2.7,2.4c0.2,0.2,1.3,1.2,3.4,1.2c0.4,0,0.9,0,1.4-0.1
	c2.6-0.5,3.3-2.9,3.3-4C24,19.6,24.4,16,22,15.1z M1.5,3.4h4v1.3c0,0.4,0.3,0.7,0.7,0.7s0.7-0.3,0.7-0.7V3.4h3.4v1.3
	c0,0.4,0.3,0.7,0.7,0.7s0.7-0.3,0.7-0.7V3.4h3.2v1.3c0,0.4,0.3,0.7,0.7,0.7c0.4,0,0.7-0.3,0.7-0.7V3.4h3.8v11.2c0,0,0,0,0,0.1
	c-0.8-0.1-1.4-0.1-1.9,0.1v-2.5c-0.1-0.5-0.5-1.5-1.7-1.5s-1.6,1-1.7,1.6v5.3c-0.2-0.1-0.3-0.3-0.4-0.3c-0.6-0.6-1.6-0.7-2.3,0
	c-0.5,0.5-0.5,1-0.3,1.5H1.5V3.4z M22.8,19.7c0,0.1,0,2.4-2.3,2.9c-2.5,0.5-3.7-0.7-3.8-0.7l0,0L13.3,19c-0.1-0.1-0.3-0.5-0.1-0.6
	c0.3-0.3,0.7-0.1,0.7,0c0.3,0.3,1.3,1.1,1.4,1.2c0.2,0.1,0.4,0.2,0.6,0.1c0.2-0.1,0.3-0.3,0.3-0.5v-6.5c0-0.1,0.1-0.5,0.5-0.5
	s0.5,0.3,0.5,0.4v3.3c0,0.2,0.1,0.4,0.3,0.5c0.2,0.1,0.5,0.1,0.6-0.1c0,0,0.9-0.8,3.3,0.1C23.1,16.8,22.8,19.6,22.8,19.7z M5.7,8.2
	c0,0.4-0.3,0.7-0.7,0.7c-0.4,0-0.7-0.3-0.7-0.7c0-0.4,0.3-0.7,0.7-0.7C5.3,7.4,5.7,7.8,5.7,8.2z M9.6,8.2c0,0.4-0.3,0.7-0.7,0.7
	S8.2,8.6,8.2,8.2c0-0.4,0.3-0.7,0.7-0.7C9.3,7.4,9.6,7.8,9.6,8.2z M12.2,8.2c0-0.4,0.3-0.7,0.7-0.7s0.7,0.3,0.7,0.7
	s-0.3,0.7-0.7,0.7S12.2,8.6,12.2,8.2z M5.7,11.9c0,0.4-0.3,0.7-0.7,0.7c-0.4,0-0.7-0.3-0.7-0.7s0.3-0.7,0.7-0.7
	C5.3,11.2,5.7,11.5,5.7,11.9z M9.6,11.9c0,0.4-0.3,0.7-0.7,0.7s-0.7-0.3-0.7-0.7s0.3-0.7,0.7-0.7S9.6,11.5,9.6,11.9z M12.2,11.9
	c0-0.4,0.3-0.7,0.7-0.7s0.7,0.3,0.7,0.7s-0.3,0.7-0.7,0.7C12.5,12.6,12.2,12.3,12.2,11.9z M5.7,15.7c0,0.4-0.3,0.7-0.7,0.7
	c-0.4,0-0.7-0.3-0.7-0.7C4.2,15.3,4.6,15,5,15C5.3,15,5.7,15.3,5.7,15.7z M9.6,15.7c0,0.4-0.3,0.7-0.7,0.7s-0.7-0.3-0.7-0.7
	c0-0.4,0.3-0.7,0.7-0.7S9.6,15.3,9.6,15.7z M12.2,15.7c0-0.4,0.3-0.7,0.7-0.7s0.7,0.3,0.7,0.7c0,0.4-0.3,0.7-0.7,0.7
	S12.2,16.1,12.2,15.7z M16.1,8.2c0-0.4,0.3-0.7,0.7-0.7c0.4,0,0.7,0.3,0.7,0.7s-0.3,0.7-0.7,0.7C16.5,8.9,16.1,8.6,16.1,8.2z"/>
</svg>
