<?xml version="1.0" encoding="utf-8"?>
<!-- Generator: Adobe Illustrator 25.2.1, SVG Export Plug-In . SVG Version: 6.00 Build 0)  -->
<svg version="1.1" id="Layer_1" xmlns="http://www.w3.org/2000/svg" xmlns:xlink="http://www.w3.org/1999/xlink" x="0px" y="0px"
	 viewBox="0 0 22 21" style="enable-background:new 0 0 22 21;" xml:space="preserve">
<path d="M20.4,0H0.7C0.3,0,0,0.3,0,0.7v19.6C0,20.7,0.3,21,0.7,21h19.7c0.4,0,0.7-0.3,0.7-0.7V0.7C21.1,0.3,20.8,0,20.4,0z
	 M19.7,19.6H1.4V1.4h18.3V19.6z M9.1,8.6C9.1,7.7,9.8,7,10.6,7c0.9,0,1.5,0.7,1.5,1.5c0,0.9-0.7,1.5-1.5,1.5
	C9.8,10.1,9.1,9.4,9.1,8.6z M5.6,16.9h3.7c0.2,0,0.4-0.1,0.5-0.3l0.7-1.2l0.6,1.2c0.1,0.2,0.3,0.3,0.5,0.3h3.8
	c0.2,0,0.4-0.1,0.5-0.3c0.1-0.2,0.1-0.4,0-0.5l-2-4.6c0.7-0.8,1.1-1.8,1.1-2.9c0-2.5-2-4.5-4.5-4.5c-2.5,0-4.5,2-4.5,4.5
	c0,1.1,0.4,2.1,1.1,2.9l-2.1,4.6c-0.1,0.2-0.1,0.4,0,0.5C5.3,16.8,5.5,16.9,5.6,16.9z M12.1,15.8l-1.4-2.7c0.9,0,1.8-0.3,2.5-0.8
	l1.5,3.5H12.1z M10.6,5.2c1.9,0,3.4,1.5,3.4,3.4s-1.5,3.4-3.4,3.4s-3.4-1.5-3.4-3.4S8.8,5.2,10.6,5.2z M8.1,12.3
	c0.4,0.2,0.8,0.4,1.2,0.6l0.7,1.4l-0.9,1.6H6.5L8.1,12.3z"/>
</svg>
