<?xml version="1.0" encoding="utf-8"?>
<!-- Generator: Adobe Illustrator 25.2.1, SVG Export Plug-In . SVG Version: 6.00 Build 0)  -->
<svg version="1.1" id="Layer_1" xmlns="http://www.w3.org/2000/svg" xmlns:xlink="http://www.w3.org/1999/xlink" x="0px" y="0px"
	 viewBox="0 0 23 23" style="enable-background:new 0 0 23 23;" xml:space="preserve">
<path d="M3.7,9.7l-2.5,2.8c-0.1,0.2-0.3,0.2-0.5,0.2c-0.2,0-0.3-0.1-0.5-0.2c-0.3-0.3-0.3-0.7-0.1-1l2.5-2.8c0.3-0.3,0.7-0.3,1-0.1
	C4,8.9,4,9.4,3.7,9.7z M13.5,18.9L11,21.7c-0.3,0.3-0.2,0.7,0.1,1c0.1,0.1,0.3,0.2,0.5,0.2c0.2,0,0.4-0.1,0.5-0.2l2.5-2.8
	c0.3-0.3,0.2-0.7-0.1-1C14.2,18.6,13.7,18.6,13.5,18.9z M19.8,8C19.8,8,19.8,8,19.8,8l0.5,11.6c0,0.2-0.1,0.4-0.2,0.5L18.2,22
	c-0.1,0.1-0.3,0.2-0.5,0.2c-0.1,0-0.1,0-0.2,0c-0.2-0.1-0.4-0.2-0.5-0.5l-2.8-8.9c-1.7,1.5-3.3,2.9-4.1,3.5l-0.3,3.3
	c0,0.2-0.1,0.3-0.2,0.5l-0.8,0.8c-0.1,0.1-0.3,0.2-0.5,0.2c0,0,0,0,0,0c-0.2,0-0.4-0.1-0.5-0.3l-1.7-2.2c0,0,0-0.1,0-0.1
	c0,0,0-0.1-0.1-0.1c0,0,0-0.1,0-0.1c0,0,0-0.1,0-0.1v-1.3l-1.5-0.1c-0.1,0-0.3-0.1-0.4-0.2l-1.9-1.5c-0.2-0.1-0.3-0.3-0.3-0.5
	c0-0.2,0.1-0.4,0.2-0.5l0.8-0.8c0.1-0.1,0.3-0.2,0.5-0.2l3.4-0.2c0.6-0.7,2-2.3,3.4-4L1.2,6C1,5.9,0.8,5.7,0.8,5.5
	C0.7,5.3,0.8,5,1,4.8l1.9-1.9C3,2.8,3.2,2.7,3.4,2.7l11.5,0.5c0,0,0,0,0.1-0.1c0.2-0.2,4.2-4.8,7.3-2.6c0.1,0,0.1,0.1,0.2,0.2
	C24.6,3.8,20,7.8,19.8,8z M11.1,7.6c1-1.1,1.9-2.2,2.6-3L3.7,4.2L2.8,5L11.1,7.6z M8.7,15.9C8.7,15.9,8.7,15.9,8.7,15.9
	c0-0.1,0-0.1,0-0.2c0,0,0-0.1,0-0.1c0,0,0-0.1,0.1-0.1c0,0,0.1-0.1,0.1-0.1c0,0,0,0,0,0c1.3-1,9.8-8.4,9.9-8.5c0,0,3.7-3.3,2.5-5.2
	c-2-1.2-5.2,2.4-5.2,2.4c-0.1,0.1-7.5,8.5-8.4,9.8c0,0,0,0,0,0c0,0-0.1,0.1-0.1,0.1c0,0-0.1,0.1-0.1,0.1c0,0-0.1,0-0.1,0
	c-0.1,0-0.1,0-0.2,0c0,0,0,0,0,0l-3.4,0.2l-0.1,0.1l1.1,0.9l2,0.1c0.4,0,0.7,0.3,0.7,0.7V18l1,1.3l0.1-0.1L8.7,15.9z M18.4,9.3
	c-0.8,0.7-1.9,1.6-3,2.6l2.6,8.3l0.8-0.8L18.4,9.3z"/>
</svg>
