<?xml version="1.0" encoding="utf-8"?>
<!-- Generator: Adobe Illustrator 25.2.1, SVG Export Plug-In . SVG Version: 6.00 Build 0)  -->
<svg version="1.1" id="Layer_1" xmlns="http://www.w3.org/2000/svg" xmlns:xlink="http://www.w3.org/1999/xlink" x="0px" y="0px"
	 viewBox="0 0 23 23" style="enable-background:new 0 0 23 23;" xml:space="preserve">
<path d="M21.2,15.6C21.2,15.6,21.2,15.6,21.2,15.6l0-14.9c0-0.4-0.3-0.7-0.7-0.7H0.7C0.3,0,0,0.3,0,0.7v19.7c0,0.4,0.3,0.7,0.7,0.7
	H11c0.4,0.8,1.3,1.4,2.3,1.4h7.3c1.4,0,2.5-1.1,2.5-2.5C23,18.3,22.3,16.8,21.2,15.6z M1.4,1.4h18.4v7.2c-0.8-0.7-1.8-1.2-3-1.2
	c-2.4,0-4.3,1.9-4.3,4.3c0,1.1,0.4,2.1,1.1,2.9c-1.7,1.1-2.8,2.9-2.9,4.9H1.4V1.4z M20.5,21.1h-7.3c-0.6,0-1.1-0.5-1.1-1.1
	c0-2,1.2-3.7,3.1-4.4c0.3-0.1,0.4-0.3,0.5-0.6c0-0.3-0.1-0.5-0.3-0.7c-0.9-0.5-1.4-1.5-1.4-2.5c0-1.6,1.3-2.9,2.9-2.9
	s2.9,1.3,2.9,2.9c0,1-0.5,1.9-1.4,2.5c-0.2,0.1-0.4,0.4-0.3,0.7c0,0.3,0.2,0.5,0.5,0.6c1.8,0.7,3.1,2.5,3.1,4.4
	C21.6,20.6,21.1,21.1,20.5,21.1z"/>
</svg>
