<?xml version="1.0" encoding="utf-8"?>
<!-- Generator: Adobe Illustrator 25.2.1, SVG Export Plug-In . SVG Version: 6.00 Build 0)  -->
<svg version="1.1" id="Layer_1" xmlns="http://www.w3.org/2000/svg" xmlns:xlink="http://www.w3.org/1999/xlink" x="0px" y="0px"
	 viewBox="0 0 25 21" style="enable-background:new 0 0 25 21;" xml:space="preserve">
<path d="M24.6,9.8c0-0.2,0-0.4-0.1-0.5l-1.9-2.6c-0.2-0.3-0.7-0.4-1-0.2l-0.5,0.4V0.7c0-0.4-0.3-0.7-0.7-0.7H0.7C0.3,0,0,0.3,0,0.7
	v19.6C0,20.7,0.3,21,0.7,21h19.7c0.4,0,0.7-0.3,0.7-0.7v-7.9l3.2-2.2C24.5,10.1,24.6,10,24.6,9.8z M19.7,19.6H1.4V1.4h18.3v6.3
	l-5.8,4c-0.1,0.1-0.2,0.2-0.3,0.4L13,13.9c-0.7-0.2-1-0.4-1.1-0.4c-0.2-0.3-0.5-0.4-0.7-0.5c-0.3-0.1-0.6,0-0.7,0.1
	c-0.8,0.3-1.4,0.1-1.4,0.1c0,0-0.1,0-0.1,0c-0.2-0.1-0.4-0.2-0.6-0.3c0.5-0.4,1-1,1.4-1.8c0.8-1.5,1-2.7,0.6-3.7
	c-0.4-1-1.3-1.3-1.3-1.3c-0.1,0-1.1-0.3-2.1,0.2C6.3,6.9,5.7,7.8,5.5,9.1c-0.2,1.2,0.1,2.4,0.7,3.4c-1.1,0.3-2,0.1-2,0.1
	c-0.4-0.1-0.8,0.1-0.9,0.5c-0.1,0.4,0.1,0.8,0.5,0.9c0.8,0.2,2.1,0.3,3.4-0.3c0.5,0.4,1,0.8,1.5,0.9c0.2,0.1,1.1,0.4,2.3-0.1
	c0.2,0.2,0.7,0.6,1.9,0.9c0,0,0,0,0,0c0.1,0.2,0.3,0.3,0.6,0.3l2.8,0c0,0,0,0,0,0c0.1,0,0.3,0,0.4-0.1l3.1-2.2V19.6z M7.5,11.9
	C7,11.2,6.7,10.3,6.9,9.4C7,8.5,7.3,7.9,7.8,7.6C8,7.5,8.2,7.5,8.4,7.5c0.2,0,0.3,0,0.3,0c0,0,0.3,0.1,0.5,0.5
	c0.2,0.5,0,1.4-0.6,2.5C8.3,11.1,7.9,11.5,7.5,11.9z M16,14.3l-1.6,0l0.5-1.5l7-4.8l1.1,1.5L16,14.3z"/>
</svg>
