<?xml version="1.0" encoding="utf-8"?>
<!-- Generator: Adobe Illustrator 25.2.1, SVG Export Plug-In . SVG Version: 6.00 Build 0)  -->
<svg version="1.1" id="Layer_1" xmlns="http://www.w3.org/2000/svg" xmlns:xlink="http://www.w3.org/1999/xlink" x="0px" y="0px"
	 viewBox="0 0 24 17" style="enable-background:new 0 0 24 17;" xml:space="preserve">
<path d="M21.6,13.8V0.7c0-0.4-0.3-0.7-0.7-0.7H0.7C0.3,0,0,0.3,0,0.7v13.1c0,0.4,0.3,0.7,0.7,0.7h20.2
	C21.3,14.5,21.6,14.2,21.6,13.8z M20.2,13.1H1.4V1.4h18.7V13.1z M24,3.2v13.1c0,0.4-0.3,0.7-0.7,0.7H3.1c-0.4,0-0.7-0.3-0.7-0.7
	c0-0.4,0.3-0.7,0.7-0.7h19.4V3.2c0-0.4,0.3-0.7,0.7-0.7S24,2.8,24,3.2z M8.8,10.5l0.7,0l0.9-3.1h1l0.9,3.1l0.7,0l0.9-3.1h0.9V6.7
	h-0.7l0.6-2.1L14,4.4l-0.7,2.3h-1.4l-0.7-2.3l-0.7,0L9.8,6.7H8.5L7.8,4.4L7.1,4.5l0.6,2.1H6.8v0.7h1.1L8.8,10.5z M13.1,7.4l-0.5,1.7
	l-0.5-1.7H13.1z M10.8,5.7l0.3,1h-0.6L10.8,5.7z M9.6,7.4L9.1,9.1L8.7,7.4H9.6z"/>
</svg>
