<?xml version="1.0" encoding="utf-8"?>
<!-- Generator: Adobe Illustrator 25.2.1, SVG Export Plug-In . SVG Version: 6.00 Build 0)  -->
<svg version="1.1" id="Layer_1" xmlns="http://www.w3.org/2000/svg" xmlns:xlink="http://www.w3.org/1999/xlink" x="0px" y="0px"
	 viewBox="0 0 24 18" style="enable-background:new 0 0 24 18;" xml:space="preserve">
<path d="M23.3,5.8C23.3,5.8,23.3,5.8,23.3,5.8l0-2.7c0-1.7-1.5-3.1-3.2-3.1H3.2C1.5,0,0,1.4,0,3.1v11.8C0,16.6,1.5,18,3.2,18h16.8
	c1.8,0,3.2-1.4,3.2-3.1L23.3,5.8C23.3,5.8,23.3,5.8,23.3,5.8z M3.2,1.4h16.8c1,0,1.8,0.8,1.8,1.7v2H1.4v-2C1.4,2.2,2.2,1.4,3.2,1.4z
	 M20.1,16.6H3.2c-1,0-1.8-0.8-1.8-1.7V6.5h20.5v8.4C21.9,15.8,21.1,16.6,20.1,16.6z M7.8,13.2c0,0.4-0.3,0.7-0.7,0.7H4.5
	c-0.4,0-0.7-0.3-0.7-0.7c0-0.4,0.3-0.7,0.7-0.7h2.6C7.5,12.5,7.8,12.8,7.8,13.2z M13.2,13.2c0,0.4-0.3,0.7-0.7,0.7H9.9
	c-0.4,0-0.7-0.3-0.7-0.7c0-0.4,0.3-0.7,0.7-0.7h2.6C12.9,12.5,13.2,12.8,13.2,13.2z"/>
</svg>
