<?xml version="1.0" encoding="utf-8"?>
<!-- Generator: Adobe Illustrator 25.2.1, SVG Export Plug-In . SVG Version: 6.00 Build 0)  -->
<svg version="1.1" id="Layer_1" xmlns="http://www.w3.org/2000/svg" xmlns:xlink="http://www.w3.org/1999/xlink" x="0px" y="0px"
	 viewBox="0 0 21 21" style="enable-background:new 0 0 21 21;" xml:space="preserve">
<path d="M20.3,0H0.7C0.3,0,0,0.3,0,0.7v19.5c0,0.4,0.3,0.7,0.7,0.7h19.6c0.4,0,0.7-0.3,0.7-0.7V0.7C21,0.3,20.7,0,20.3,0z
	 M19.6,19.5H1.4V1.4h18.2V19.5z M4.7,5.7C4.7,5.3,5,5,5.4,5h10.3c0.4,0,0.7,0.3,0.7,0.7c0,0.4-0.3,0.7-0.7,0.7H5.4
	C5,6.4,4.7,6.1,4.7,5.7z M16.6,14.3c0,1.1-0.9,2-2,2c-1.1,0-2-0.9-2-2s0.9-2,2-2C15.7,12.2,16.6,13.1,16.6,14.3z M4.7,9.1
	c0-0.4,0.3-0.7,0.7-0.7h5.5c0.4,0,0.7,0.3,0.7,0.7s-0.3,0.7-0.7,0.7H5.4C5,9.8,4.7,9.5,4.7,9.1z"/>
</svg>
