<?xml version="1.0" encoding="UTF-8"?>
<svg xmlns="http://www.w3.org/2000/svg" version="1.1" viewBox="0 0 60 60">
  <defs>
    <style>
      .cls-1 {
        fill: #fff;
      }

      .cls-2 {
        fill: #ed3140;
      }
    </style>
  </defs>
  <!-- Generator: Adobe Illustrator 28.7.1, SVG Export Plug-In . SVG Version: 1.2.0 Build 142)  -->
  <g>
    <g id="Layer_1">
      <g>
        <circle class="cls-2" cx="30" cy="30" r="30"/>
        <path class="cls-1" d="M23.625,42.741h-.06c-6.596-.058-7.273-5.931-7.766-10.22-.096-.834-.19-1.664-.322-2.452-.389-1.397-.946-2.303-1.534-2.491-.717-.227-1.75.449-1.924.593-.77.627-1.898.515-2.526-.253-.627-.767-.514-1.897.252-2.525.264-.215,2.648-2.078,5.293-1.233,1.858.596,3.179,2.296,3.925,5.052.014.055.027.11.036.166.151.876.258,1.802.365,2.733.574,4.982,1.116,7.013,4.232,7.041h.021c3.54,0,4.357-7.919,4.381-10.044.12-4.419,1.971-11.85,8.144-11.85,6.223,0,7.868,5.869,7.868,8.972.018.462.269,1.939,1.195,2.604.727.52,1.87.55,3.396.095.947-.286,1.95.254,2.234,1.204.285.949-.255,1.949-1.203,2.234-2.664.799-4.869.585-6.551-.64-2.511-1.828-2.652-5.092-2.66-5.458-.005-.583-.162-5.422-4.279-5.422-4.187,0-4.553,8.25-4.556,8.333-.057,5.027-1.803,13.56-7.962,13.561Z"/>
      </g>
    </g>
  </g>
</svg>