<?xml version="1.0" encoding="UTF-8"?>
<svg id="Layer_1" xmlns="http://www.w3.org/2000/svg" version="1.1" viewBox="0 0 23.001 23">
  <!-- Generator: Adobe Illustrator 29.8.4, SVG Export Plug-In . SVG Version: 2.1.1 Build 6)  -->
  <defs>
    <style>
      .st0 {
        fill: #0e5ce9;
      }

      .st1 {
        fill: #222;
      }
    </style>
  </defs>
  <path class="st1" d="M11.299,0C17.539,0,22.597,5.051,22.597,11.281c0,.484-.393.876-.878.876s-.878-.392-.878-.876c0-5.263-4.272-9.529-9.543-9.529S1.755,6.018,1.755,11.281s4.273,9.529,9.543,9.529c.485,0,.878.392.878.876s-.393.876-.878.876C5.058,22.562,0,17.511,0,11.281S5.058,0,11.298,0h0ZM11.324,5.257c.484,0,.877.392.877.876v4.567c0,.968-.786,1.752-1.755,1.752h-3.241c-.485,0-.877-.392-.877-.876s.393-.876.877-.876h3.241v-4.567c0-.484.393-.876.878-.876Z"/>
  <path class="st0" d="M17.297,11.61c3.15,0,5.704,2.55,5.704,5.695s-2.554,5.695-5.704,5.695-5.704-2.55-5.704-5.695,2.554-5.695,5.704-5.695ZM17.297,13.362c-2.181,0-3.949,1.765-3.949,3.943s1.768,3.943,3.949,3.943,3.949-1.765,3.949-3.943-1.768-3.943-3.949-3.943ZM17.27,14.45c.485,0,.878.392.878.876v1.075h1.077c.485,0,.877.392.877.876s-.393.876-.877.876h-1.077v1.075c0,.484-.393.876-.878.876s-.877-.392-.878-.876v-1.075h-1.077c-.484,0-.878-.392-.878-.876s.393-.876.878-.876h1.077v-1.075c0-.484.393-.876.878-.876Z"/>
</svg>