<?xml version="1.0" encoding="UTF-8"?>
<svg xmlns="http://www.w3.org/2000/svg" version="1.1" viewBox="0 0 729.1 689.5">
  <defs>
    <style>
      .cls-1 {
        fill: #040000;
      }
    </style>
  </defs>
  <!-- Generator: Adobe Illustrator 28.7.1, SVG Export Plug-In . SVG Version: 1.2.0 Build 142)  -->
  <g>
    <g id="Layer_1">
      <g>
        <path class="cls-1" d="M198.6,664.5H25V25h173.6c6.9,0,12.5-5.6,12.5-12.5s-5.6-12.5-12.5-12.5H12.5C5.6,0,0,5.6,0,12.5v664.5c0,6.9,5.6,12.5,12.5,12.5h186.1c6.9,0,12.5-5.6,12.5-12.5s-5.6-12.5-12.5-12.5Z"/>
        <path class="cls-1" d="M716.6,0h-429.1c-6.9,0-12.5,5.6-12.5,12.5v327h-135c-6.9,0-12.5,5.6-12.5,12.5s5.6,12.5,12.5,12.5h135v312.5c0,6.9,5.6,12.5,12.5,12.5h429.1c6.9,0,12.5-5.6,12.5-12.5V12.5c0-6.9-5.6-12.5-12.5-12.5ZM704.1,664.5h-404.1v-300h204.8l-84.7,84.8c-4.9,4.9-4.9,12.8,0,17.7,2.4,2.4,5.6,3.7,8.8,3.7s6.4-1.2,8.8-3.7l106-106.1c4.9-4.9,4.9-12.8,0-17.7l-106.1-106.1c-4.9-4.9-12.8-4.9-17.7,0s-4.9,12.8,0,17.7l84.7,84.7h-204.8V25h404.1v639.5Z"/>
      </g>
    </g>
  </g>
</svg>