<?xml version="1.0" encoding="UTF-8"?>
<svg xmlns="http://www.w3.org/2000/svg" version="1.1" viewBox="0 0 17.243 15.833">
  <defs>
    <style>
      .cls-1 {
        fill: #000222;
      }
    </style>
  </defs>
  <!-- Generator: Adobe Illustrator 28.6.0, SVG Export Plug-In . SVG Version: 1.2.0 Build 709)  -->
  <g>
    <g id="Layer_1">
      <g>
        <path class="cls-1" d="M16.355,0H5.388c-.489,0-.888.398-.888.888v5.262c-.08.017-.181.029-.303.043-.781.091-2.236.261-3.349,2.033C.083,9.444-.176,10.898.119,12.318c.277,1.331,1.174,2.374,1.196,2.396.034.05.794,1.119,2.164,1.119.135,0,.275-.011.422-.033.243-.038.433-.132.601-.245,0,.137.112.248.249.248h11.605c.489,0,.888-.398.888-.888V.888c0-.489-.398-.888-.888-.888ZM3.824,15.306c-1.318.206-2.067-.833-2.115-.898-.009-.01-.851-.991-1.101-2.191-.269-1.293-.033-2.616.664-3.726.985-1.569,2.236-1.714,2.983-1.802.098-.011.169-.023.245-.036v2.245c0,.032.023.054.034.082-.408.444-.756.639-.779.653-.065.044-.269.149-.43.101-.104-.031-.189-.132-.256-.299-.051-.129-.197-.19-.325-.141-.128.051-.191.196-.14.324.157.396.401.542.579.595.415.127.814-.14.832-.154.03-.016.741-.402,1.385-1.376.357-.541.701-.708.926-.752.193-.041.345.003.416.052.34.229.332.677.148,1.001-.388.689-.795,1.226-1.122,1.656-.124.163-.235.31-.329.442-.449.639-.566,1.546-.586,2.194-.04,1.315-.348,1.922-1.031,2.028ZM16.743,14.916c0,.214-.174.388-.388.388H4.788c.514-.601.552-1.565.566-2.01.017-.581.117-1.386.495-1.923.09-.127.198-.27.317-.427.336-.443.755-.994,1.16-1.713.296-.525.287-1.265-.305-1.663-.205-.138-.502-.188-.793-.127-.314.063-.781.281-1.229.946V.888c0-.214.174-.388.388-.388h10.967c.214,0,.388.174.388.388v14.028Z"/>
        <path class="cls-1" d="M14.544,11.228h-2.997c-.138,0-.25.112-.25.25s.112.25.25.25h2.997c.138,0,.25-.112.25-.25s-.112-.25-.25-.25Z"/>
        <path class="cls-1" d="M14.544,12.729h-2.997c-.138,0-.25.112-.25.25s.112.25.25.25h2.997c.138,0,.25-.112.25-.25s-.112-.25-.25-.25Z"/>
        <polygon class="cls-1" points="9.437 3.118 6.827 3.118 6.827 3.558 7.89 3.558 7.89 6.115 8.378 6.115 8.378 3.558 9.437 3.558 9.437 3.118"/>
        <path class="cls-1" d="M12.032,6.115l-1.257-2.997h-.477l-1.26,2.997h.515l.295-.716h1.355l.295.716h.533ZM11.026,4.962h-1l.502-1.218.498,1.218Z"/>
        <polygon class="cls-1" points="14.783 3.197 14.842 3.118 14.267 3.118 13.47 4.225 12.694 3.139 12.678 3.118 12.087 3.118 13.153 4.6 12.107 6.036 12.049 6.115 12.627 6.115 13.462 4.964 14.277 6.094 14.293 6.115 14.878 6.115 13.77 4.589 14.783 3.197"/>
      </g>
    </g>
  </g>
</svg>