<?xml version="1.0" encoding="UTF-8"?>
<svg xmlns="http://www.w3.org/2000/svg" version="1.1" viewBox="0 0 809 809">
  <defs>
    <style>
      .cls-1 {
        fill: #010101;
      }
    </style>
  </defs>
  <!-- Generator: Adobe Illustrator 28.7.1, SVG Export Plug-In . SVG Version: 1.2.0 Build 142)  -->
  <g>
    <g id="Layer_1">
      <path class="cls-1" d="M404.5,0C181.1,0,0,181.1,0,404.5s181.1,404.5,404.5,404.5,404.5-181.1,404.5-404.5S627.9,0,404.5,0ZM655.5,457.9c-16.5,60.2-90.2,174-251,174s-234.5-113.8-251-174c-4.3-15.6,4.9-31.7,20.5-36,15.6-4.2,31.7,5,36,20.5,1.5,5.2,39.1,130.9,194.5,130.9s193-125.7,194.5-131.1c4.5-15.5,20.8-24.5,36.1-20.2,15.5,4.3,24.7,20.4,20.4,35.9Z"/>
    </g>
  </g>
</svg>