<?xml version="1.0" encoding="UTF-8"?>
<svg xmlns="http://www.w3.org/2000/svg" version="1.1" viewBox="0 0 15.824 16.25">
  <!-- Generator: Adobe Illustrator 28.7.1, SVG Export Plug-In . SVG Version: 1.2.0 Build 142)  -->
  <g>
    <g id="Layer_1">
      <g>
        <path d="M5.851,9.727c-.098.098-.098.256,0,.354.049.049.113.073.177.073s.128-.024.177-.073l2.121-2.121c.045-.045.073-.108.073-.177s-.028-.132-.073-.177l-2.121-2.121c-.098-.098-.256-.098-.354,0s-.098.256,0,.354l1.695,1.695H.25c-.138,0-.25.112-.25.25s.112.25.25.25h7.296l-1.695,1.694Z"/>
        <path d="M14.036,11.992c.476-.436.749-1.047.749-1.704,0-.428-.124-.825-.327-1.17V.25c0-.138-.112-.25-.25-.25H1.607c-.138,0-.25.112-.25.25v4.274c0,.138.112.25.25.25s.25-.112.25-.25V.5h12.1v8.024c-.406-.346-.926-.563-1.5-.563-1.283,0-2.327,1.044-2.327,2.327,0,.656.274,1.268.749,1.704-1.084.578-1.787,1.723-1.787,2.97,0,.302.12.568.295.788H1.857v-4.847c0-.138-.112-.25-.25-.25s-.25.112-.25.25v5.097c0,.138.112.25.25.25h12.927c.711,0,1.289-.578,1.289-1.288,0-1.247-.703-2.392-1.788-2.97ZM14.535,15.75h-4.154c-.435,0-.788-.354-.788-.788,0-1.186.747-2.263,1.859-2.681.089-.034.151-.115.161-.21.009-.095-.036-.187-.117-.236-.542-.338-.865-.916-.865-1.547,0-1.008.819-1.827,1.827-1.827s1.827.819,1.827,1.827c0,.632-.323,1.21-.865,1.547-.081.05-.126.142-.117.236.01.095.072.176.161.21,1.112.418,1.86,1.495,1.86,2.681,0,.435-.354.788-.789.788Z"/>
      </g>
    </g>
  </g>
</svg>