<?xml version="1.0" encoding="UTF-8"?>
<svg xmlns="http://www.w3.org/2000/svg" version="1.1" viewBox="0 0 724.8 742.6">
  <defs>
    <style>
      .cls-1 {
        fill: #040000;
      }
    </style>
  </defs>
  <!-- Generator: Adobe Illustrator 28.7.1, SVG Export Plug-In . SVG Version: 1.2.0 Build 142)  -->
  <g>
    <g id="Layer_1">
      <path class="cls-1" d="M712.3,0H112.5c-6.9,0-12.5,5.6-12.5,12.5v121.4H12.5c-6.9,0-12.5,5.6-12.5,12.5v449.7c0,6.9,5.6,12.5,12.5,12.5h87.5v121.5c0,6.9,5.6,12.5,12.5,12.5h599.8c6.9,0,12.5-5.6,12.5-12.5V12.5c0-6.9-5.6-12.5-12.5-12.5ZM480.8,204.4h216.4c1,0,1.6-.8,2.5-1v156.5c-.9-.2-1.5-1-2.5-1h-216.4v-154.4ZM480.8,383.8h216.4c1,0,1.6-.8,2.5-1v156.5c-.9-.2-1.5-1.1-2.5-1.1h-216.4v-154.4ZM699.8,180.4c-.9-.2-1.5-1-2.5-1h-216.4v-33c0-6.9-5.6-12.5-12.5-12.5h-43.4V27.8c0-1.1-.9-1.8-1.2-2.8h276v155.4h0ZM125,25h276.1c-.3,1-1.2,1.7-1.2,2.8v106.1H125V25ZM25,158.9h430.8v424.7H25V158.9ZM125,608.6h276.1c-.3,1-1.2,1.7-1.2,2.8v106.2H125v-109ZM424.9,717.6v-106.2c0-1.1-.9-1.8-1.2-2.8h44.6c6.9,0,12.5-5.6,12.5-12.5v-32.9h216.4c1,0,1.6-.8,2.5-1.1v155.5h-274.9ZM343.6,269.1l-86.8,102.2,86.8,102.2c4.5,5.3,3.8,13.2-1.4,17.6-2.3,2-5.2,3-8.1,3s-7.1-1.5-9.5-4.4l-84.1-99.1-84.1,99.1c-2.5,2.9-6,4.4-9.5,4.4s-5.7-1-8.1-3c-5.3-4.4-5.9-12.3-1.4-17.6l86.8-102.1-86.8-102.2c-4.5-5.2-3.8-13.1,1.4-17.6s13.2-3.8,17.6,1.4l84.1,99,84.1-99c4.5-5.3,12.4-5.9,17.6-1.4,5.3,4.5,5.9,12.4,1.4,17.6Z"/>
    </g>
  </g>
</svg>