<?xml version="1.0" encoding="UTF-8"?>
<svg xmlns="http://www.w3.org/2000/svg" version="1.1" viewBox="0 0 13.1 16.424">
  <!-- Generator: Adobe Illustrator 28.7.1, SVG Export Plug-In . SVG Version: 1.2.0 Build 142)  -->
  <g>
    <g id="Layer_1">
      <g>
        <path d="M12.85,0H.25c-.138,0-.25.112-.25.25v15.75c0,.138.112.25.25.25h4.154c.138,0,.25-.112.25-.25s-.112-.25-.25-.25H.5V.5h12.1v7.675c0,.138.112.25.25.25s.25-.112.25-.25V.25c0-.138-.112-.25-.25-.25Z"/>
        <path d="M8.597,10.158c-.043-.043-.1-.068-.161-.072l-1.627-.104c-.07-.014-.14.021-.19.069-.051.049-.078.117-.076.188l.055,1.677c.002.063.028.124.073.169l4.268,4.268c.049.049.112.073.177.073s.128-.024.177-.073l1.572-1.572c.098-.098.098-.256,0-.354l-4.268-4.268ZM11.115,15.821l-4.021-4.021-.043-1.302,1.258.08,4.024,4.024-1.219,1.219Z"/>
        <path d="M5.926,9.443c-.9.101-1.475-.346-1.629-.799-.147-.433.053-.866.535-1.16.443-.27,1.696-.628,2.702-.916.417-.119.81-.231,1.124-.331,1.037-.327,1.632-.866,1.591-1.443-.018-.241-.194-.823-1.478-1.033-3.946-.398-5.75.943-5.825,1-.109.083-.13.24-.047.35.083.109.239.133.35.048.018-.013,1.743-1.273,5.457-.903.749.123,1.031.386,1.044.573.019.254-.362.654-1.242.931-.311.098-.698.208-1.11.327-1.089.312-2.324.665-2.825.97-.686.418-.973,1.088-.749,1.748.197.58.852,1.151,1.856,1.151.097,0,.197-.005.3-.016.137-.016.236-.139.222-.275-.015-.139-.14-.232-.275-.223Z"/>
      </g>
    </g>
  </g>
</svg>