<?xml version="1.0" encoding="UTF-8"?>
<svg xmlns="http://www.w3.org/2000/svg" version="1.1" viewBox="0 0 750 505">
  <defs>
    <style>
      .cls-1 {
        fill: #040000;
      }
    </style>
  </defs>
  <!-- Generator: Adobe Illustrator 28.7.1, SVG Export Plug-In . SVG Version: 1.2.0 Build 142)  -->
  <g>
    <g id="Layer_1">
      <path class="cls-1" d="M637.5,0H112.5C50.5,0,0,50.5,0,112.5v280c0,62,50.5,112.5,112.5,112.5h525c62,0,112.5-50.5,112.5-112.5V112.5c0-62-50.5-112.5-112.5-112.5ZM112.5,25h525c48.2,0,87.5,39.3,87.5,87.5v17.6H25v-17.6c0-48.2,39.3-87.5,87.5-87.5ZM637.5,480H112.5c-48.2,0-87.5-39.3-87.5-87.5v-237.4h700v237.4c0,48.2-39.3,87.5-87.5,87.5ZM603.5,293.8c-19.3,0-35.6,9.9-46.3,24.3-10.7-14.4-27.1-24.3-46.3-24.3-32.4,0-58.8,26.4-58.8,58.8s26.4,58.8,58.8,58.8,35.6-9.9,46.3-24.3c10.7,14.4,27.1,24.3,46.3,24.3,32.4,0,58.8-26.4,58.8-58.8s-26.4-58.8-58.8-58.8ZM510.8,386.5c-18.7,0-33.8-15.2-33.8-33.8s15.2-33.8,33.8-33.8,33.8,15.2,33.8,33.8-15.2,33.8-33.8,33.8ZM603.5,386.5c-18.7,0-33.8-15.2-33.8-33.8s15.2-33.8,33.8-33.8,33.8,15.2,33.8,33.8-15.2,33.8-33.8,33.8Z"/>
    </g>
  </g>
</svg>