<?xml version="1.0" encoding="UTF-8"?>
<svg xmlns="http://www.w3.org/2000/svg" version="1.1" viewBox="0 0 835.7 815.5">
  <defs>
    <style>
      .cls-1 {
        fill: #040000;
      }
    </style>
  </defs>
  <!-- Generator: Adobe Illustrator 28.7.1, SVG Export Plug-In . SVG Version: 1.2.0 Build 142)  -->
  <g>
    <g id="Layer_1">
      <g>
        <path class="cls-1" d="M402.8,717.5H25v-333.8h674.8v28.4c0,6.9,5.6,12.5,12.5,12.5s12.5-5.6,12.5-12.5V12.5c0-6.9-5.6-12.5-12.5-12.5H12.5C5.6,0,0,5.6,0,12.5v717.5c0,6.9,5.6,12.5,12.5,12.5h390.3c6.9,0,12.5-5.6,12.5-12.5s-5.6-12.5-12.5-12.5ZM699.8,25v333.8H25V25h674.8Z"/>
        <path class="cls-1" d="M149.3,208.3h140.1c6.9,0,12.5-5.6,12.5-12.5s-5.6-12.5-12.5-12.5h-140.1c-6.9,0-12.5,5.6-12.5,12.5s5.6,12.5,12.5,12.5Z"/>
        <path class="cls-1" d="M149.3,538.1c-6.9,0-12.5,5.6-12.5,12.5s5.6,12.5,12.5,12.5h140.1c6.9,0,12.5-5.6,12.5-12.5s-5.6-12.5-12.5-12.5h-140.1Z"/>
        <path class="cls-1" d="M674.8,579.4c-37,0-67,30.1-67,67s30.1,67.1,67,67.1,67-30.1,67-67.1-30.1-67-67-67ZM674.8,688.5c-23.2,0-42-18.9-42-42.1s18.8-42,42-42,42,18.8,42,42-18.8,42.1-42,42.1Z"/>
        <path class="cls-1" d="M808,666.5c1-6.7,1.5-13.4,1.5-20.1s-.5-13.3-1.5-20l24.6-27.7c3.6-4,4.2-9.9,1.5-14.5l-25.7-44.5c-2.7-4.6-7.9-6.9-13.4-6l-36.3,7.5c-10.5-8.4-22.1-15.1-34.6-20l-11.7-35.2c-1.7-5.1-6.5-8.5-11.9-8.5h-51.4c-5.4,0-10.2,3.5-11.9,8.5l-11.7,35.2c-12.5,4.9-24.1,11.6-34.6,20l-36.4-7.5c-5.5-.9-10.6,1.4-13.4,6l-25.7,44.5c-2.7,4.6-2.1,10.5,1.5,14.5l24.6,27.7c-1,6.7-1.5,13.4-1.5,20s.5,13.4,1.5,20.1l-24.6,27.7c-3.6,4-4.2,9.9-1.5,14.5l25.7,44.5c2.7,4.6,8.1,6.9,13.3,6l36.4-7.4c10.5,8.4,22.2,15.1,34.6,20l11.7,35.2c1.7,5.1,6.5,8.5,11.9,8.5h51.4c5.4,0,10.2-3.5,11.9-8.5l11.7-35.2c12.5-4.9,24.1-11.6,34.6-20l36.4,7.4c5.2.9,10.6-1.4,13.3-6l25.7-44.5c2.7-4.6,2.1-10.5-1.5-14.5l-24.6-27.7ZM784.5,646.4c0,7.1-.7,14.4-2.1,21.5-.8,3.8.3,7.8,2.9,10.7l22.6,25.4-16.7,28.9-33.5-6.8c-3.9-.7-7.8.2-10.7,2.9-10.8,9.6-23.2,16.7-36.9,21.3-3.7,1.3-6.6,4.2-7.9,7.9l-10.8,32.3h-33.3l-10.8-32.3c-1.3-3.7-4.2-6.6-7.9-7.9-13.6-4.5-26-11.7-36.9-21.3-2.9-2.6-6.9-3.5-10.7-2.9l-33.5,6.8-16.7-28.9,22.6-25.4c2.6-2.9,3.7-6.9,2.9-10.7-1.4-7.1-2.1-14.4-2.1-21.5s.7-14.3,2.1-21.4c.8-3.8-.3-7.8-2.9-10.7l-22.6-25.4,16.7-28.9,33.5,6.9c4,.6,7.9-.3,10.8-2.9,10.9-9.5,23.3-16.8,37-21.4,3.7-1.2,6.6-4.2,7.8-7.9l10.8-32.3h33.3l10.8,32.3c1.2,3.7,4.2,6.6,7.8,7.9,13.7,4.7,26.1,11.9,36.9,21.4,2.9,2.6,6.7,3.5,10.8,2.9l33.5-6.9,16.7,28.9-22.6,25.4c-2.6,2.9-3.7,6.9-2.9,10.7,1.4,7.1,2.1,14.4,2.1,21.4Z"/>
      </g>
    </g>
  </g>
</svg>