<?xml version="1.0" encoding="UTF-8"?>
<svg xmlns="http://www.w3.org/2000/svg" version="1.1" viewBox="0 0 824.8 824.8">
  <defs>
    <style>
      .cls-1 {
        fill: #070001;
      }
    </style>
  </defs>
  <!-- Generator: Adobe Illustrator 28.7.1, SVG Export Plug-In . SVG Version: 1.2.0 Build 142)  -->
  <g>
    <g id="Layer_1">
      <path class="cls-1" d="M21.7,290.7C7.3,332.7,0,376.6,0,421.6s7.3,89,21.7,130.9l130.9-130.9L21.7,290.7ZM376.7,197.5L234.4,55.3c-86.5,40-157.5,111-197.5,197.5l142.2,142.2,197.6-197.5ZM534.1,40.1c-84-28.9-177.8-28.9-261.8,0l130.9,130.9,130.9-130.9ZM179.1,448.1l-142.2,142.2c40,86.5,111,157.5,197.5,197.5l142.2-142.2-197.5-197.5ZM272.3,803.1c83.9,28.9,177.9,28.9,261.8,0l-130.9-130.9-130.9,130.9ZM627.2,448.1l-197.5,197.5,142.2,142.3c86.5-40,157.5-111,197.5-197.6l-74-74-68.2-68.2ZM653.7,421.6l130.9,130.9c14.4-42,21.7-85.9,21.7-130.9s-7.3-88.9-21.7-130.9l-130.9,130.9ZM449.7,177.6l-19.9,19.9,197.5,197.5,151.3-151.3,46.2-46.2L627.2,0l-26.6,26.6h0l-19.7,19.7-131.2,131.3Z"/>
    </g>
  </g>
</svg>