<?xml version="1.0" encoding="UTF-8"?>
<svg xmlns="http://www.w3.org/2000/svg" version="1.1" viewBox="0 0 31.024 25.5">
  <!-- Generator: Adobe Illustrator 28.7.1, SVG Export Plug-In . SVG Version: 1.2.0 Build 142)  -->
  <g>
    <g id="Layer_1">
      <g>
        <path d="M11.655,14.37c.077-.407-.19-.799-.597-.876-.406-.078-.799.189-.876.597-.105.555-.692.974-1.365.974s-1.26-.418-1.365-.974c-.078-.408-.474-.675-.876-.597-.407.077-.674.47-.597.876.241,1.271,1.435,2.194,2.839,2.194s2.598-.922,2.839-2.194Z"/>
        <path d="M18.274,0c-5.147,0-9.835,3.165-11.787,7.904-.603.236-1.173.558-1.687.976-1.495,1.215-2.352,3.016-2.352,4.941,0,1.831.787,3.548,2.12,4.741-1.886.934-3.442,2.479-4.381,4.389-.274.56-.244,1.206.083,1.73.319.513.872.819,1.478.819h14.132c.22,0,.426-.053.623-.128.585.081,1.179.128,1.772.128,7.03,0,12.75-5.72,12.75-12.75S25.305,0,18.274,0ZM1.542,23.888c-.024-.039-.074-.145-.01-.275.971-1.974,2.723-3.488,4.808-4.154.285-.092.489-.344.518-.643.029-.298-.123-.585-.385-.729-1.558-.856-2.525-2.491-2.525-4.266,0-1.471.655-2.848,1.798-3.777.874-.71,1.958-1.086,3.08-1.086.346,0,.695.036,1.043.108,1.859.387,3.352,1.904,3.714,3.774.41,2.113-.567,4.221-2.43,5.246-.262.145-.414.432-.385.729.029.299.233.551.518.643,2.085.666,3.837,2.181,4.808,4.154.064.131.015.236-.01.275-.032.052-.094.112-.205.112H1.747c-.111,0-.173-.062-.205-.112ZM18.274,24c-.225,0-.451-.013-.676-.026.046-.344.002-.698-.159-1.024-.938-1.909-2.495-3.455-4.38-4.389,1.648-1.478,2.436-3.741,1.996-6.007-.476-2.457-2.437-4.449-4.881-4.958-.614-.127-1.23-.157-1.835-.112,1.932-3.626,5.763-5.985,9.935-5.985,6.203,0,11.25,5.047,11.25,11.25s-5.047,11.25-11.25,11.25Z"/>
        <path d="M19.024,12.439v-7.582c0-.414-.336-.75-.75-.75s-.75.336-.75.75v7.893c0,.098.02.195.058.287.038.092.093.175.162.244l4.061,4.061c.146.146.338.22.53.22s.384-.073.53-.22c.293-.293.293-.768,0-1.061l-3.841-3.841Z"/>
      </g>
    </g>
  </g>
</svg>