<?xml version="1.0" encoding="UTF-8"?>
<svg xmlns="http://www.w3.org/2000/svg" version="1.1" viewBox="0 0 843.9 396">
  <!-- Generator: Adobe Illustrator 28.7.1, SVG Export Plug-In . SVG Version: 1.2.0 Build 142)  -->
  <g>
    <g id="Layer_1">
      <path d="M110.3,55.2c0,30.5-24.7,55.2-55.2,55.2S0,85.6,0,55.2,24.7,0,55.2,0s55.2,24.7,55.2,55.2ZM55.2,285.7c-30.5,0-55.2,24.7-55.2,55.2s24.7,55.2,55.2,55.2,55.2-24.7,55.2-55.2-24.7-55.2-55.2-55.2ZM843.9,341.7c0-27.6-22.4-50-50-50h-500c-27.6,0-50,22.4-50,50s22.4,50,50,50h500c27.6,0,50-22.4,50-50ZM843.9,55.2c0-27.6-22.4-50-50-50h-500c-27.6,0-50,22.4-50,50s22.4,50,50,50h500c27.6,0,50-22.4,50-50Z"/>
    </g>
  </g>
</svg>