<?xml version="1.0" encoding="UTF-8"?>
<svg xmlns="http://www.w3.org/2000/svg" version="1.1" viewBox="0 0 563.3 703.5">
  <defs>
    <style>
      .cls-1 {
        fill: #040000;
      }
    </style>
  </defs>
  <!-- Generator: Adobe Illustrator 28.7.1, SVG Export Plug-In . SVG Version: 1.2.0 Build 142)  -->
  <g>
    <g id="Layer_1">
      <path class="cls-1" d="M488.7,0H74.5C33.5,0,0,33.5,0,74.5v568.9c0,33,27,60.1,60.1,60.1h89c20.8,0,37.6-16.8,37.6-37.6v-41.2c0-26.7,21.9-48.6,48.6-48.6h93c26.7,0,48.5,21.8,48.5,48.5v41.3c0,20.8,16.8,37.6,37.6,37.6h98.3c27.9,0,50.7-22.8,50.7-50.7V74.6c0-41-33.6-74.6-74.6-74.6ZM240,395.6c0,17.8-14.6,32.5-32.5,32.5h-56.6c-17.9,0-32.5-14.6-32.5-32.5v-56.8c0-17.9,14.6-32.5,32.5-32.5h56.6c17.9,0,32.5,14.6,32.5,32.5v56.8ZM240,200.2c0,17.9-14.6,32.5-32.5,32.5h-56.6c-17.9,0-32.5-14.6-32.5-32.5v-56.7c0-17.9,14.6-32.5,32.5-32.5h56.6c17.9,0,32.5,14.6,32.5,32.5v56.7ZM445,395.6c0,17.8-14.6,32.5-32.5,32.5h-56.6c-17.8,0-32.5-14.6-32.5-32.5v-56.8c0-17.9,14.6-32.5,32.5-32.5h56.6c17.8,0,32.5,14.6,32.5,32.5v56.8ZM445,200.2c0,17.9-14.6,32.5-32.5,32.5h-56.6c-17.8,0-32.5-14.6-32.5-32.5v-56.7c0-17.9,14.6-32.5,32.5-32.5h56.6c17.8,0,32.5,14.6,32.5,32.5v56.7Z"/>
    </g>
  </g>
</svg>