<?xml version="1.0" encoding="UTF-8"?>
<svg xmlns="http://www.w3.org/2000/svg" version="1.1" viewBox="0 0 621.8 757.8">
  <defs>
    <style>
      .cls-1 {
        fill: #040000;
      }
    </style>
  </defs>
  <!-- Generator: Adobe Illustrator 28.7.1, SVG Export Plug-In . SVG Version: 1.2.0 Build 142)  -->
  <g>
    <g id="Layer_1">
      <g id="Layer_1-2" data-name="Layer_1">
        <g>
          <path class="cls-1" d="M577.8,477.8h0l-5.8-245.3C572,230.2,564.1,0,311,0S50,230.2,50,232.5l-5.8,245.2c-1.9,89.7-37.2,110.2-37.3,110.2-5.2,2.6-7.9,8.4-6.6,14.1,1.3,5.6,6.4,9.6,12.2,9.6h597c5.7,0,10.5-3.9,12-9.4,1.5-5.6-1.2-11.4-6.2-14.2,0,0-35.6-20.6-37.5-110.2ZM42.1,586.7c12.7-19.1,25.9-52.2,27.1-108.3l5.8-245.3c.2-8.5,7-208,236-208s235.8,199.6,236,208.1l5.8,245.2c1.2,56.1,14.4,89.3,27.1,108.3H42.1Z"/>
          <path class="cls-1" d="M403.4,656.1c-6.8-1.3-13.3,3-14.7,9.8-.6,2.7-14.4,66.8-78.5,66.8s-77.2-64-77.7-66.8c-1.3-6.7-7.9-11.2-14.6-9.9-6.8,1.3-11.2,7.8-9.9,14.5,5.7,30.1,34.4,87.1,102.3,87.1s97.1-56.9,103-87c1.3-6.8-3.1-13.3-9.8-14.7v.2Z"/>
          <path class="cls-1" d="M235.5,120.5c-.9.3-90,35-77.7,161.5.6,6.5,6.1,11.3,12.4,11.3s.8,0,1.2,0c6.9-.7,11.9-6.8,11.2-13.6-10.4-106.7,58.6-134.6,61.5-135.7,6.4-2.4,9.7-9.6,7.3-16-2.4-6.5-9.6-9.7-16.1-7.4h.2Z"/>
        </g>
      </g>
    </g>
  </g>
</svg>