<?xml version="1.0" encoding="UTF-8"?>
<svg xmlns="http://www.w3.org/2000/svg" version="1.1" viewBox="0 0 739.5 679.1">
  <defs>
    <style>
      .cls-1 {
        fill: #040000;
      }
    </style>
  </defs>
  <!-- Generator: Adobe Illustrator 28.7.1, SVG Export Plug-In . SVG Version: 1.2.0 Build 142)  -->
  <g>
    <g id="Layer_1">
      <path class="cls-1" d="M739.5,666.6c0,6.9-5.6,12.5-12.5,12.5H12.5c-6.9,0-12.5-5.6-12.5-12.5s5.6-12.5,12.5-12.5h714.5c6.9,0,12.5,5.6,12.5,12.5ZM360.9,516.3c2.3,2.3,5.5,3.7,8.8,3.7s6.5-1.3,8.8-3.7l156-156.1c4.9-4.9,4.9-12.8,0-17.7s-12.8-4.9-17.7,0l-134.7,134.8V12.5c0-6.9-5.6-12.5-12.5-12.5s-12.5,5.6-12.5,12.5v464.8l-134.7-134.7c-4.9-4.9-12.8-4.9-17.7,0s-4.9,12.8,0,17.7l156.1,156.1Z"/>
    </g>
  </g>
</svg>