<?xml version="1.0" encoding="UTF-8"?>
<svg xmlns="http://www.w3.org/2000/svg" version="1.1" viewBox="0 0 809 809">
  <defs>
    <style>
      .cls-1 {
        fill: #010101;
      }
    </style>
  </defs>
  <!-- Generator: Adobe Illustrator 28.7.1, SVG Export Plug-In . SVG Version: 1.2.0 Build 142)  -->
  <g>
    <g id="Layer_1">
      <path class="cls-1" d="M404.5,0C181.4,0,0,181.4,0,404.5s181.4,404.5,404.5,404.5,404.5-181.4,404.5-404.5S627.6,0,404.5,0ZM635.9,333.3l-275.1,237.1c-9.4,8.1-21,12.1-32.6,12.1s-23.7-4.2-33.2-12.6l-144.4-128c-20.6-18.3-22.6-49.9-4.2-70.6,18.4-20.6,49.9-22.6,70.6-4.2l111.6,99.1,241.9-208.5c20.9-18.1,52.4-15.7,70.5,5.2,18,20.9,15.7,52.5-5.2,70.5Z"/>
    </g>
  </g>
</svg>