<?xml version="1.0" encoding="UTF-8"?>
<svg xmlns="http://www.w3.org/2000/svg" version="1.1" viewBox="0 0 19.625 12.208">
  <!-- Generator: Adobe Illustrator 28.7.1, SVG Export Plug-In . SVG Version: 1.2.0 Build 142)  -->
  <g>
    <g id="Layer_1">
      <g>
        <path d="M8.222,4.933c-.045-.045-.108-.073-.177-.073s-.132.028-.177.073l-1.343,1.342c-.098.098-.098.256,0,.354s.256.098.354,0l.916-.916v3.655c0,.138.112.25.25.25s.25-.112.25-.25v-3.655l.916.916c.049.049.113.073.177.073s.128-.024.177-.073c.098-.098.098-.256,0-.354l-1.342-1.342Z"/>
        <path d="M13.134,7.848l-.915.916v-3.655c0-.138-.112-.25-.25-.25s-.25.112-.25.25v3.655l-.916-.916c-.098-.098-.256-.098-.354,0s-.098.256,0,.354l1.343,1.343c.047.047.11.073.177.073s.13-.026.177-.073l1.342-1.343c.098-.098.098-.256,0-.354-.099-.099-.257-.098-.354,0Z"/>
        <path d="M17.188,5.111c-.021-1.519-1.264-2.748-2.787-2.748-.464,0-.915.114-1.319.332-.896-1.646-2.644-2.695-4.527-2.695C5.795,0,3.536,2.181,3.409,4.91c-1.901.126-3.409,1.713-3.409,3.645,0,2.015,1.639,3.653,3.653,3.653l.081-.004c.014.003.028.004.043.004h12.195c2.015,0,3.653-1.639,3.653-3.653,0-1.544-.993-2.932-2.437-3.443ZM15.972,11.708H3.831c-.019-.004-.037,0-.06-.006-.003,0-.114.006-.118.006-1.739,0-3.153-1.415-3.153-3.153s1.415-3.153,3.153-3.153c.138,0,.25-.112.25-.25C3.903,2.586,5.99.5,8.555.5c1.784,0,3.434,1.042,4.201,2.655.031.066.09.115.16.134.068.019.146.007.205-.034.379-.256.821-.391,1.28-.391,1.261,0,2.287,1.026,2.287,2.288,0,.032-.002.063-.005.095,0,0,0,.029,0,.029-.008.116.066.223.179.255,1.333.392,2.264,1.635,2.264,3.023,0,1.738-1.415,3.153-3.153,3.153Z"/>
      </g>
    </g>
  </g>
</svg>