<?xml version="1.0" encoding="UTF-8"?>
<svg xmlns="http://www.w3.org/2000/svg" version="1.1" viewBox="0 0 22.274 23.008">
  <!-- Generator: Adobe Illustrator 28.7.1, SVG Export Plug-In . SVG Version: 1.2.0 Build 142)  -->
  <g>
    <g id="Layer_1">
      <g>
        <path d="M7.818,4.32h-2.917c-.276,0-.5.224-.5.5s.224.5.5.5h2.917c.276,0,.5-.224.5-.5s-.224-.5-.5-.5Z"/>
        <path d="M7.818,7.255h-2.917c-.276,0-.5.224-.5.5s.224.5.5.5h2.917c.276,0,.5-.224.5-.5s-.224-.5-.5-.5Z"/>
        <path d="M7.818,10.189h-2.917c-.276,0-.5.224-.5.5s.224.5.5.5h2.917c.276,0,.5-.224.5-.5s-.224-.5-.5-.5Z"/>
        <path d="M21.015,13.112c.813-1.033,1.259-2.312,1.259-3.633,0-2.471-1.525-4.582-3.667-5.428V.5c0-.276-.224-.5-.5-.5H.5C.224,0,0,.224,0,.5v22.008c0,.276.224.5.5.5h17.607c.276,0,.5-.224.5-.5s-.224-.5-.5-.5H1V1h16.607v2.757c-.348-.067-.705-.106-1.071-.106-3.163,0-5.737,2.614-5.737,5.827s2.574,5.827,5.737,5.827c.938,0,1.864-.237,2.695-.688l1.833.877c.068.033.143.049.216.049.126,0,.249-.047.345-.138.15-.143.196-.363.116-.555l-.726-1.738ZM19.426,13.601c-.151-.071-.331-.063-.475.023-.735.445-1.57.681-2.416.681-2.612,0-4.737-2.165-4.737-4.827s2.125-4.827,4.737-4.827,4.738,2.165,4.738,4.827c0,1.184-.431,2.327-1.213,3.216-.126.144-.159.347-.085.522l.337.809-.887-.425Z"/>
        <path d="M18.701,9.725v-.693c0-.372-.049-.712-.146-1.009-.097-.307-.242-.576-.433-.798-.192-.225-.431-.399-.706-.518-.547-.236-1.317-.237-1.867,0-.279.119-.519.293-.712.519-.188.221-.334.49-.43.799-.094.299-.142.639-.142,1.008v.693c0,.368.049.708.145,1.012.101.309.246.577.435.797.192.224.43.397.707.518.604.262,1.459.235,2.043-.091l.649.649.66-.69-.609-.609c.269-.415.405-.947.405-1.585ZM16.949,9.962l-.66.689.577.583c-.116.036-.244.053-.383.053-.373,0-.662-.127-.883-.388-.229-.271-.344-.68-.344-1.218v-.609c0-.538.115-.947.343-1.217.221-.261.51-.387.884-.387s.664.126.885.387c.228.269.343.679.343,1.217v.609c0,.256-.027.484-.082.679-.021.074-.044.144-.07.209l-.609-.609Z"/>
      </g>
    </g>
  </g>
</svg>