<?xml version="1.0" encoding="UTF-8"?>
<svg xmlns="http://www.w3.org/2000/svg" version="1.1" viewBox="0 0 739.4 818.1">
  <defs>
    <style>
      .cls-1 {
        fill: #040000;
      }
    </style>
  </defs>
  <!-- Generator: Adobe Illustrator 28.7.1, SVG Export Plug-In . SVG Version: 1.2.0 Build 142)  -->
  <g>
    <g id="Layer_1">
      <path class="cls-1" d="M439.5,335l-137.2,118.3c-2.3,2-5.2,3-8.1,3s-5.9-1.1-8.3-3.1l-70.5-62.5c-5.1-4.6-5.6-12.5-1-17.6,4.6-5.2,12.4-5.7,17.6-1l62.3,55.2,129-111.1c5.2-4.4,13.2-3.9,17.6,1.3,4.5,5.2,3.9,13.1-1.3,17.6ZM115.4,777.5c-6.9,0-12.5,5.6-12.5,12.5v10c0,6.9,5.6,12.5,12.5,12.5s12.5-5.6,12.5-12.5v-10c0-6.9-5.6-12.5-12.5-12.5ZM218.3,777.5c-6.9,0-12.5,5.6-12.5,12.5v10c0,6.9,5.6,12.5,12.5,12.5s12.5-5.6,12.5-12.5v-10c0-6.9-5.6-12.5-12.5-12.5ZM321.1,777.5c-6.9,0-12.5,5.6-12.5,12.5v10c0,6.9,5.6,12.5,12.5,12.5s12.5-5.6,12.5-12.5v-10c0-6.9-5.6-12.5-12.5-12.5ZM739.4,555.6v200c0,41-81.7,62.5-162.5,62.5s-112.2-10.6-141.5-30.8c.2,1,1.1,1.6,1.1,2.6v10c0,6.9-5.6,12.5-12.5,12.5s-12.5-5.6-12.5-12.5v-10c0-6.9,5.6-12.5,12.5-12.5s.1,0,.2,0c-5.8-6.6-9.8-13.8-9.8-22v-200c0-50.1,121.2-69.5,215.6-58.3V25H25v775c0,6.9-5.6,12.5-12.5,12.5s-12.5-5.6-12.5-12.5V12.5C0,5.6,5.6,0,12.5,0h630c6.9,0,12.5,5.6,12.5,12.5v487.5c0,.4-.4.7-.5,1.1,48.3,9.1,84.9,27.1,84.9,54.5ZM714.4,590c-30.2,18.4-83.8,28.1-137.5,28.1s-107.2-9.7-137.5-28.1v65.6c0,12.7,48.5,37.5,137.5,37.5s137.5-24.8,137.5-37.5v-65.6ZM439.4,555.6c0,12.7,48.5,37.5,137.5,37.5s137.5-24.8,137.5-37.5-48.5-37.5-137.5-37.5-137.5,24.8-137.5,37.5ZM714.4,755.6v-65.6c-30.2,18.4-83.8,28.1-137.5,28.1s-107.2-9.7-137.5-28.1v65.6c0,12.7,48.5,37.5,137.5,37.5s137.5-24.8,137.5-37.5Z"/>
    </g>
  </g>
</svg>