<?xml version="1.0" encoding="UTF-8"?>
<svg xmlns="http://www.w3.org/2000/svg" version="1.1" viewBox="0 0 689.5 729.1">
  <defs>
    <style>
      .cls-1 {
        fill: #010101;
      }
    </style>
  </defs>
  <!-- Generator: Adobe Illustrator 28.7.1, SVG Export Plug-In . SVG Version: 1.2.0 Build 142)  -->
  <g>
    <g id="Layer_1">
      <path class="cls-1" d="M689.5,287.5v429.1c0,6.9-5.6,12.5-12.5,12.5H12.5c-6.9,0-12.5-5.6-12.5-12.5v-429.1c0-6.9,5.6-12.5,12.5-12.5s12.5,5.6,12.5,12.5v416.6h639.5v-416.6c0-6.9,5.6-12.5,12.5-12.5s12.5,5.6,12.5,12.5ZM240.3,127.4l84.7-84.7v514.8c0,6.9,5.6,12.5,12.5,12.5s12.5-5.6,12.5-12.5V42.7l84.7,84.7c2.4,2.4,5.6,3.7,8.8,3.7s6.4-1.2,8.8-3.7c4.9-4.9,4.9-12.8,0-17.7L346.3,3.7c-2.3-2.3-5.4-3.7-8.8-3.7s-6.6,1.4-8.8,3.7l-106.1,106.1c-4.9,4.9-4.9,12.8,0,17.7s12.8,4.9,17.7,0Z"/>
    </g>
  </g>
</svg>