<?xml version="1.0" encoding="UTF-8"?>
<svg xmlns="http://www.w3.org/2000/svg" version="1.1" viewBox="0 0 110.3 681.7">
  <defs>
    <style>
      .cls-1 {
        fill: #040000;
      }
    </style>
  </defs>
  <!-- Generator: Adobe Illustrator 28.7.1, SVG Export Plug-In . SVG Version: 1.2.0 Build 142)  -->
  <g>
    <g id="Layer_1">
      <path class="cls-1" d="M0,55.2C0,24.7,24.7,0,55.2,0s55.2,24.7,55.2,55.2-24.7,55.2-55.2,55.2S0,85.6,0,55.2ZM55.2,285.7c-30.5,0-55.2,24.7-55.2,55.2s24.7,55.2,55.2,55.2,55.2-24.7,55.2-55.2-24.7-55.2-55.2-55.2ZM55.2,571.4c-30.5,0-55.2,24.7-55.2,55.2s24.7,55.2,55.2,55.2,55.2-24.7,55.2-55.2-24.7-55.2-55.2-55.2Z"/>
    </g>
  </g>
</svg>