<?xml version="1.0" encoding="UTF-8"?>
<svg xmlns="http://www.w3.org/2000/svg" version="1.1" viewBox="0 0 729.1 578.8">
  <defs>
    <style>
      .cls-1 {
        fill: #040000;
      }
    </style>
  </defs>
  <!-- Generator: Adobe Illustrator 28.7.1, SVG Export Plug-In . SVG Version: 1.2.0 Build 142)  -->
  <g>
    <g id="Layer_1">
      <path class="cls-1" d="M666.6,89.2h-129.8l-32.1-57.3c-11-19.7-31.9-31.9-54.5-31.9h-171.2c-22.6,0-43.5,12.2-54.5,31.9l-32.1,57.3H62.6C28.1,89.2,0,117.3,0,151.8v364.4c0,34.5,28.1,62.6,62.6,62.6h604c34.5,0,62.6-28.1,62.6-62.6V151.8c0-34.5-28.1-62.6-62.6-62.6ZM364.6,447.5c-65.9,0-119.3-53.4-119.3-119.3s53.4-119.3,119.3-119.3,119.3,53.4,119.3,119.3c0,65.9-53.4,119.3-119.3,119.3ZM623.5,222c-15.1,0-27.4-12.3-27.4-27.4s12.3-27.4,27.4-27.4,27.4,12.3,27.4,27.4c0,15.1-12.3,27.4-27.4,27.4Z"/>
    </g>
  </g>
</svg>