<?xml version="1.0" encoding="UTF-8"?>
<svg xmlns="http://www.w3.org/2000/svg" version="1.1" viewBox="0 0 562 517.2">
  <!-- Generator: Adobe Illustrator 28.7.1, SVG Export Plug-In . SVG Version: 1.2.0 Build 142)  -->
  <g>
    <g id="Layer_1">
      <path d="M456.1,342.3c4,0,7.6-2.4,9.2-6l95.9-220.7c1.3-3.1,1-6.7-.8-9.5-1.9-2.8-5-4.5-8.4-4.5h-104.2C433.8,44.1,381.9,1.2,320.1,1.2s-117.2,45.7-129,106.2h-78.1L78.2,6.7c-1.4-4-5.2-6.7-9.5-6.7H10C4.5,0,0,4.5,0,10s4.5,10,10,10h51.6l108.6,314-.8,63.8c-28.3,4.9-49.9,29.5-49.9,59.2s27,60.2,60.2,60.2,54.4-21.8,59.2-50.2h150.8c4.8,28.5,29.4,50.2,59.2,50.2s60.2-27,60.2-60.2-27-60.2-60.2-60.2-54.4,21.8-59.2,50.2h-150.7c-4.3-25.3-24.2-45.1-49.5-49.2l.7-55.3h265.9v-.2ZM449,416.6c22.2,0,40.2,18,40.2,40.2s-18,40.2-40.2,40.2-40.2-18-40.2-40.2,18.1-40.2,40.2-40.2ZM320.1,21.2c61.5,0,111.6,50,111.6,111.6s-50,111.6-111.6,111.6-111.6-50-111.6-111.6,50.1-111.6,111.6-111.6ZM220,456.9c0,22.2-18,40.2-40.2,40.2s-40.2-18-40.2-40.2,18-40.2,40.2-40.2,40.2,18,40.2,40.2ZM187.4,322.3L120,127.4h68.9c-.1,1.8-.3,3.6-.3,5.4,0,72.5,59,131.6,131.6,131.6s131.6-59,131.6-131.6-.3-7.5-.6-11.1h85.6l-87.2,200.7H187.4ZM254.1,138.3c-4.1-3.7-4.5-10-.8-14.1,3.7-4.2,10-4.5,14.1-.8l34.7,30.7,73.6-63.4c4.2-3.6,10.5-3.1,14.1,1,3.6,4.2,3.1,10.5-1.1,14.1l-80.2,69.2c-1.9,1.6-4.2,2.4-6.5,2.4s-4.7-.8-6.6-2.5l-41.3-36.6Z"/>
    </g>
  </g>
</svg>