<?xml version="1.0" encoding="UTF-8"?>
<svg xmlns="http://www.w3.org/2000/svg" version="1.1" viewBox="0 0 615.4 615.4">
  <defs>
    <style>
      .cls-1 {
        fill: #040000;
      }
    </style>
  </defs>
  <!-- Generator: Adobe Illustrator 28.7.1, SVG Export Plug-In . SVG Version: 1.2.0 Build 142)  -->
  <g>
    <g id="Layer_1">
      <path class="cls-1" d="M307.7,0C138,0,0,138,0,307.7s138,307.7,307.7,307.7,307.7-138,307.7-307.7S477.4,0,307.7,0ZM307.7,590.4c-155.9,0-282.7-126.8-282.7-282.7S151.8,25,307.7,25s282.7,126.8,282.7,282.7-126.8,282.7-282.7,282.7ZM431.4,201.7l-106,106,106,106c4.9,4.9,4.9,12.8,0,17.7-2.4,2.4-5.6,3.7-8.8,3.7s-6.4-1.2-8.8-3.7l-106-106-106,106c-2.4,2.4-5.6,3.7-8.8,3.7s-6.4-1.2-8.8-3.7c-4.9-4.9-4.9-12.8,0-17.7l106-106-106-106c-4.9-4.9-4.9-12.8,0-17.7s12.8-4.9,17.7,0l106,106,106-106c4.9-4.9,12.8-4.9,17.7,0s4.9,12.8,0,17.7Z"/>
    </g>
  </g>
</svg>