<?xml version="1.0" encoding="UTF-8"?>
<svg xmlns="http://www.w3.org/2000/svg" version="1.1" viewBox="0 0 15.157 16.315">
  <!-- Generator: Adobe Illustrator 28.7.1, SVG Export Plug-In . SVG Version: 1.2.0 Build 142)  -->
  <g>
    <g id="Layer_1">
      <g>
        <path d="M11.938,11.593c-.739,0-1.341.602-1.341,1.341s.602,1.342,1.341,1.342,1.342-.602,1.342-1.342-.602-1.341-1.342-1.341ZM11.938,13.776c-.464,0-.841-.378-.841-.842s.377-.841.841-.841.842.377.842.841-.378.842-.842.842Z"/>
        <path d="M14.604,13.336c.02-.133.03-.268.03-.402,0-.134-.011-.269-.03-.401l.49-.553c.071-.081.083-.198.029-.291l-.514-.891c-.055-.093-.157-.14-.268-.12l-.728.149c-.21-.168-.441-.302-.69-.4l-.234-.703c-.034-.102-.13-.171-.237-.171h-1.028c-.107,0-.203.069-.237.171l-.234.703c-.249.099-.48.232-.69.4l-.728-.149c-.11-.02-.213.027-.268.12l-.514.891c-.054.093-.042.21.029.291l.49.553c-.02.133-.03.268-.03.401,0,.135.011.27.03.402l-.49.553c-.071.081-.083.198-.029.291l.514.89c.055.093.161.137.267.12l.728-.148c.211.167.442.302.691.4l.234.702c.034.103.13.171.237.171h1.028c.107,0,.203-.069.237-.171l.234-.703c.249-.098.48-.231.691-.399l.728.148c.104.017.212-.027.267-.12l.514-.89c.054-.093.042-.21-.029-.291l-.49-.553ZM14.134,12.934c0,.144-.015.287-.043.428-.016.077.006.157.058.216l.451.509-.333.577-.67-.137c-.078-.014-.156.005-.215.058-.218.19-.466.334-.737.427-.074.024-.133.083-.157.157l-.216.646h-.668l-.215-.646c-.024-.074-.083-.132-.156-.157-.272-.094-.521-.237-.738-.428-.059-.053-.138-.07-.215-.058l-.67.137-.333-.577.451-.509c.052-.059.073-.139.058-.216-.028-.141-.043-.284-.043-.428,0-.143.015-.286.043-.427.016-.077-.006-.157-.058-.216l-.451-.509.333-.578.669.138c.082.013.157-.006.216-.058.218-.19.466-.334.738-.428.073-.025.132-.083.156-.157l.216-.646h.667l.216.646c.024.074.083.132.156.157.272.094.521.237.738.428.059.052.135.071.216.058l.669-.138.333.578-.451.509c-.052.059-.073.139-.058.216.028.141.043.284.043.427Z"/>
        <path d="M10.316,8.912c.1-.096.104-.254.008-.354-.515-.538-1.133-.98-1.806-1.295.978-.771,1.549-1.931,1.549-3.186,0-2.248-1.829-4.077-4.077-4.077S1.913,1.829,1.913,4.077c0,1.254.571,2.415,1.549,3.186-2.088.976-3.462,3.101-3.462,5.425,0,1.192.97,2.163,2.163,2.163h4.704c.138,0,.25-.112.25-.25s-.112-.25-.25-.25H2.163c-.917,0-1.663-.746-1.663-1.663,0-2.271,1.432-4.335,3.563-5.136.089-.033.151-.114.161-.209.009-.095-.036-.187-.117-.237-1.061-.661-1.694-1.793-1.694-3.028,0-1.973,1.604-3.577,3.577-3.577s3.577,1.604,3.577,3.577c0,1.236-.634,2.368-1.694,3.028-.081.05-.126.142-.117.237.01.095.072.176.161.209.768.289,1.476.756,2.045,1.352.097.103.255.103.354.008Z"/>
      </g>
    </g>
  </g>
</svg>