<?xml version="1.0" encoding="UTF-8"?>
<svg xmlns="http://www.w3.org/2000/svg" version="1.1" viewBox="0 0 688.1 707.9">
  <defs>
    <style>
      .cls-1 {
        fill: #040000;
      }
    </style>
  </defs>
  <!-- Generator: Adobe Illustrator 28.7.1, SVG Export Plug-In . SVG Version: 1.2.0 Build 142)  -->
  <g>
    <g id="Layer_1">
      <g>
        <path class="cls-1" d="M672.3,391.9c-28.2-28.4-67.9-9.9-85.2,4.1-.6.5-62.3,52.6-122.4,106-6.2,5.5-11.8,10.3-17.1,14.6,0-16.1-3.8-29.8-12.1-40.7-16.6-21.6-43.5-23.2-45.2-23.2h-107.9c-65.6,0-127.4,0-184.1,20.7C22.3,501,1.5,560.5.7,563c-2.2,6.5,1.3,13.6,7.8,15.8,1.3.4,2.7.6,4.1.6,5.2,0,10-3.2,11.8-8.4.7-2,18.3-50.9,82.6-74.3,52.6-19.2,109.6-19.2,175.6-19.2h107.3c.2,0,16.5,1.1,26,13.5,7.6,9.9,9.2,24.8,5,44.4,0,.3.2.5.1.8-18.3,11.8-25.8,12.3-26.7,12.5h-120.2c-6.9,0-12.5,5.6-12.5,12.5s5.6,12.5,12.5,12.5l117.7-.2c7.4,1.4,30.8-.6,89.7-52.9,60.3-53.6,121.6-105.3,121.6-105.3,1.3-1,32.4-25.2,51.6-5.8,19.7,19.8-.3,48.9-.2,48.9l-185.3,193.1c-1.1,1.3-26.7,31.5-87.8,31.5h-197.6c-6.9,0-12.5,5.6-12.5,12.5s5.6,12.5,12.5,12.5h197.6c73.9,0,106-39.2,106.6-40l185.7-193.7c11.7-16.3,26.4-54.5-1.3-82.4Z"/>
        <path class="cls-1" d="M314.6,356.1c.4.4,1,.3,1.5.6.8.5,1.3,1.4,2.1,1.8,1.6.6,3.2,1,4.8,1,3.2,0,6.4-1.2,8.7-3.5l85.7-83.4c5-4.8,5-12.7.2-17.7-4.8-4.9-12.7-5-17.7-.2l-64.8,63.1-3.1-305.1c0-6.9-5.7-12.4-12.5-12.4h-.1c-6.9,0-12.5,5.7-12.4,12.6l3.1,305.5-66.8-61.4c-5-4.6-12.9-4.4-17.6.8-4.7,5.1-4.4,13,.8,17.6l88.1,80.9Z"/>
      </g>
    </g>
  </g>
</svg>