<?xml version="1.0" encoding="UTF-8"?>
<svg xmlns="http://www.w3.org/2000/svg" version="1.1" viewBox="0 0 720.6 739.5">
  <defs>
    <style>
      .cls-1 {
        fill: #040000;
      }
    </style>
  </defs>
  <!-- Generator: Adobe Illustrator 28.7.1, SVG Export Plug-In . SVG Version: 1.2.0 Build 142)  -->
  <g>
    <g id="Layer_1">
      <path class="cls-1" d="M708.1,400h-162.7c-6.9,0-12.5,5.6-12.5,12.5v314.5c0,6.9,5.6,12.5,12.5,12.5h162.7c6.9,0,12.5-5.6,12.5-12.5v-314.5c0-6.9-5.6-12.5-12.5-12.5ZM695.6,714.5h-137.7v-289.5h137.7v289.5ZM441.6,0h-162.7c-6.9,0-12.5,5.6-12.5,12.5v714.5c0,6.9,5.6,12.5,12.5,12.5h162.7c6.9,0,12.5-5.6,12.5-12.5V12.5c0-6.9-5.6-12.5-12.5-12.5ZM429.1,714.5h-137.7V25h137.7v689.5ZM175.1,150H12.5c-6.9,0-12.5,5.6-12.5,12.5v564.5c0,6.9,5.6,12.5,12.5,12.5h162.6c6.9,0,12.5-5.6,12.5-12.5V162.5c0-6.9-5.6-12.5-12.5-12.5ZM162.6,714.5H25V175h137.6v539.5Z"/>
    </g>
  </g>
</svg>