<?xml version="1.0" encoding="UTF-8"?>
<svg xmlns="http://www.w3.org/2000/svg" version="1.1" viewBox="0 0 563.9 343.6">
  <!-- Generator: Adobe Illustrator 28.7.1, SVG Export Plug-In . SVG Version: 1.2.0 Build 142)  -->
  <g>
    <g id="Layer_1">
      <path d="M196,343.6h-.8c-88.9-.8-98-80-104.7-137.8-1.3-11.2-2.6-22.4-4.4-33-5.2-18.8-12.8-31-20.7-33.6-9.7-3.1-23.6,6.1-25.9,8-10.4,8.5-25.6,6.9-34.1-3.4-8.5-10.3-6.9-25.6,3.4-34,3.6-2.9,35.7-28,71.4-16.6,25,8,42.9,31,52.9,68.1.2.7.4,1.5.5,2.2,2,11.8,3.5,24.3,4.9,36.8,7.7,67.2,15,94.6,57,94.9h.3c47.7,0,58.7-106.8,59.1-135.4C256.6,100.2,281.5,0,364.8,0s106.1,79.1,106.1,121c.2,6.2,3.6,26.1,16.1,35.1,9.8,7,25.2,7.4,45.8,1.3,12.8-3.9,26.3,3.4,30.1,16.2,3.8,12.8-3.4,26.3-16.2,30.1-35.9,10.8-65.7,7.9-88.3-8.6-33.8-24.6-35.8-68.6-35.9-73.6,0-7.9-2.2-73.1-57.7-73.1s-61.4,111.2-61.4,112.4c-.8,67.8-24.3,182.8-107.3,182.8Z"/>
    </g>
  </g>
</svg>