<?xml version="1.0" encoding="UTF-8"?>
<svg xmlns="http://www.w3.org/2000/svg" version="1.1" viewBox="0 0 834 834">
  <defs>
    <style>
      .cls-1 {
        fill: #040000;
      }
    </style>
  </defs>
  <!-- Generator: Adobe Illustrator 28.7.1, SVG Export Plug-In . SVG Version: 1.2.0 Build 142)  -->
  <g>
    <g id="Layer_1">
      <g>
        <path class="cls-1" d="M508.3,243.2c-10.2-8.6-22.6-15.3-37-20-14.4-4.7-30.6-7.1-48.5-7.1s-42.5,4.1-60.6,12.4c-18.1,8.2-33,17.8-44.7,28.8-4,3.7-6.1,7.8-6.3,12.3-.2,4.6,1.5,8.9,5.2,12.9,3.3,4,7.2,6.3,11.8,6.9,4.6.5,8.9-.8,12.9-4.1,10.6-9.5,22.3-17.4,35.1-23.6,12.8-6.2,28.5-9.3,47.2-9.3s42.8,5.8,56.2,17.5c13.3,11.7,20,27.2,20,46.6v4.4c0,6.6-.8,12.8-2.5,18.6-1.6,5.9-4.6,11.8-8.8,17.8-4.2,6-9.7,12.6-16.5,19.8s-15.1,15.1-25,23.9c-11.7,10.2-21,19.4-27.7,27.4-6.8,8-12.1,15.7-15.9,23.1s-6.3,14.8-7.4,22.5-1.6,16.1-1.6,25.2,2,9.6,6,12.1c4,2.5,8.6,3.8,13.7,3.8s9.1-1.3,12.9-3.8c3.8-2.5,5.8-6.4,5.8-11.5s.4-13.3,1.4-19c.9-5.7,3.1-11.5,6.6-17.5,3.5-6,8.5-12.7,15.1-20,6.6-7.3,15.5-16.1,26.9-26.3,19-16.8,33.2-32.5,42.8-46.9,9.5-14.5,14.3-30.8,14.3-49.1v-6c0-15-2.7-28.5-8-40.6s-13-22.3-23.3-30.9Z"/>
        <path class="cls-1" d="M413.4,567.5c-8.4,0-15.6,3-21.7,9.1-6,6-9.1,13.2-9.1,21.7s3,15.5,9.1,21.4c6,5.8,13.2,8.7,21.7,8.7s16.1-2.9,21.9-8.7c5.9-5.9,8.8-13,8.8-21.4s-2.9-15.7-8.8-21.7c-5.8-6-13.1-9.1-21.9-9.1Z"/>
        <path class="cls-1" d="M417,0C187.1,0,0,187.1,0,417s187.1,417,417,417,417-187.1,417-417S647,0,417,0ZM417,809c-216.2,0-392-175.8-392-392S200.9,25,417,25s392,175.9,392,392-175.9,392-392,392Z"/>
      </g>
    </g>
  </g>
</svg>