<?xml version="1.0" encoding="UTF-8"?>
<svg xmlns="http://www.w3.org/2000/svg" version="1.1" viewBox="0 0 717.5 763.5">
  <!-- Generator: Adobe Illustrator 28.7.1, SVG Export Plug-In . SVG Version: 1.2.0 Build 142)  -->
  <g>
    <g id="Layer_1">
      <path d="M716.4,165.2c-.2-.5.2-1,0-1.4,0-.2-.4-.2-.5-.4-1.2-2.4-3-4.4-5.5-5.6L379.9,1.2c-3.2-1.5-7.1-1.6-10.4-.2L7.5,159.5c-2.7,1.2-4.5,3.3-5.8,5.7-.1.3-.5.3-.6.6-.2.5.1,1.1,0,1.6-.4,1.2-1.1,2.2-1.1,3.5v411.2c0,4.8,2.7,9.1,7,11.2l346.6,168.8c1.7.8,3.6,1.3,5.5,1.3s.4-.1.7-.2c.1,0,.2.2.4.2.5,0,.8-.5,1.3-.5,1-.2,2.1-.2,3.1-.7l345.9-168.8c4.3-2.1,7-6.5,7-11.2V169.1c0-1.4-.7-2.6-1.1-3.8ZM374.3,26.2l301.1,142.7-137.3,63.4L233.3,88l141.1-61.7ZM360.1,314.4L43.3,171.1l159.6-69.9,305.7,144.6-148.5,68.5ZM25,190.3l322.6,145.9v395.2L25,574.4V190.3ZM372.6,730.4v-394.3l319.9-147.6v385.8l-319.9,156Z"/>
    </g>
  </g>
</svg>