<?xml version="1.0" encoding="UTF-8"?>
<svg xmlns="http://www.w3.org/2000/svg" version="1.1" viewBox="0 0 724.8 742.6">
  <defs>
    <style>
      .cls-1 {
        fill: #040000;
      }
    </style>
  </defs>
  <!-- Generator: Adobe Illustrator 28.7.1, SVG Export Plug-In . SVG Version: 1.2.0 Build 142)  -->
  <g>
    <g id="Layer_1">
      <path class="cls-1" d="M712.3,0H12.5C5.6,0,0,5.6,0,12.5v717.6c0,6.9,5.6,12.5,12.5,12.5h699.8c6.9,0,12.5-5.6,12.5-12.5V12.5c0-6.9-5.6-12.5-12.5-12.5ZM699.8,717.6H25V25h674.8v692.6h0ZM131.4,242.9c0-44.7,36.2-80.9,80.9-80.9s80.9,36.2,80.9,80.9-36.2,80.9-80.9,80.9-80.9-36.2-80.9-80.9ZM656.6,670.5H58.5v-106.5l151.3-150.7,124.9,108.9,217.1-198.3,104.8,118.8v227.9h0Z"/>
    </g>
  </g>
</svg>