<?xml version="1.0" encoding="UTF-8"?>
<svg xmlns="http://www.w3.org/2000/svg" version="1.1" viewBox="0 0 27.325 27.101">
  <!-- Generator: Adobe Illustrator 28.7.1, SVG Export Plug-In . SVG Version: 1.2.0 Build 142)  -->
  <g>
    <g id="Layer_1">
      <g>
        <path d="M6.274,8.825c1.372,0,2.537-.896,2.771-2.132.062-.326-.152-.64-.478-.701-.324-.063-.639.152-.701.478-.125.659-.81,1.155-1.592,1.155-.795,0-1.465-.486-1.592-1.155-.062-.325-.38-.544-.701-.478-.326.062-.54.375-.478.701.234,1.235,1.399,2.132,2.771,2.132Z"/>
        <path d="M21.052,8.825c1.371,0,2.537-.896,2.771-2.132.062-.326-.152-.64-.478-.701-.326-.062-.641.152-.702.478-.125.659-.81,1.155-1.592,1.155s-1.467-.497-1.592-1.155c-.062-.326-.375-.541-.702-.478-.325.062-.539.375-.478.701.234,1.235,1.4,2.132,2.771,2.132Z"/>
        <path d="M27.325,6.274c0-3.459-2.814-6.274-6.273-6.274-1.759,0-3.349.73-4.489,1.9h-5.756c-.013,0-.024.007-.037.007-1.141-1.174-2.733-1.907-4.496-1.907C2.815,0,0,2.814,0,6.274c0,.912.197,1.792.563,2.591v11.635c0,1.434,1.167,2.6,2.6,2.6h8.232l-.7,2.801h-2.531c-.332,0-.6.269-.6.6s.269.6.6.6h2.993s.005,0,.008,0c.002,0,.004,0,.006,0h4.988s.004,0,.006,0c.003,0,.005,0,.008,0h2.992c.331,0,.6-.269.6-.6s-.269-.6-.6-.6h-2.531l-.7-2.801h8.232c1.434,0,2.6-1.166,2.6-2.6v-11.619s-.002-.008-.002-.012c.367-.801.565-1.682.565-2.596ZM21.052,1.2c2.798,0,5.074,2.276,5.074,5.074,0,1.752-.899,3.358-2.404,4.296-.194.121-.303.341-.279.569.022.227.172.422.386.502.511.192,1.001.437,1.506.755.074.039.176.119.175.089.015.022.037.035.055.055v1.861c-.005.01-.015.017-.02.028-.057.129-.246.405-.256.419-1.24,1.918-4.401,3.651-7.363,4.032-.179.026-.542.063-.956.084.256-.336.326-.646.339-.813.048-.234.107-.848-.358-1.488-.135-.186-.313-.35-.511-.505.821-.077,1.479-.176,1.561-.19,2.177-.562,3.809-1.336,4.593-2.182.226-.243.212-.623-.031-.848-.242-.225-.623-.212-.848.032-.612.66-2.112,1.347-3.953,1.824-.024.004-2.128.319-3.492.248-.015-.034-.029-.067-.044-.101.009-.013.025-.019.034-.033.147-.25.639-.84.912-1.148.849-.942,1.923-1.675,3.106-2.119.214-.08.363-.275.386-.502.023-.228-.086-.448-.279-.569-1.505-.938-2.404-2.544-2.404-4.296,0-2.798,2.276-5.074,5.074-5.074ZM6.274,1.2c2.798,0,5.074,2.276,5.074,5.074,0,1.752-.898,3.358-2.404,4.296-.194.121-.302.341-.28.568.022.228.172.422.386.502,1.829.687,3.092,1.791,3.921,3.443-.409-.037-.835-.065-1.299-.073-3.751-.062-4.595-.984-5.154-1.595-.225-.245-.604-.261-.848-.038-.245.224-.262.604-.038.848.886.969,2.081,1.92,6.02,1.985,3.017.051,3.99.729,4.303,1.128.231.296.183.545.181.555-.02.065-.028.093-.025.161,0,.007-.022.168-.279.368-.528.412-2.066,1.016-6.44.456-3.122-.401-6.214-1.972-7.331-3.696,0,0-.129-.236-.262-.452-.009-.015-.025-.023-.035-.038v-2.134c.539-.375,1.119-.688,1.734-.92.214-.08.364-.275.386-.502.022-.227-.086-.447-.28-.568-1.505-.938-2.404-2.544-2.404-4.296C1.2,3.476,3.477,1.2,6.274,1.2ZM15.395,25.901h-3.463l.7-2.801h2.063l.7,2.801ZM24.163,21.901H3.163c-.772,0-1.4-.629-1.4-1.4v-3.813c1.617,1.663,4.496,2.998,7.475,3.381,1.226.158,2.318.236,3.272.236,1.012,0,1.87-.089,2.572-.265.025.009.045.025.071.031.392.083.846.11,1.279.11.87,0,1.652-.111,1.653-.112,2.854-.367,5.796-1.84,7.477-3.65v4.081c0,.771-.629,1.4-1.4,1.4Z"/>
      </g>
    </g>
  </g>
</svg>