<?xml version="1.0" encoding="UTF-8"?>
<svg xmlns="http://www.w3.org/2000/svg" version="1.1" viewBox="0 0 565.2 565.2">
  <defs>
    <style>
      .cls-1 {
        fill: #070404;
      }
    </style>
  </defs>
  <!-- Generator: Adobe Illustrator 28.7.1, SVG Export Plug-In . SVG Version: 1.2.0 Build 142)  -->
  <g>
    <g id="Layer_1">
      <path class="cls-1" d="M482.5,82.7c-110.3-110.2-289.6-110.2-399.8,0-110.2,110.2-110.2,289.6,0,399.8,53.3,53.3,124.3,82.7,199.9,82.7s146.6-29.4,199.9-82.7,82.7-124.3,82.7-199.9-29.4-146.6-82.7-199.9ZM440.8,358.1c-2.4,2.2-5.5,3.3-8.5,3.3s-6.7-1.3-9.2-4l-140.5-151.4-140.5,151.4c-4.7,5.1-12.6,5.3-17.6.7-5.1-4.7-5.4-12.7-.7-17.7l149.7-161.3c4.7-5.1,13.6-5.1,18.3,0l149.7,161.3c4.7,5,4.4,13-.7,17.7Z"/>
    </g>
  </g>
</svg>