<?xml version="1.0" encoding="UTF-8"?>
<svg xmlns="http://www.w3.org/2000/svg" version="1.1" viewBox="0 0 548.9 781.7">
  <defs>
    <style>
      .cls-1 {
        fill: #040000;
      }
    </style>
  </defs>
  <!-- Generator: Adobe Illustrator 28.7.1, SVG Export Plug-In . SVG Version: 1.2.0 Build 142)  -->
  <g>
    <g id="Layer_1">
      <path class="cls-1" d="M542.6,286.2c-5.9-3.5-13.6-1.5-17.1,4.6l-211.7,366.8c-3.6,6.2-89.5,151.2-215.2,78.7-36.4-21-59.6-49.3-68.9-84.1-18.6-69.7,23.8-143.8,24.2-144.6l212.3-367.7c.4-.9,43.7-91.6,106.3-111.2,22-6.8,43.4-4.1,65.2,8.5,18.3,10.6,29.7,25.5,34.9,45.5,16.5,64-37.3,154.5-38,155.6l-188.8,327.3c-5.8,13.6-26.8,50.7-53.3,59.5-10.9,3.7-21.9,2.2-33.4-4.5-8.7-5-14.2-12.1-16.5-21.6-6.9-27.5,13.2-68.4,21.7-82.2l188.3-326c3.4-6,1.4-13.6-4.6-17.1-5.9-3.5-13.7-1.5-17.1,4.6l-188.1,325.7c-1.4,2.3-35.4,57.7-24.5,101.1,4.1,16.2,13.6,28.8,28.3,37.3,17.8,10.2,36,12.5,53.8,6.5,42.6-14.2,67.4-71,67.8-72.1l188.1-325.8c2.4-4,59.8-100.4,40.7-174.5-6.8-26.6-22.5-47.1-46.6-61-27.9-16.1-56.5-19.7-85.2-10.7-73,22.9-119.5,120.3-120.9,123.5L32.4,495c-2,3.4-48,83.6-26.8,163.5,11,41.5,38.1,75,80.5,99.5,27.3,15.8,54.9,23.7,82.2,23.7s25.2-1.7,37.7-5c79.6-21.4,127.4-103.1,129.4-106.5l211.8-366.8c3.4-6,1.4-13.6-4.6-17.1Z"/>
    </g>
  </g>
</svg>