<?xml version="1.0" encoding="UTF-8"?>
<svg xmlns="http://www.w3.org/2000/svg" version="1.1" viewBox="0 0 15.277 15.105">
  <!-- Generator: Adobe Illustrator 28.7.1, SVG Export Plug-In . SVG Version: 1.2.0 Build 142)  -->
  <g>
    <g id="Layer_1">
      <g>
        <path d="M4.931,9.109h3.234c.584,0,1.059-.475,1.059-1.058,0-.965-.53-1.854-1.354-2.324.348-.346.546-.814.546-1.315,0-1.03-.837-1.868-1.867-1.868s-1.867.838-1.867,1.868c0,.501.199.969.546,1.315-.824.47-1.354,1.359-1.354,2.324,0,.583.475,1.058,1.059,1.058ZM5.785,6.015c.089-.033.151-.114.161-.209.01-.095-.036-.187-.116-.237-.406-.253-.648-.686-.648-1.158,0-.754.613-1.368,1.367-1.368s1.367.614,1.367,1.368c0,.472-.242.905-.648,1.157-.081.051-.126.143-.117.237.01.095.072.176.161.209.845.317,1.412,1.135,1.412,2.036,0,.308-.251.558-.559.558h-3.234c-.308,0-.559-.25-.559-.558,0-.9.567-1.718,1.412-2.036Z"/>
        <path d="M8.737,3.059c.066-.01.134-.015.203-.015.754,0,1.367.614,1.367,1.368,0,.472-.242.904-.647,1.158-.081.05-.126.142-.117.237.01.095.072.176.161.209.845.317,1.412,1.135,1.412,2.036,0,.308-.251.558-.559.558h-.655c-.138,0-.25.112-.25.25s.112.25.25.25h.655c.584,0,1.059-.475,1.059-1.058,0-.965-.53-1.854-1.354-2.324.347-.346.546-.814.546-1.315,0-1.03-.838-1.868-1.867-1.868-.093,0-.184.007-.273.02-.137.02-.232.146-.212.283.019.136.147.228.282.212Z"/>
        <path d="M15.027,0H.25c-.138,0-.25.112-.25.25v11.154c0,.138.112.25.25.25h7.138v2.951h-2.819c-.138,0-.25.112-.25.25s.112.25.25.25h6.139c.138,0,.25-.112.25-.25s-.112-.25-.25-.25h-2.819v-2.951h7.139c.138,0,.25-.112.25-.25V.25c0-.138-.112-.25-.25-.25ZM14.777,11.154H.5V.5h14.277v10.654Z"/>
      </g>
    </g>
  </g>
</svg>