<?xml version="1.0" encoding="UTF-8"?>
<svg xmlns="http://www.w3.org/2000/svg" version="1.1" viewBox="0 0 763.8 729.1">
  <!-- Generator: Adobe Illustrator 28.7.1, SVG Export Plug-In . SVG Version: 1.2.0 Build 142)  -->
  <g>
    <g id="Layer_1">
      <path d="M394.4,512.5c0,6.9-5.6,12.5-12.5,12.5h-153.7c-6.9,0-12.5-5.6-12.5-12.5s5.6-12.5,12.5-12.5h153.7c6.9,0,12.5,5.6,12.5,12.5ZM381.9,580.8h-153.7c-6.9,0-12.5,5.6-12.5,12.5s5.6,12.5,12.5,12.5h153.7c6.9,0,12.5-5.6,12.5-12.5s-5.6-12.5-12.5-12.5ZM763.8,196.3v288.3c0,29-23.6,52.5-52.5,52.5h-67.6v179.5c0,6.9-5.6,12.5-12.5,12.5H132.6c-6.9,0-12.5-5.6-12.5-12.5v-179.5H52.5c-29,0-52.5-23.6-52.5-52.5V196.3c0-29,23.5-52.5,52.5-52.5h67.6V12.5c0-6.9,5.6-12.5,12.5-12.5h498.5c6.9,0,12.5,5.6,12.5,12.5v131.2h67.6c29,0,52.5,23.6,52.5,52.5ZM145.1,143.8h473.5V25H145.1v118.8ZM618.7,524.6v-103.7l-473.5-1.6v284.7h473.5v-179.5ZM738.8,196.3c0-15.2-12.3-27.5-27.5-27.5H52.5c-15.2,0-27.5,12.4-27.5,27.5v288.3c0,15.2,12.3,27.5,27.5,27.5h67.6v-105.2c0-3.3,1.3-6.5,3.7-8.9s5.8-3.5,8.9-3.6l498.5,1.6c6.9,0,12.5,5.6,12.5,12.5v103.6h67.6c15.2,0,27.5-12.3,27.5-27.5V196.3h0ZM631.2,254.9c-15.8,0-28.6,12.8-28.6,28.6s12.8,28.6,28.6,28.6,28.6-12.8,28.6-28.6-12.8-28.6-28.6-28.6Z"/>
    </g>
  </g>
</svg>