<?xml version="1.0" encoding="UTF-8"?>
<svg xmlns="http://www.w3.org/2000/svg" version="1.1" viewBox="0 0 520 553.3">
  <defs>
    <style>
      .cls-1 {
        fill: #040000;
      }
    </style>
  </defs>
  <!-- Generator: Adobe Illustrator 28.7.1, SVG Export Plug-In . SVG Version: 1.2.0 Build 142)  -->
  <g>
    <g id="Layer_1">
      <path class="cls-1" d="M364,215.2c0,5.5-4.5,10-10,10h-188c-5.5,0-10-4.5-10-10s4.5-10,10-10h188c5.5,0,10,4.5,10,10ZM354,265.6h-188c-5.5,0-10,4.5-10,10s4.5,10,10,10h188c5.5,0,10-4.5,10-10s-4.5-10-10-10ZM254,326.1h-88c-5.5,0-10,4.5-10,10s4.5,10,10,10h88c5.5,0,10-4.5,10-10s-4.5-10-10-10ZM520,103.3v320c0,27.6-22.4,50-50,50h-167.2l15,60h52.2c5.5,0,10,4.5,10,10s-4.5,10-10,10h-220c-5.5,0-10-4.5-10-10s4.5-10,10-10h52.2l15-60H50c-27.6,0-50-22.4-50-50V103.3c0-27.6,22.4-50,50-50h18.7V10c0-5.5,4.5-10,10-10h247.5c.5,0,.9.2,1.3.3.4,0,.8.1,1.2.2,1.7.4,3.3,1.2,4.5,2.4l50.4,50.4h86.4c27.6,0,50,22.4,50,50ZM376.7,74.6l-40.5-40.5v81h81l-40.5-40.5ZM50,453.3h18.7V73.3h-18.7c-16.5,0-30,13.5-30,30v320c0,16.5,13.5,30,30,30ZM282.2,473.3h-44.4l-15,60h74.4l-15-60ZM431.3,453.3V135.1h-105.1c-5.5,0-10-4.5-10-10V20H88.7v433.3h342.6ZM500,103.3c0-16.5-13.5-30-30-30h-66.4l44.8,44.8c1.3,1.3,2,2.9,2.4,4.5.1.4.2.8.2,1.2,0,.4.3.9.3,1.3v328.2h18.7c16.5,0,30-13.5,30-30V103.3Z"/>
    </g>
  </g>
</svg>