<?xml version="1.0" encoding="UTF-8"?>
<svg xmlns="http://www.w3.org/2000/svg" version="1.1" viewBox="0 0 742.9 742.9">
  <defs>
    <style>
      .cls-1 {
        fill: #010101;
      }
    </style>
  </defs>
  <!-- Generator: Adobe Illustrator 28.7.1, SVG Export Plug-In . SVG Version: 1.2.0 Build 142)  -->
  <g>
    <g id="Layer_1">
      <path class="cls-1" d="M406.9,370.7c0,19.5-15.8,35.2-35.2,35.2s-9.9-1.2-14.4-3.2l-98.4,98.4c-2.4,2.4-5.6,3.7-8.8,3.7s-6.4-1.2-8.8-3.7c-4.9-4.9-4.9-12.8,0-17.7l98.4-98.4c-2-4.4-3.2-9.2-3.2-14.3,0-15,9.5-27.6,22.7-32.7v-203.6c0-6.9,5.6-12.5,12.5-12.5s12.5,5.6,12.5,12.5v203.6c13.2,5.1,22.7,17.7,22.7,32.7ZM742.9,371.5c0,204.8-166.7,371.5-371.5,371.5S0,576.3,0,371.5,166.6,0,371.5,0s371.5,166.6,371.5,371.5ZM717.9,371.5c0-191-155.4-346.5-346.5-346.5S25,180.4,25,371.5s155.4,346.5,346.5,346.5,346.5-155.4,346.5-346.5Z"/>
    </g>
  </g>
</svg>