<?xml version="1.0" encoding="UTF-8"?>
<svg xmlns="http://www.w3.org/2000/svg" version="1.1" viewBox="0 0 742.9 742.9">
  <defs>
    <style>
      .cls-1 {
        fill: #010101;
      }
    </style>
  </defs>
  <!-- Generator: Adobe Illustrator 28.7.1, SVG Export Plug-In . SVG Version: 1.2.0 Build 142)  -->
  <g>
    <g id="Layer_1">
      <path class="cls-1" d="M371.5,0C166.6,0,0,166.6,0,371.5s166.6,371.5,371.5,371.5,371.5-166.6,371.5-371.5S576.3,0,371.5,0ZM409.2,370.7c0,4.9-1,9.8-2.9,14.3-1.9,4.6-4.6,8.7-8.1,12.2l-121.6,121.6c-7.3,7.3-16.9,11-26.5,11s-19.2-3.7-26.5-11c-14.6-14.7-14.6-38.4,0-53l110.6-110.6v-205.4c0-20.7,16.8-37.5,37.5-37.5s37.5,16.8,37.5,37.5v220.9h0Z"/>
    </g>
  </g>
</svg>