<?xml version="1.0" encoding="UTF-8"?>
<svg xmlns="http://www.w3.org/2000/svg" version="1.1" viewBox="0 0 828.7 842.6">
  <defs>
    <style>
      .cls-1 {
        fill: #040000;
      }
    </style>
  </defs>
  <!-- Generator: Adobe Illustrator 28.7.1, SVG Export Plug-In . SVG Version: 1.2.0 Build 142)  -->
  <g>
    <g id="Layer_1">
      <path class="cls-1" d="M431.5,328.8h-210.6c-6.9,0-12.5-5.6-12.5-12.5s5.6-12.5,12.5-12.5h210.6c6.9,0,12.5,5.6,12.5,12.5s-5.6,12.5-12.5,12.5ZM353.1,421.3c0-6.9-5.6-12.5-12.5-12.5h-119.6c-6.9,0-12.5,5.6-12.5,12.5s5.6,12.5,12.5,12.5h119.6c6.9,0,12.5-5.6,12.5-12.5ZM221,513.8c-6.9,0-12.5,5.6-12.5,12.5s5.6,12.5,12.5,12.5h27.8c6.9,0,12.5-5.6,12.5-12.5s-5.6-12.5-12.5-12.5h-27.8ZM66.5,721.3c6.9,0,12.5-5.6,12.5-12.5V75h618.1c6.9,0,12.5-5.6,12.5-12.5s-5.6-12.5-12.5-12.5H66.5c-6.9,0-12.5,5.6-12.5,12.5v646.3c0,6.9,5.6,12.5,12.5,12.5ZM825.1,21.3l-46.4,47.2v711.6c0,6.9-5.6,12.5-12.5,12.5H66.9l-45.5,46.2c-2.4,2.5-5.7,3.8-8.9,3.8s-6.3-1.2-8.8-3.6c-4.9-4.9-5-12.8-.2-17.7L756.8,55.1c.6-.8,1.2-1.4,2-2l48.5-49.3c4.9-5,12.8-5,17.7-.2,4.9,4.8,5,12.7.2,17.7ZM753.7,93.9l-206.3,209.9h64.3c6.9,0,12.5,5.6,12.5,12.5s-5.6,12.5-12.5,12.5h-88.8l-78.7,80h167.5c6.9,0,12.5,5.6,12.5,12.5s-5.6,12.5-12.5,12.5h-192.1l-78.6,80h270.7c6.9,0,12.5,5.6,12.5,12.5s-5.6,12.5-12.5,12.5h-294.6c-.2,0-.3-.2-.5-.2l-225.1,229h662.3V93.9h0Z"/>
    </g>
  </g>
</svg>