<?xml version="1.0" encoding="UTF-8"?>
<svg xmlns="http://www.w3.org/2000/svg" version="1.1" viewBox="0 0 738.8 729.1">
  <!-- Generator: Adobe Illustrator 28.7.1, SVG Export Plug-In . SVG Version: 1.2.0 Build 142)  -->
  <g>
    <g id="Layer_1">
      <path d="M381.9,512.5c0,6.9-5.6,12.5-12.5,12.5h-153.7c-6.9,0-12.5-5.6-12.5-12.5s5.6-12.5,12.5-12.5h153.7c6.9,0,12.5,5.6,12.5,12.5ZM369.4,580.8h-153.7c-6.9,0-12.5,5.6-12.5,12.5s5.6,12.5,12.5,12.5h153.7c6.9,0,12.5-5.6,12.5-12.5s-5.6-12.5-12.5-12.5ZM738.8,196.3v288.4c0,22.1-17.9,40-40,40h-67.7v192c0,6.9-5.6,12.5-12.5,12.5H120.2c-6.9,0-12.5-5.6-12.5-12.5v-192H40c-22.1,0-40-17.9-40-40V196.3c0-22.1,17.9-40,40-40h67.6V12.5c0-6.9,5.6-12.5,12.5-12.5h498.5c6.9,0,12.5,5.6,12.5,12.5v143.8h67.7c22.1,0,40,17.9,40,40ZM132.7,156.3h473.5V25H132.7v131.3ZM606.2,704.1v-295.7l-473.5-1.5v297.2h473.5ZM653.5,283.5c0-19.2-15.6-34.8-34.8-34.8s-34.8,15.6-34.8,34.8,15.6,34.8,34.8,34.8,34.8-15.6,34.8-34.8Z"/>
    </g>
  </g>
</svg>