<?xml version="1.0" encoding="UTF-8"?>
<svg xmlns="http://www.w3.org/2000/svg" version="1.1" viewBox="0 0 697.3 873.4">
  <defs>
    <style>
      .cls-1 {
        fill: #040000;
      }
    </style>
  </defs>
  <!-- Generator: Adobe Illustrator 28.7.1, SVG Export Plug-In . SVG Version: 1.2.0 Build 142)  -->
  <g>
    <g id="Layer_1">
      <path class="cls-1" d="M333.4,787.5H25V25h405v187.5c0,6.9,5.6,12.5,12.5,12.5h187.5v283.7c0,6.9,5.6,12.5,12.5,12.5s12.5-5.6,12.5-12.5V212.5c0-.4-.4-.6-.4-.9-.2-2.9-1.1-5.8-3.3-7.9L451.4,3.7c-2.2-2.2-5-3.1-7.9-3.3-.3,0-.6-.4-.9-.4H12.5C5.6,0,0,5.6,0,12.5v787.5c0,6.9,5.6,12.5,12.5,12.5h320.9c6.9,0,12.5-5.6,12.5-12.5s-5.6-12.5-12.5-12.5ZM612.4,200h-157.3V42.7l157.3,157.3ZM409.2,406.2c0,6.9-5.6,12.5-12.5,12.5h-226.7c-6.9,0-12.5-5.6-12.5-12.5s5.6-12.5,12.5-12.5h226.7c6.9,0,12.5,5.6,12.5,12.5ZM409.2,511.2c0,6.9-5.6,12.5-12.5,12.5h-226.7c-6.9,0-12.5-5.6-12.5-12.5s5.6-12.5,12.5-12.5h226.7c6.9,0,12.5,5.6,12.5,12.5ZM693.6,713.7l-156,156.1c-2.4,2.4-5.6,3.7-8.8,3.7s-6.4-1.2-8.8-3.7l-156.1-156.1c-4.9-4.9-4.9-12.8,0-17.7s12.8-4.9,17.7,0l134.7,134.7v-424.5c0-6.9,5.6-12.5,12.5-12.5s12.5,5.6,12.5,12.5v424.5l134.7-134.7c4.9-4.9,12.8-4.9,17.7,0s4.9,12.8,0,17.7Z"/>
    </g>
  </g>
</svg>