<?xml version="1.0" encoding="UTF-8"?>
<svg xmlns="http://www.w3.org/2000/svg" version="1.1" viewBox="0 0 834 834">
  <defs>
    <style>
      .cls-1 {
        fill: #040000;
      }
    </style>
  </defs>
  <!-- Generator: Adobe Illustrator 28.7.1, SVG Export Plug-In . SVG Version: 1.2.0 Build 142)  -->
  <g>
    <g id="Layer_1">
      <g>
        <path class="cls-1" d="M417,0C187.1,0,0,187.1,0,417s187.1,417,417,417,417-187.1,417-417S647,0,417,0ZM417,809c-216.2,0-392-175.8-392-392S200.9,25,417,25s392,175.9,392,392-175.9,392-392,392Z"/>
        <path class="cls-1" d="M417,167c-6.9,0-12.5,5.6-12.5,12.5v300c0,6.9,5.6,12.5,12.5,12.5s12.5-5.6,12.5-12.5V179.5c0-6.9-5.6-12.5-12.5-12.5Z"/>
        <path class="cls-1" d="M417,567c-6.9,0-12.5,5.6-12.5,12.5v75c0,6.9,5.6,12.5,12.5,12.5s12.5-5.6,12.5-12.5v-75c0-6.9-5.6-12.5-12.5-12.5Z"/>
      </g>
    </g>
  </g>
</svg>