<?xml version="1.0" encoding="UTF-8"?>
<svg xmlns="http://www.w3.org/2000/svg" version="1.1" viewBox="0 0 828.7 842.6">
  <defs>
    <style>
      .cls-1 {
        fill: #040000;
      }
    </style>
  </defs>
  <!-- Generator: Adobe Illustrator 28.7.1, SVG Export Plug-In . SVG Version: 1.2.0 Build 142)  -->
  <g>
    <g id="Layer_1">
      <path class="cls-1" d="M97.3,637.8V42.6c0-6.9,5.6-12.5,12.5-12.5h577.4c6.9,0,12.5,5.6,12.5,12.5s-5.6,12.5-12.5,12.5H122.3v582.7c0,6.9-5.6,12.5-12.5,12.5s-12.5-5.6-12.5-12.5ZM477.6,297.1c0-6.9-5.6-12.5-12.5-12.5h-197.8c-6.9,0-12.5,5.6-12.5,12.5s5.6,12.5,12.5,12.5h197.8c6.9,0,12.5-5.6,12.5-12.5ZM267.3,389.6c-6.9,0-12.5,5.6-12.5,12.5s5.6,12.5,12.5,12.5h98.9c6.9,0,12.5-5.6,12.5-12.5s-5.6-12.5-12.5-12.5h-98.9ZM212.7,807.6c-6.9,0-12.5,5.6-12.5,12.5v10c0,6.9,5.6,12.5,12.5,12.5s12.5-5.6,12.5-12.5v-10c0-6.9-5.6-12.5-12.5-12.5ZM315.6,807.6c-6.9,0-12.5,5.6-12.5,12.5v10c0,6.9,5.6,12.5,12.5,12.5s12.5-5.6,12.5-12.5v-10c0-6.9-5.6-12.5-12.5-12.5ZM418.4,807.6c-6.9,0-12.5,5.6-12.5,12.5v10c0,6.9,5.6,12.5,12.5,12.5s12.5-5.6,12.5-12.5v-10c0-6.9-5.6-12.5-12.5-12.5ZM521.3,807.6c-6.9,0-12.5,5.6-12.5,12.5v10c0,6.9,5.6,12.5,12.5,12.5s12.5-5.6,12.5-12.5v-10c0-6.9-5.6-12.5-12.5-12.5ZM624.2,807.6c-6.9,0-12.5,5.6-12.5,12.5v10c0,6.9,5.6,12.5,12.5,12.5s12.5-5.6,12.5-12.5v-10c0-6.9-5.6-12.5-12.5-12.5ZM824.9,3.6c-4.8-4.8-12.7-4.8-17.7.2L101,722.3s0,0,0,0L3.6,821.3c-4.8,4.9-4.8,12.8.2,17.7,2.4,2.4,5.6,3.6,8.8,3.6s6.5-1.3,8.9-3.8l75.9-77.2v68.4c0,6.9,5.6,12.5,12.5,12.5s12.5-5.6,12.5-12.5v-93.9l316.1-321.6h155.5c6.9,0,12.5-5.6,12.5-12.5s-5.6-12.5-12.5-12.5h-131l78.7-80h52.3c6.9,0,12.5-5.6,12.5-12.5s-5.6-12.5-12.5-12.5h-27.7l161.1-163.9v709.3c0,6.9,5.6,12.5,12.5,12.5s12.5-5.6,12.5-12.5V95.4l72.8-74.1c4.8-4.9,4.8-12.9-.2-17.7Z"/>
    </g>
  </g>
</svg>