<?xml version="1.0" encoding="UTF-8"?>
<svg xmlns="http://www.w3.org/2000/svg" version="1.1" viewBox="0 0 22.056 23.008">
  <!-- Generator: Adobe Illustrator 28.7.1, SVG Export Plug-In . SVG Version: 1.2.0 Build 142)  -->
  <g>
    <g id="Layer_1">
      <g>
        <path d="M4.901,5.32h2.917c.276,0,.5-.224.5-.5s-.224-.5-.5-.5h-2.917c-.276,0-.5.224-.5.5s.224.5.5.5Z"/>
        <path d="M4.901,8.255h2.917c.276,0,.5-.224.5-.5s-.224-.5-.5-.5h-2.917c-.276,0-.5.224-.5.5s.224.5.5.5Z"/>
        <path d="M4.901,11.189h2.917c.276,0,.5-.224.5-.5s-.224-.5-.5-.5h-2.917c-.276,0-.5.224-.5.5s.224.5.5.5Z"/>
        <path d="M18.19,13.078c1.056-.946,1.666-2.286,1.666-3.727,0-1.26-.482-2.399-1.25-3.283V.5c0-.276-.224-.5-.5-.5H.5C.224,0,0,.224,0,.5v22.008c0,.276.224.5.5.5h17.606c.276,0,.5-.224.5-.5s-.224-.5-.5-.5H1V1h16.606v4.164c-.797-.531-1.752-.844-2.78-.844-2.774,0-5.031,2.257-5.031,5.031,0,1.44.61,2.78,1.667,3.727-2.091,1.085-3.543,3.12-3.862,5.487-.037.273.155.525.429.562.283.045.525-.155.562-.429.31-2.293,1.852-4.226,4.025-5.042.179-.066.303-.229.321-.418.02-.189-.071-.373-.232-.475-1.196-.745-1.91-2.021-1.91-3.412,0-2.223,1.809-4.031,4.031-4.031s4.03,1.808,4.03,4.031c0,1.392-.714,2.668-1.909,3.412-.161.102-.252.285-.232.475.019.189.143.352.321.418,2.173.816,3.715,2.749,4.025,5.043.033.251.248.433.494.433.022,0,.045,0,.068-.005.273-.036.465-.288.428-.562-.319-2.366-1.771-4.401-3.861-5.486Z"/>
        <path d="M17.757,9.681c.052-.271-.127-.533-.398-.584-.266-.051-.532.126-.584.398-.157.827-.975,1.427-1.943,1.427s-1.785-.6-1.942-1.427c-.052-.272-.319-.448-.584-.398-.271.051-.45.313-.398.584.246,1.298,1.477,2.241,2.925,2.241s2.68-.942,2.926-2.241Z"/>
      </g>
    </g>
  </g>
</svg>