<?xml version="1.0" encoding="UTF-8"?>
<svg xmlns="http://www.w3.org/2000/svg" version="1.1" viewBox="0 0 729.2 784.2">
  <defs>
    <style>
      .cls-1 {
        fill: #040000;
      }
    </style>
  </defs>
  <!-- Generator: Adobe Illustrator 28.7.1, SVG Export Plug-In . SVG Version: 1.2.0 Build 142)  -->
  <g>
    <g id="Layer_1">
      <g>
        <path class="cls-1" d="M716.6,94.7h-241.1V12.5c0-6.9-5.6-12.5-12.5-12.5h-197c-6.9,0-12.5,5.6-12.5,12.5v82.2H12.5c-6.9,0-12.5,5.6-12.5,12.5v318.6c0,6.9,5.6,12.5,12.5,12.5h222.5c6.9,0,12.5-5.6,12.5-12.5s-5.6-12.5-12.5-12.5H25V119.7h679.2v293.6h-223.1c-6.9,0-12.5,5.6-12.5,12.5s5.6,12.5,12.5,12.5h235.5c6.9,0,12.5-5.6,12.5-12.5V107.2c0-6.9-5.6-12.5-12.5-12.5ZM278.5,25h172v69.7h-172V25Z"/>
        <path class="cls-1" d="M716.6,521.7c-6.9,0-12.5,5.6-12.5,12.5v225H25v-225c0-6.9-5.6-12.5-12.5-12.5s-12.5,5.6-12.5,12.5v237.5c0,6.9,5.6,12.5,12.5,12.5h704.2c6.9,0,12.5-5.6,12.5-12.5v-237.5c0-6.9-5.6-12.5-12.5-12.5Z"/>
        <path class="cls-1" d="M377.1,560v-180.3c0-6.9-5.6-12.5-12.5-12.5s-12.5,5.6-12.5,12.5v180.3c0,6.9,5.6,12.5,12.5,12.5s12.5-5.6,12.5-12.5Z"/>
      </g>
    </g>
  </g>
</svg>