<?xml version="1.0" encoding="UTF-8"?>
<svg xmlns="http://www.w3.org/2000/svg" version="1.1" viewBox="0 0 807.3 818.1">
  <!-- Generator: Adobe Illustrator 28.7.1, SVG Export Plug-In . SVG Version: 1.2.0 Build 142)  -->
  <g>
    <g id="Layer_1">
      <path d="M722.4,501.1c0-.4.5-.7.5-1.1V12.5c0-6.9-5.6-12.5-12.5-12.5H80.4c-6.9,0-12.5,5.6-12.5,12.5v213.7c0,6.9,5.6,12.5,12.5,12.5s12.5-5.6,12.5-12.5V25h605v472.3c-94.4-11.1-215.6,8.2-215.6,58.3v200c0,12.5,8.3,23,21.2,31.8H92.9v-242.3c0-6.9-5.6-12.5-12.5-12.5s-12.5,5.6-12.5,12.5v254.8c0,6.9,5.6,12.5,12.5,12.5h482.9c1.5,0,2.5-1.1,3.9-1.6,24,4.7,50.7,7.3,77.6,7.3,80.8,0,162.5-21.5,162.5-62.5v-200c0-27.4-36.6-45.5-84.9-54.5ZM782.3,655.6c0,12.7-48.5,37.5-137.5,37.5s-137.5-24.8-137.5-37.5v-65.6c30.2,18.4,83.8,28.1,137.5,28.1s107.2-9.7,137.5-28.1v65.6ZM644.8,518.1c89,0,137.5,24.8,137.5,37.5s-48.5,37.5-137.5,37.5-137.5-24.8-137.5-37.5,48.5-37.5,137.5-37.5ZM644.8,793.1c-89,0-137.5-24.8-137.5-37.5v-65.6c30.2,18.4,83.8,28.1,137.5,28.1s107.2-9.7,137.5-28.1v65.6c0,12.7-48.5,37.5-137.5,37.5ZM377.3,401.6H12.5c-6.9,0-12.5-5.6-12.5-12.5s5.6-12.5,12.5-12.5h364.8l-84.7-84.7c-4.9-4.9-4.9-12.8,0-17.7s12.8-4.9,17.7,0l106.1,106c2.3,2.3,3.7,5.4,3.7,8.8s-1.4,6.6-3.7,8.8l-106.1,106.1c-2.4,2.4-5.6,3.7-8.8,3.7s-6.4-1.2-8.8-3.7c-4.9-4.9-4.9-12.8,0-17.7l84.7-84.7Z"/>
    </g>
  </g>
</svg>