<?xml version="1.0" encoding="UTF-8"?>
<svg xmlns="http://www.w3.org/2000/svg" version="1.1" viewBox="0 0 796.3 715.9">
  <defs>
    <style>
      .cls-1 {
        fill: #040000;
      }
    </style>
  </defs>
  <!-- Generator: Adobe Illustrator 28.7.1, SVG Export Plug-In . SVG Version: 1.2.0 Build 142)  -->
  <g>
    <g id="Layer_1">
      <path class="cls-1" d="M421.6,536.9c6.5,6.3,9.8,14.1,9.8,23.2s-3.3,18.3-9.9,24.2-14.3,8.8-23.1,8.8-16.8-2.9-23.4-8.7c-6.7-5.8-10-13.9-10-24.3s3.2-16.8,9.6-23.2c6.4-6.4,14.2-9.6,23.4-9.6s17.1,3.2,23.6,9.6ZM399.7,260.4c-10.4,0-18.8,3.4-25.1,10.2-6.4,6.8-9.6,16.3-9.6,28.4s.7,23.7,2,44.2l7,105.2c1.3,13.6,3.5,23.8,6.6,30.4s8.6,10,16.5,10,13.3-3.4,16.7-10.3,5.6-16.8,6.6-29.7l9.5-108.3c1-10,1.5-19.8,1.5-29.4,0-16.4-2.1-29-6.4-37.7-4.2-8.7-12.7-13.1-25.3-13.1ZM785.8,671.5c-16.5,28.6-50.2,44.4-94.7,44.4H105.2c-44.6,0-78.2-15.8-94.8-44.4-16.5-28.6-13.3-65.6,8.9-104.2L312.4,59.8C334.6,21.2,365.1,0,398.1,0c33.1,0,63.6,21.2,85.9,59.8l293,507.4c22.3,38.6,25.4,75.6,8.8,104.2ZM755.3,579.7L462.3,72.3c-17.6-30.5-40.4-47.3-64.2-47.3-23.8,0-46.5,16.8-64.2,47.3L41,579.7c-17.6,30.5-20.8,58.6-8.9,79.2,11.9,20.6,37.8,31.9,73.1,31.9h585.9c35.2,0,61.2-11.3,73-31.9,11.9-20.6,8.7-48.7-8.9-79.2Z"/>
    </g>
  </g>
</svg>