<?xml version="1.0" encoding="UTF-8"?>
<svg xmlns="http://www.w3.org/2000/svg" version="1.1" viewBox="0 0 650 730.4">
  <defs>
    <style>
      .cls-1 {
        fill: #040000;
      }
    </style>
  </defs>
  <!-- Generator: Adobe Illustrator 28.7.1, SVG Export Plug-In . SVG Version: 1.2.0 Build 142)  -->
  <g>
    <g id="Layer_1">
      <path class="cls-1" d="M537.5,225.4h-39.1v-49.6c0-.5-.4-.7-.5-1.2,0-.5.5-.7.5-1.2C498.4,77.8,420.7,0,325,0s-173.4,77.8-173.4,173.4v52h-39.1C50.5,225.4,0,275.9,0,337.9v280c0,62,50.5,112.5,112.5,112.5h425c62,0,112.5-50.5,112.5-112.5v-280c0-62-50.5-112.5-112.5-112.5ZM176.6,173.4c0-81.8,66.6-148.4,148.4-148.4s148.4,66.6,148.4,148.4.4.7.5,1.2c0,.5-.5.7-.5,1.2v49.6H176.6v-52ZM625,617.9c0,48.2-39.3,87.5-87.5,87.5H112.5c-48.2,0-87.5-39.3-87.5-87.5v-280c0-48.2,39.3-87.5,87.5-87.5h425c48.2,0,87.5,39.3,87.5,87.5v280ZM375.1,430.8c0,23.2-16.1,41.9-37.6,47.6v96.7c0,6.9-5.6,12.5-12.5,12.5s-12.5-5.6-12.5-12.5v-96.7c-21.5-5.7-37.6-24.3-37.6-47.6s22.4-50.1,50.1-50.1,50.1,22.4,50.1,50.1Z"/>
    </g>
  </g>
</svg>