<?xml version="1.0" encoding="UTF-8"?>
<svg xmlns="http://www.w3.org/2000/svg" version="1.1" viewBox="0 0 615.4 615.4">
  <defs>
    <style>
      .cls-1 {
        fill: #040000;
      }
    </style>
  </defs>
  <!-- Generator: Adobe Illustrator 28.7.1, SVG Export Plug-In . SVG Version: 1.2.0 Build 142)  -->
  <g>
    <g id="Layer_1">
      <path class="cls-1" d="M307.7,0C138,0,0,138,0,307.7s138,307.7,307.7,307.7,307.7-138,307.7-307.7c0-169.6-138-307.7-307.7-307.7ZM263.3,410.4c0,6.9-5.6,12.5-12.5,12.5s-12.5-5.6-12.5-12.5v-21.3l-72.8,72.8c-2.4,2.4-5.6,3.7-8.8,3.7s-6.4-1.2-8.8-3.7c-4.9-4.9-4.9-12.8,0-17.7l72.8-72.8h-24.6c-6.9,0-12.5-5.6-12.5-12.5s5.6-12.5,12.5-12.5h54.8c3.2,0,6.4,1.2,8.8,3.7h0c2.3,2.3,3.7,5.4,3.7,8.8v51.5h0ZM263.3,256.5c0,6.9-5.6,12.5-12.5,12.5h-54.8c-6.9,0-12.5-5.6-12.5-12.5s5.6-12.5,12.5-12.5h24.6l-72.8-72.8c-4.9-4.9-4.9-12.8,0-17.7s12.8-4.9,17.7,0l72.8,72.8v-24.5c0-6.9,5.6-12.5,12.5-12.5s12.5,5.6,12.5,12.5v54.6h0ZM467.5,461.8c-2.4,2.4-5.6,3.7-8.8,3.7s-6.4-1.2-8.8-3.7l-72.8-72.8v21.3c0,6.9-5.6,12.5-12.5,12.5s-12.5-5.6-12.5-12.5v-51.5c0-3.4,1.4-6.6,3.7-8.8h0c1.4-1.4,3.2-1.5,5-2.1,1.3-.5,2.4-1.6,3.9-1.6h54.6c6.9,0,12.5,5.6,12.5,12.5s-5.6,12.5-12.5,12.5h-24.4l72.8,72.8c4.9,4.9,4.9,12.8,0,17.7ZM467.5,171.2l-72.8,72.8h24.4c6.9,0,12.5,5.6,12.5,12.5s-5.6,12.5-12.5,12.5h-54.6c-6.9,0-12.5-5.6-12.5-12.5v-54.6c0-6.9,5.6-12.5,12.5-12.5s12.5,5.6,12.5,12.5v24.5l72.8-72.8c4.9-4.9,12.8-4.9,17.7,0s4.9,12.8,0,17.7Z"/>
    </g>
  </g>
</svg>