<?xml version="1.0" encoding="UTF-8"?>
<svg xmlns="http://www.w3.org/2000/svg" version="1.1" viewBox="0 0 655 812.5">
  <defs>
    <style>
      .cls-1 {
        fill: #040000;
      }
    </style>
  </defs>
  <!-- Generator: Adobe Illustrator 28.7.1, SVG Export Plug-In . SVG Version: 1.2.0 Build 142)  -->
  <g>
    <g id="Layer_1">
      <g>
        <path class="cls-1" d="M642.5,0H12.5C5.6,0,0,5.6,0,12.5v787.5c0,6.9,5.6,12.5,12.5,12.5s12.5-5.6,12.5-12.5V25h605v775c0,6.9,5.6,12.5,12.5,12.5s12.5-5.6,12.5-12.5V12.5c0-6.9-5.6-12.5-12.5-12.5Z"/>
        <path class="cls-1" d="M496.6,254.6H170c-6.9,0-12.5,5.6-12.5,12.5s5.6,12.5,12.5,12.5h326.7c6.9,0,12.5-5.6,12.5-12.5s-5.6-12.5-12.5-12.5Z"/>
        <path class="cls-1" d="M496.6,359.6H170c-6.9,0-12.5,5.6-12.5,12.5s5.6,12.5,12.5,12.5h326.7c6.9,0,12.5-5.6,12.5-12.5s-5.6-12.5-12.5-12.5Z"/>
        <path class="cls-1" d="M115.4,777.5c-6.9,0-12.5,5.6-12.5,12.5v10c0,6.9,5.6,12.5,12.5,12.5s12.5-5.6,12.5-12.5v-10c0-6.9-5.6-12.5-12.5-12.5Z"/>
        <path class="cls-1" d="M218.3,777.5c-6.9,0-12.5,5.6-12.5,12.5v10c0,6.9,5.6,12.5,12.5,12.5s12.5-5.6,12.5-12.5v-10c0-6.9-5.6-12.5-12.5-12.5Z"/>
        <path class="cls-1" d="M321.2,777.5c-6.9,0-12.5,5.6-12.5,12.5v10c0,6.9,5.6,12.5,12.5,12.5s12.5-5.6,12.5-12.5v-10c0-6.9-5.6-12.5-12.5-12.5Z"/>
        <path class="cls-1" d="M424,777.5c-6.9,0-12.5,5.6-12.5,12.5v10c0,6.9,5.6,12.5,12.5,12.5s12.5-5.6,12.5-12.5v-10c0-6.9-5.6-12.5-12.5-12.5Z"/>
        <path class="cls-1" d="M526.9,777.5c-6.9,0-12.5,5.6-12.5,12.5v10c0,6.9,5.6,12.5,12.5,12.5s12.5-5.6,12.5-12.5v-10c0-6.9-5.6-12.5-12.5-12.5Z"/>
      </g>
    </g>
  </g>
</svg>