<?xml version="1.0" encoding="UTF-8"?>
<svg xmlns="http://www.w3.org/2000/svg" version="1.1" viewBox="0 0 16.317 16.295">
  <!-- Generator: Adobe Illustrator 28.7.1, SVG Export Plug-In . SVG Version: 1.2.0 Build 142)  -->
  <g>
    <g id="Layer_1">
      <g>
        <path d="M7.685,6.761V2.689c0-.138-.112-.25-.25-.25s-.25.112-.25.25v4.071c-.265.101-.454.354-.454.654,0,.103.024.199.064.287l-1.968,1.968c-.098.098-.098.256,0,.354.049.049.113.073.177.073s.128-.024.177-.073l1.968-1.968c.088.04.184.064.287.064.389,0,.704-.315.704-.704,0-.3-.189-.552-.454-.654Z"/>
        <path d="M7.429,14.359c-3.821,0-6.929-3.108-6.929-6.93S3.608.5,7.429.5s6.93,3.108,6.93,6.929c0,.138.112.25.25.25s.25-.112.25-.25C14.859,3.333,11.526,0,7.429,0S0,3.333,0,7.429s3.333,7.43,7.429,7.43c.138,0,.25-.112.25-.25s-.112-.25-.25-.25Z"/>
        <path d="M13.099,11.574c-.74,0-1.342.602-1.342,1.341s.602,1.342,1.342,1.342,1.341-.602,1.341-1.342-.602-1.341-1.341-1.341ZM13.099,13.756c-.464,0-.842-.378-.842-.842s.378-.841.842-.841.841.377.841.841-.377.842-.841.842Z"/>
        <path d="M15.764,13.317c.02-.133.03-.268.03-.402,0-.134-.011-.269-.03-.402l.489-.552c.072-.08.084-.197.03-.291l-.514-.891c-.055-.093-.156-.14-.268-.12l-.728.149c-.21-.168-.441-.302-.69-.4l-.234-.703c-.034-.102-.13-.171-.237-.171h-1.028c-.107,0-.203.069-.237.171l-.234.703c-.249.099-.48.232-.69.4l-.728-.149c-.109-.02-.213.027-.268.12l-.514.891c-.054.094-.042.211.03.291l.489.552c-.02.134-.03.269-.03.402,0,.135.011.27.03.402l-.489.552c-.072.08-.084.197-.03.291l.514.891c.055.093.161.138.267.12l.728-.148c.211.168.442.302.691.399l.234.703c.034.102.13.171.237.171h1.028c.107,0,.203-.069.237-.171l.234-.703c.249-.098.48-.231.691-.399l.728.148c.104.018.212-.027.267-.12l.514-.891c.054-.094.042-.211-.03-.291l-.489-.552ZM15.294,12.915c0,.144-.015.287-.043.428-.016.077.006.157.059.216l.45.508-.334.578-.669-.137c-.077-.015-.156.005-.215.058-.218.19-.466.334-.737.427-.074.024-.133.083-.157.157l-.216.646h-.667l-.216-.646c-.024-.074-.083-.133-.157-.157-.271-.093-.52-.236-.737-.427-.059-.053-.137-.072-.215-.058l-.669.137-.334-.578.45-.508c.053-.059.074-.139.059-.216-.028-.141-.043-.284-.043-.428,0-.143.015-.287.043-.428.016-.077-.006-.157-.059-.216l-.45-.508.333-.578.669.138c.08.014.157-.006.216-.058.218-.19.466-.334.738-.428.073-.025.132-.083.156-.157l.216-.646h.667l.216.646c.024.074.083.132.156.157.272.094.521.237.738.428.059.053.134.071.216.058l.669-.138.333.578-.45.508c-.053.059-.074.139-.059.216.028.141.043.285.043.428Z"/>
      </g>
    </g>
  </g>
</svg>