<?xml version="1.0" encoding="UTF-8"?>
<svg xmlns="http://www.w3.org/2000/svg" version="1.1" viewBox="0 0 615.2 615.2">
  <defs>
    <style>
      .cls-1 {
        fill: #010101;
      }
    </style>
  </defs>
  <!-- Generator: Adobe Illustrator 28.7.1, SVG Export Plug-In . SVG Version: 1.2.0 Build 142)  -->
  <g>
    <g id="Layer_1">
      <path class="cls-1" d="M374,469.8c-3,0-6.1-1.1-8.5-3.3l-161.3-149.7c-2.6-2.4-4-5.7-4-9.2s1.4-6.8,4-9.2l161.3-149.7c5.1-4.7,12.9-4.4,17.7.7,4.7,5,4.4,13-.7,17.6l-151.4,140.6,151.4,140.5c5.1,4.7,5.4,12.7.7,17.7-2.5,2.6-5.8,4-9.2,4ZM525.1,525.1c58.1-58.1,90-135.3,90-217.6s-32-159.5-90-217.6c-120-119.9-315.1-119.9-435.2,0-120,120-120,315.2,0,435.2h0c58.1,58.1,135.3,90,217.6,90,82.3,0,159.5-32,217.6-90ZM107.7,507.4C-2.6,397.2-2.6,217.8,107.7,107.6,217.9-2.5,397.2-2.6,507.5,107.6c53.3,53.3,82.7,124.3,82.7,199.9s-29.4,146.6-82.7,199.9-124.3,82.7-199.9,82.7-146.6-29.4-199.9-82.7h0Z"/>
    </g>
  </g>
</svg>