<?xml version="1.0" encoding="UTF-8"?>
<svg xmlns="http://www.w3.org/2000/svg" version="1.1" viewBox="0 0 19.618 14.563">
  <!-- Generator: Adobe Illustrator 28.7.1, SVG Export Plug-In . SVG Version: 1.2.0 Build 142)  -->
  <g>
    <g id="Layer_1">
      <g>
        <path d="M12.296,7.121c.956-.757,1.514-1.893,1.514-3.121,0-2.206-1.794-4-4-4s-4,1.794-4,4c0,1.228.558,2.364,1.513,3.121-2.044.958-3.388,3.04-3.388,5.317,0,1.172.953,2.125,2.125,2.125h7.5c1.172,0,2.125-.953,2.125-2.125,0-2.277-1.344-4.358-3.389-5.317Z"/>
        <path d="M16.789,8.35c.798-.632,1.264-1.58,1.264-2.605,0-1.841-1.498-3.339-3.339-3.339-.063,0-.122.015-.184.019.167.498.279,1.022.279,1.576,0,1.059-.331,2.067-.934,2.903,1.739,1.281,2.809,3.336,2.809,5.535,0,.823-.326,1.566-.847,2.125h2.007c.978,0,1.774-.796,1.774-1.774,0-1.901-1.122-3.638-2.829-4.439Z"/>
        <path d="M2.934,12.438c0-2.199,1.07-4.254,2.808-5.535-.603-.836-.933-1.844-.933-2.903,0-.554.112-1.078.279-1.576-.062-.003-.121-.019-.184-.019-1.841,0-3.339,1.498-3.339,3.339,0,1.025.466,1.974,1.263,2.605-1.706.8-2.829,2.538-2.829,4.439,0,.978.796,1.774,1.774,1.774h2.007c-.521-.559-.847-1.302-.847-2.125Z"/>
      </g>
    </g>
  </g>
</svg>