<?xml version="1.0" encoding="UTF-8"?>
<svg xmlns="http://www.w3.org/2000/svg" version="1.1" viewBox="0 0 811.4 841.8">
  <defs>
    <style>
      .cls-1 {
        fill: #040000;
      }
    </style>
  </defs>
  <!-- Generator: Adobe Illustrator 28.7.1, SVG Export Plug-In . SVG Version: 1.2.0 Build 142)  -->
  <g>
    <g id="Layer_1">
      <path class="cls-1" d="M271.6,306.4c-6.9,0-12.5,5.6-12.5,12.5v210.5c0,6.9,5.6,12.5,12.5,12.5h293.4c6.9,0,12.5-5.6,12.5-12.5v-210.5c0-6.9-5.6-12.5-12.5-12.5h-293.4ZM552.4,516.9h-268.4v-185.5h268.4v185.5h0ZM803.1,549.7c-6.5-2.2-13.6,1.1-16,7.5-73.3,203.7-298.7,309.7-502.4,236.3-98.5-35.5-177.4-107.3-222.1-202.3s-49.8-201.5-14.3-300C121.7,87.5,347.1-18.7,550.8,54.8c76,27.4,140.8,76.7,187.3,142.6,1.1,1.6,3,2,4.6,2.9l-175.2-13.8v.4c-.5,0-.7-.5-1.1-.5-6.9,0-12.5,5.6-12.5,12.4s5.2,11.6,11.7,12.1v.4s202.2,15.8,202.2,15.8c.3,0,.6,0,1,0,3.3,0,6.5-1.3,8.8-3.6,2.6-2.6,3.9-6.1,3.6-9.8l-15.2-202.3c-.5-6.9-6.7-12.6-13.4-11.6-6.9.5-12.1,6.5-11.5,13.4l12.2,163.1c-49.1-66.7-115.8-117.1-194-145.3C342.5-46.8,102.9,66.1,24.9,282.7c-37.7,104.8-32.3,218.1,15.2,319.2,47.5,101,131.4,177.4,236.2,215.2,46.6,16.8,94.2,24.7,141.1,24.7,171.1,0,332-106,393.3-276.1,2.3-6.5-1-13.7-7.5-16ZM755.1,201.3l-2.6-.2c.8-.3,1.8,0,2.5-.6v.8Z"/>
    </g>
  </g>
</svg>