<?xml version="1.0" encoding="UTF-8"?>
<svg xmlns="http://www.w3.org/2000/svg" version="1.1" viewBox="0 0 767 771.6">
  <defs>
    <style>
      .cls-1 {
        fill: #040000;
      }
    </style>
  </defs>
  <!-- Generator: Adobe Illustrator 28.7.1, SVG Export Plug-In . SVG Version: 1.2.0 Build 142)  -->
  <g>
    <g id="Layer_1">
      <path class="cls-1" d="M213.2,631.2h-91l-31.7-24.9c-2.2-1.8-4.9-2.7-7.7-2.7H12.5c-6.9,0-12.5,5.6-12.5,12.5v143c0,6.9,5.6,12.5,12.5,12.5h200.7c6.9,0,12.5-5.6,12.5-12.5v-115.4c0-6.9-5.6-12.5-12.5-12.5ZM200.7,746.6H25v-118h53.4l31.7,24.9c2.2,1.8,4.9,2.7,7.7,2.7h82.8v90.4h0ZM483.8,631.2h-91l-31.7-24.9c-2.2-1.8-4.9-2.7-7.7-2.7h-70.2c-6.9,0-12.5,5.6-12.5,12.5v143c0,6.9,5.6,12.5,12.5,12.5h200.7c6.9,0,12.5-5.6,12.5-12.5v-115.4c0-6.9-5.6-12.5-12.5-12.5ZM471.3,746.6h-175.7v-118h53.4l31.7,24.9c2.2,1.8,4.9,2.7,7.7,2.7h82.8v90.4ZM754.5,631.2h-91l-31.7-24.9c-2.2-1.8-4.9-2.7-7.7-2.7h-70.3c-6.9,0-12.5,5.6-12.5,12.5v143c0,6.9,5.6,12.5,12.5,12.5h200.7c6.9,0,12.5-5.6,12.5-12.5v-115.4c0-6.9-5.6-12.5-12.5-12.5ZM742,746.6h-175.7v-118h53.4l31.7,24.9c2.2,1.8,4.9,2.7,7.7,2.7h82.9v90.4h0ZM767,114.4v376c0,6.9-5.6,12.5-12.5,12.5h-115.2c-6.9,0-12.5-5.6-12.5-12.5s5.6-12.5,12.5-12.5h102.7V126.9h-339.5c-2.8,0-5.5-.9-7.7-2.7l-126.3-99.2H26v452.9h108.3c6.9,0,12.5,5.6,12.5,12.5s-5.6,12.5-12.5,12.5H13.5c-6.9,0-12.5-5.6-12.5-12.5V12.5C1,5.6,6.6,0,13.5,0h259.4c2.8,0,5.5.9,7.7,2.7l126.3,99.2h347.7c6.9,0,12.5,5.6,12.5,12.5ZM383.5,299.7c-37,0-67,30.1-67,67.1s30.1,67.1,67,67.1,67.1-30.1,67.1-67.1-30.1-67.1-67.1-67.1ZM383.5,408.9c-23.2,0-42-18.9-42-42.1s18.9-42.1,42-42.1,42.1,18.9,42.1,42.1-18.9,42.1-42.1,42.1ZM541.3,414.5l-24.6-27.7c1-6.8,1.6-13.5,1.6-20.1s-.5-13.3-1.6-20.1l24.6-27.6c3.6-4,4.2-9.9,1.5-14.5l-25.7-44.5c-2.7-4.6-8.1-7.1-13.3-6l-36.4,7.5c-10.5-8.4-22.1-15.1-34.5-20l-11.7-35.2c-1.7-5.1-6.5-8.5-11.9-8.5h-51.4c-5.4,0-10.2,3.4-11.9,8.5l-11.7,35.2c-12.5,4.9-24,11.6-34.6,20l-36.4-7.5c-5.4-1.1-10.7,1.4-13.3,6l-25.7,44.5c-2.7,4.7-2.1,10.5,1.5,14.5l24.5,27.6c-1,6.7-1.5,13.5-1.5,20.1s.5,13.4,1.5,20.1l-24.5,27.7c-3.6,4-4.2,9.9-1.5,14.5l25.7,44.5c2.7,4.6,7.9,6.9,13.3,6l36.4-7.4c10.5,8.4,22.1,15.1,34.6,20l11.7,35.2c1.7,5.1,6.5,8.5,11.9,8.5h51.4c5.4,0,10.2-3.5,11.9-8.5l11.7-35.2c12.5-4.9,24-11.6,34.6-20l36.4,7.4c5.2.9,10.6-1.4,13.3-6l25.7-44.5c2.7-4.6,2.1-10.5-1.5-14.5ZM493.3,366.8c0,6.9-.7,14.1-2.2,21.4-.8,3.8.3,7.8,2.9,10.7l22.6,25.4-16.7,28.9-33.5-6.8c-3.9-.7-7.9.2-10.7,2.9-10.9,9.5-23.3,16.7-36.9,21.3-3.7,1.3-6.6,4.2-7.9,7.9l-10.8,32.3h-33.4l-10.8-32.3c-1.2-3.7-4.1-6.6-7.9-7.9-13.6-4.6-26-11.8-36.9-21.3-3-2.6-6.9-3.6-10.8-2.9l-33.5,6.8-16.7-28.9,22.5-25.4c2.6-2.9,3.7-6.9,2.9-10.7-1.4-7.1-2.1-14.4-2.1-21.4s.7-14.3,2.1-21.4c.8-3.8-.3-7.8-2.9-10.7l-22.5-25.4,16.7-28.9,33.5,6.8c3.9.8,7.8-.3,10.7-2.9,10.9-9.5,23.3-16.7,36.9-21.4,3.7-1.3,6.6-4.2,7.8-7.9l10.8-32.3h33.4l10.8,32.3c1.2,3.7,4.1,6.6,7.8,7.9,13.6,4.6,26,11.8,36.9,21.4,3,2.6,6.9,3.6,10.7,2.8l33.5-6.8,16.7,28.9-22.6,25.4c-2.6,2.9-3.7,6.9-2.9,10.7,1.4,7.3,2.1,14.5,2.1,21.4Z"/>
    </g>
  </g>
</svg>