<?xml version="1.0" encoding="UTF-8"?>
<svg xmlns="http://www.w3.org/2000/svg" version="1.1" viewBox="0 0 618.3 728.2">
  <!-- Generator: Adobe Illustrator 28.7.1, SVG Export Plug-In . SVG Version: 1.2.0 Build 142)  -->
  <g>
    <g id="Layer_1">
      <path d="M617.9,179.8c-.2-2.9-1.1-5.8-3.3-7.9L446.4,3.7c-2.2-2.2-5-3.1-8-3.3-.3,0-.6-.4-.9-.4H104.4c-6.9,0-12.5,5.6-12.5,12.5v68.5H12.5c-6.9,0-12.5,5.6-12.5,12.5v622.2c0,6.9,5.6,12.5,12.5,12.5h501.5c6.9,0,12.5-5.6,12.5-12.5v-68.5h79.3c6.9,0,12.5-5.6,12.5-12.5V180.7c0-.3-.4-.6-.4-.9ZM483.8,249.2h-125.6v-125.6l62.8,62.8,62.8,62.8ZM450,42.7l62.8,62.8,62.8,62.8h-125.6V42.7ZM116.9,25h308.1v130.1l-70.5-70.5c-2.2-2.1-5-3-7.9-3.3-.4,0-.6-.4-1-.4H116.9V25ZM501.5,703.2H25V106h308.2v155.7c0,6.9,5.6,12.5,12.5,12.5h155.8v429ZM526.5,622.2v-360.5c0-.4-.4-.6-.4-.9-.2-2.9-1.1-5.8-3.3-7.9l-59.6-59.6h130.1v429h-66.8ZM403.8,400c0,6.9-5.6,12.5-12.5,12.5h-246.2c-6.9,0-12.5-5.6-12.5-12.5s5.6-12.5,12.5-12.5h246.2c6.9,0,12.5,5.6,12.5,12.5ZM403.8,488.4c0,6.9-5.6,12.5-12.5,12.5h-246.2c-6.9,0-12.5-5.6-12.5-12.5s5.6-12.5,12.5-12.5h246.2c6.9,0,12.5,5.6,12.5,12.5Z"/>
    </g>
  </g>
</svg>