<?xml version="1.0" encoding="UTF-8"?>
<svg xmlns="http://www.w3.org/2000/svg" version="1.1" viewBox="0 0 701.6 812.5">
  <!-- Generator: Adobe Illustrator 28.7.1, SVG Export Plug-In . SVG Version: 1.2.0 Build 142)  -->
  <g>
    <g id="Layer_1">
      <path d="M450.5,340.2c0,6.9-5.6,12.5-12.5,12.5h-74.8v74.8c0,6.9-5.6,12.5-12.5,12.5s-12.5-5.6-12.5-12.5v-74.8h-74.8c-6.9,0-12.5-5.6-12.5-12.5s5.6-12.5,12.5-12.5h74.8v-74.8c0-6.9,5.6-12.5,12.5-12.5s12.5,5.6,12.5,12.5v74.8h74.8c6.9,0,12.5,5.6,12.5,12.5ZM81.1,25h536.3c6.9,0,12.5-5.6,12.5-12.5s-5.6-12.5-12.5-12.5H81.1c-6.9,0-12.5,5.6-12.5,12.5s5.6,12.5,12.5,12.5ZM701.6,588.8v211.2c0,6.9-5.6,12.5-12.5,12.5H12.5c-6.9,0-12.5-5.6-12.5-12.5v-211.2c0-6.9,5.6-12.5,12.5-12.5h35.8V66.4c0-6.9,5.6-12.5,12.5-12.5h580c6.9,0,12.5,5.6,12.5,12.5v509.9h35.8c6.9,0,12.5,5.6,12.5,12.5ZM73.3,576.3h555V78.9H73.3v497.4h0ZM676.6,601.3H25v186.2h651.6v-186.2Z"/>
    </g>
  </g>
</svg>