<?xml version="1.0" encoding="UTF-8"?>
<svg xmlns="http://www.w3.org/2000/svg" version="1.1" viewBox="0 0 809 809">
  <defs>
    <style>
      .cls-1 {
        fill: #010101;
      }
    </style>
  </defs>
  <!-- Generator: Adobe Illustrator 28.7.1, SVG Export Plug-In . SVG Version: 1.2.0 Build 142)  -->
  <g>
    <g id="Layer_1">
      <path class="cls-1" d="M404.5,0C181.1,0,0,181.1,0,404.5s181.1,404.5,404.5,404.5,404.5-181.1,404.5-404.5c0-223.4-181.1-404.5-404.5-404.5ZM635,591.8c-2.6.7-5.2,1-7.7,1-12.8,0-24.6-8.5-28.2-21.4-1.5-5.3-39.1-131.1-194.5-131.1s-193,125.7-194.5,131.1c-4.5,15.5-20.4,24.6-36.1,20.2-15.5-4.3-24.6-20.4-20.4-35.9,16.5-60.2,90.3-174,251-174s234.5,113.8,251,174c4.3,15.6-4.9,31.7-20.5,36Z"/>
    </g>
  </g>
</svg>