<?xml version="1.0" encoding="UTF-8"?>
<svg xmlns="http://www.w3.org/2000/svg" version="1.1" viewBox="0 0 688.2 722.7">
  <defs>
    <style>
      .cls-1 {
        fill: #040000;
      }
    </style>
  </defs>
  <!-- Generator: Adobe Illustrator 28.7.1, SVG Export Plug-In . SVG Version: 1.2.0 Build 142)  -->
  <g>
    <g id="Layer_1">
      <g>
        <path class="cls-1" d="M318.5,374.4c103.2,0,187.2-84,187.2-187.2S421.7,0,318.5,0s-187.2,84-187.2,187.2,84,187.2,187.2,187.2ZM318.5,25c89.4,0,162.2,72.8,162.2,162.2s-72.8,162.2-162.2,162.2-162.2-72.8-162.2-162.2c0-89.4,72.8-162.2,162.2-162.2Z"/>
        <path class="cls-1" d="M672.4,406.6c-28.1-28.3-67.9-9.9-85.2,4,0,0-61.7,52-122.4,106-6.2,5.5-11.8,10.3-17,14.5,0-16-3.8-29.8-12.1-40.6-16.6-21.6-43.5-23.2-45.2-23.2h-107.1c-66,.2-128.1,0-185,20.7C22.3,515.7,1.5,575.3.7,577.8c-2.2,6.5,1.3,13.6,7.8,15.8,1.3.4,2.7.6,4,.6,5.2,0,10-3.2,11.8-8.4.7-2,18.3-50.9,82.6-74.3,52.8-19.2,110.2-19,176.4-19.2h106.4c.2,0,16.8,1.2,26.2,13.7,7.4,9.9,9.1,24.7,4.9,44.2,0,.3.2.5.1.7-18.4,11.8-26,12.4-26.7,12.5h-120.2c-6.9,0-12.5,5.6-12.5,12.5s5.6,12.5,12.5,12.5l117.6-.3c7.6,1.6,30.9-.4,89.7-52.9,60.3-53.6,121.6-105.3,121.6-105.3.3-.2,32.1-25.4,51.6-5.8,19.7,19.8-.3,48.9-.2,48.9l-185.3,193.1c-1.1,1.3-26.7,31.5-87.9,31.5h-197.6c-6.9,0-12.5,5.6-12.5,12.5s5.6,12.5,12.5,12.5h197.6c73.9,0,106-39.2,106.6-40l185.7-193.7c11.7-16.3,26.4-54.5-1.3-82.4Z"/>
      </g>
    </g>
  </g>
</svg>