<?xml version="1.0" encoding="UTF-8"?>
<svg xmlns="http://www.w3.org/2000/svg" version="1.1" viewBox="0 0 810.6 830.3">
  <defs>
    <style>
      .cls-1 {
        fill: #040000;
      }
    </style>
  </defs>
  <!-- Generator: Adobe Illustrator 28.7.1, SVG Export Plug-In . SVG Version: 1.2.0 Build 142)  -->
  <g>
    <g id="Layer_1">
      <g>
        <path class="cls-1" d="M649.6,594.2c-37,0-67,30.1-67,67s30.1,67,67,67,67-30.1,67-67-30.1-67-67-67ZM649.6,703.3c-23.2,0-42-18.8-42-42s18.8-42,42-42,42,18.8,42,42-18.8,42-42,42Z"/>
        <path class="cls-1" d="M782.9,681.4c1-6.7,1.5-13.4,1.5-20.1s-.5-13.4-1.5-20.1l24.5-27.6c3.6-4,4.2-9.9,1.5-14.5l-25.7-44.5c-2.7-4.6-8.1-6.9-13.3-6l-36.4,7.4c-10.5-8.3-22.1-15-34.6-20l-11.7-35.2c-1.7-5.1-6.5-8.5-11.9-8.5h-51.4c-5.4,0-10.2,3.5-11.9,8.5l-11.7,35.2c-12.5,4.9-24.1,11.6-34.6,20l-36.4-7.4c-5.2-.9-10.6,1.4-13.3,6l-25.7,44.5c-2.7,4.6-2.1,10.5,1.5,14.5l24.5,27.6c-1,6.7-1.5,13.4-1.5,20.1s.5,13.4,1.5,20.1l-24.5,27.6c-3.6,4-4.2,9.9-1.5,14.5l25.7,44.5c2.7,4.6,8.1,6.9,13.3,6l36.4-7.5c10.5,8.4,22.1,15.1,34.6,20l11.7,35.2c1.7,5.1,6.5,8.5,11.9,8.5h51.4c5.4,0,10.2-3.5,11.9-8.5l11.7-35.2c12.5-4.9,24-11.6,34.6-20l36.4,7.5c5.3.9,10.6-1.4,13.3-6l25.7-44.5c2.7-4.6,2.1-10.5-1.5-14.5l-24.5-27.6ZM759.4,661.3c0,7.1-.7,14.4-2.1,21.5-.8,3.8.3,7.8,2.9,10.7l22.5,25.4-16.7,28.9-33.5-6.8c-3.8-.6-7.8.3-10.7,2.8-10.9,9.6-23.4,16.8-37,21.4-3.7,1.2-6.6,4.2-7.8,7.9l-10.8,32.3h-33.3l-10.8-32.3c-1.2-3.7-4.2-6.6-7.8-7.9-13.6-4.6-26.1-11.8-37-21.4-2.9-2.5-6.9-3.4-10.7-2.8l-33.5,6.8-16.7-28.9,22.5-25.4c2.6-2.9,3.7-6.9,2.9-10.7-1.4-7.1-2.1-14.4-2.1-21.5s.7-14.4,2.1-21.5c.8-3.8-.3-7.8-2.9-10.7l-22.5-25.4,16.7-28.9,33.5,6.8c3.9.7,7.8-.2,10.7-2.8,10.8-9.5,23.3-16.8,36.9-21.4,3.7-1.2,6.6-4.2,7.8-7.9l10.8-32.3h33.3l10.8,32.3c1.2,3.7,4.2,6.6,7.8,7.9,13.6,4.6,26.1,11.9,36.9,21.4,2.9,2.5,6.9,3.6,10.7,2.8l33.5-6.8,16.7,28.9-22.5,25.4c-2.6,2.9-3.7,6.9-2.9,10.7,1.4,7.1,2.1,14.4,2.1,21.5Z"/>
        <path class="cls-1" d="M423.1,706.8l-50.4,23.8v-394.5l319.9-147.6v246.5c0,6.9,5.6,12.5,12.5,12.5s12.5-5.6,12.5-12.5V169c0-1.4-.7-2.6-1.1-3.8-.2-.5.2-.9,0-1.4,0-.2-.4-.2-.5-.4-1.2-2.4-3-4.4-5.5-5.6L379.8,1.2c-3.2-1.5-7.1-1.6-10.4-.2L7.5,159.5c-2.7,1.2-4.5,3.3-5.8,5.8-.1.2-.4.3-.6.5-.2.5.1,1,0,1.6-.4,1.2-1.1,2.3-1.1,3.6v411.2c0,4.8,2.7,9.1,7,11.2l346.6,168.8c1.7.8,3.6,1.3,5.5,1.3s.5-.2.7-.2c.1,0,.2.2.4.2.5,0,.8-.5,1.3-.5,1-.2,2-.2,3-.7l69.4-32.8c6.2-2.9,8.9-10.4,6-16.6-3-6.4-10.5-9-16.7-6ZM360.1,314.4L43.2,171.1l159.6-69.9,305.7,144.6-148.5,68.5ZM374.3,26.2l301.2,142.6-137.3,63.4L233.2,88l141.1-61.7ZM25,190.3l322.6,145.9v395.2L25,574.4s0-384.1,0-384.1Z"/>
      </g>
    </g>
  </g>
</svg>