<?xml version="1.0" encoding="UTF-8"?>
<svg xmlns="http://www.w3.org/2000/svg" version="1.1" viewBox="0 0 930.4 728.5">
  <defs>
    <style>
      .cls-1 {
        fill: #040000;
      }
    </style>
  </defs>
  <!-- Generator: Adobe Illustrator 28.7.1, SVG Export Plug-In . SVG Version: 1.2.0 Build 142)  -->
  <g>
    <g id="Layer_1">
      <path class="cls-1" d="M817.9,223.5h-229.5V87.1c0-48-39.1-87.1-87.1-87.1H87C39,0,0,39,0,87v568.9c0,40,32.5,72.6,72.6,72.6h89c23.6,0,42.5-16.7,47.8-38.7,21,23.7,50.9,38.7,83.6,38.7h525c62,0,112.5-50.5,112.5-112.5v-280c0-62-50.5-112.5-112.5-112.5ZM817.9,248.5c48.2,0,87.5,39.3,87.5,87.5v17.6h-317v-105.1h229.5ZM211.6,647.7v-10.6c0-19.9,16.2-36.1,36.1-36.1h93c19.9,0,36,16.2,36,36v41.3c0,9.3,3.3,17.6,7.7,25.1h-91.6c-35.8,0-68.1-22.5-81.2-55.8ZM426.8,703.5c-13.8,0-25.1-11.3-25.1-25.1v-41.3c0-33.6-27.4-61-61-61h-93c-33.7,0-61.1,27.4-61.1,61.1v41.3c0,13.8-11.2,25.1-25.1,25.1h-89c-26.2,0-47.6-21.3-47.6-47.6V87c0-34.2,27.8-62,62-62h414.3c34.2,0,62.1,27.9,62.1,62.1v578.2c0,21.1-17.1,38.2-38.2,38.2h-98.3ZM817.9,703.5h-243.7c8.4-10.7,14.2-23.6,14.2-38.2v-286.7h317v237.4c0,48.2-39.2,87.5-87.5,87.5ZM830.4,591.1c0,6.9-5.6,12.5-12.5,12.5h-125c-6.9,0-12.5-5.6-12.5-12.5s5.6-12.5,12.5-12.5h125c6.9,0,12.5,5.6,12.5,12.5ZM220.1,111h-56.6c-24.8,0-45,20.2-45,45v56.8c0,24.8,20.2,45,45,45h56.6c24.8,0,45-20.2,45-45v-56.8c0-24.8-20.2-45-45-45ZM240,212.7c0,11-8.9,20-19.9,20h-56.6c-11,0-20-9-20-20v-56.8c0-11,9-20,20-20h56.6c11,0,20,9,20,20v56.8h0ZM425.1,111h-56.6c-24.8,0-45,20.2-45,45v56.8c0,24.8,20.2,45,45,45h56.6c24.8,0,45-20.2,45-45v-56.8c0-24.8-20.2-45-45-45ZM445.1,212.7c0,11-8.9,20-20,20h-56.6c-11,0-20-9-20-20v-56.8c0-11,9-20,20-20h56.6c11,0,20,9,20,20v56.8ZM220.1,306.4h-56.6c-24.8,0-45,20.2-45,45v56.8c0,24.8,20.2,44.9,45,44.9h56.6c24.8,0,45-20.2,45-44.9v-56.8c0-24.8-20.2-44.9-45-44.9ZM240,408.2c0,11-8.9,19.9-19.9,19.9h-56.6c-11,0-20-8.9-20-19.9v-56.8c0-11,9-20,20-20h56.6c11,0,20,9,20,20v56.8h0ZM425.1,306.4h-56.6c-24.8,0-45,20.2-45,45v56.8c0,24.8,20.2,44.9,45,44.9h56.6c24.8,0,45-20.2,45-44.9v-56.8c0-24.8-20.2-44.9-45-44.9ZM445.1,408.2c0,11-8.9,19.9-20,19.9h-56.6c-11,0-20-8.9-20-19.9v-56.8c0-11,9-20,20-20h56.6c11,0,20,9,20,20v56.8Z"/>
    </g>
  </g>
</svg>