<?xml version="1.0" encoding="UTF-8"?>
<svg xmlns="http://www.w3.org/2000/svg" version="1.1" viewBox="0 0 896.7 642.6">
  <defs>
    <style>
      .cls-1 {
        fill: #040000;
      }
    </style>
  </defs>
  <!-- Generator: Adobe Illustrator 28.7.1, SVG Export Plug-In . SVG Version: 1.2.0 Build 142)  -->
  <g>
    <g id="Layer_1">
      <path class="cls-1" d="M.7,631.7c-.2-.5-.7-1-.7-1.6V12.5C0,5.6,5.6,0,12.5,0h235.6c2.8,0,5.5.9,7.8,2.7l158.1,125.2h373.4c6.9,0,12.5,5.6,12.5,12.5v142.3H112.5c-5.5,0-10.4,3.7-12,9L.7,631.7ZM121.8,307.6L23.5,642.6h763.9c3.1,0,5.8-1.4,8.1-3.4.7-.6,1-1.4,1.5-2.2.8-1.1,1.9-2,2.3-3.4l97.3-326H121.8Z"/>
    </g>
  </g>
</svg>