<?xml version="1.0" encoding="UTF-8"?>
<svg xmlns="http://www.w3.org/2000/svg" version="1.1" viewBox="0 0 27.408 26.131">
  <!-- Generator: Adobe Illustrator 28.7.1, SVG Export Plug-In . SVG Version: 1.2.0 Build 142)  -->
  <g>
    <g id="Layer_1">
      <g>
        <path d="M21.109,19.1v-3.751c0-.276-.224-.5-.5-.5s-.5.224-.5.5v3.958c0,.065.013.13.038.191.025.062.062.117.109.163l2.131,2.131c.098.098.226.146.354.146s.256-.049.354-.146c.195-.195.195-.512,0-.707l-1.985-1.985Z"/>
        <path d="M24,13.448V4.701c0-1.378-1.121-2.5-2.5-2.5h-2.5v-.804c0-.771-.627-1.397-1.397-1.397s-1.396.626-1.396,1.397v.804H7.794v-.804c0-.771-.626-1.397-1.397-1.397s-1.396.626-1.396,1.397v.804h-2.5c-1.378,0-2.5,1.122-2.5,2.5v15.565c0,1.379,1.122,2.5,2.5,2.5h12.251c1.183,2.01,3.362,3.365,5.858,3.365,3.749,0,6.799-3.05,6.799-6.799,0-2.514-1.375-4.708-3.408-5.884ZM17.206,1.397c0-.219.178-.397.396-.397.216,0,.397.182.397.397v2.609c0,.215-.182.396-.397.396-.219,0-.396-.178-.396-.396V1.397ZM6,1.397c0-.219.178-.397.396-.397s.397.178.397.397v2.609c0,.219-.178.396-.397.396s-.396-.178-.396-.396V1.397ZM2.5,3.201h2.5v.805c0,.77.626,1.396,1.396,1.396s1.397-.626,1.397-1.396v-.805h8.412v.805c0,.77.626,1.396,1.396,1.396s1.397-.626,1.397-1.396v-.805h2.5c.827,0,1.5.673,1.5,1.5v2.826H1v-2.826c0-.827.673-1.5,1.5-1.5ZM2.5,21.766c-.827,0-1.5-.673-1.5-1.5v-11.739h22v4.449c-.745-.281-1.548-.442-2.391-.442-3.749,0-6.799,3.05-6.799,6.799,0,.858.166,1.677.458,2.434H2.5ZM20.609,25.131c-3.197,0-5.799-2.602-5.799-5.799s2.602-5.799,5.799-5.799,5.799,2.602,5.799,5.799-2.602,5.799-5.799,5.799Z"/>
      </g>
    </g>
  </g>
</svg>