<?xml version="1.0" encoding="UTF-8"?>
<svg xmlns="http://www.w3.org/2000/svg" version="1.1" viewBox="0 0 729.2 784.2">
  <defs>
    <style>
      .cls-1 {
        fill: #040000;
      }
    </style>
  </defs>
  <!-- Generator: Adobe Illustrator 28.7.1, SVG Export Plug-In . SVG Version: 1.2.0 Build 142)  -->
  <g>
    <g id="Layer_1">
      <g>
        <path class="cls-1" d="M716.6,94.7h-188.5V12.5c0-6.9-5.6-12.5-12.5-12.5s-12.5,5.6-12.5,12.5v82.2H226V12.5c0-6.9-5.6-12.5-12.5-12.5s-12.5,5.6-12.5,12.5v82.2H12.5c-6.9,0-12.5,5.6-12.5,12.5v664.5c0,6.9,5.6,12.5,12.5,12.5h704.2c6.9,0,12.5-5.6,12.5-12.5V107.2c0-6.9-5.6-12.5-12.5-12.5ZM704.1,119.7v93H25v-93h679.1ZM25,759.2V237.7h679.2v521.5H25Z"/>
        <path class="cls-1" d="M291.4,472.7c8.8-2.9,16.2-6.7,22-11.3,5.9-4.7,10.5-9.7,14-15.1,3.4-5.4,5.9-11,7.4-16.8,1.5-5.8,2.2-11.2,2.2-16.3v-3.7c0-9.8-1.9-18.8-5.5-27-3.7-8.2-8.9-15.2-15.6-21s-14.9-10.2-24.6-13.4c-9.7-3.2-20.5-4.8-32.5-4.8s-19,1.1-27,3.5c-8,2.3-15.1,5.4-21.3,9.2-6.2,3.8-11.7,8.1-16.4,13-4.7,4.9-8.6,10.1-11.8,15.5l20.2,13.2c7.6-12,16.3-20.2,26.1-24.4,9.8-4.3,20-6.5,30.5-6.5,16.2,0,28.9,3.9,38,11.6,9.2,7.7,13.8,18.2,13.8,31.5v2.9c0,5.7-1,11.4-3.1,17.5-2.1,6-5.1,11.4-9.2,16.3-4,4.9-9.1,8.9-15.3,12s-13.4,4.6-21.7,4.6h-30.9v22h29.8c6.4,0,13.2.8,20.4,2.2s13.8,4.1,19.9,7.9,11,8.9,15.1,15.4c4,6.5,6,14.8,6,24.8v4.8c0,6.1-1.1,12.3-3.5,18.5-2.3,6.2-6,11.9-11,16.9-5,5-11.6,9.1-19.6,12.3-8.1,3.2-17.9,4.8-29.4,4.8s-24.1-2.1-35.5-6.2c-11.4-4.2-23.6-10.9-36.6-20.2l-12.9,20.6c12.5,10,25.9,17.4,40.2,22.2,14.4,4.8,29.2,7.2,44.6,7.2s30-2.2,41.4-6.6c11.4-4.4,20.6-10.2,27.6-17.5s12.1-15.3,15.2-24.4c3.2-9.1,4.8-18.4,4.8-27.9v-5.5c0-15.4-4.7-28.8-14.1-40.1-9.4-11.2-23.3-18.4-41.7-21.7Z"/>
        <path class="cls-1" d="M467.1,343.3c-30.9,0-53.5,10-68,30.1s-21.7,48.6-21.7,85.6v41.2c0,37.3,7.1,65.9,21.3,86,14.2,20.1,37,30.2,68.4,30.2s54.9-10,69.1-30,21.3-48.7,21.3-86.2v-41.2c0-37.2-7.2-65.8-21.7-85.8-14.5-20-37.4-30-68.8-30ZM531.1,500.6c0,33.1-5.4,56.8-16.2,71.1-10.8,14.3-26.7,21.5-47.8,21.5s-36-7.2-46.8-21.7c-10.9-14.5-16.4-38.1-16.4-71v-41.9c0-32.5,5.4-56.1,16.4-70.5,10.9-14.5,26.5-21.7,46.8-21.7s37.3,7.2,48,21.5c10.7,14.3,16,37.9,16,70.7v41.9h0Z"/>
      </g>
    </g>
  </g>
</svg>