<?xml version="1.0" encoding="UTF-8"?>
<svg xmlns="http://www.w3.org/2000/svg" version="1.1" viewBox="0 0 791.1 815.5">
  <defs>
    <style>
      .cls-1 {
        fill: #040000;
      }
    </style>
  </defs>
  <!-- Generator: Adobe Illustrator 28.7.1, SVG Export Plug-In . SVG Version: 1.2.0 Build 142)  -->
  <g>
    <g id="Layer_1">
      <path class="cls-1" d="M381.9,363h-114l-40.2-31.6c-2.2-1.7-4.9-2.7-7.7-2.7h-87.2c-6.9,0-12.5,5.6-12.5,12.5v177.5c0,6.9,5.6,12.5,12.5,12.5h249.1c6.9,0,12.5-5.6,12.5-12.5v-143.2c0-6.9-5.6-12.5-12.5-12.5ZM369.4,506.2h-224.1v-152.5h70.4l40.2,31.6c2.2,1.7,4.9,2.7,7.7,2.7h105.9v118.2h0ZM738.8,126.6h-338.5c-2.8,0-5.5-.9-7.7-2.7l-125.9-98.9H25v601.4h356.9c6.9,0,12.5,5.6,12.5,12.5s-5.6,12.5-12.5,12.5H12.5c-6.9,0-12.5-5.6-12.5-12.5V12.5C0,5.6,5.6,0,12.5,0h258.6c2.8,0,5.5.9,7.7,2.7l125.9,98.9h346.6c6.9,0,12.5,5.6,12.5,12.5v305.8c0,6.9-5.6,12.5-12.5,12.5s-12.5-5.6-12.5-12.5V126.6ZM630.2,579.4c-37,0-67.1,30.1-67.1,67.1s30.1,67,67.1,67,67-30.1,67-67c0-37-30.1-67.1-67-67.1ZM630.2,688.5c-23.2,0-42.1-18.8-42.1-42s18.9-42.1,42.1-42.1,42,18.9,42,42.1-18.8,42-42,42ZM763.5,666.6c1-6.6,1.5-13.4,1.5-20.1s-.5-13.5-1.5-20.1l24.5-27.6c3.6-4,4.2-9.9,1.5-14.5l-25.7-44.5c-2.7-4.6-8.1-7-13.3-6l-36.4,7.4c-10.5-8.4-22.1-15.1-34.6-20l-11.7-35.2c-1.7-5.1-6.5-8.5-11.9-8.5h-51.4c-5.4,0-10.2,3.5-11.9,8.5l-11.7,35.2c-12.5,4.9-24,11.7-34.6,20l-36.4-7.4c-5.2-1-10.6,1.4-13.3,6l-25.7,44.5c-2.7,4.6-2.1,10.5,1.5,14.5l24.5,27.6c-1,6.6-1.5,13.4-1.5,20.1s.5,13.4,1.5,20.1l-24.5,27.6c-3.5,4-4.2,9.9-1.5,14.5l25.7,44.5c2.7,4.6,8.1,6.9,13.3,6l36.4-7.4c10.5,8.3,22.1,15.1,34.6,20l11.7,35.2c1.7,5.1,6.5,8.5,11.9,8.5h51.4c5.4,0,10.2-3.5,11.9-8.5l11.7-35.2c12.5-4.9,24-11.7,34.6-20l36.4,7.4c5.2.9,10.6-1.4,13.3-6l25.7-44.5c2.7-4.6,2.1-10.5-1.5-14.5l-24.5-27.6ZM740,646.5c0,7.1-.7,14.3-2.2,21.3-.8,3.9.3,7.9,2.9,10.8l22.6,25.4-16.7,28.9-33.5-6.8c-3.9-.7-7.9.2-10.7,2.9-10.9,9.5-23.3,16.7-36.9,21.4-3.7,1.3-6.6,4.2-7.8,7.9l-10.8,32.3h-33.3l-10.8-32.3c-1.2-3.7-4.2-6.6-7.8-7.9-13.6-4.7-26-11.9-36.9-21.4-2.9-2.6-6.9-3.6-10.7-2.9l-33.5,6.8-16.7-28.9,22.6-25.4c2.6-2.9,3.7-6.9,2.9-10.8-1.4-7-2.2-14.2-2.2-21.3s.7-14.4,2.2-21.4c.8-3.9-.3-7.9-2.9-10.8l-22.6-25.4,16.7-28.9,33.5,6.8c3.8.7,7.8-.3,10.7-2.9,10.9-9.5,23.3-16.7,36.9-21.4,3.7-1.3,6.6-4.2,7.8-7.9l10.8-32.3h33.3l10.8,32.3c1.2,3.7,4.2,6.6,7.8,7.9,13.6,4.7,26,11.9,36.9,21.4,2.9,2.6,6.9,3.6,10.7,2.9l33.5-6.8,16.7,28.9-22.6,25.4c-2.6,2.9-3.7,6.9-2.9,10.8,1.4,7,2.2,14.2,2.2,21.4Z"/>
    </g>
  </g>
</svg>