<?xml version="1.0" encoding="UTF-8"?>
<svg xmlns="http://www.w3.org/2000/svg" version="1.1" viewBox="0 0 16.002 16.026">
  <!-- Generator: Adobe Illustrator 28.7.1, SVG Export Plug-In . SVG Version: 1.2.0 Build 142)  -->
  <g>
    <g id="Layer_1">
      <path d="M15.929,15.599l-4.485-4.485c1.102-1.182,1.782-2.762,1.782-4.501,0-3.646-2.967-6.613-6.614-6.613S0,2.967,0,6.613s2.966,6.613,6.613,6.613c1.727,0,3.297-.671,4.477-1.759l4.486,4.486c.049.049.112.073.177.073s.128-.024.177-.073c.098-.098.098-.256,0-.354ZM6.613,12.726c-3.371,0-6.113-2.742-6.113-6.113S3.242.5,6.613.5s6.114,2.742,6.114,6.113-2.742,6.113-6.114,6.113Z"/>
    </g>
  </g>
</svg>