<?xml version="1.0" encoding="UTF-8"?>
<svg xmlns="http://www.w3.org/2000/svg" version="1.1" viewBox="0 0 565.2 565.2">
  <defs>
    <style>
      .cls-1 {
        fill: #070404;
      }
    </style>
  </defs>
  <!-- Generator: Adobe Illustrator 28.7.1, SVG Export Plug-In . SVG Version: 1.2.0 Build 142)  -->
  <g>
    <g id="Layer_1">
      <path class="cls-1" d="M482.5,82.7c-110.3-110.2-289.6-110.2-399.8,0-110.2,110.2-110.2,289.5,0,399.8,53.3,53.3,124.3,82.7,199.9,82.7s146.6-29.4,199.9-82.7,82.7-124.3,82.7-199.9-29.4-146.6-82.7-199.9ZM357.5,423.1c5.1,4.7,5.4,12.7.7,17.7-2.5,2.6-5.8,4-9.2,4s-6.1-1.1-8.5-3.3l-161.3-149.7c-2.6-2.4-4-5.7-4-9.2s1.4-6.8,4-9.2l161.3-149.7c5.1-4.7,12.9-4.4,17.7.7,4.7,5,4.4,13-.7,17.6l-151.4,140.6,151.4,140.5Z"/>
    </g>
  </g>
</svg>