<?xml version="1.0" encoding="UTF-8"?>
<svg xmlns="http://www.w3.org/2000/svg" version="1.1" viewBox="0 0 22.084 23.009">
  <!-- Generator: Adobe Illustrator 28.7.1, SVG Export Plug-In . SVG Version: 1.2.0 Build 142)  -->
  <g>
    <g id="Layer_1">
      <g>
        <path d="M7.818,4.32h-2.917c-.276,0-.5.224-.5.5s.224.5.5.5h2.917c.276,0,.5-.224.5-.5s-.224-.5-.5-.5Z"/>
        <path d="M7.818,7.255h-2.917c-.276,0-.5.224-.5.5s.224.5.5.5h2.917c.276,0,.5-.224.5-.5s-.224-.5-.5-.5Z"/>
        <path d="M7.818,10.189h-2.917c-.276,0-.5.224-.5.5s.224.5.5.5h2.917c.276,0,.5-.224.5-.5s-.224-.5-.5-.5Z"/>
        <path d="M21.817,14.912c-.005-.003-.509-.342-.539-1.75h0s-.104-4.4-.104-4.4c0-.035-.103-2.824-2.568-3.962V.5c0-.276-.224-.5-.5-.5H.5C.224,0,0,.224,0,.5v22.009c0,.276.224.5.5.5h17.606c.276,0,.5-.224.5-.5s-.224-.5-.5-.5H1V1h16.606v3.471c-.416-.091-.871-.151-1.39-.151-4.809,0-4.958,4.397-4.958,4.44l-.104,4.401c-.03,1.391-.521,1.738-.517,1.738-.208.104-.317.336-.264.562.053.227.255.386.487.386h10.712c.232,0,.445-.153.498-.38.053-.226-.045-.452-.252-.556ZM11.843,14.848c.165-.39.295-.927.311-1.663l.104-4.399c.004-.142.141-3.465,3.958-3.465s3.955,3.323,3.958,3.464l.104,4.4c.016.736.146,1.273.311,1.663h-8.746Z"/>
        <path d="M17.341,16.489c-.021.101-.235.98-1.139.98s-1.104-.875-1.125-.976c-.052-.27-.312-.445-.583-.396-.271.051-.45.312-.399.584.116.618.706,1.787,2.106,1.787s1.997-1.166,2.119-1.783c.053-.27-.122-.529-.391-.585-.265-.055-.532.119-.59.388Z"/>
        <path d="M14.766,6.499c-.074.027-1.812.704-1.572,3.183.025.259.243.452.497.452.016,0,.032,0,.049-.002.275-.027.476-.271.449-.546-.163-1.68.874-2.128.93-2.151.256-.099.385-.384.29-.641-.096-.26-.385-.393-.643-.295Z"/>
      </g>
    </g>
  </g>
</svg>