<?xml version="1.0" encoding="UTF-8"?>
<svg xmlns="http://www.w3.org/2000/svg" version="1.1" viewBox="0 0 676.7 650.7">
  <!-- Generator: Adobe Illustrator 28.7.1, SVG Export Plug-In . SVG Version: 1.2.0 Build 142)  -->
  <g>
    <g id="Layer_1">
      <path d="M664.2,650.7h-222.2c-6.9,0-12.5-5.6-12.5-12.5v-168.4c0-50.2-40.9-91.2-91.2-91.2s-91.2,40.9-91.2,91.2v168.4c0,6.9-5.6,12.5-12.5,12.5H12.5c-6.9,0-12.5-5.6-12.5-12.5v-371.7c0-3.9,1.8-7.5,4.8-9.9L330.7,2.6c4.5-3.5,10.8-3.5,15.4,0l325.9,254c3.1,2.4,4.8,6,4.8,9.9v371.7c0,6.9-5.6,12.5-12.5,12.5ZM454.5,625.7h197.2v-353.1L338.4,28.4,25,272.6v353.1h197.2v-155.9c0-64.1,52.1-116.2,116.2-116.2s116.2,52.1,116.2,116.2v155.9h0Z"/>
    </g>
  </g>
</svg>