<?xml version="1.0" encoding="UTF-8"?>
<svg xmlns="http://www.w3.org/2000/svg" version="1.1" viewBox="0 0 763.8 755.3">
  <defs>
    <style>
      .cls-1 {
        fill: #040000;
      }
    </style>
  </defs>
  <!-- Generator: Adobe Illustrator 28.7.1, SVG Export Plug-In . SVG Version: 1.2.0 Build 142)  -->
  <g>
    <g id="Layer_1">
      <g>
        <path class="cls-1" d="M751.3,0H12.5C5.6,0,0,5.6,0,12.5v557.7c0,6.9,5.6,12.5,12.5,12.5h356.9v147.6h-141c-6.9,0-12.5,5.6-12.5,12.5s5.6,12.5,12.5,12.5h306.9c6.9,0,12.5-5.6,12.5-12.5s-5.6-12.5-12.5-12.5h-141v-147.6h356.9c6.9,0,12.5-5.6,12.5-12.5V12.5c0-6.9-5.6-12.5-12.5-12.5ZM738.8,557.7H25V25h713.8v532.7Z"/>
        <path class="cls-1" d="M165.8,375.2l89.2-89.2,91.5,137.3c2.1,3.1,5.4,5.1,9.2,5.5.4,0,.8,0,1.2,0,3.3,0,6.5-1.3,8.8-3.7l228.7-228.6v69.8c0,6.9,5.6,12.5,12.5,12.5s12.5-5.6,12.5-12.5v-100c0-3.2-1.2-6.4-3.7-8.8h0c-2.3-2.3-5.4-3.7-8.8-3.7h-100c-6.9,0-12.5,5.6-12.5,12.5s5.6,12.5,12.5,12.5h69.8l-217.9,217.8-91.5-137.3c-2.1-3.1-5.4-5.1-9.2-5.5-3.6-.4-7.4,1-10.1,3.6l-100,100c-4.9,4.9-4.9,12.8,0,17.7s12.8,4.9,17.7,0Z"/>
      </g>
    </g>
  </g>
</svg>