<?xml version="1.0" encoding="UTF-8"?>
<svg xmlns="http://www.w3.org/2000/svg" version="1.1" viewBox="0 0 813.5 825">
  <!-- Generator: Adobe Illustrator 28.7.1, SVG Export Plug-In . SVG Version: 1.2.0 Build 142)  -->
  <g>
    <g id="_레이어_1" data-name="레이어_1">
      <path d="M0,556.5c0-9.1,7.4-16.5,16.5-16.5h253.9l-43.3-43.3c-6.5-6.5-6.5-16.9,0-23.3s16.9-6.5,23.3,0l71.4,71.4c1.5,1.5,2.8,3.4,3.6,5.4,1.7,4,1.7,8.6,0,12.6-1.7,4-4.9,7.3-8.9,8.9-2,.8-4.1,1.3-6.3,1.3H16.5c-9.1,0-16.5-7.4-16.5-16.5ZM56.3,667.7h253.9c9.1,0,16.5-7.4,16.5-16.5s-7.4-16.5-16.5-16.5H16.5c-2.2,0-4.3.4-6.3,1.3-4,1.7-7.3,4.9-8.9,8.9-1.7,4-1.7,8.6,0,12.6.8,2,2.1,3.9,3.6,5.4l71.4,71.4c3.2,3.2,7.4,4.8,11.7,4.8s8.4-1.6,11.7-4.8c6.4-6.5,6.4-16.9,0-23.3l-43.3-43.3ZM797,0H163.3c-9.1,0-16.5,7.4-16.5,16.5v389.6c0,9.1,7.4,16.5,16.5,16.5s16.5-7.4,16.5-16.5V33h600.6v759H163.3c-9.1,0-16.5,7.4-16.5,16.5s7.4,16.5,16.5,16.5h633.6c9.1,0,16.5-7.4,16.5-16.5V16.5c0-9.1-7.4-16.5-16.5-16.5ZM270,199.1h50.8v146.9h26.2v-146.9h50.8v-22.9h-127.8v22.9ZM476.2,177.3l63,168.8h-27.5l-17.6-49h-61.4l-17.5,49h-26.9l.8-2.2,62.3-167.6h24.5l.4,1.1ZM457.2,228.4c-.8,2.5-1.9,5.5-3.1,8.9l-13.3,36.8h45.2l-14.4-40.4c-.7-2-1.4-3.7-1.9-5.3-.9-2.5-1.8-5-2.6-7.4l-2.4-7.5c-.4-1.3-.9-2.8-1.4-4.5-.5,1.7-1,3.2-1.3,4.5-.8,2.7-1.5,5.2-2.3,7.6l-2.5,7.3ZM550,346.1h29.8l41.3-69.8,40.9,69,.5.8h30.9l-54.8-87.6,50.5-79.7,1.6-2.5h-29.6l-38.1,64-37.9-63.2-.5-.8h-31.2l51.4,81.4-53.3,86-1.5,2.5ZM488.7,508.3c0,2.3,1.8,4.1,4.1,4.1h194.2c2.3,0,4.1-1.8,4.1-4.1s-1.8-4.1-4.1-4.1h-194.2c-2.3,0-4.1,1.8-4.1,4.1ZM687,567.1h-194.2c-2.3,0-4.1,1.8-4.1,4.1s1.8,4.1,4.1,4.1h194.2c2.3,0,4.1-1.8,4.1-4.1s-1.8-4.1-4.1-4.1ZM687,629.9h-194.2c-2.3,0-4.1,1.8-4.1,4.1s1.8,4.1,4.1,4.1h194.2c2.3,0,4.1-1.8,4.1-4.1s-1.8-4.1-4.1-4.1ZM687,692.8h-194.2c-2.3,0-4.1,1.8-4.1,4.1s1.8,4.1,4.1,4.1h194.2c2.3,0,4.1-1.8,4.1-4.1s-1.8-4.1-4.1-4.1Z"/>
    </g>
  </g>
</svg>