<?xml version="1.0" encoding="UTF-8"?>
<svg xmlns="http://www.w3.org/2000/svg" version="1.1" viewBox="0 0 26 35.5">
  <!-- Generator: Adobe Illustrator 28.7.1, SVG Export Plug-In . SVG Version: 1.2.0 Build 142)  -->
  <g>
    <g id="Layer_1">
      <g>
        <path d="M23.5,14.5h-2.877c-.917-1.153-2.061-2.086-3.368-2.721,1.524-1.26,2.412-3.113,2.412-5.112,0-3.676-2.991-6.667-6.667-6.667s-6.667,2.991-6.667,6.667c0,1.999.887,3.852,2.412,5.112-1.308.636-2.451,1.569-3.368,2.721h-2.877c-1.378,0-2.5,1.122-2.5,2.5v16c0,1.378,1.122,2.5,2.5,2.5h21c1.379,0,2.5-1.122,2.5-2.5v-16c0-1.378-1.121-2.5-2.5-2.5ZM9.929,12.357c.178-.067.303-.229.322-.419s-.072-.373-.233-.474c-1.681-1.047-2.684-2.841-2.684-4.798,0-3.125,2.542-5.667,5.667-5.667s5.667,2.542,5.667,5.667c0,1.957-1.004,3.75-2.685,4.798-.161.101-.252.284-.232.474.019.189.144.352.321.419,1.229.461,2.333,1.193,3.241,2.143H6.687c.908-.949,2.013-1.681,3.242-2.143ZM23.5,34.5H2.5c-.827,0-1.5-.673-1.5-1.5v-16c0-.827.673-1.5,1.5-1.5h21c.827,0,1.5.673,1.5,1.5v3.5h-11.5c-2.481,0-4.5,2.019-4.5,4.5s2.019,4.5,4.5,4.5h11.5v3.5c0,.827-.673,1.5-1.5,1.5ZM25,28.5h-11.5c-1.93,0-3.5-1.57-3.5-3.5s1.57-3.5,3.5-3.5h11.5v7Z"/>
        <circle cx="13.5" cy="25" r="1.5"/>
        <path d="M16.81,7.093c.052-.271-.127-.533-.397-.584-.276-.049-.533.126-.585.398-.23,1.213-1.42,2.093-2.827,2.093s-2.597-.88-2.827-2.093c-.051-.271-.308-.446-.584-.398-.271.051-.449.313-.398.584.32,1.684,1.922,2.907,3.81,2.907s3.489-1.222,3.81-2.907Z"/>
      </g>
    </g>
  </g>
</svg>