<?xml version="1.0" encoding="UTF-8"?>
<svg xmlns="http://www.w3.org/2000/svg" version="1.1" viewBox="0 0 18.137 14.563">
  <!-- Generator: Adobe Illustrator 28.7.1, SVG Export Plug-In . SVG Version: 1.2.0 Build 142)  -->
  <g>
    <g id="Layer_1">
      <g>
        <path d="M8.361,7.121c.956-.757,1.514-1.893,1.514-3.121C9.875,1.794,8.081,0,5.875,0S1.875,1.794,1.875,4c0,1.228.558,2.364,1.513,3.121-2.044.958-3.388,3.04-3.388,5.317,0,1.172.953,2.125,2.125,2.125h7.5c1.172,0,2.125-.953,2.125-2.125,0-2.277-1.344-4.358-3.389-5.317Z"/>
        <path d="M14.748,7.121c.956-.757,1.514-1.893,1.514-3.121,0-2.206-1.794-4-4-4-.948,0-1.809.346-2.496.899.683.855,1.109,1.924,1.109,3.101,0,1.059-.331,2.067-.934,2.903,1.739,1.281,2.809,3.336,2.809,5.535,0,.823-.326,1.566-.847,2.125h4.109c1.172,0,2.125-.953,2.125-2.125,0-2.277-1.344-4.358-3.389-5.317Z"/>
      </g>
    </g>
  </g>
</svg>