<?xml version="1.0" encoding="UTF-8"?>
<svg xmlns="http://www.w3.org/2000/svg" version="1.1" viewBox="0 0 615.4 615.4">
  <defs>
    <style>
      .cls-1 {
        fill: #040000;
      }
    </style>
  </defs>
  <!-- Generator: Adobe Illustrator 28.7.1, SVG Export Plug-In . SVG Version: 1.2.0 Build 142)  -->
  <g>
    <g id="Layer_1">
      <path class="cls-1" d="M387.1,149.5c-4.8-4.9-12.8-4.9-17.7,0l-201.2,201.2c-2.1,2.2-3.4,5-3.6,8.1l-4.9,76.7c-.2,3.5,1,6.9,3.5,9.5,2.4,2.4,5.6,3.8,9,3.8h.4l79.1-2.6c3.2,0,6.2-1.4,8.4-3.7l201.2-201.2c2.3-2.3,3.7-5.5,3.7-8.8s-1.3-6.5-3.7-8.8l-74.2-74.1ZM245.9,421.3l-60.4,2,3.8-58.2,189-189.1,56.5,56.5-188.9,188.9ZM307.7,0C138,0,0,138,0,307.7s138,307.7,307.7,307.7,307.7-138,307.7-307.7S477.4,0,307.7,0ZM307.7,590.4c-155.9,0-282.7-126.8-282.7-282.7S151.8,25,307.7,25s282.7,126.8,282.7,282.7-126.8,282.7-282.7,282.7Z"/>
    </g>
  </g>
</svg>