<?xml version="1.0" encoding="UTF-8"?>
<svg xmlns="http://www.w3.org/2000/svg" version="1.1" viewBox="0 0 729.1 578.7">
  <defs>
    <style>
      .cls-1 {
        fill: #040000;
      }
    </style>
  </defs>
  <!-- Generator: Adobe Illustrator 28.7.1, SVG Export Plug-In . SVG Version: 1.2.0 Build 142)  -->
  <g>
    <g id="Layer_1">
      <path class="cls-1" d="M666.6,89.2h-129.8l-32.1-57.3c-11-19.7-31.9-31.9-54.4-31.9h-171.3c-22.6,0-43.5,12.2-54.5,31.9l-32.1,57.3H62.6C28.1,89.2,0,117.3,0,151.8v364.4c0,34.5,28.1,62.5,62.6,62.5h604c34.5,0,62.5-28.1,62.5-62.5V151.8c0-34.5-28.1-62.6-62.5-62.6ZM704.1,516.2c0,20.7-16.8,37.5-37.5,37.5H62.6c-20.7,0-37.6-16.8-37.6-37.5V151.8c0-20.7,16.9-37.6,37.6-37.6h137.1c4.5,0,8.7-2.4,10.9-6.4l35.7-63.7c6.6-11.8,19.1-19.1,32.7-19.1h171.3c13.5,0,26,7.4,32.7,19.1l35.7,63.7c2.2,4,6.3,6.4,10.9,6.4h137.1c20.7,0,37.5,16.9,37.5,37.6v364.4ZM364.6,196.4c-72.7,0-131.8,59.1-131.8,131.8s59.1,131.8,131.8,131.8,131.8-59.1,131.8-131.8-59.1-131.8-131.8-131.8ZM364.6,435c-58.9,0-106.8-48-106.8-106.8s47.9-106.8,106.8-106.8,106.8,47.9,106.8,106.8-47.9,106.8-106.8,106.8ZM650.9,194.6c0,15.1-12.3,27.4-27.4,27.4s-27.4-12.3-27.4-27.4,12.3-27.4,27.4-27.4c15.1,0,27.4,12.3,27.4,27.4Z"/>
    </g>
  </g>
</svg>