<?xml version="1.0" encoding="UTF-8"?>
<svg xmlns="http://www.w3.org/2000/svg" version="1.1" viewBox="0 0 21.077 26.625">
  <!-- Generator: Adobe Illustrator 28.7.1, SVG Export Plug-In . SVG Version: 1.2.0 Build 142)  -->
  <g>
    <g id="Layer_1">
      <g>
        <path d="M20.577,2h-1.5V.5c0-.276-.224-.5-.5-.5s-.5.224-.5.5v1.5h-1.5c-.276,0-.5.224-.5.5s.224.5.5.5h1.5v1.5c0,.276.224.5.5.5s.5-.224.5-.5v-1.5h1.5c.276,0,.5-.224.5-.5s-.224-.5-.5-.5Z"/>
        <path d="M13.56,9.593c.052-.271-.127-.533-.397-.584-.275-.05-.533.126-.585.398-.23,1.213-1.42,2.093-2.828,2.093s-2.597-.88-2.827-2.093c-.051-.271-.31-.446-.584-.398-.271.051-.449.313-.398.584.32,1.684,1.922,2.907,3.81,2.907s3.49-1.222,3.81-2.907Z"/>
        <path d="M14.005,14.279c1.523-1.26,2.411-3.114,2.411-5.113,0-3.676-2.99-6.667-6.667-6.667s-6.667,2.991-6.667,6.667c0,1.999.887,3.853,2.412,5.113-3.321,1.616-5.496,5.031-5.496,8.763,0,1.976,1.607,3.583,3.583,3.583h12.333c1.977,0,3.584-1.607,3.584-3.583,0-3.731-2.175-7.146-5.495-8.763ZM15.917,25.625H3.583c-1.424,0-2.583-1.159-2.583-2.583,0-3.62,2.282-6.909,5.679-8.185.178-.066.303-.229.322-.418s-.071-.373-.233-.474c-1.681-1.048-2.684-2.842-2.684-4.799,0-3.125,2.542-5.667,5.667-5.667s5.667,2.542,5.667,5.667c0,1.957-1.003,3.751-2.684,4.799-.161.101-.252.284-.232.474.019.189.144.352.321.418,3.396,1.275,5.679,4.564,5.679,8.185,0,1.424-1.159,2.583-2.584,2.583Z"/>
      </g>
    </g>
  </g>
</svg>