<?xml version="1.0" encoding="UTF-8"?>
<svg xmlns="http://www.w3.org/2000/svg" version="1.1" viewBox="0 0 701.6 812.5">
  <!-- Generator: Adobe Illustrator 28.7.1, SVG Export Plug-In . SVG Version: 1.2.0 Build 142)  -->
  <g>
    <g id="Layer_1">
      <path d="M68.6,12.5c0-6.9,5.6-12.5,12.5-12.5h536.3c6.9,0,12.5,5.6,12.5,12.5s-5.6,12.5-12.5,12.5H81.1c-6.9,0-12.5-5.6-12.5-12.5ZM462.6,272.9c-4.5-5.2-12.4-5.8-17.6-1.3l-128.9,111.2-62.3-55.2c-5.2-4.6-13.1-4.1-17.6,1-4.6,5.2-4.1,13.1,1,17.6l70.5,62.5c2.4,2.1,5.4,3.1,8.3,3.1s5.8-1,8.1-3l137.2-118.3c5.2-4.5,5.8-12.4,1.3-17.6ZM701.6,588.8v211.2c0,6.9-5.6,12.5-12.5,12.5H12.5c-6.9,0-12.5-5.6-12.5-12.5v-211.2c0-6.9,5.6-12.5,12.5-12.5h35.8V66.4c0-6.9,5.6-12.5,12.5-12.5h580c6.9,0,12.5,5.6,12.5,12.5v509.9h35.8c6.9,0,12.5,5.6,12.5,12.5ZM73.3,576.3h555V78.9H73.3v497.4h0ZM676.6,601.3H25v186.2h651.6v-186.2Z"/>
    </g>
  </g>
</svg>