<?xml version="1.0" encoding="UTF-8"?>
<svg xmlns="http://www.w3.org/2000/svg" version="1.1" viewBox="0 0 19.625 12.208">
  <!-- Generator: Adobe Illustrator 28.7.1, SVG Export Plug-In . SVG Version: 1.2.0 Build 142)  -->
  <g>
    <g id="Layer_1">
      <path d="M15.972,12.208H3.777c-.015,0-.029,0-.043-.004l-.081.004c-2.015,0-3.653-1.639-3.653-3.653,0-1.932,1.508-3.519,3.409-3.645.127-2.729,2.387-4.91,5.146-4.91,1.884,0,3.632,1.049,4.527,2.695.404-.218.855-.332,1.319-.332,1.523,0,2.766,1.229,2.787,2.748,1.443.511,2.437,1.899,2.437,3.443,0,2.015-1.639,3.653-3.653,3.653ZM3.831,11.708h12.141c1.738,0,3.153-1.415,3.153-3.153,0-1.389-.931-2.632-2.264-3.023-.112-.033-.187-.139-.179-.255,0,0,0-.029,0-.029.003-.031.005-.062.005-.095,0-1.262-1.026-2.288-2.287-2.288-.459,0-.901.135-1.28.391-.06.041-.137.053-.205.034-.07-.019-.129-.068-.16-.134-.768-1.613-2.417-2.655-4.201-2.655C5.99.5,3.903,2.586,3.903,5.151c0,.138-.112.25-.25.25-1.739,0-3.153,1.415-3.153,3.153s1.415,3.153,3.153,3.153c.003,0,.114-.006.118-.006.022.005.041.002.06.006Z"/>
    </g>
  </g>
</svg>