<?xml version="1.0" encoding="UTF-8"?>
<svg xmlns="http://www.w3.org/2000/svg" version="1.1" viewBox="0 0 825 762.5">
  <defs>
    <style>
      .cls-1 {
        fill: #040000;
      }
    </style>
  </defs>
  <!-- Generator: Adobe Illustrator 28.7.1, SVG Export Plug-In . SVG Version: 1.2.0 Build 142)  -->
  <g>
    <g id="Layer_1">
      <g>
        <path class="cls-1" d="M255.6,279.6h326.7c6.9,0,12.5-5.6,12.5-12.5s-5.6-12.5-12.5-12.5H255.6c-6.9,0-12.5,5.6-12.5,12.5s5.6,12.5,12.5,12.5Z"/>
        <path class="cls-1" d="M582.2,359.6H255.6c-6.9,0-12.5,5.6-12.5,12.5s5.6,12.5,12.5,12.5h326.7c6.9,0,12.5-5.6,12.5-12.5s-5.6-12.5-12.5-12.5Z"/>
        <path class="cls-1" d="M382.2,459.6h-126.7c-6.9,0-12.5,5.6-12.5,12.5s5.6,12.5,12.5,12.5h126.7c6.9,0,12.5-5.6,12.5-12.5s-5.6-12.5-12.5-12.5Z"/>
        <path class="cls-1" d="M812.5,737.5h-71.9V12.5c0-6.9-5.6-12.5-12.5-12.5H98.1c-6.9,0-12.5,5.6-12.5,12.5v725H12.5c-6.9,0-12.5,5.6-12.5,12.5s5.6,12.5,12.5,12.5h800c6.9,0,12.5-5.6,12.5-12.5s-5.6-12.5-12.5-12.5ZM110.6,25h605v712.5H110.6V25Z"/>
      </g>
    </g>
  </g>
</svg>