<?xml version="1.0" encoding="UTF-8"?>
<svg xmlns="http://www.w3.org/2000/svg" version="1.1" viewBox="0 0 689.5 729.1">
  <defs>
    <style>
      .cls-1 {
        fill: #040000;
      }
    </style>
  </defs>
  <!-- Generator: Adobe Illustrator 28.7.1, SVG Export Plug-In . SVG Version: 1.2.0 Build 142)  -->
  <g>
    <g id="Layer_1">
      <g>
        <path class="cls-1" d="M677,275c-6.9,0-12.5,5.6-12.5,12.5v416.6H25v-416.6c0-6.9-5.6-12.5-12.5-12.5s-12.5,5.6-12.5,12.5v429.1c0,6.9,5.6,12.5,12.5,12.5h664.5c6.9,0,12.5-5.6,12.5-12.5v-429.1c0-6.9-5.6-12.5-12.5-12.5Z"/>
        <path class="cls-1" d="M328.7,566.3c2.3,2.3,5.5,3.7,8.8,3.7s6.5-1.3,8.8-3.7l106-106.1c4.9-4.9,4.9-12.8,0-17.7-4.9-4.9-12.8-4.8-17.7,0l-84.7,84.8V12.5c0-6.9-5.6-12.5-12.5-12.5s-12.5,5.6-12.5,12.5v514.8l-84.7-84.8c-4.9-4.9-12.8-4.9-17.7,0s-4.9,12.8,0,17.7l106.1,106.1Z"/>
      </g>
    </g>
  </g>
</svg>