<?xml version="1.0" encoding="UTF-8"?>
<svg xmlns="http://www.w3.org/2000/svg" version="1.1" viewBox="0 0 16.703 18.594">
  <!-- Generator: Adobe Illustrator 28.7.1, SVG Export Plug-In . SVG Version: 1.2.0 Build 142)  -->
  <g>
    <g id="Layer_1">
      <g id="Layer_1-2" data-name="Layer_1">
        <path d="M8.352,1.891c-1.665,0-3.261.497-4.637,1.421L5.051.325h0c.007-.023.01-.048.01-.074,0-.139-.113-.251-.251-.251-.091,0-.172.049-.216.121h0l-1.656,3.704c-.029.066-.028.143.003.209.03.066.089.115.159.134l3.913,1.072c.022.006.045.009.066.009.11,0,.211-.073.241-.184.036-.133-.042-.271-.175-.307l-3.348-.918s.031-.013.064-.035c1.321-.925,2.874-1.414,4.49-1.414,4.329,0,7.852,3.522,7.852,7.852s-3.522,7.852-7.852,7.852S.5,14.573.5,10.243c0-.138-.112-.25-.25-.25s-.25.112-.25.25c0,4.605,3.746,8.352,8.352,8.352s8.352-3.747,8.352-8.352S12.957,1.891,8.352,1.891Z"/>
      </g>
    </g>
  </g>
</svg>