<?xml version="1.0" encoding="UTF-8"?>
<svg xmlns="http://www.w3.org/2000/svg" version="1.1" viewBox="0 0 18.8 16.8">
  <!-- Generator: Adobe Illustrator 28.7.0, SVG Export Plug-In . SVG Version: 1.2.0 Build 136)  -->
  <g>
    <g id="Layer_1">
      <g>
        <path d="M11.7,8c0-.1,0-.3-.2-.3-.1,0-.3,0-.3.2-.2.8-.9,1.4-1.8,1.4s-1.7-.6-1.8-1.4c0-.1-.2-.2-.3-.2-.1,0-.2.2-.2.3.2,1,1.2,1.8,2.3,1.8s2.1-.7,2.3-1.8Z"/>
        <path d="M2.5,7.7c0,0-.1-.1-.2-.1h-.7C2,3.6,5.3.5,9.4.5s5.7,1.7,7.1,4.4c0,.1.2.2.3.1.1,0,.2-.2.1-.3C15.5,1.8,12.6,0,9.4,0S1.5,3.3,1,7.6H.3c0,0-.2,0-.2.1,0,0,0,.2,0,.3l1,1.5c0,0,.1.1.2.1s.2,0,.2-.1l1-1.5c0,0,0-.2,0-.3Z"/>
        <path d="M18.7,8.8l-1-1.5c0-.1-.3-.1-.4,0l-1,1.5c0,0,0,.2,0,.3,0,0,.1.1.2.1h.7c-.2,1.8-1,3.5-2.2,4.7-.7-1.3-1.8-2.4-3.2-3,1.3-.9,1.9-2.5,1.6-4.1-.3-1.6-1.6-2.9-3.1-3.2-1.2-.3-2.5,0-3.5.8-1,.8-1.5,1.9-1.5,3.2s.6,2.5,1.7,3.3c-1.4.6-2.5,1.6-3.2,3-.6-.6-1.1-1.3-1.5-2,0-.1-.2-.2-.3-.1-.1,0-.2.2-.1.3,1.4,2.9,4.3,4.6,7.5,4.6s7.9-3.3,8.3-7.6h.8c0,0,.2,0,.2-.1,0,0,0-.2,0-.3ZM4.1,14.3s0,0,0,0c.7-1.4,2-2.5,3.4-3,0,0,.2-.1.2-.2s0-.2-.1-.2c-1.1-.6-1.9-1.8-1.9-3.1s.5-2.1,1.3-2.8c.8-.7,2-.9,3-.7,1.4.3,2.5,1.4,2.7,2.8.3,1.6-.4,3.1-1.8,3.9,0,0-.1.1-.1.2s0,.2.2.2c1.5.5,2.8,1.6,3.4,3,0,0,0,0,0,0-1.4,1.2-3.2,2-5.2,2s-3.8-.7-5.2-2Z"/>
      </g>
    </g>
  </g>
</svg>