<?xml version="1.0" encoding="UTF-8"?>
<svg xmlns="http://www.w3.org/2000/svg" version="1.1" viewBox="0 0 615.2 615.2">
  <defs>
    <style>
      .cls-1 {
        fill: #010101;
      }
    </style>
  </defs>
  <!-- Generator: Adobe Illustrator 28.7.1, SVG Export Plug-In . SVG Version: 1.2.0 Build 142)  -->
  <g>
    <g id="Layer_1">
      <path class="cls-1" d="M307.5,415c-3.5,0-6.8-1.5-9.2-4l-149.7-161.4c-4.7-5-4.4-13,.7-17.6,5-4.7,12.9-4.4,17.6.7l140.6,151.5,140.5-151.5c4.8-5,12.7-5.4,17.7-.7,5.1,4.7,5.4,12.6.7,17.6l-149.7,161.3c-2.4,2.5-5.7,4-9.2,4ZM525.1,525.1c58.1-58.1,90-135.3,90-217.6s-32-159.5-90-217.6c-120-119.9-315.1-119.9-435.2,0-119.9,120-119.9,315.2,0,435.2,58,58.1,135.3,90,217.6,90s159.5-32,217.6-90ZM507.4,107.6c53.3,53.3,82.7,124.3,82.7,199.9s-29.4,146.6-82.7,199.9-124.3,82.7-199.9,82.7-146.6-29.4-199.9-82.7C-2.6,397.2-2.6,217.9,107.6,107.6c55.1-55.1,127.5-82.6,199.9-82.6s144.8,27.5,199.9,82.6Z"/>
    </g>
  </g>
</svg>