<?xml version="1.0" encoding="UTF-8"?>
<svg xmlns="http://www.w3.org/2000/svg" version="1.1" viewBox="0 0 832.9 815.5">
  <defs>
    <style>
      .cls-1 {
        fill: #040000;
      }
    </style>
  </defs>
  <!-- Generator: Adobe Illustrator 28.7.1, SVG Export Plug-In . SVG Version: 1.2.0 Build 142)  -->
  <g>
    <g id="Layer_1">
      <g>
        <path class="cls-1" d="M672,579.4c-37,0-67,30.1-67,67s30.1,67,67,67,67.1-30.1,67.1-67-30.1-67-67.1-67ZM672,688.5c-23.2,0-42-18.8-42-42s18.8-42,42-42,42.1,18.8,42.1,42-18.9,42-42.1,42Z"/>
        <path class="cls-1" d="M805.3,666.6c1-6.6,1.5-13.4,1.5-20.1s-.5-13.5-1.5-20.1l24.5-27.6c3.6-4,4.2-9.9,1.5-14.5l-25.7-44.5c-2.7-4.6-8.2-6.9-13.3-6l-36.4,7.5c-10.5-8.4-22.1-15.1-34.5-20l-11.7-35.2c-1.7-5.1-6.5-8.5-11.9-8.5h-51.4c-5.4,0-10.2,3.5-11.9,8.5l-11.7,35.2c-12.5,4.9-24,11.6-34.5,20l-36.4-7.5c-5.1-.9-10.6,1.4-13.3,6l-25.7,44.5c-2.7,4.7-2.1,10.5,1.5,14.5l24.5,27.6c-1,6.6-1.5,13.4-1.5,20.1s.5,13.5,1.5,20.1l-24.5,27.6c-3.6,4-4.2,9.9-1.5,14.5l25.7,44.5c2.7,4.6,8.2,7,13.3,6l36.4-7.5c10.5,8.4,22.1,15.1,34.5,20l11.7,35.2c1.7,5.1,6.5,8.5,11.9,8.5h51.4c5.4,0,10.2-3.5,11.9-8.5l11.7-35.2c12.5-4.9,24-11.6,34.5-20l36.4,7.5c5.2,1,10.6-1.4,13.3-6l25.7-44.5c2.7-4.7,2.1-10.5-1.5-14.5l-24.5-27.6ZM781.8,646.5c0,7.2-.7,14.4-2.2,21.4-.8,3.9.3,7.9,2.9,10.8l22.5,25.4-16.7,28.9-33.5-6.8c-3.8-.6-7.8.3-10.7,2.8-10.9,9.5-23.4,16.8-37,21.4-3.7,1.3-6.6,4.2-7.8,7.9l-10.8,32.3h-33.3l-10.8-32.3c-1.2-3.7-4.2-6.6-7.8-7.9-13.6-4.6-26-11.9-37-21.4-2.9-2.5-6.9-3.5-10.7-2.8l-33.5,6.8-16.7-28.9,22.5-25.4c2.6-2.9,3.7-6.9,2.9-10.8-1.4-7-2.2-14.2-2.2-21.4s.7-14.4,2.2-21.4c.8-3.9-.3-7.9-2.9-10.8l-22.5-25.4,16.7-28.9,33.5,6.8c3.8.7,7.8-.3,10.7-2.8,10.9-9.5,23.4-16.8,37-21.4,3.7-1.3,6.6-4.2,7.8-7.9l10.8-32.3h33.3l10.8,32.3c1.2,3.7,4.2,6.6,7.8,7.9,13.6,4.6,26,11.9,37,21.4,2.9,2.5,6.9,3.5,10.7,2.8l33.5-6.8,16.7,28.9-22.5,25.4c-2.6,2.9-3.7,6.9-2.9,10.8,1.4,7,2.2,14.2,2.2,21.4Z"/>
        <path class="cls-1" d="M436.8,582.7c6.9,0,12.5-5.6,12.5-12.5s-5.6-12.5-12.5-12.5H25V25h713.8v382.4c0,6.9,5.6,12.5,12.5,12.5s12.5-5.6,12.5-12.5V12.5c0-6.9-5.6-12.5-12.5-12.5H12.5C5.6,0,0,5.6,0,12.5v557.7c0,6.9,5.6,12.5,12.5,12.5h356.9v147.6h-141c-6.9,0-12.5,5.6-12.5,12.5s5.6,12.5,12.5,12.5h206.9c6.9,0,12.5-5.6,12.5-12.5s-5.6-12.5-12.5-12.5h-41v-147.6h42.4Z"/>
        <path class="cls-1" d="M227.1,119.1c-9.6-3.4-20.8-5.1-33.4-5.1h-81.1v239.8h23.3v-94.8h57.9c12.2,0,23-1.8,32.6-5.3,9.5-3.5,17.5-8.5,24.1-14.8s11.5-13.7,15-22.1c3.4-8.4,5.1-17.5,5.1-27.3v-7c0-9.7-1.6-18.8-4.8-27.2-3.2-8.4-8.1-15.7-14.5-21.8-6.4-6.1-14.5-10.8-24.1-14.3ZM246.8,188.8c0,15.1-4.7,27-14,35.9-9.3,8.9-24.3,13.3-44.9,13.3h-52.2v-103.1h55.9c18.9,0,32.8,4.4,41.8,13.3,9,8.9,13.5,20.4,13.5,34.6v6h0Z"/>
        <path class="cls-1" d="M382.5,114h-74.8v239.8h74.8c30.4,0,54.2-8.8,71.3-26.4,17.2-17.6,25.8-43.1,25.8-76.3v-34.2c0-33.2-8.6-58.7-25.8-76.3-17.2-17.6-40.9-26.4-71.3-26.4ZM456.3,249.3c0,14.4-1.8,26.8-5.5,37.3s-8.7,19.1-15.1,26.1-14.2,12.1-23.3,15.5c-9.1,3.3-19,5-29.6,5h-51.9v-198.5h51.9c10.6,0,20.5,1.7,29.6,5,9.1,3.3,16.8,8.5,23.3,15.5s11.5,15.7,15.1,26.3,5.5,22.9,5.5,37.1v30.9Z"/>
        <path class="cls-1" d="M645.5,310c-2.7,5-6.6,9.4-11.8,13.3s-11.5,6.9-19,9.1c-7.4,2.2-15.8,3.3-25.1,3.3s-22-2-33.5-5.8-23.1-10.1-35.1-18.8l-12,19.6c10.6,8.2,22.8,14.7,36.7,19.5s28.8,7.1,44.7,7.1,24.5-1.7,34.8-5c10.3-3.3,19-7.9,25.9-13.6s12.3-12.4,16.1-20,5.7-15.6,5.7-24.3v-7.7c0-8.6-1.2-16.3-3.7-22.9-2.4-6.7-6.6-12.6-12.7-18-6-5.3-14.1-10-24.3-14.1s-23-7.9-38.6-11.5c-10.8-2.4-19.9-5.1-27.2-8s-13.1-6-17.5-9.3c-4.3-3.3-7.4-7.1-9.3-11.3-1.9-4.2-2.8-8.9-2.8-14v-6.7c0-6.2,1.5-11.7,4.5-16.6,3-4.9,7-9,12-12.4,5-3.4,10.8-6.1,17.4-7.8,6.6-1.8,13.7-2.7,21-2.7,12.5,0,23.6,1.6,33.6,4.8s18.8,7.6,26.6,13.1l11-18.9c-8.2-5.8-18.1-10.6-29.6-14.5s-25.4-5.8-41.6-5.8-21.8,1.5-31.4,4.5c-9.7,3-18,7.1-25,12.4s-12.4,11.7-16.3,19.1c-3.9,7.4-5.8,15.7-5.8,24.8v7.7c0,7.5,1.2,14.5,3.5,20.8,2.3,6.3,6.3,12.1,12,17.3,5.7,5.2,13.2,9.9,22.6,14s21.1,7.7,35.1,10.8c12.9,2.9,23.3,5.8,31.5,8.8,8.1,3,14.5,6.3,19.1,10,4.6,3.6,7.9,7.7,9.6,12.1,1.8,4.4,2.7,9.4,2.7,15v7c0,5.3-1.4,10.5-4,15.4Z"/>
      </g>
    </g>
  </g>
</svg>