<?xml version="1.0" encoding="UTF-8"?>
<svg xmlns="http://www.w3.org/2000/svg" version="1.1" viewBox="0 0 834 834">
  <defs>
    <style>
      .cls-1 {
        fill: #040000;
      }
    </style>
  </defs>
  <!-- Generator: Adobe Illustrator 28.7.1, SVG Export Plug-In . SVG Version: 1.2.0 Build 142)  -->
  <g>
    <g id="Layer_1">
      <path class="cls-1" d="M417,0C187.1,0,0,187.1,0,417s187.1,417,417,417,417-187.1,417-417S647,0,417,0ZM417,809c-216.2,0-392-175.8-392-392S200.9,25,417,25s392,175.9,392,392-175.9,392-392,392ZM602.9,555.8c5.3,4.4,6,12.3,1.6,17.6-2.5,3-6,4.5-9.6,4.5s-5.7-.9-8-2.9l-177.9-148.4c-2.9-2.4-4.5-5.9-4.5-9.6V118c0-6.9,5.6-12.5,12.5-12.5s12.5,5.6,12.5,12.5v293.1l173.4,144.6Z"/>
    </g>
  </g>
</svg>