<?xml version="1.0" encoding="UTF-8"?>
<svg xmlns="http://www.w3.org/2000/svg" version="1.1" viewBox="0 0 20.631 23.008">
  <!-- Generator: Adobe Illustrator 28.7.1, SVG Export Plug-In . SVG Version: 1.2.0 Build 142)  -->
  <g>
    <g id="Layer_1">
      <g>
        <path d="M9.303,22.008H1V1h16.606v10.504c0,.276.224.5.5.5s.5-.224.5-.5V.5c0-.276-.224-.5-.5-.5H.5C.224,0,0,.224,0,.5v22.008c0,.276.224.5.5.5h8.803c.276,0,.5-.224.5-.5s-.224-.5-.5-.5Z"/>
        <path d="M14.031,4.32H4.901c-.276,0-.5.224-.5.5s.224.5.5.5h9.13c.276,0,.5-.224.5-.5s-.224-.5-.5-.5Z"/>
        <path d="M14.031,7.255H4.901c-.276,0-.5.224-.5.5s.224.5.5.5h9.13c.276,0,.5-.224.5-.5s-.224-.5-.5-.5Z"/>
        <path d="M9.629,10.189h-4.728c-.276,0-.5.224-.5.5s.224.5.5.5h4.728c.276,0,.5-.224.5-.5s-.224-.5-.5-.5Z"/>
        <path d="M20.118,20.014c.298-.604.448-1.229.448-1.864,0-2.537-2.256-4.601-5.029-4.601s-5.029,2.063-5.029,4.601,2.256,4.6,5.029,4.6c.602,0,1.193-.099,1.762-.294l2.734.543c.032.007.065.01.098.01.132,0,.261-.053.355-.148.118-.119.168-.29.134-.454l-.502-2.392ZM19.103,20.045l.384,1.825-2.128-.423c-.032-.007-.065-.01-.098-.01-.06,0-.119.011-.175.031-.498.187-1.019.28-1.549.28-2.222,0-4.029-1.615-4.029-3.6s1.808-3.601,4.029-3.601,4.029,1.615,4.029,3.601c0,.524-.14,1.048-.414,1.555-.057.104-.074.225-.05.341Z"/>
      </g>
    </g>
  </g>
</svg>