<?xml version="1.0" encoding="UTF-8"?>
<svg xmlns="http://www.w3.org/2000/svg" version="1.1" viewBox="0 0 763.9 687.8">
  <!-- Generator: Adobe Illustrator 28.7.1, SVG Export Plug-In . SVG Version: 1.2.0 Build 142)  -->
  <g>
    <g id="Layer_1">
      <path d="M673.1,687.8h-173.6c-6.9,0-12.5-5.6-12.5-12.5v-168.1c0-57.9-47.1-105-105-105s-105,47.1-105,105v168.1c0,6.9-5.6,12.5-12.5,12.5H90.7c-6.9,0-12.5-5.6-12.5-12.5v-361.7H12.5c-5.3,0-10.1-3.4-11.8-8.4-1.7-5,0-10.6,4.1-13.9L374.2,2.7c4.5-3.6,10.9-3.6,15.4,0l369.5,288.6c4.2,3.3,5.9,8.9,4.1,13.9-1.8,5-6.5,8.4-11.8,8.4h-65.8v361.7c0,6.9-5.6,12.5-12.5,12.5ZM511.9,662.8h148.6v-361.7c0-6.9,5.6-12.5,12.5-12.5h41.9L381.9,28.4,48.8,288.6h41.9c6.9,0,12.5,5.6,12.5,12.5v361.7h148.6v-155.6c0-71.7,58.3-130,130-130s130,58.3,130,130v155.6Z"/>
    </g>
  </g>
</svg>