<?xml version="1.0" encoding="UTF-8"?>
<svg xmlns="http://www.w3.org/2000/svg" version="1.1" viewBox="0 0 724.8 775.8">
  <defs>
    <style>
      .cls-1 {
        fill: #040000;
      }
    </style>
  </defs>
  <!-- Generator: Adobe Illustrator 28.7.1, SVG Export Plug-In . SVG Version: 1.2.0 Build 142)  -->
  <g>
    <g id="Layer_1">
      <path class="cls-1" d="M235,212.1l27.4,408.8c.5,6.9-4.8,12.8-11.6,13.3-.3,0-.6,0-.9,0-6.5,0-12-5.1-12.5-11.7l-27.4-408.8c-.5-6.9,4.8-12.8,11.6-13.3,6.7-.4,12.8,4.7,13.3,11.7ZM349.9,212.9v408.8c0,6.9,5.6,12.5,12.5,12.5s12.5-5.6,12.5-12.5V212.9c0-6.9-5.6-12.5-12.5-12.5s-12.5,5.6-12.5,12.5ZM474.1,634.1c.3,0,.5,0,.8,0,6.5,0,12-5.1,12.5-11.7l27.4-408.8c.5-6.9-4.7-12.8-11.6-13.3-6.6-.6-12.8,4.7-13.3,11.6l-27.4,408.8c-.5,6.9,4.7,12.8,11.6,13.3ZM724.8,101.7c0,6.9-5.6,12.5-12.5,12.5h-38.4l-42.1,557.3c-4.4,58.5-53.8,104.2-112.3,104.2H205.4c-58.6,0-107.9-45.8-112.4-104.2L50.9,114.2H12.5c-6.9,0-12.5-5.6-12.5-12.5s5.6-12.5,12.5-12.5h337.4V12.5c0-6.9,5.6-12.5,12.5-12.5s12.5,5.6,12.5,12.5v76.7h337.4c6.9,0,12.5,5.6,12.5,12.5ZM648.8,114.2H76l42,555.5c3.4,45.5,41.8,81,87.4,81h314c45.6,0,84-35.6,87.5-81l42-555.5Z"/>
    </g>
  </g>
</svg>