<?xml version="1.0" encoding="UTF-8"?>
<svg xmlns="http://www.w3.org/2000/svg" version="1.1" viewBox="0 0 715.6 838.7">
  <defs>
    <style>
      .cls-1 {
        fill: #040000;
      }
    </style>
  </defs>
  <!-- Generator: Adobe Illustrator 28.7.1, SVG Export Plug-In . SVG Version: 1.2.0 Build 142)  -->
  <g>
    <g id="Layer_1">
      <g>
        <path class="cls-1" d="M554.7,602.6c-37,0-67,30.1-67,67s30.1,67.1,67,67.1,67.1-30.1,67.1-67.1c0-37-30.1-67-67.1-67ZM554.7,711.8c-23.2,0-42-18.9-42-42.1s18.8-42,42-42,42.1,18.8,42.1,42-18.9,42.1-42.1,42.1Z"/>
        <path class="cls-1" d="M687.9,689.7c1-6.8,1.6-13.5,1.6-20.1s-.5-13.2-1.6-20l24.6-27.7c3.6-4,4.2-9.9,1.5-14.5l-25.7-44.5c-2.7-4.6-7.8-6.9-13.4-6l-36.4,7.5c-10.5-8.4-22.1-15.1-34.6-20l-11.7-35.2c-1.7-5.1-6.5-8.5-11.9-8.5h-51.4c-5.4,0-10.2,3.5-11.9,8.5l-11.7,35.2c-12.5,4.9-24,11.6-34.5,20l-36.4-7.5c-5.3-.9-10.7,1.4-13.3,6l-25.7,44.5c-2.7,4.6-2.1,10.5,1.5,14.5l24.5,27.6c-1,6.7-1.5,13.4-1.5,20.1s.5,13.4,1.5,20.1l-24.5,27.6c-3.6,4-4.2,9.9-1.5,14.5l25.7,44.5c2.7,4.6,7.9,6.9,13.3,6l36.3-7.4c10.5,8.4,22.1,15.1,34.6,20l11.7,35.2c1.7,5.1,6.5,8.5,11.9,8.5h51.4c5.4,0,10.2-3.5,11.9-8.5l11.7-35.2c12.5-4.9,24.1-11.6,34.6-20l36.4,7.4c5.2.9,10.6-1.4,13.3-6l25.7-44.5c2.7-4.6,2.1-10.5-1.5-14.5l-24.6-27.7ZM664.5,669.7c0,6.9-.7,14.2-2.2,21.5-.8,3.8.3,7.8,2.9,10.7l22.6,25.4-16.7,28.9-33.5-6.8c-3.9-.7-7.8.2-10.7,2.9-10.9,9.6-23.3,16.8-36.9,21.3-3.7,1.3-6.6,4.2-7.9,7.9l-10.8,32.3h-33.3l-10.8-32.3c-1.2-3.7-4.2-6.6-7.9-7.9-13.6-4.6-26-11.8-36.9-21.3-2.9-2.6-6.8-3.5-10.7-2.9l-33.5,6.8-16.7-28.9,22.5-25.4c2.6-2.9,3.7-6.9,2.9-10.7-1.4-7.1-2.1-14.3-2.1-21.4s.7-14.3,2.1-21.4c.8-3.8-.3-7.8-2.9-10.7l-22.5-25.4,16.7-28.9,33.4,6.9c4,.6,7.9-.3,10.8-2.9,10.9-9.5,23.3-16.7,36.9-21.4,3.7-1.3,6.6-4.2,7.8-7.9l10.8-32.3h33.3l10.8,32.3c1.2,3.7,4.2,6.6,7.8,7.9,13.7,4.6,26.1,11.9,37,21.4,2.9,2.6,6.7,3.5,10.8,2.9l33.5-6.9,16.7,28.9-22.6,25.4c-2.6,2.9-3.7,6.9-2.9,10.7,1.4,7.3,2.2,14.5,2.2,21.5Z"/>
        <path class="cls-1" d="M327.5,787.5H25V25h605v381.2c0,6.9,5.6,12.5,12.5,12.5s12.5-5.6,12.5-12.5V12.5c0-6.9-5.6-12.5-12.5-12.5H12.5C5.6,0,0,5.6,0,12.5v787.5c0,6.9,5.6,12.5,12.5,12.5h315c6.9,0,12.5-5.6,12.5-12.5s-5.6-12.5-12.5-12.5Z"/>
        <path class="cls-1" d="M496.7,154.6H170c-6.9,0-12.5,5.6-12.5,12.5s5.6,12.5,12.5,12.5h326.7c6.9,0,12.5-5.6,12.5-12.5s-5.6-12.5-12.5-12.5Z"/>
        <path class="cls-1" d="M496.7,259.6H170c-6.9,0-12.5,5.6-12.5,12.5s5.6,12.5,12.5,12.5h326.7c6.9,0,12.5-5.6,12.5-12.5s-5.6-12.5-12.5-12.5Z"/>
        <path class="cls-1" d="M339.2,364.6h-169.2c-6.9,0-12.5,5.6-12.5,12.5s5.6,12.5,12.5,12.5h169.2c6.9,0,12.5-5.6,12.5-12.5s-5.6-12.5-12.5-12.5Z"/>
      </g>
    </g>
  </g>
</svg>