<?xml version="1.0" encoding="UTF-8"?>
<svg xmlns="http://www.w3.org/2000/svg" version="1.1" viewBox="0 0 615.2 615.2">
  <defs>
    <style>
      .cls-1 {
        fill: #010101;
      }
    </style>
  </defs>
  <!-- Generator: Adobe Illustrator 28.7.1, SVG Export Plug-In . SVG Version: 1.2.0 Build 142)  -->
  <g>
    <g id="Layer_1">
      <path class="cls-1" d="M457.3,386.5c-3.4,0-6.7-1.3-9.2-4l-140.5-151.4-140.5,151.4c-4.7,5.1-12.6,5.3-17.6.7-5.1-4.7-5.4-12.7-.7-17.7l149.7-161.3c4.7-5.1,13.6-5.1,18.3,0l149.7,161.3c4.7,5,4.4,12.9-.7,17.7-2.4,2.2-5.5,3.3-8.5,3.3ZM525.1,525.1c58.1-58.1,90-135.3,90-217.6s-32-159.5-90-217.6c-120-120-315.2-120-435.2,0h0c-119.9,120-119.9,315.2,0,435.2,58.1,58.1,135.3,90,217.6,90,82.3,0,159.5-32,217.6-90ZM107.6,107.7C217.8-2.5,397.1-2.6,507.4,107.7c53.3,53.3,82.7,124.3,82.7,199.9s-29.4,146.6-82.7,199.9-124.3,82.7-199.9,82.7-146.6-29.4-199.9-82.7C-2.6,397.3-2.6,217.9,107.6,107.7h0Z"/>
    </g>
  </g>
</svg>