<?xml version="1.0" encoding="UTF-8"?>
<svg xmlns="http://www.w3.org/2000/svg" version="1.1" viewBox="0 0 796.3 715.9">
  <defs>
    <style>
      .cls-1 {
        fill: #040000;
      }
    </style>
  </defs>
  <!-- Generator: Adobe Illustrator 28.7.1, SVG Export Plug-In . SVG Version: 1.2.0 Build 142)  -->
  <g>
    <g id="Layer_1">
      <path class="cls-1" d="M776.9,567.2L484,59.8C461.7,21.2,431.2,0,398.1,0s-63.5,21.2-85.8,59.8L19.4,567.2c-22.3,38.6-25.5,75.6-8.9,104.2,16.5,28.6,50.2,44.4,94.8,44.4h585.9c44.6,0,78.2-15.8,94.7-44.4,16.5-28.6,13.4-65.7-8.9-104.2ZM421.4,584.2c-6.6,5.9-14.3,8.8-23.1,8.8s-16.8-2.9-23.4-8.7c-6.7-5.8-10-13.9-10-24.3s3.2-16.8,9.6-23.2c6.4-6.4,14.2-9.6,23.4-9.6s17.1,3.2,23.6,9.6c6.5,6.3,9.8,14.1,9.8,23.2,0,10.3-3.3,18.3-9.9,24.2ZM429.8,340.5l-9.5,108.3c-1,12.9-3.2,22.8-6.6,29.7-3.4,6.9-8.9,10.3-16.7,10.3s-13.4-3.3-16.5-10-5.3-16.8-6.6-30.4l-7-105.2c-1.3-20.5-2-35.2-2-44.2s3.2-21.7,9.6-28.4c6.4-6.8,14.8-10.2,25.1-10.2s21,4.4,25.3,13.1c4.2,8.7,6.4,21.3,6.4,37.7,0,9.7-.5,19.5-1.5,29.4Z"/>
    </g>
  </g>
</svg>