<?xml version="1.0" encoding="UTF-8"?>
<svg xmlns="http://www.w3.org/2000/svg" version="1.1" viewBox="0 0 590.7 590.7">
  <defs>
    <style>
      .cls-1 {
        fill: #040000;
      }
    </style>
  </defs>
  <!-- Generator: Adobe Illustrator 28.7.1, SVG Export Plug-In . SVG Version: 1.2.0 Build 142)  -->
  <g>
    <g id="Layer_1">
      <path class="cls-1" d="M313,295.4L587,21.3c4.9-4.9,4.9-12.8,0-17.7s-12.8-4.9-17.7,0l-274,274L21.3,3.7C16.5-1.2,8.6-1.2,3.7,3.7s-4.9,12.8,0,17.7l274,274L3.7,569.4c-4.9,4.9-4.9,12.8,0,17.7,2.4,2.4,5.6,3.7,8.8,3.7s6.4-1.2,8.8-3.7l274-274,274,274c2.4,2.4,5.6,3.7,8.8,3.7s6.4-1.2,8.8-3.7c4.9-4.9,4.9-12.8,0-17.7l-274-274Z"/>
    </g>
  </g>
</svg>