<?xml version="1.0" encoding="UTF-8"?>
<svg xmlns="http://www.w3.org/2000/svg" version="1.1" viewBox="0 0 809 809">
  <defs>
    <style>
      .cls-1 {
        fill: #040000;
      }
    </style>
  </defs>
  <!-- Generator: Adobe Illustrator 28.7.1, SVG Export Plug-In . SVG Version: 1.2.0 Build 142)  -->
  <g>
    <g id="Layer_1">
      <path class="cls-1" d="M404.5,0C181.4,0,0,181.4,0,404.5s181.4,404.5,404.5,404.5,404.5-181.4,404.5-404.5c0-223.1-181.4-404.5-404.5-404.5ZM422.8,607.2c-5.9,5.8-13.2,8.8-21.9,8.8s-15.6-2.9-21.7-8.8c-6-5.9-9.1-13-9.1-21.4s3-15.7,9.1-21.7c6-6,13.2-9,21.7-9s16.1,3,21.9,9,8.8,13.3,8.8,21.7c0,8.4-2.9,15.5-8.8,21.4ZM527,308.3c0,18.3-4.8,34.6-14.3,49.1-9.5,14.4-23.8,30-42.8,46.9-11.3,10.2-20.3,19-26.9,26.3-6.6,7.3-11.6,14-15.1,20-3.5,6-5.7,11.9-6.6,17.5-.9,5.7-1.4,12-1.4,18.9s-1.9,9-5.8,11.5c-3.8,2.6-8.1,3.9-12.9,3.9s-9.7-1.3-13.7-3.9c-4-2.5-6-6.6-6-12.1,0-9.1.5-17.5,1.6-25.2s3.6-15.2,7.4-22.5c3.8-7.3,9.1-15,15.9-23,6.7-8,16-17.2,27.7-27.4,9.9-8.8,18.2-16.7,25-23.9s12.2-13.7,16.5-19.8c4.2-6,7.1-12,8.8-17.8,1.6-5.8,2.5-12.1,2.5-18.6v-4.4c0-19.4-6.7-34.9-20-46.6-13.3-11.7-32.1-17.5-56.2-17.5s-34.4,3.1-47.2,9.3c-12.8,6.2-24.5,14.1-35.1,23.6-4,3.3-8.3,4.7-12.9,4.1-4.6-.6-8.5-2.8-11.8-6.9-3.7-4-5.4-8.3-5.2-12.9.2-4.6,2.3-8.7,6.3-12.3,11.7-11,26.6-20.6,44.7-28.8,18.1-8.2,38.3-12.4,60.6-12.4s34.1,2.4,48.5,7.1c14.5,4.8,26.8,11.4,37,20,10.2,8.6,18,18.9,23.3,31s8,25.6,8,40.6v6h0Z"/>
    </g>
  </g>
</svg>