<?xml version="1.0" encoding="UTF-8"?>
<svg xmlns="http://www.w3.org/2000/svg" version="1.1" viewBox="0 0 738.8 704.1">
  <!-- Generator: Adobe Illustrator 28.7.1, SVG Export Plug-In . SVG Version: 1.2.0 Build 142)  -->
  <g>
    <g id="Layer_1">
      <path d="M593.7,120.3H145.2V0h448.5v120.3ZM145.2,417.1h448.5v287H145.2v-287ZM203.3,500c0,6.9,5.6,12.5,12.5,12.5h153.6c6.9,0,12.5-5.6,12.5-12.5s-5.6-12.5-12.5-12.5h-153.6c-6.9,0-12.5,5.6-12.5,12.5ZM203.3,580.8c0,6.9,5.6,12.5,12.5,12.5h153.6c6.9,0,12.5-5.6,12.5-12.5s-5.6-12.5-12.5-12.5h-153.6c-6.9,0-12.5,5.6-12.5,12.5ZM738.8,183.8v288.4c0,22.1-17.9,40-40,40h-80.2v-116.1l-498.5-1.6v117.7H40c-22.1,0-40-17.9-40-40V183.8c0-22.1,17.9-40,40-40h658.8c22.1,0,40,17.9,40,40ZM653.5,271c0-19.2-15.6-34.8-34.8-34.8s-34.8,15.6-34.8,34.8,15.6,34.8,34.8,34.8,34.8-15.6,34.8-34.8Z"/>
    </g>
  </g>
</svg>