<?xml version="1.0" encoding="UTF-8"?>
<svg xmlns="http://www.w3.org/2000/svg" version="1.1" viewBox="0 0 835.2 841.6">
  <defs>
    <style>
      .cls-1 {
        fill: #040000;
      }
    </style>
  </defs>
  <!-- Generator: Adobe Illustrator 28.7.1, SVG Export Plug-In . SVG Version: 1.2.0 Build 142)  -->
  <g>
    <g id="Layer_1">
      <g id="Layer_1-2" data-name="Layer_1">
        <path class="cls-1" d="M809.6,277.3c-38.3-104.6-115.2-188-216.5-235C491.8-4.7,378.5-9.4,273.9,29c-78.1,28.7-144.5,79.5-193.2,146.5L91.9,12.6h0v-.2h0c-.2-6.8-5.6-12.2-12.4-12.2s-11.4,4.7-12.4,10.6h0l-.1,1.9h0l-13.9,200.3c-.2,3.6,1.1,7.2,3.7,9.8,2.3,2.3,5.5,3.6,8.8,3.6h1.1l202.1-17c6.9-.6,12-6.6,11.4-13.5s-6.8-12.2-13.5-11.4l-172.427,14.476s.727-1.076,1.927-2.676c46.1-66.2,110.6-115.8,186.5-143.6,98.3-36.1,204.9-31.6,300.1,12.6,95.2,44.2,167.5,122.6,203.6,220.9,16.2,44.1,24.3,90.1,24,136.8,0,6.9,5.5,12.5,12.5,12.6h0c6.9,0,12.5-5.5,12.5-12.4.3-49.6-8.3-98.6-25.6-145.5l-.2-.4ZM778.6,619.1c-2.6-2.6-6.3-3.9-9.9-3.3l-202.1,17c-6.9.6-12,6.6-11.4,13.5s6.9,12.7,13.5,11.4l172.534-14.476s-.834,1.076-1.934,2.776c-46.1,66.1-110.6,115.8-186.5,143.6-98.3,36-204.9,31.5-300.1-12.6-95.2-44.1-167.6-122.6-203.6-220.9-16.2-44.1-24.3-90.1-24-136.8,0-6.9-5.5-12.5-12.4-12.6h0c-6.9,0-12.5,5.5-12.5,12.4-.3,49.7,8.3,98.6,25.5,145.5,38.3,104.6,115.3,188,216.6,235,56,26,115.7,39,175.6,39s96.9-8.5,143.6-25.7c78.1-28.6,144.5-79.5,193.2-146.5l-11.2,162.4h0l-.043.906c.5,6.5,5.943,11.594,12.543,11.594s11.137-5.57,12.337-11.17l.163-1.23v-.2c0-.1,0,0,0-.1l13.8-199.7c.3-3.7-1.1-7.2-3.7-9.8h0Z"/>
      </g>
    </g>
  </g>
</svg>