<?xml version="1.0" encoding="UTF-8"?>
<svg xmlns="http://www.w3.org/2000/svg" version="1.1" viewBox="0 0 615.4 615.4">
  <defs>
    <style>
      .cls-1 {
        fill: #040000;
      }
    </style>
  </defs>
  <!-- Generator: Adobe Illustrator 28.7.1, SVG Export Plug-In . SVG Version: 1.2.0 Build 142)  -->
  <g>
    <g id="Layer_1">
      <path class="cls-1" d="M307.7,0C138,0,0,138,0,307.7s138,307.7,307.7,307.7,307.7-138,307.7-307.7c0-169.6-138-307.7-307.7-307.7ZM259.6,367.7l-72.8,72.8h24.6c6.9,0,12.5,5.6,12.5,12.5s-5.6,12.5-12.5,12.5h-54.8c-3.2,0-6.4-1.2-8.8-3.7h0c-2.3-2.3-3.7-5.4-3.7-8.8v-51.6c0-6.9,5.6-12.5,12.5-12.5s12.5,5.6,12.5,12.5v21.4l72.8-72.8c4.9-4.9,12.8-4.9,17.7,0s4.9,12.8,0,17.7ZM259.6,265.4c-2.4,2.4-5.6,3.7-8.8,3.7s-6.4-1.2-8.8-3.7l-72.8-72.8v24.5c0,6.9-5.6,12.5-12.5,12.5s-12.5-5.6-12.5-12.5v-54.6c0-6.9,5.6-12.5,12.5-12.5h54.8c6.9,0,12.5,5.6,12.5,12.5s-5.6,12.5-12.5,12.5h-24.6l72.8,72.8c4.9,4.9,4.9,12.8,0,17.7ZM471.2,453c0,3.2-1.2,6.4-3.7,8.8s-5.6,3.7-8.8,3.7h-54.6c-6.9,0-12.5-5.6-12.5-12.5s5.6-12.5,12.5-12.5h24.4l-72.8-72.8c-4.9-4.9-4.9-12.8,0-17.7s12.8-4.9,17.7,0l72.8,72.8v-21.4c0-6.9,5.6-12.5,12.5-12.5s12.5,5.6,12.5,12.5v51.6h0ZM471.2,217c0,6.9-5.6,12.5-12.5,12.5s-12.5-5.6-12.5-12.5v-24.5l-72.8,72.8c-2.4,2.4-5.6,3.7-8.8,3.7s-6.4-1.2-8.8-3.7c-4.9-4.9-4.9-12.8,0-17.7l72.8-72.8h-24.4c-6.9,0-12.5-5.6-12.5-12.5s5.6-12.5,12.5-12.5h54.6c3.4,0,6.6,1.4,8.8,3.7h0c2.4,2.4,3.7,5.6,3.7,8.8v54.6Z"/>
    </g>
  </g>
</svg>