<?xml version="1.0" encoding="UTF-8"?>
<svg xmlns="http://www.w3.org/2000/svg" version="1.1" viewBox="0 0 20.96 25.769">
  <!-- Generator: Adobe Illustrator 28.7.1, SVG Export Plug-In . SVG Version: 1.2.0 Build 142)  -->
  <g>
    <g id="Layer_1">
      <g>
        <path d="M13.56,8.737c.052-.271-.127-.533-.397-.584-.275-.052-.533.126-.585.398-.23,1.213-1.42,2.093-2.828,2.093s-2.597-.88-2.827-2.093c-.051-.271-.309-.445-.584-.398-.271.051-.449.313-.398.584.32,1.684,1.922,2.907,3.81,2.907s3.49-1.222,3.81-2.907Z"/>
        <path d="M14.005,13.422c1.523-1.259,2.411-3.113,2.411-5.112,0-3.676-2.99-6.667-6.667-6.667s-6.667,2.991-6.667,6.667c0,1.999.887,3.853,2.412,5.112-3.32,1.617-5.495,5.032-5.495,8.763,0,1.977,1.607,3.584,3.583,3.584h12.333c1.977,0,3.584-1.607,3.584-3.584,0-3.73-2.175-7.146-5.495-8.763ZM15.917,24.769H3.583c-1.424,0-2.583-1.159-2.583-2.584,0-3.619,2.282-6.908,5.679-8.185.178-.066.303-.229.322-.418.019-.189-.072-.374-.233-.474-1.68-1.047-2.684-2.84-2.684-4.798,0-3.125,2.542-5.667,5.667-5.667s5.667,2.542,5.667,5.667c0,1.958-1.003,3.751-2.684,4.798-.161.101-.252.285-.233.474.02.189.144.352.322.418,3.396,1.276,5.679,4.565,5.679,8.185,0,1.425-1.159,2.584-2.584,2.584Z"/>
        <path d="M20.822.155c-.192-.199-.508-.207-.707-.018l-2.072,1.972-1.017-.901c-.208-.184-.523-.166-.706.042-.184.207-.164.522.042.706l1.36,1.206c.095.084.214.126.332.126.124,0,.248-.046.345-.138l2.405-2.289c.2-.19.208-.507.018-.707Z"/>
      </g>
    </g>
  </g>
</svg>