<?xml version="1.0" encoding="UTF-8"?>
<svg xmlns="http://www.w3.org/2000/svg" version="1.1" viewBox="0 0 588.3 728.5">
  <!-- Generator: Adobe Illustrator 28.7.1, SVG Export Plug-In . SVG Version: 1.2.0 Build 142)  -->
  <g>
    <g id="Layer_1">
      <path d="M501.2,0H87C39,0,0,39,0,87v569c0,40,32.6,72.6,72.6,72.6h452.5c34.9,0,63.2-28.4,63.2-63.2V87.1c0-48-39-87.1-87.1-87.1ZM563.3,665.2c0,21.1-17.1,38.2-38.2,38.2H72.6c-26.2,0-47.6-21.3-47.6-47.6V87c0-34.2,27.8-62,62-62h414.2c34.2,0,62.1,27.9,62.1,62.1v578.2h0ZM414.8,261.4l-102.9,102.9,102.9,102.9c4.9,4.9,4.9,12.8,0,17.7-2.4,2.4-5.6,3.7-8.8,3.7s-6.4-1.2-8.8-3.7l-102.9-102.9-102.9,102.9c-2.4,2.4-5.6,3.7-8.8,3.7s-6.4-1.2-8.8-3.7c-4.9-4.9-4.9-12.8,0-17.7l102.9-102.9-102.9-102.9c-4.9-4.9-4.9-12.8,0-17.7s12.8-4.9,17.7,0l102.9,102.9,102.9-102.9c4.9-4.9,12.8-4.9,17.7,0s4.9,12.8,0,17.7Z"/>
    </g>
  </g>
</svg>