<?xml version="1.0" encoding="UTF-8"?>
<svg xmlns="http://www.w3.org/2000/svg" version="1.1" viewBox="0 0 16.68 18.223">
  <!-- Generator: Adobe Illustrator 28.7.1, SVG Export Plug-In . SVG Version: 1.2.0 Build 142)  -->
  <g>
    <g id="Layer_1">
      <g>
        <path d="M14.314,4.076l.982-.982c.098-.098.098-.256,0-.354-.098-.096-.256-.098-.354,0l-.991.99c-1.425-1.301-3.298-2.114-5.361-2.176V.5h.937c.138,0,.25-.112.25-.25s-.112-.25-.25-.25h-2.366c-.138,0-.25.112-.25.25s.112.25.25.25h.929v1.056c-2.063.062-3.936.874-5.362,2.176l-.991-.991c-.098-.098-.256-.098-.354,0s-.098.256,0,.354l.982.982C.905,5.579,0,7.626,0,9.883c0,4.599,3.742,8.34,8.34,8.34s8.34-3.741,8.34-8.34c0-2.257-.905-4.304-2.366-5.807ZM8.34,17.723c-4.323,0-7.84-3.517-7.84-7.84s3.517-7.84,7.84-7.84,7.84,3.517,7.84,7.84-3.517,7.84-7.84,7.84Z"/>
        <path d="M8.34,4.12h0v5.763l-4.074,4.074c1.044,1.044,2.484,1.69,4.074,1.69,3.179,0,5.763-2.585,5.763-5.763s-2.585-5.763-5.763-5.763Z"/>
      </g>
    </g>
  </g>
</svg>