<?xml version="1.0" encoding="UTF-8"?>
<svg xmlns="http://www.w3.org/2000/svg" version="1.1" viewBox="0 0 825 814.9">
  <defs>
    <style>
      .cls-1 {
        fill: #040000;
      }
    </style>
  </defs>
  <!-- Generator: Adobe Illustrator 28.7.1, SVG Export Plug-In . SVG Version: 1.2.0 Build 142)  -->
  <g>
    <g id="Layer_1">
      <g>
        <path class="cls-1" d="M824.6,533.4c-.2-2.9-1.1-5.8-3.3-7.9l-102.5-102.6c-2.2-2.2-5-3.1-8-3.3-.3,0-.5-.4-.9-.4h-220.5c-6.9,0-12.5,5.6-12.5,12.5v370.7c0,6.9,5.6,12.5,12.5,12.5h323.1c6.9,0,12.5-5.6,12.5-12.5v-268.1c0-.3-.4-.6-.4-.9ZM782.3,521.8h-59.9v-59.9l59.9,59.9ZM501.9,789.9v-345.7h195.6v90.1c0,6.9,5.6,12.5,12.5,12.5h90v243.1h-298.1Z"/>
        <path class="cls-1" d="M348.1,383.2V115.1c0-.4-.4-.6-.4-.9-.2-2.9-1.1-5.7-3.3-7.9L241.9,3.7c-2.1-2.2-5-3-7.9-3.3-.4,0-.6-.4-1-.4H12.5C5.6,0,0,5.6,0,12.5v370.7c0,6.9,5.6,12.5,12.5,12.5h323.1c6.9,0,12.5-5.6,12.5-12.5ZM305.4,102.6h-59.9v-59.9l59.9,59.9ZM25,370.7V25h195.5v90.1c0,6.9,5.6,12.5,12.5,12.5h90.1v243.1H25Z"/>
        <path class="cls-1" d="M348.4,752.8H50v-246.1c0-6.9-5.6-12.5-12.5-12.5s-12.5,5.6-12.5,12.5v258.6c0,6.9,5.6,12.5,12.5,12.5h310.9c6.9,0,12.5-5.6,12.5-12.5s-5.6-12.5-12.5-12.5Z"/>
        <path class="cls-1" d="M739,339.9c0,6.9,5.6,12.5,12.5,12.5s12.5-5.6,12.5-12.5V81.4c0-6.9-5.6-12.5-12.5-12.5h-312c-6.9,0-12.5,5.6-12.5,12.5s5.6,12.5,12.5,12.5h299.5v246Z"/>
      </g>
    </g>
  </g>
</svg>