<?xml version="1.0" encoding="UTF-8"?>
<svg xmlns="http://www.w3.org/2000/svg" version="1.1" viewBox="0 0 763.8 755.3">
  <defs>
    <style>
      .cls-1 {
        fill: #010101;
      }
    </style>
  </defs>
  <!-- Generator: Adobe Illustrator 28.7.1, SVG Export Plug-In . SVG Version: 1.2.0 Build 142)  -->
  <g>
    <g id="Layer_1">
      <path class="cls-1" d="M359.5,445.8h.4l80.8-2.7c3.2,0,6.2-1.4,8.4-3.7l205.5-205.5c2.3-2.3,3.7-5.5,3.7-8.8s-1.3-6.5-3.7-8.8l-75.7-75.7c-4.7-4.7-13-4.7-17.7,0l-205.5,205.5c-2.1,2.1-3.4,5-3.6,8l-5,78.4c-.2,3.5,1,6.9,3.5,9.5,2.4,2.5,5.6,3.8,9,3.8ZM376.7,360.4l193.3-193.4,58.1,58.1-193.2,193.1-62.1,2.1,3.9-59.9ZM138.8,433.3c0-6.9,5.6-12.5,12.5-12.5h146.7c6.9,0,12.5,5.6,12.5,12.5s-5.6,12.5-12.5,12.5h-146.7c-6.9,0-12.5-5.6-12.5-12.5ZM751.3,0H12.5C5.6,0,0,5.6,0,12.5v557.7c0,6.9,5.6,12.5,12.5,12.5h356.9v147.6h-141c-6.9,0-12.5,5.6-12.5,12.5s5.6,12.5,12.5,12.5h306.9c6.9,0,12.5-5.6,12.5-12.5s-5.6-12.5-12.5-12.5h-141v-147.6h356.9c6.9,0,12.5-5.6,12.5-12.5V12.5c0-6.9-5.6-12.5-12.5-12.5ZM738.8,557.7H25V25h713.8v532.7Z"/>
    </g>
  </g>
</svg>