<?xml version="1.0" encoding="UTF-8"?>
<svg xmlns="http://www.w3.org/2000/svg" version="1.1" viewBox="0 0 615.4 615.4">
  <defs>
    <style>
      .cls-1 {
        fill: #040000;
      }
    </style>
  </defs>
  <!-- Generator: Adobe Illustrator 28.7.1, SVG Export Plug-In . SVG Version: 1.2.0 Build 142)  -->
  <g>
    <g id="Layer_1">
      <path class="cls-1" d="M307.7,0C138,0,0,138,0,307.7s138,307.7,307.7,307.7,307.7-138,307.7-307.7c0-169.6-138-307.7-307.7-307.7ZM446.6,242.7l-172.8,148.9c-2.3,2-5.2,3-8.1,3s-5.9-1.1-8.3-3.1l-88.8-78.7c-5.1-4.6-5.6-12.5-1-17.6,4.5-5.2,12.5-5.7,17.6-1l80.6,71.5,164.5-141.8c5.2-4.5,13.1-3.9,17.6,1.3s3.9,13.1-1.3,17.6Z"/>
    </g>
  </g>
</svg>