<?xml version="1.0" encoding="UTF-8"?>
<svg xmlns="http://www.w3.org/2000/svg" version="1.1" viewBox="0 0 505 762.5">
  <!-- Generator: Adobe Illustrator 28.7.1, SVG Export Plug-In . SVG Version: 1.2.0 Build 142)  -->
  <g>
    <g id="Layer_1">
      <path d="M492.5,0H12.5C5.6,0,0,5.6,0,12.5v737.5c0,6.9,5.6,12.5,12.5,12.5h480c6.9,0,12.5-5.6,12.5-12.5V12.4c0-6.9-5.6-12.4-12.5-12.4ZM25,124.4h455v410.4H25V124.4ZM480,25v74.5H25V25h455ZM25,737.4v-177.6h455v177.7H25ZM252.5,601.2c-26.1,0-47.4,21.2-47.4,47.4s21.2,47.4,47.4,47.4,47.4-21.2,47.4-47.4-21.3-47.4-47.4-47.4ZM252.5,670.9c-12.3,0-22.4-10-22.4-22.4s10-22.4,22.4-22.4,22.4,10,22.4,22.4-10.1,22.4-22.4,22.4Z"/>
    </g>
  </g>
</svg>