<?xml version="1.0" encoding="UTF-8"?>
<svg xmlns="http://www.w3.org/2000/svg" version="1.1" viewBox="0 0 15.058 14.852">
  <!-- Generator: Adobe Illustrator 28.7.1, SVG Export Plug-In . SVG Version: 1.2.0 Build 142)  -->
  <g>
    <g id="Layer_1">
      <path d="M14.809,14.852H.25c-.069,0-.135-.028-.183-.079-.047-.051-.071-.118-.067-.187.204-3.164,2.369-5.845,5.357-6.741-1.267-.753-2.055-2.11-2.055-3.618C3.303,1.896,5.199,0,7.529,0s4.227,1.896,4.227,4.227c0,1.509-.787,2.865-2.055,3.618,2.987.895,5.152,3.577,5.356,6.74.005.069-.02.137-.066.188-.048.051-.113.079-.183.079ZM.522,14.352h14.016c-.313-3.054-2.586-5.576-5.609-6.185-.108-.021-.189-.113-.199-.224s.055-.214.158-.254c1.439-.564,2.369-1.923,2.369-3.462,0-2.055-1.672-3.727-3.727-3.727s-3.727,1.672-3.727,3.727c0,1.539.93,2.897,2.37,3.462.103.041.167.145.158.254-.01.11-.091.202-.2.224-3.023.608-5.295,3.132-5.609,6.185Z"/>
    </g>
  </g>
</svg>