<?xml version="1.0" encoding="UTF-8"?>
<svg xmlns="http://www.w3.org/2000/svg" version="1.1" viewBox="0 0 16.125 14.576">
  <!-- Generator: Adobe Illustrator 28.7.1, SVG Export Plug-In . SVG Version: 1.2.0 Build 142)  -->
  <g>
    <g id="Layer_1">
      <path d="M16.118,7.135c-.005-.059-.022-.115-.065-.158l-2.441-2.441c-.043-.043-.1-.061-.158-.065-.007,0-.012-.008-.019-.008h-3.611c.018-.154.053-.305.053-.462,0-2.206-1.794-4-4-4S1.875,1.794,1.875,4c0,1.228.558,2.364,1.513,3.121-2.044.958-3.388,3.04-3.388,5.316,0,1.172.953,2.125,2.125,2.125h6.028c.012.002.02.014.033.014h7.69c.138,0,.25-.112.25-.25v-7.172c0-.007-.007-.012-.008-.019ZM15.272,6.904h-1.588v-1.588l1.588,1.588ZM.5,12.437c0-2.224,1.402-4.243,3.488-5.027.089-.033.151-.114.161-.209.01-.095-.036-.187-.116-.237-1.038-.647-1.658-1.755-1.658-2.964,0-1.93,1.57-3.5,3.5-3.5s3.5,1.57,3.5,3.5c0,1.208-.62,2.316-1.658,2.964-.081.05-.126.142-.116.237.009.095.072.176.161.209,2.086.784,3.489,2.804,3.489,5.027,0,.896-.729,1.625-1.625,1.625H2.125c-.896,0-1.625-.729-1.625-1.625ZM10.962,14.076c.477-.39.789-.976.789-1.639,0-2.276-1.345-4.358-3.389-5.316.698-.553,1.178-1.312,1.389-2.158h3.433v2.191c0,.138.112.25.25.25h2.191v6.672h-4.664Z"/>
    </g>
  </g>
</svg>