<?xml version="1.0" encoding="UTF-8"?>
<svg xmlns="http://www.w3.org/2000/svg" version="1.1" viewBox="0 0 767.5 773.6">
  <defs>
    <style>
      .cls-1 {
        fill: #040000;
      }
    </style>
  </defs>
  <!-- Generator: Adobe Illustrator 28.7.1, SVG Export Plug-In . SVG Version: 1.2.0 Build 142)  -->
  <g>
    <g id="Layer_1">
      <g>
        <path class="cls-1" d="M322.6,0H12.5C5.6,0,0,5.6,0,12.5v748.6c0,6.9,5.6,12.5,12.5,12.5h188.4c6.9,0,12.5-5.6,12.5-12.5s-5.6-12.5-12.5-12.5H25V25h285.1v714.2c0,6.9,5.6,12.5,12.5,12.5s12.5-5.6,12.5-12.5V12.5c0-6.9-5.6-12.5-12.5-12.5Z"/>
        <path class="cls-1" d="M755,0h-310.1c-6.9,0-12.5,5.6-12.5,12.5v748.6c0,6.9,5.6,12.5,12.5,12.5h193.9c6.9,0,12.5-5.6,12.5-12.5s-5.6-12.5-12.5-12.5h-181.4V25h285.1v714.2c0,6.9,5.6,12.5,12.5,12.5s12.5-5.6,12.5-12.5V12.5c0-6.9-5.6-12.5-12.5-12.5Z"/>
        <path class="cls-1" d="M209.6,428.7h-86.1c-6.9,0-12.5,5.6-12.5,12.5s5.6,12.5,12.5,12.5h86.1c6.9,0,12.5-5.6,12.5-12.5s-5.6-12.5-12.5-12.5Z"/>
        <path class="cls-1" d="M209.6,319.9h-86.1c-6.9,0-12.5,5.6-12.5,12.5s5.6,12.5,12.5,12.5h86.1c6.9,0,12.5-5.6,12.5-12.5s-5.6-12.5-12.5-12.5Z"/>
        <path class="cls-1" d="M587.5,334.3v105c0,6.9,5.6,12.5,12.5,12.5s12.5-5.6,12.5-12.5v-105c0-6.9-5.6-12.5-12.5-12.5s-12.5,5.6-12.5,12.5Z"/>
      </g>
    </g>
  </g>
</svg>