<?xml version="1.0" encoding="UTF-8"?>
<svg xmlns="http://www.w3.org/2000/svg" version="1.1" viewBox="0 0 791.9 837.3">
  <!-- Generator: Adobe Illustrator 28.7.1, SVG Export Plug-In . SVG Version: 1.2.0 Build 142)  -->
  <g>
    <g id="Layer_1">
      <path d="M55.4,713.8h.4l196-6.5c3.2,0,6.2-1.4,8.4-3.7l498.7-498.7c4.9-4.9,4.9-12.8,0-17.7L575.2,3.5c-4.7-4.7-13-4.7-17.7,0L58.8,502.3c-2.1,2.2-3.4,5-3.6,8.1l-12.2,190.2c-.2,3.5,1.1,6.9,3.5,9.5,2.4,2.4,5.6,3.8,9,3.8ZM79.8,516.6L566.4,30l166.1,166.1-486.4,486.4-177.3,5.9,11.1-171.7ZM431,823.5c0,6.9-5.6,12.5-12.5,12.5H12.5c-6.9,0-12.5-5.6-12.5-12.5s5.6-12.5,12.5-12.5h406c6.9,0,12.5,5.6,12.5,12.5ZM791.9,680.6c0,6.9-5.6,12.5-12.5,12.5h-131.6v131.6c0,6.9-5.6,12.5-12.5,12.5s-12.5-5.6-12.5-12.5v-131.6h-131.6c-6.9,0-12.5-5.6-12.5-12.5s5.6-12.5,12.5-12.5h131.6v-131.6c0-6.9,5.6-12.5,12.5-12.5s12.5,5.6,12.5,12.5v131.6h131.6c6.9,0,12.5,5.6,12.5,12.5Z"/>
    </g>
  </g>
</svg>