<?xml version="1.0" encoding="UTF-8"?>
<svg xmlns="http://www.w3.org/2000/svg" version="1.1" viewBox="0 0 588.3 728.5">
  <!-- Generator: Adobe Illustrator 28.7.1, SVG Export Plug-In . SVG Version: 1.2.0 Build 142)  -->
  <g>
    <g id="Layer_1">
      <path d="M501.2,0H87C39,0,0,39,0,87v569c0,40,32.5,72.6,72.6,72.6h452.6c34.9,0,63.2-28.4,63.2-63.2V87.1c0-48-39.1-87.1-87.1-87.1ZM414.7,467.1c4.9,4.9,4.9,12.8,0,17.7-2.4,2.4-5.6,3.7-8.8,3.7s-6.4-1.2-8.8-3.7l-102.9-102.9-102.9,102.9c-2.4,2.4-5.6,3.7-8.8,3.7s-6.4-1.2-8.8-3.7c-4.9-4.9-4.9-12.8,0-17.7l102.9-102.9-102.9-102.9c-4.9-4.9-4.9-12.8,0-17.7s12.8-4.9,17.7,0l102.9,102.9,102.9-102.9c4.9-4.9,12.8-4.9,17.7,0s4.9,12.8,0,17.7l-102.9,102.9,102.9,102.9Z"/>
    </g>
  </g>
</svg>