<?xml version="1.0" encoding="UTF-8"?>
<svg xmlns="http://www.w3.org/2000/svg" version="1.1" viewBox="0 0 34.269 31.731">
  <!-- Generator: Adobe Illustrator 28.7.1, SVG Export Plug-In . SVG Version: 1.2.0 Build 142)  -->
  <g>
    <g id="Layer_1">
      <g>
        <path d="M17.135,0C7.671,0,0,6.948,0,15.519c0,3.973,1.663,7.586,4.374,10.331l-2.759,5.88,6.769-2.886c2.563,1.384,5.549,2.194,8.75,2.194,9.463,0,17.135-6.948,17.135-15.519S26.598,0,17.135,0ZM17.135,30.039c-2.901,0-5.762-.717-8.275-2.074-.148-.08-.311-.12-.475-.12-.133,0-.267.027-.392.08l-4.359,1.858,1.646-3.508c.178-.379.101-.829-.194-1.127-2.635-2.667-4.085-6.087-4.085-9.629C1,7.513,8.238,1,17.135,1s16.135,6.513,16.135,14.519-7.238,14.519-16.135,14.519Z"/>
        <circle cx="9.842" cy="15.693" r="1.731"/>
        <circle cx="17.135" cy="15.693" r="1.731"/>
        <circle cx="24.427" cy="15.693" r="1.731"/>
      </g>
    </g>
  </g>
</svg>