<?xml version="1.0" encoding="UTF-8"?>
<svg xmlns="http://www.w3.org/2000/svg" version="1.1" viewBox="0 0 767 771.6">
  <defs>
    <style>
      .cls-1 {
        fill: #040000;
      }
    </style>
  </defs>
  <!-- Generator: Adobe Illustrator 28.7.1, SVG Export Plug-In . SVG Version: 1.2.0 Build 142)  -->
  <g>
    <g id="Layer_1">
      <g>
        <path class="cls-1" d="M213.2,631.2h-91l-31.7-24.9c-2.2-1.8-4.9-2.7-7.7-2.7H12.5c-6.9,0-12.5,5.6-12.5,12.5v143c0,6.9,5.6,12.5,12.5,12.5h200.7c6.9,0,12.5-5.6,12.5-12.5v-115.4c0-6.9-5.6-12.5-12.5-12.5ZM200.7,746.6H25v-118h53.4l31.7,24.9c2.2,1.8,4.9,2.7,7.7,2.7h82.8v90.4Z"/>
        <path class="cls-1" d="M483.8,631.2h-91l-31.7-24.9c-2.2-1.8-4.9-2.7-7.7-2.7h-70.3c-6.9,0-12.5,5.6-12.5,12.5v143c0,6.9,5.6,12.5,12.5,12.5h200.7c6.9,0,12.5-5.6,12.5-12.5v-115.4c0-6.9-5.6-12.5-12.5-12.5ZM471.3,746.6h-175.7v-118h53.4l31.7,24.9c2.2,1.8,4.9,2.7,7.7,2.7h82.8v90.4h0Z"/>
        <path class="cls-1" d="M754.5,631.2h-91l-31.7-24.9c-2.2-1.8-4.9-2.7-7.7-2.7h-70.3c-6.9,0-12.5,5.6-12.5,12.5v143c0,6.9,5.6,12.5,12.5,12.5h200.7c6.9,0,12.5-5.6,12.5-12.5v-115.4c0-6.9-5.6-12.5-12.5-12.5ZM742,746.6h-175.7v-118h53.4l31.7,24.9c2.2,1.8,4.9,2.7,7.7,2.7h82.9v90.4h0Z"/>
        <path class="cls-1" d="M161.9,340.8h443.3c6.9,0,12.5-5.6,12.5-12.5V73.4c0-6.9-5.6-12.5-12.5-12.5h-206.2L324.7,2.7c-2.2-1.7-4.9-2.7-7.7-2.7h-155.1c-6.9,0-12.5,5.6-12.5,12.5v315.8c0,6.9,5.6,12.5,12.5,12.5ZM174.4,25h138.3l74.2,58.3c2.2,1.7,4.9,2.7,7.7,2.7h198v229.9H174.4V25Z"/>
        <path class="cls-1" d="M87.8,518.5c6.9,0,12.5-5.6,12.5-12.5v-36.5h271.4v36.5c0,6.9,5.6,12.5,12.5,12.5s12.5-5.6,12.5-12.5v-36.5h269.9v36.5c0,6.9,5.6,12.5,12.5,12.5s12.5-5.6,12.5-12.5v-49c0-6.9-5.6-12.5-12.5-12.5h-282.4v-33.7c0-6.9-5.6-12.5-12.5-12.5s-12.5,5.6-12.5,12.5v33.7H87.8c-6.9,0-12.5,5.6-12.5,12.5v49c0,6.9,5.6,12.5,12.5,12.5Z"/>
      </g>
    </g>
  </g>
</svg>