<?xml version="1.0" encoding="UTF-8"?>
<svg xmlns="http://www.w3.org/2000/svg" version="1.1" viewBox="0 0 337.1 520">
  <defs>
    <style>
      .cls-1 {
        fill: #040000;
      }
    </style>
  </defs>
  <!-- Generator: Adobe Illustrator 28.7.1, SVG Export Plug-In . SVG Version: 1.2.0 Build 142)  -->
  <g>
    <g id="Layer_1">
      <path class="cls-1" d="M333.5,177.4c-4.9,4.9-12.8,4.9-17.7,0L181.1,42.7v464.8c0,6.9-5.6,12.5-12.5,12.5s-12.5-5.6-12.5-12.5V42.7L21.3,177.4c-2.4,2.4-5.6,3.7-8.8,3.7s-6.4-1.2-8.8-3.7c-4.9-4.9-4.9-12.8,0-17.7L159.7,3.7c2.3-2.3,5.4-3.7,8.8-3.7s6.6,1.4,8.8,3.7l156,156.1c4.9,4.9,4.9,12.8,0,17.7Z"/>
    </g>
  </g>
</svg>