<?xml version="1.0" encoding="UTF-8"?>
<svg xmlns="http://www.w3.org/2000/svg" version="1.1" viewBox="0 0 13.077 18.125">
  <!-- Generator: Adobe Illustrator 28.7.1, SVG Export Plug-In . SVG Version: 1.2.0 Build 142)  -->
  <g>
    <g id="Layer_1">
      <path d="M6.539,18.125c-.083,0-.16-.041-.207-.108L1.124,10.401c-.709-1.056-1.124-2.492-1.124-3.863C0,2.933,2.933,0,6.539,0s6.538,2.933,6.538,6.539c0,1.373-.415,2.808-1.109,3.84l-5.222,7.638c-.047.067-.124.108-.207.108ZM6.539.5C3.209.5.5,3.209.5,6.539c0,1.257.393,2.622,1.024,3.561l5.014,7.333,5.003-7.314c.643-.957,1.035-2.322,1.035-3.58,0-3.33-2.709-6.039-6.038-6.039ZM6.539,9.808c-1.818,0-3.298-1.479-3.298-3.298s1.479-3.298,3.298-3.298,3.298,1.479,3.298,3.298-1.479,3.298-3.298,3.298ZM6.539,3.711c-1.543,0-2.798,1.255-2.798,2.798s1.255,2.798,2.798,2.798,2.798-1.255,2.798-2.798-1.255-2.798-2.798-2.798Z"/>
    </g>
  </g>
</svg>