<?xml version="1.0" encoding="UTF-8"?>
<svg xmlns="http://www.w3.org/2000/svg" version="1.1" viewBox="0 0 443.4 629.2">
  <defs>
    <style>
      .cls-1 {
        fill: #010101;
      }
    </style>
  </defs>
  <!-- Generator: Adobe Illustrator 28.7.1, SVG Export Plug-In . SVG Version: 1.2.0 Build 142)  -->
  <g>
    <g id="Layer_1">
      <path class="cls-1" d="M443.3,252.4v-122.8h0c0-.3.2-.6.2-.9C443.4,56.5,346,0,221.7,0S0,56.5,0,128.7s.1.6.1.9H.1v122.8c0,.1-.1.2-.1.4,0,.3.1.6.1.9v247c0,72.1,97.2,128.6,221.4,128.7h.4c124.2,0,221.4-56.6,221.4-128.7v-247c0-.3.2-.6.2-.9,0-.1-.2-.2-.2-.4ZM221.7,25c106.6,0,196.7,47.5,196.7,103.7s-90.1,103.7-196.7,103.7S25,184.9,25,128.7,115.1,25,221.7,25ZM221.7,257.3c87.1,0,160.1-28.1,196.6-69.5v65.6c-.8,55.8-90.4,102.9-196.6,102.9S25.9,309.3,25.1,253.5v-65.6c36.4,41.4,109.5,69.5,196.6,69.5ZM418.3,500.6c0,56.2-90,103.6-196.6,103.7-106.6,0-196.6-47.5-196.6-103.7v-64.8c36.3,41.5,109.3,69.6,196.4,69.6h.4c87.1,0,160.1-28.2,196.4-69.6v64.8h0ZM418.3,376.8c0,56.2-90,103.6-196.6,103.7-106.6,0-196.6-47.5-196.6-103.7v-64.9c36.4,41.4,109.5,69.5,196.6,69.5s160.1-28,196.6-69.5v64.9Z"/>
    </g>
  </g>
</svg>