<?xml version="1.0" encoding="UTF-8"?>
<svg xmlns="http://www.w3.org/2000/svg" version="1.1" viewBox="0 0 588.3 728.5">
  <defs>
    <style>
      .cls-1 {
        fill: #040000;
      }
    </style>
  </defs>
  <!-- Generator: Adobe Illustrator 28.7.1, SVG Export Plug-In . SVG Version: 1.2.0 Build 142)  -->
  <g>
    <g id="Layer_1">
      <path class="cls-1" d="M501.2,0H87C39,0,0,39,0,87v568.9c0,40,32.5,72.6,72.6,72.6h89c27.6,0,50.1-22.5,50.1-50.1v-41.3c0-19.9,16.2-36.1,36.1-36.1h93c19.9,0,36,16.2,36,36v41.3c0,27.6,22.5,50.1,50.1,50.1h98.3c34.9,0,63.2-28.4,63.2-63.2V87.1c0-48-39.1-87.1-87.1-87.1ZM563.4,665.3c0,21.1-17.1,38.2-38.2,38.2h-98.3c-13.8,0-25.1-11.3-25.1-25.1v-41.3c0-33.6-27.4-61-61-61h-93c-33.7,0-61.1,27.4-61.1,61.1v41.3c0,13.8-11.2,25.1-25.1,25.1h-89c-26.2,0-47.6-21.3-47.6-47.6V87c0-34.2,27.8-62,62-62h414.2c34.2,0,62.1,27.9,62.1,62.1v578.2h0ZM220.1,111h-56.6c-24.8,0-45,20.2-45,45v56.8c0,24.8,20.2,45,45,45h56.6c24.8,0,45-20.2,45-45v-56.8c0-24.8-20.2-45-45-45ZM240,212.7c0,11-8.9,20-20,20h-56.6c-11,0-20-9-20-20v-56.8c0-11,9-20,20-20h56.6c11,0,20,9,20,20v56.8ZM425.1,111h-56.5c-24.8,0-45,20.2-45,45v56.8c0,24.8,20.2,45,45,45h56.5c24.8,0,45-20.2,45-45v-56.8c0-24.8-20.2-45-45-45ZM445.1,212.7c0,11-8.9,20-20,20h-56.5c-11,0-20-9-20-20v-56.8c0-11,9-20,20-20h56.5c11,0,20,9,20,20v56.8ZM220.1,306.4h-56.6c-24.8,0-45,20.2-45,45v56.8c0,24.8,20.2,44.9,45,44.9h56.6c24.8,0,45-20.2,45-44.9v-56.8c0-24.8-20.2-44.9-45-44.9ZM240,408.2c0,11-8.9,19.9-20,19.9h-56.6c-11,0-20-8.9-20-19.9v-56.8c0-11,9-20,20-20h56.6c11,0,20,9,20,20v56.8ZM425.1,306.4h-56.5c-24.8,0-45,20.2-45,45v56.8c0,24.8,20.2,44.9,45,44.9h56.5c24.8,0,45-20.2,45-44.9v-56.8c0-24.8-20.2-44.9-45-44.9ZM445.1,408.2c0,11-8.9,19.9-20,19.9h-56.5c-11,0-20-8.9-20-19.9v-56.8c0-11,9-20,20-20h56.5c11,0,20,9,20,20v56.8Z"/>
    </g>
  </g>
</svg>