<?xml version="1.0" encoding="UTF-8"?>
<svg xmlns="http://www.w3.org/2000/svg" version="1.1" viewBox="0 0 895.1 895">
  <defs>
    <style>
      .cls-1 {
        fill: #040000;
      }
    </style>
  </defs>
  <!-- Generator: Adobe Illustrator 28.7.1, SVG Export Plug-In . SVG Version: 1.2.0 Build 142)  -->
  <g>
    <g id="Layer_1">
      <path class="cls-1" d="M891.4,227.6L667.4,3.5c-4.7-4.7-13-4.7-17.7,0l-215.2,215.3,161.3-161.4c-105.6-42.2-226.1-41.5-330.8,3-103,43.6-187,127.7-230.7,230.7C11.6,344.7,0,401.7,0,460.5s11.6,115.8,34.3,169.5c43.6,102.9,127.7,187,230.7,230.7,53.8,22.8,110.8,34.3,169.5,34.3s115.7-11.6,169.5-34.3c102.9-43.6,187-127.7,230.7-230.7,22.8-53.7,34.3-110.7,34.3-169.5s-10.8-110.1-31.4-161.4l53.9-53.9c4.9-4.9,4.9-12.8,0-17.7ZM607.9,80.7l-164.5,164.6h0s164.6-164.6,164.6-164.6ZM434.5,254.1l206.4,206.4-206.4,206.4-206.4-206.4,206.4-206.4ZM576.8,76.5l-142.3,142.3-142.3-142.3c90.9-33.7,193.6-33.7,284.6,0ZM267.1,86.7l149.7,149.7-206.4,206.4L60.7,293.1c40.8-91,115.4-165.5,206.4-206.4ZM25,460.5c0-49.1,8.5-96.9,25.4-142.3l142.3,142.3-56.5,56.5-85.8,85.8c-16.9-45.5-25.4-93.2-25.4-142.3ZM267.1,834.3c-91-40.9-165.5-115.4-206.4-206.3l142.3-142.4,7.4-7.4,206.4,206.4-149.7,149.7s0,0,0,0ZM292.1,844.5l85.8-85.8,56.5-56.5,56.5,56.5,85.8,85.8c-91,33.8-193.6,33.8-284.6,0ZM601.9,834.3l-60.6-60.6-89.1-89.1,206.4-206.4,89.1,89.2,60.6,60.6c-40.9,91-115.4,165.5-206.3,206.4ZM843.9,460.5c0,49.1-8.5,96.9-25.4,142.3h0l-85.8-85.8-56.5-56.5,15.3-15.3,127-127h0c16.9,45.4,25.4,93.2,25.4,142.3ZM814.2,287.1l-155.7,155.7-206.4-206.3L658.6,30l206.3,206.4-50.7,50.7Z"/>
    </g>
  </g>
</svg>