<?xml version="1.0" encoding="UTF-8"?>
<svg xmlns="http://www.w3.org/2000/svg" version="1.1" viewBox="0 0 13.583 8.094">
  <defs>
    <style>
      .cls-1 {
        fill: #fff;
      }

      .cls-2 {
        opacity: .5;
      }
    </style>
  </defs>
  <!-- Generator: Adobe Illustrator 28.7.0, SVG Export Plug-In . SVG Version: 1.2.0 Build 136)  -->
  <g>
    <g id="Layer_1">
      <g>
        <circle class="cls-2" cx="6.791" cy="4.014" r="3.511"/>
        <circle cx="6.791" cy="4.014" r="1.895"/>
        <circle class="cls-1" cx="8.151" cy="2.555" r=".623"/>
        <path d="M6.792,8.094C3.095,8.094.959,5.7.213,4.671c-.286-.395-.284-.923.006-1.314C.966,2.347,3.102,0,6.792,0s5.826,2.348,6.572,3.357c.29.392.293.92.006,1.314-.746,1.029-2.882,3.422-6.578,3.422ZM6.792.8C3.465.8,1.537,2.921.862,3.833c0,0,0,0,0,0-.081.109-.082.257-.001.368.675.93,2.603,3.092,5.931,3.092s5.256-2.162,5.93-3.092c.081-.111.08-.259,0-.368-.675-.912-2.603-3.033-5.929-3.033ZM.541,3.595h.01-.01Z"/>
      </g>
    </g>
  </g>
</svg>