<?xml version="1.0" encoding="UTF-8"?>
<svg xmlns="http://www.w3.org/2000/svg" version="1.1" viewBox="0 0 28.49 24.125">
  <!-- Generator: Adobe Illustrator 28.7.1, SVG Export Plug-In . SVG Version: 1.2.0 Build 142)  -->
  <g>
    <g id="Layer_1">
      <g>
        <path d="M13.559,7.093c.051-.271-.127-.533-.398-.584-.277-.052-.533.127-.584.398-.23,1.213-1.418,2.093-2.827,2.093s-2.597-.88-2.827-2.093c-.051-.271-.308-.446-.584-.398-.271.051-.449.313-.398.584.32,1.684,1.922,2.907,3.81,2.907s3.49-1.223,3.809-2.907Z"/>
        <path d="M25.99,10.768h-6.969v-.79c0-1.499,1.22-2.718,2.719-2.718,1.188,0,2.229.76,2.59,1.891.085.264.366.408.629.324s.408-.365.324-.628c-.495-1.547-1.919-2.586-3.543-2.586-2.051,0-3.719,1.668-3.719,3.718v.79h-.531c-1.086,0-2.003.7-2.347,1.669-.363-.242-.741-.465-1.138-.658,1.524-1.26,2.412-3.113,2.412-5.112,0-3.676-2.991-6.667-6.667-6.667S3.083,2.991,3.083,6.667c0,1.999.888,3.852,2.412,5.112-3.32,1.617-5.495,5.032-5.495,8.763,0,1.976,1.607,3.583,3.583,3.583h12.333c1.69,0,3.102-1.18,3.477-2.757h6.596c1.379,0,2.5-1.121,2.5-2.5v-5.601c0-1.378-1.121-2.5-2.5-2.5ZM15.917,23.125H3.583c-1.424,0-2.583-1.159-2.583-2.583,0-3.62,2.282-6.909,5.679-8.185.178-.067.303-.229.322-.419s-.072-.373-.233-.474c-1.681-1.048-2.685-2.841-2.685-4.798,0-3.125,2.542-5.667,5.667-5.667s5.667,2.542,5.667,5.667c0,1.957-1.003,3.751-2.685,4.798-.161.101-.252.284-.233.474s.144.352.322.419c3.396,1.275,5.679,4.564,5.679,8.185,0,1.424-1.159,2.583-2.583,2.583ZM27.49,18.868c0,.827-.673,1.5-1.5,1.5h-6.503c-.052-2.844-1.366-5.479-3.481-7.265.083-.749.712-1.335,1.483-1.335h8.5c.827,0,1.5.673,1.5,1.5v5.601Z"/>
        <path d="M21.74,14.125c-.553,0-1.002.449-1.002,1.002,0,.37.21.679.508.853,0,.01-.005.018-.005.027v2.005c0,.276.224.5.5.5s.5-.224.5-.5v-2.005c0-.01-.005-.018-.006-.028.298-.174.507-.483.507-.852,0-.553-.449-1.002-1.002-1.002Z"/>
      </g>
    </g>
  </g>
</svg>