<?xml version="1.0" encoding="UTF-8"?>
<svg xmlns="http://www.w3.org/2000/svg" version="1.1" viewBox="0 0 18.59 14.562">
  <!-- Generator: Adobe Illustrator 28.7.1, SVG Export Plug-In . SVG Version: 1.2.0 Build 142)  -->
  <g>
    <g id="Layer_1">
      <g>
        <path d="M16.34,4.462h-6.518c.018-.154.052-.305.052-.462,0-2.206-1.794-4-4-4S1.875,1.794,1.875,4c0,1.228.558,2.364,1.513,3.121-2.044.958-3.388,3.041-3.388,5.317,0,1.172.953,2.125,2.125,2.125h7.5c.034,0,.065-.008.098-.01.009,0,.015.01.024.01h6.593c1.24,0,2.25-1.01,2.25-2.25v-5.6c0-1.241-1.01-2.25-2.25-2.25ZM16.34,4.962c.965,0,1.75.785,1.75,1.75v.353h-9.672c.665-.548,1.128-1.281,1.332-2.103h6.59ZM.5,12.438c0-2.223,1.402-4.243,3.488-5.028.089-.033.151-.114.161-.209.01-.095-.036-.187-.116-.237-1.038-.646-1.658-1.754-1.658-2.963,0-1.93,1.57-3.5,3.5-3.5s3.5,1.57,3.5,3.5c0,1.209-.62,2.317-1.658,2.963-.081.051-.126.143-.117.237.01.095.072.176.161.209,2.086.784,3.489,2.804,3.489,5.028,0,.896-.729,1.625-1.625,1.625H2.125c-.896,0-1.625-.729-1.625-1.625ZM16.34,14.062h-5.362c.468-.39.772-.97.772-1.625,0-1.973-1.012-3.796-2.612-4.873h8.952v4.748c0,.965-.785,1.75-1.75,1.75Z"/>
        <path d="M16.34,11.564h-2.5c-.138,0-.25.112-.25.25s.112.25.25.25h2.5c.138,0,.25-.112.25-.25s-.112-.25-.25-.25Z"/>
      </g>
    </g>
  </g>
</svg>