<?xml version="1.0" encoding="UTF-8"?>
<svg xmlns="http://www.w3.org/2000/svg" version="1.1" viewBox="0 0 786.8 837.3">
  <defs>
    <style>
      .cls-1 {
        fill: #010101;
      }
    </style>
  </defs>
  <!-- Generator: Adobe Illustrator 28.7.1, SVG Export Plug-In . SVG Version: 1.2.0 Build 142)  -->
  <g>
    <g id="Layer_1">
      <path class="cls-1" d="M55.4,713.8h.4l196-6.5c3.2,0,6.2-1.4,8.4-3.7l498.7-498.7c4.9-4.9,4.9-12.8,0-17.7L575.2,3.5c-4.7-4.7-13-4.7-17.7,0L58.8,502.3c-2.1,2.2-3.4,5-3.6,8.1l-12.2,190.2c-.2,3.5,1.1,6.9,3.5,9.5,2.4,2.4,5.6,3.8,9,3.8ZM79.8,516.6L566.4,30l166.1,166.1-486.4,486.4-177.3,5.9,11.1-171.7ZM431,823.5c0,6.9-5.6,12.5-12.5,12.5H12.5c-6.9,0-12.5-5.6-12.5-12.5s5.6-12.5,12.5-12.5h406c6.9,0,12.5,5.6,12.5,12.5ZM625.9,601.2c-37,0-67.1,30.1-67.1,67s30.1,67.1,67.1,67.1,67-30.1,67-67.1c0-37-30.1-67-67-67ZM625.9,710.3c-23.2,0-42.1-18.9-42.1-42.1s18.9-42,42.1-42,42,18.8,42,42-18.8,42.1-42,42.1ZM783.6,716l-24.5-27.6c1-6.6,1.5-13.4,1.5-20.1s-.5-13.4-1.5-20.1l24.5-27.6c3.6-4,4.2-9.9,1.5-14.5l-25.7-44.5c-2.7-4.6-7.9-7-13.4-6l-36.4,7.5c-10.5-8.4-22.1-15.1-34.5-20l-11.7-35.2c-1.7-5.1-6.5-8.5-11.9-8.5h-51.4c-5.4,0-10.2,3.5-11.9,8.5l-11.7,35.2c-12.5,4.9-24,11.6-34.5,20l-36.4-7.5c-5.6-1-10.6,1.4-13.4,6l-25.7,44.5c-2.7,4.7-2.1,10.5,1.5,14.5l24.5,27.6c-1,6.7-1.5,13.4-1.5,20.1s.5,13.5,1.5,20.1l-24.5,27.6c-3.6,4-4.2,9.9-1.5,14.5l25.7,44.5c2.7,4.6,8.2,6.9,13.3,6l36.4-7.4c10.5,8.4,22.1,15.1,34.6,20l11.7,35.2c1.7,5.1,6.5,8.5,11.9,8.5h51.4c5.4,0,10.2-3.5,11.9-8.5l11.7-35.2c12.5-4.9,24-11.6,34.6-20l36.4,7.4c5.3.9,10.6-1.4,13.3-6l25.7-44.5c2.7-4.6,2.1-10.5-1.5-14.5ZM735.6,668.2c0,7.2-.7,14.4-2.2,21.4-.8,3.9.3,7.9,2.9,10.8l22.6,25.4-16.7,28.9-33.5-6.8c-3.9-.7-7.8.3-10.7,2.9-10.9,9.5-23.3,16.7-36.9,21.3-3.7,1.2-6.6,4.2-7.9,7.9l-10.8,32.3h-33.3l-10.8-32.3c-1.2-3.7-4.2-6.6-7.9-7.9-13.6-4.6-26-11.8-36.9-21.3-2.9-2.6-6.9-3.5-10.7-2.9l-33.5,6.8-16.7-28.9,22.6-25.4c2.6-2.9,3.7-6.9,2.9-10.8-1.4-7-2.2-14.2-2.2-21.4s.7-14.4,2.2-21.4c.8-3.9-.3-7.9-2.9-10.8l-22.5-25.4,16.7-28.9,33.5,6.9c4.1.6,7.9-.3,10.8-2.9,10.9-9.5,23.3-16.7,36.9-21.4,3.7-1.3,6.6-4.2,7.8-7.9l10.8-32.3h33.3l10.8,32.3c1.2,3.7,4.2,6.6,7.8,7.9,13.6,4.7,26,11.9,36.9,21.4,2.9,2.6,6.7,3.5,10.8,2.9l33.5-6.9,16.7,28.9-22.5,25.4c-2.6,2.9-3.7,6.9-2.9,10.8,1.4,7,2.2,14.3,2.2,21.4Z"/>
    </g>
  </g>
</svg>