<?xml version="1.0" encoding="UTF-8"?>
<svg xmlns="http://www.w3.org/2000/svg" version="1.1" viewBox="0 0 494.5 500">
  <defs>
    <style>
      .cls-1 {
        fill: #010101;
      }
    </style>
  </defs>
  <!-- Generator: Adobe Illustrator 28.7.1, SVG Export Plug-In . SVG Version: 1.2.0 Build 142)  -->
  <g>
    <g id="Layer_1">
      <path class="cls-1" d="M484.5,0H100.5c-5.5,0-10,4.5-10,10v169.8c-26.4,23.2-41.5,56.3-41.5,91.6s17.5,73,46.6,96c-39.9,17.7-72.9,49.3-92.3,88.8-4.7,9.6-4.2,20.7,1.4,29.8,5.5,8.8,14.9,14,25.3,14h454.5c5.5,0,10-4.5,10-10V10c0-5.5-4.5-10-10-10ZM287.5,480H29.9c-3.5,0-6.5-1.7-8.3-4.6-1.9-3.1-2.1-7-.4-10.3,20-40.7,56.1-71.9,99.1-85.6,3.8-1.2,6.5-4.6,6.9-8.6.4-4-1.6-7.8-5.1-9.7-32.8-18-53.1-52.4-53.1-89.7s13.8-59.9,37.8-79.4c18.4-14.9,41.2-22.8,64.7-22.8s14.6.8,21.9,2.3c39.1,8.1,70.6,40.1,78.2,79.4,8.6,44.4-11.9,88.7-51.1,110.2-3.5,1.9-5.5,5.8-5.1,9.7.4,4,3.1,7.3,6.9,8.6,43,13.8,79.1,45,99.1,85.7,1.7,3.4,1.5,7.2-.4,10.3-1.8,2.9-4.9,4.6-8.3,4.6h-25.1ZM474.5,480h-133.8c2.7-7.7,2.4-16.2-1.3-23.8-19.4-39.5-52.5-71-92.3-88.8,35.7-28.1,53.2-74.2,44.2-120.4-9.1-47.2-46.8-85.4-93.7-95.2-30.3-6.3-61-1.2-87,13.6V20h364v460h0ZM316,176l.5,1.9h18.8l14.7-52.1h16.8l15.1,52.1h18.8l13.9-52.1h15.7v-16.3h-11.3l10.4-39h-17.8l-9.6,39h-23.1l-10.7-37.2-.5-1.8h-18.4l-11,39h-23.1l-9.9-39h-18.3l10.7,39h-13v16.3h17.5l13.7,50.2ZM398,125.8l-6.6,26.9-7.7-26.9h14.3ZM358.3,96.4l3.8,13h-7.5l3.7-13ZM333.8,125.8l-7.5,26.9-6.8-26.9h14.3ZM171.3,334.7c-35.1,0-64.9-22.8-70.9-54.2-1-5.4,2.5-10.6,8-11.7,5.5-1,10.7,2.5,11.7,8,4.2,21.9,25.7,37.9,51.2,37.9s47.1-15.9,51.2-37.9c1-5.4,6.1-9,11.7-8,5.4,1,9,6.3,8,11.7-6,31.4-35.8,54.2-70.9,54.2Z"/>
    </g>
  </g>
</svg>