<?xml version="1.0" encoding="UTF-8"?>
<svg xmlns="http://www.w3.org/2000/svg" version="1.1" viewBox="0 0 809 809">
  <defs>
    <style>
      .cls-1 {
        fill: #040000;
      }
    </style>
  </defs>
  <!-- Generator: Adobe Illustrator 28.7.1, SVG Export Plug-In . SVG Version: 1.2.0 Build 142)  -->
  <g>
    <g id="Layer_1">
      <path class="cls-1" d="M253.1,263.7h302.9c-17.1-106.7-47.1-195.5-71.6-255.7-25.8-5.2-52.5-8-79.9-8s-54,2.8-79.9,8c-24.5,60.2-54.5,149-71.6,255.7ZM244.9,530.1h319.3c9-85.8,5.6-167.4-4.6-241.4H249.5c-10.1,74-13.5,155.6-4.6,241.4ZM581.1,263.7h202.1c-44.8-120-144.7-213.1-269-248.2,23.9,61.6,51.2,147.3,66.9,248.2ZM788.8,530.1c13-39.6,20.2-81.7,20.2-125.6s-6.1-79.1-17.1-115.8h-207.3c9.9,74.2,13.2,155.8,4.5,241.4h199.7ZM222.7,555.1H29.4c45.3,112.4,139.4,200,256.2,236-33.2-80.1-53.1-159.5-62.9-236ZM586.3,555.1c-9.8,76.5-29.7,156-62.9,236,116.8-36,210.9-123.6,256.2-236h-193.3ZM561.2,555.1H247.9c10.4,79,31.7,161.2,68.1,243.9,28.5,6.4,58.1,10.1,88.5,10.1s60-3.7,88.5-10.1c36.4-82.6,57.7-164.8,68.1-243.9ZM227.9,263.7c15.8-100.9,43-186.5,66.9-248.2C170.5,50.6,70.6,143.7,25.8,263.7h202.1ZM17.1,288.7C6.1,325.4,0,364.2,0,404.5s7.2,86,20.2,125.6h199.6c-8.7-85.7-5.4-167.2,4.5-241.4H17.1Z"/>
    </g>
  </g>
</svg>