<?xml version="1.0" encoding="UTF-8"?>
<svg xmlns="http://www.w3.org/2000/svg" version="1.1" viewBox="0 0 16.68 16.68">
  <!-- Generator: Adobe Illustrator 28.7.1, SVG Export Plug-In . SVG Version: 1.2.0 Build 142)  -->
  <g>
    <g id="Layer_1">
      <path d="M8.34,0C3.742,0,0,3.742,0,8.34c0,2.384,1.033,4.661,2.834,6.25,1.528,1.348,3.483,2.09,5.506,2.09s3.978-.742,5.505-2.09c1.802-1.588,2.835-3.866,2.835-6.25C16.68,3.742,12.939,0,8.34,0ZM13.786,13.965c-.06-.148-.147-.279-.217-.421-.072-.144-.138-.291-.221-.428-.122-.201-.265-.384-.409-.568-.091-.116-.173-.238-.272-.347-.174-.19-.371-.356-.569-.522-.095-.079-.178-.169-.278-.242-.309-.226-.638-.427-.991-.591.955-.757,1.513-1.893,1.513-3.12,0-2.206-1.794-4-4-4s-4,1.794-4,4c0,1.228.558,2.364,1.513,3.12-.352.164-.682.365-.99.591-.103.075-.189.168-.286.25-.195.163-.388.326-.56.513-.102.111-.186.237-.279.356-.142.181-.283.361-.403.558-.084.138-.15.286-.223.431-.071.141-.157.272-.217.42-1.526-1.478-2.395-3.508-2.395-5.625C.5,4.017,4.017.5,8.34.5s7.84,3.517,7.84,7.84c0,2.118-.868,4.147-2.395,5.625Z"/>
    </g>
  </g>
</svg>