<?xml version="1.0" encoding="UTF-8"?>
<svg xmlns="http://www.w3.org/2000/svg" version="1.1" viewBox="0 0 655 812.5">
  <defs>
    <style>
      .cls-1 {
        fill: #040000;
      }
    </style>
  </defs>
  <!-- Generator: Adobe Illustrator 28.7.1, SVG Export Plug-In . SVG Version: 1.2.0 Build 142)  -->
  <g>
    <g id="Layer_1">
      <path class="cls-1" d="M655,12.5v787.5c0,6.9-5.6,12.5-12.5,12.5s-12.5-5.6-12.5-12.5V25H25v775c0,6.9-5.6,12.5-12.5,12.5s-12.5-5.6-12.5-12.5V12.5C0,5.6,5.6,0,12.5,0h630c6.9,0,12.5,5.6,12.5,12.5ZM115.4,777.5c-6.9,0-12.5,5.6-12.5,12.5v10c0,6.9,5.6,12.5,12.5,12.5s12.5-5.6,12.5-12.5v-10c0-6.9-5.6-12.5-12.5-12.5ZM218.3,777.5c-6.9,0-12.5,5.6-12.5,12.5v10c0,6.9,5.6,12.5,12.5,12.5s12.5-5.6,12.5-12.5v-10c0-6.9-5.6-12.5-12.5-12.5ZM321.1,777.5c-6.9,0-12.5,5.6-12.5,12.5v10c0,6.9,5.6,12.5,12.5,12.5s12.5-5.6,12.5-12.5v-10c0-6.9-5.6-12.5-12.5-12.5ZM424,777.5c-6.9,0-12.5,5.6-12.5,12.5v10c0,6.9,5.6,12.5,12.5,12.5s12.5-5.6,12.5-12.5v-10c0-6.9-5.6-12.5-12.5-12.5ZM526.9,777.5c-6.9,0-12.5,5.6-12.5,12.5v10c0,6.9,5.6,12.5,12.5,12.5s12.5-5.6,12.5-12.5v-10c0-6.9-5.6-12.5-12.5-12.5ZM432.9,284.4c-4.9-4.9-12.8-4.9-17.7,0l-87.7,87.7-87.7-87.7c-4.9-4.9-12.8-4.9-17.7,0s-4.9,12.8,0,17.7l87.7,87.7-87.7,87.7c-4.9,4.9-4.9,12.8,0,17.7,2.4,2.4,5.6,3.7,8.8,3.7s6.4-1.2,8.8-3.7l87.7-87.7,87.7,87.7c2.4,2.4,5.6,3.7,8.8,3.7s6.4-1.2,8.8-3.7c4.9-4.9,4.9-12.8,0-17.7l-87.7-87.7,87.7-87.7c4.9-4.9,4.9-12.8,0-17.7Z"/>
    </g>
  </g>
</svg>