<?xml version="1.0" encoding="UTF-8"?>
<svg xmlns="http://www.w3.org/2000/svg" version="1.1" viewBox="0 0 16.8 12.6">
  <!-- Generator: Adobe Illustrator 28.7.1, SVG Export Plug-In . SVG Version: 1.2.0 Build 142)  -->
  <g>
    <g id="Layer_1">
      <g>
        <path d="M10.5,0c-1.1,0-2.1.3-2.9.7-.8-.5-1.9-.7-3.1-.7C1.9,0,0,1.1,0,2.6s0,0,0,0c0,0,0,0,0,0v2.5s0,0,0,0c0,0,0,0,0,0v5.1c0,0,0,.1,0,.1.3,1.3,2.1,2.2,4.4,2.2s2.3-.3,3.1-.7c.9.5,1.9.7,2.9.7,3.5,0,6.3-2.8,6.3-6.3S13.9,0,10.5,0ZM4.4.5c1,0,1.9.2,2.6.5-1.3.8-2.2,2.1-2.6,3.6-2.1,0-3.9-1-3.9-2.1S2.3.5,4.4.5ZM4.3,5.1c0,.4-.1.8-.1,1.2s0,.6,0,.8c-2,0-3.7-1-3.7-2v-1.3c.7.8,2.1,1.4,3.8,1.4ZM4.3,7.6c.2.7.4,1.3.8,1.9-.2,0-.4,0-.7,0-2.1,0-3.9-.9-3.9-2.1v-1.3c.7.8,2.1,1.4,3.8,1.4ZM4.4,12.1c-2.1,0-3.9-.9-3.9-2.1v-1.3c.7.8,2.2,1.4,3.9,1.4s.7,0,1,0c.4.6,1,1.1,1.6,1.5-.7.3-1.6.5-2.6.5ZM10.5,12.1c-3.2,0-5.8-2.6-5.8-5.8S7.3.5,10.5.5s5.8,2.6,5.8,5.8-2.6,5.8-5.8,5.8Z"/>
        <path d="M13.8,4.3h-.6l-.4,1.6h-1.4l-.5-1.6h-.7l-.4,1.6h-1.4l-.4-1.6h-.6l.4,1.6h-.5v.6h.7l.7,2.6h.7l.7-2.6h.9l.8,2.6h.7l.7-2.6h.7v-.6h-.6l.4-1.6ZM9,8.5l-.5-2h1.1l-.6,2ZM10.3,5.9l.3-.9.3.9h-.5ZM12.1,8.5l-.6-2h1.1l-.5,2Z"/>
      </g>
    </g>
  </g>
</svg>