<?xml version="1.0" encoding="UTF-8"?>
<svg xmlns="http://www.w3.org/2000/svg" version="1.1" viewBox="0 0 16.692 16.311">
  <!-- Generator: Adobe Illustrator 28.7.1, SVG Export Plug-In . SVG Version: 1.2.0 Build 142)  -->
  <g>
    <g id="Layer_1">
      <g>
        <path d="M13.474,11.588c-.74,0-1.342.602-1.342,1.342s.602,1.341,1.342,1.341,1.341-.602,1.341-1.341-.602-1.342-1.341-1.342ZM13.474,13.771c-.464,0-.842-.377-.842-.841s.378-.842.842-.842.841.378.841.842-.377.841-.841.841Z"/>
        <path d="M16.139,13.331c.02-.133.03-.268.03-.401,0-.135-.011-.27-.03-.402l.49-.553c.071-.081.083-.198.029-.291l-.514-.89c-.055-.093-.163-.138-.267-.12l-.728.148c-.211-.168-.442-.302-.691-.399l-.234-.703c-.034-.102-.13-.171-.237-.171h-1.028c-.107,0-.203.068-.237.171l-.234.702c-.249.099-.48.233-.691.4l-.728-.148c-.105-.018-.212.027-.267.12l-.514.89c-.054.093-.042.21.029.291l.49.553c-.02.133-.03.268-.03.402,0,.134.011.269.03.401l-.49.553c-.071.081-.083.198-.029.291l.514.891c.055.093.158.139.268.12l.728-.149c.21.168.441.302.69.4l.234.703c.034.102.13.171.237.171h1.028c.107,0,.203-.069.237-.171l.234-.703c.249-.099.48-.232.69-.4l.728.149c.111.019.213-.027.268-.12l.514-.891c.054-.093.042-.21-.029-.291l-.49-.553ZM15.669,12.93c0,.143-.015.286-.043.427-.016.077.006.157.058.216l.451.509-.333.578-.669-.138c-.082-.015-.157.005-.216.058-.218.19-.466.334-.738.428-.073.025-.132.083-.156.157l-.216.646h-.667l-.216-.646c-.024-.074-.083-.132-.156-.157-.272-.094-.521-.237-.738-.428-.059-.053-.134-.072-.216-.058l-.669.138-.333-.578.451-.509c.052-.059.073-.139.058-.216-.028-.141-.043-.284-.043-.427,0-.144.015-.287.043-.428.016-.077-.006-.157-.058-.216l-.451-.509.333-.577.67.137c.076.014.156-.006.215-.058.218-.19.466-.334.738-.428.073-.025.132-.083.156-.157l.215-.646h.668l.216.646c.024.074.083.133.157.157.271.093.52.236.737.427.059.052.137.071.215.058l.67-.137.333.577-.451.509c-.052.059-.073.139-.058.216.028.141.043.284.043.428Z"/>
        <path d="M8.876,14.352H.522c.313-3.054,2.586-5.576,5.609-6.184.109-.022.19-.113.2-.223s-.055-.214-.158-.255c-1.44-.565-2.37-1.924-2.37-3.462,0-2.055,1.672-3.727,3.727-3.727s3.727,1.672,3.727,3.727c0,1.538-.93,2.897-2.37,3.462-.103.041-.167.145-.157.255s.091.201.2.223c.856.172,1.665.5,2.403.974.113.075.27.043.345-.075.075-.115.041-.271-.075-.345-.594-.382-1.23-.676-1.9-.876,1.268-.754,2.055-2.11,2.055-3.619,0-2.331-1.896-4.227-4.227-4.227S3.303,1.896,3.303,4.227c0,1.508.788,2.865,2.055,3.619C2.37,8.74.205,11.422,0,14.585c-.004.069.02.137.067.188.047.051.113.079.183.079h8.625c.138,0,.25-.112.25-.25s-.112-.25-.25-.25Z"/>
      </g>
    </g>
  </g>
</svg>