<?xml version="1.0" encoding="UTF-8"?>
<svg xmlns="http://www.w3.org/2000/svg" version="1.1" viewBox="0 0 19.101 14.563">
  <!-- Generator: Adobe Illustrator 28.7.1, SVG Export Plug-In . SVG Version: 1.2.0 Build 142)  -->
  <g>
    <g id="Layer_1">
      <g>
        <path d="M8.361,7.121c.956-.757,1.514-1.893,1.514-3.121,0-2.206-1.794-4-4-4S1.875,1.794,1.875,4c0,1.228.558,2.364,1.513,3.121-2.044.958-3.388,3.04-3.388,5.317,0,1.172.953,2.125,2.125,2.125h7.5c1.172,0,2.125-.953,2.125-2.125,0-2.277-1.344-4.358-3.389-5.317Z"/>
        <path d="M12.855,8.35c.798-.632,1.264-1.58,1.264-2.605,0-1.841-1.498-3.339-3.339-3.339-.063,0-.122.015-.184.019.167.498.279,1.022.279,1.576,0,1.059-.331,2.067-.934,2.903,1.739,1.281,2.809,3.336,2.809,5.535,0,.823-.326,1.566-.847,2.125h2.007c.978,0,1.774-.796,1.774-1.774,0-1.901-1.122-3.638-2.829-4.439Z"/>
        <path d="M16.782,9.469c.654-.518,1.036-1.296,1.036-2.136,0-1.509-1.228-2.737-2.737-2.737-.052,0-.1.012-.151.015.137.409.229.838.229,1.292,0,.868-.271,1.694-.766,2.38,1.425,1.05,2.303,2.735,2.303,4.537,0,.674-.267,1.284-.695,1.742h1.646c.802,0,1.454-.652,1.454-1.454,0-1.558-.92-2.983-2.319-3.639Z"/>
      </g>
    </g>
  </g>
</svg>