<?xml version="1.0" encoding="UTF-8"?>
<svg xmlns="http://www.w3.org/2000/svg" version="1.1" viewBox="0 0 689.5 729.1">
  <defs>
    <style>
      .cls-1 {
        fill: #010101;
      }
    </style>
  </defs>
  <!-- Generator: Adobe Illustrator 28.7.1, SVG Export Plug-In . SVG Version: 1.2.0 Build 142)  -->
  <g>
    <g id="Layer_1">
      <path class="cls-1" d="M689.5,530.6v186c0,6.9-5.6,12.5-12.5,12.5H12.5c-6.9,0-12.5-5.6-12.5-12.5v-186c0-6.9,5.6-12.5,12.5-12.5s12.5,5.6,12.5,12.5v173.5h639.5v-173.5c0-6.9,5.6-12.5,12.5-12.5s12.5,5.6,12.5,12.5ZM689.5,12.5v429.1c0,6.9-5.6,12.5-12.5,12.5h-312.5v135c0,6.9-5.6,12.5-12.5,12.5s-12.5-5.6-12.5-12.5v-135H12.5c-6.9,0-12.5-5.6-12.5-12.5V12.5C0,5.6,5.6,0,12.5,0h664.5c6.9,0,12.5,5.6,12.5,12.5ZM664.5,25H25v404.1h314.5v-204.8l-84.7,84.7c-4.9,4.9-12.8,4.9-17.7,0s-4.9-12.8,0-17.7l106.1-106.1c2.3-2.3,5.4-3.7,8.8-3.7s6.6,1.4,8.8,3.7l106,106.1c4.9,4.9,4.9,12.8,0,17.7-2.4,2.4-5.7,3.7-8.8,3.7s-6.4-1.2-8.8-3.7l-84.7-84.7v204.8h300V25h0Z"/>
    </g>
  </g>
</svg>