<?xml version="1.0" encoding="UTF-8"?>
<svg xmlns="http://www.w3.org/2000/svg" version="1.1" viewBox="0 0 11.75 14.562">
  <!-- Generator: Adobe Illustrator 28.7.1, SVG Export Plug-In . SVG Version: 1.2.0 Build 142)  -->
  <g>
    <g id="Layer_1">
      <path d="M9.625,14.562H2.125c-1.172,0-2.125-.953-2.125-2.125,0-2.276,1.344-4.358,3.388-5.317-.955-.756-1.513-1.893-1.513-3.121C1.875,1.794,3.669,0,5.875,0s4,1.794,4,4c0,1.228-.559,2.364-1.514,3.121,2.045.958,3.389,3.041,3.389,5.317,0,1.172-.953,2.125-2.125,2.125ZM5.875.5c-1.93,0-3.5,1.57-3.5,3.5,0,1.209.62,2.317,1.658,2.963.081.051.126.143.117.237-.01.095-.072.176-.161.209-2.086.785-3.488,2.805-3.488,5.028,0,.896.729,1.625,1.625,1.625h7.5c.896,0,1.625-.729,1.625-1.625,0-2.223-1.401-4.243-3.488-5.028-.089-.033-.151-.114-.161-.209-.009-.095.036-.187.117-.237,1.037-.646,1.657-1.754,1.657-2.963,0-1.93-1.57-3.5-3.5-3.5Z"/>
    </g>
  </g>
</svg>