<?xml version="1.0" encoding="UTF-8"?>
<svg xmlns="http://www.w3.org/2000/svg" version="1.1" viewBox="0 0 16.68 16.68">
  <!-- Generator: Adobe Illustrator 28.7.1, SVG Export Plug-In . SVG Version: 1.2.0 Build 142)  -->
  <g>
    <g id="Layer_1">
      <path d="M8.34,0C3.742,0,0,3.742,0,8.34c0,2.384,1.033,4.661,2.834,6.25,1.528,1.348,3.483,2.09,5.506,2.09s3.978-.742,5.505-2.09c1.802-1.588,2.835-3.866,2.835-6.25C16.68,3.742,12.939,0,8.34,0ZM3.297,14.329c.026-.072.055-.143.084-.213.036-.087.071-.174.111-.258.045-.094.096-.184.147-.275.045-.081.087-.162.136-.24.056-.089.118-.174.179-.26.052-.074.102-.149.158-.22.066-.085.139-.164.211-.244.058-.066.114-.134.176-.197.078-.08.162-.153.244-.228.062-.057.122-.116.187-.17.091-.075.188-.143.284-.212.063-.046.123-.095.188-.138.11-.073.227-.136.343-.201.056-.031.109-.067.167-.096.175-.09.356-.17.542-.24.089-.034.151-.115.161-.21.009-.095-.036-.187-.117-.236-1.038-.647-1.658-1.755-1.658-2.964,0-1.93,1.57-3.5,3.5-3.5s3.5,1.57,3.5,3.5c0,1.209-.62,2.316-1.657,2.964-.081.05-.126.142-.117.236.01.095.072.176.161.21.186.07.366.15.542.24.057.029.11.065.166.096.116.065.232.128.343.201.065.043.124.092.187.137.096.069.194.137.285.213.065.053.124.113.186.169.083.075.167.149.245.229.062.063.118.132.176.198.071.08.144.159.21.243.056.071.106.147.159.221.061.086.122.17.178.259.049.078.092.161.137.242.05.09.101.18.146.273.041.085.076.173.112.26.029.07.058.14.084.212-1.416,1.195-3.199,1.851-5.042,1.851s-3.626-.656-5.043-1.851Z"/>
    </g>
  </g>
</svg>