<?xml version="1.0" encoding="UTF-8"?>
<svg xmlns="http://www.w3.org/2000/svg" version="1.1" viewBox="0 0 13.1 16.081">
  <!-- Generator: Adobe Illustrator 28.7.1, SVG Export Plug-In . SVG Version: 1.2.0 Build 142)  -->
  <g>
    <g id="Layer_1">
      <g>
        <path d="M3.36,8.98H.25c-.138,0-.25.112-.25.25v6.601c0,.138.112.25.25.25h3.11c.138,0,.25-.112.25-.25v-6.601c0-.138-.112-.25-.25-.25ZM3.11,15.581H.5v-6.101h2.61v6.101Z"/>
        <path d="M12.85,4.98h-3.11c-.138,0-.25.112-.25.25v10.601c0,.138.112.25.25.25h3.11c.138,0,.25-.112.25-.25V5.23c0-.138-.112-.25-.25-.25ZM12.6,15.581h-2.61V5.48h2.61v10.101Z"/>
        <path d="M8.105,6.98h-3.11c-.138,0-.25.112-.25.25v8.601c0,.138.112.25.25.25h3.11c.138,0,.25-.112.25-.25V7.23c0-.138-.112-.25-.25-.25ZM7.855,15.581h-2.61V7.48h2.61v8.101Z"/>
        <path d="M.25,6.7c.021,0,.042-.003.063-.008.069-.018,6.747-1.797,11.903-5.558l-.285,1.352c-.028.136.058.268.193.296.018.004.035.006.052.006.115,0,.219-.081.244-.198l.411-1.951s.02-.068.005-.154c-.017-.098-.097-.168-.195-.183L10.707.002c-.132-.019-.264.072-.285.209-.021.137.073.264.209.285l1.34.207C6.889,4.429.255,6.19.187,6.207c-.134.035-.214.172-.179.306.029.112.13.187.242.187Z"/>
      </g>
    </g>
  </g>
</svg>