<?xml version="1.0" encoding="UTF-8"?>
<svg xmlns="http://www.w3.org/2000/svg" version="1.1" viewBox="0 0 825 598.1">
  <defs>
    <style>
      .cls-1 {
        fill: #040000;
      }
    </style>
  </defs>
  <!-- Generator: Adobe Illustrator 28.7.1, SVG Export Plug-In . SVG Version: 1.2.0 Build 142)  -->
  <g>
    <g id="Layer_1">
      <path class="cls-1" d="M825,299.1c0,6.9-5.6,12.5-12.5,12.5H12.5c-6.9,0-12.5-5.6-12.5-12.5s5.6-12.5,12.5-12.5h800c6.9,0,12.5,5.6,12.5,12.5ZM12.5,25h800c6.9,0,12.5-5.6,12.5-12.5s-5.6-12.5-12.5-12.5H12.5C5.6,0,0,5.6,0,12.5s5.6,12.5,12.5,12.5ZM812.5,573.1H12.5c-6.9,0-12.5,5.6-12.5,12.5s5.6,12.5,12.5,12.5h800c6.9,0,12.5-5.6,12.5-12.5s-5.6-12.5-12.5-12.5Z"/>
    </g>
  </g>
</svg>