<?xml version="1.0" encoding="UTF-8"?>
<svg xmlns="http://www.w3.org/2000/svg" version="1.1" viewBox="0 0 17.572 14.334">
  <!-- Generator: Adobe Illustrator 28.7.1, SVG Export Plug-In . SVG Version: 1.2.0 Build 142)  -->
  <g>
    <g id="Layer_1">
      <g>
        <polygon points="5.22 4.969 4.255 5.58 4.303 4.435 3.841 4.435 3.889 5.58 2.918 4.969 2.69 5.364 3.697 5.892 2.69 6.426 2.918 6.822 3.889 6.216 3.841 7.355 4.303 7.355 4.255 6.216 5.22 6.822 5.448 6.426 4.435 5.892 5.448 5.364 5.22 4.969"/>
        <polygon points="8.443 4.969 7.477 5.58 7.525 4.435 7.064 4.435 7.111 5.58 6.14 4.969 5.912 5.364 6.92 5.892 5.912 6.426 6.14 6.822 7.111 6.216 7.064 7.355 7.525 7.355 7.477 6.216 8.443 6.822 8.671 6.426 7.657 5.892 8.671 5.364 8.443 4.969"/>
        <path d="M17.499,13.907l-2.153-2.154c.52-.599.846-1.371.846-2.225,0-1.242-.674-2.321-1.669-2.918.03-.041.058-.086.058-.141V.25c0-.138-.112-.25-.25-.25H.25c-.138,0-.25.112-.25.25v11.29c0,.138.112.25.25.25h9.767c.065,0,.123-.028.168-.07.627.74,1.551,1.221,2.594,1.221.848,0,1.615-.322,2.213-.836l2.154,2.155c.049.049.112.073.177.073.063,0,.128-.024.177-.073.098-.098.098-.256,0-.354ZM.5,11.29V.5h13.582v5.875c-.402-.167-.842-.261-1.304-.261-.387,0-.754.079-1.101.198l-.798-.421,1.013-.528-.228-.396-.965.611.048-1.145h-.461l.048,1.145-.972-.611-.228.396,1.007.528-1.007.534.228.396.972-.606-.042.99c-.57.61-.926,1.423-.926,2.323,0,.647.191,1.246.505,1.762H.5ZM10.724,6.82l-.025-.604.492.309c-.164.087-.32.184-.467.295ZM9.865,9.528c0-1.606,1.307-2.914,2.913-2.914s2.914,1.308,2.914,2.914-1.308,2.913-2.914,2.913-2.913-1.307-2.913-2.913Z"/>
      </g>
    </g>
  </g>
</svg>