<?xml version="1.0" encoding="UTF-8"?>
<svg xmlns="http://www.w3.org/2000/svg" version="1.1" viewBox="0 0 18.765 16.781">
  <!-- Generator: Adobe Illustrator 28.7.1, SVG Export Plug-In . SVG Version: 1.2.0 Build 142)  -->
  <g>
    <g id="Layer_1">
      <g>
        <path d="M11.719,7.957c.026-.136-.062-.267-.198-.292-.133-.034-.267.062-.292.198-.151.795-.928,1.371-1.845,1.371s-1.692-.576-1.843-1.371c-.026-.137-.161-.224-.292-.199-.136.026-.225.157-.199.293.195,1.029,1.177,1.777,2.334,1.777s2.14-.747,2.335-1.777Z"/>
        <path d="M2.471,7.694c-.043-.081-.128-.131-.22-.131h-.708C1.954,3.601,5.313.5,9.382.5c3.01,0,5.715,1.675,7.06,4.371.062.125.215.173.335.112.124-.062.174-.212.112-.335C15.46,1.781,12.583,0,9.382,0,5.037,0,1.455,3.324,1.042,7.563H.25c-.092,0-.176.05-.22.131-.044.08-.04.179.01.256l1,1.538c.046.07.125.113.209.113s.164-.043.209-.113l1-1.538c.05-.077.054-.176.01-.256Z"/>
        <path d="M18.725,8.832l-1.001-1.539c-.094-.141-.326-.142-.42,0l-1,1.539c-.05.076-.054.175-.01.255.044.081.128.131.22.131h.707c-.19,1.827-1.007,3.468-2.23,4.709-.685-1.332-1.825-2.391-3.2-2.96,1.276-.93,1.913-2.525,1.604-4.124-.306-1.578-1.565-2.857-3.135-3.185-1.234-.259-2.497.043-3.458.824-.961.782-1.512,1.939-1.512,3.177,0,1.317.634,2.543,1.684,3.308-1.374.569-2.513,1.627-3.198,2.958-.574-.584-1.072-1.254-1.452-2.016-.061-.124-.212-.173-.335-.112-.124.062-.174.212-.112.335,1.429,2.867,4.306,4.648,7.506,4.648,4.346,0,7.927-3.324,8.34-7.562h.792c.092,0,.176-.05.22-.131.044-.08.04-.179-.01-.256ZM4.136,14.27c.008-.011.023-.013.029-.026.695-1.414,1.951-2.5,3.445-2.978.095-.03.163-.115.173-.214.009-.1-.041-.195-.128-.243-1.15-.633-1.865-1.839-1.865-3.149,0-1.086.484-2.103,1.328-2.788.843-.687,1.952-.952,3.041-.723,1.374.286,2.478,1.407,2.746,2.79.302,1.559-.419,3.113-1.794,3.87-.088.048-.139.144-.129.243s.078.184.173.214c1.495.479,2.751,1.563,3.445,2.978.005.011.017.016.023.025-1.395,1.247-3.228,2.012-5.241,2.012-1.986,0-3.829-.741-5.247-2.011Z"/>
      </g>
    </g>
  </g>
</svg>