<?xml version="1.0" encoding="utf-8"?>
<!-- Generator: Adobe Illustrator 27.9.4, SVG Export Plug-In . SVG Version: 9.03 Build 54784)  -->
<svg version="1.1" id="Layer_1" xmlns="http://www.w3.org/2000/svg" xmlns:xlink="http://www.w3.org/1999/xlink" x="0px" y="0px"
	 viewBox="0 0 856.909 849.121" style="enable-background:new 0 0 856.909 849.121;" xml:space="preserve">
<g>
	<path d="M384.204,338.034V134.473c0-6.909-5.591-12.5-12.5-12.5s-12.5,5.591-12.5,12.5v203.564
		c-13.226,5.066-22.705,17.676-22.705,32.684c0,5.136,1.218,9.94,3.195,14.34l-98.386,98.386c-4.883,4.883-4.883,12.793,0,17.676
		c2.441,2.441,5.64,3.662,8.838,3.662s6.396-1.221,8.838-3.662l98.386-98.386c4.401,1.978,9.201,3.198,14.34,3.198
		c19.449,0,35.214-15.765,35.214-35.214C406.924,355.707,397.443,343.097,384.204,338.034z"/>
	<path d="M371.46,717.92C180.42,717.92,25,562.5,25,371.46S180.42,25,371.46,25c191.016,0,346.436,155.42,346.436,346.46
		c0,6.909,5.615,12.5,12.5,12.5s12.5-5.591,12.5-12.5C742.896,166.626,576.294,0,371.46,0S0,166.626,0,371.46
		c0,204.81,166.626,371.46,371.46,371.46c6.909,0,12.5-5.615,12.5-12.5S378.369,717.92,371.46,717.92z"/>
	<path d="M800.394,612.065H640.552V452.271c0-6.885-5.615-12.5-12.5-12.5s-12.5,5.615-12.5,12.5v159.794H455.758
		c-6.885,0-12.5,5.615-12.5,12.5s5.615,12.5,12.5,12.5h159.794v159.843c0,6.885,5.615,12.5,12.5,12.5s12.5-5.615,12.5-12.5V637.065
		h159.843c6.885,0,12.5-5.615,12.5-12.5S807.279,612.065,800.394,612.065z"/>
</g>
</svg>
