<?xml version="1.0" encoding="UTF-8"?>
<svg xmlns="http://www.w3.org/2000/svg" version="1.1" viewBox="0 0 729.2 589.5">
  <defs>
    <style>
      .cls-1 {
        fill: #040000;
      }
    </style>
  </defs>
  <!-- Generator: Adobe Illustrator 28.7.1, SVG Export Plug-In . SVG Version: 1.2.0 Build 142)  -->
  <g>
    <g id="Layer_1">
      <path class="cls-1" d="M716.7,0H12.5C5.6,0,0,5.6,0,12.5v564.5c0,6.9,5.6,12.5,12.5,12.5h704.2c6.9,0,12.5-5.6,12.5-12.5V12.5c0-6.9-5.6-12.5-12.5-12.5ZM704.2,564.5H25V25h679.2v539.5ZM107.4,145.9c-5.3-4.4-6-12.3-1.6-17.6,4.5-5.3,12.4-6,17.6-1.6l241,201.6,233.2-201.4c5.2-4.5,13.1-3.9,17.6,1.3,4.5,5.2,3.9,13.1-1.3,17.6l-241.2,208.4c-2.3,2-5.3,3-8.2,3s-5.7-1-8-2.9L107.4,145.9Z"/>
    </g>
  </g>
</svg>