<?xml version="1.0" encoding="UTF-8"?>
<svg xmlns="http://www.w3.org/2000/svg" version="1.1" viewBox="0 0 763.8 745.4">
  <!-- Generator: Adobe Illustrator 28.7.1, SVG Export Plug-In . SVG Version: 1.2.0 Build 142)  -->
  <g>
    <g id="Layer_1">
      <g>
        <path d="M751.3,101.6h-346.6L278.8,2.7c-2.2-1.7-4.9-2.7-7.7-2.7H12.5C5.6,0,0,5.6,0,12.5v626.4c0,6.9,5.6,12.5,12.5,12.5h326.7c6.9,0,12.5-5.6,12.5-12.5s-5.6-12.5-12.5-12.5H25V25h241.8l125.9,98.9c2.2,1.7,4.9,2.7,7.7,2.7h338.4v208.7c0,6.9,5.6,12.5,12.5,12.5s12.5-5.6,12.5-12.5V114.1c0-6.9-5.6-12.5-12.5-12.5Z"/>
        <path d="M760.1,455.9l-102.5-102.6c-2.2-2.2-5-3.1-7.9-3.3-.3,0-.6-.4-.9-.4h-220.5c-6.9,0-12.5,5.6-12.5,12.5v370.7c0,6.9,5.6,12.5,12.5,12.5h323.1c6.9,0,12.5-5.6,12.5-12.5v-268.1c0-.3-.4-.6-.4-.9-.2-2.9-1.1-5.8-3.3-7.9ZM721.1,452.3h-59.9v-59.9l29.9,29.9,29.9,29.9ZM440.7,720.4v-345.7h195.5v90.1c0,6.9,5.6,12.5,12.5,12.5h90v243.1h-298.1Z"/>
      </g>
    </g>
  </g>
</svg>