<?xml version="1.0" encoding="UTF-8"?>
<svg xmlns="http://www.w3.org/2000/svg" version="1.1" viewBox="0 0 655 812.5">
  <defs>
    <style>
      .cls-1 {
        fill: #040000;
      }
    </style>
  </defs>
  <!-- Generator: Adobe Illustrator 28.7.1, SVG Export Plug-In . SVG Version: 1.2.0 Build 142)  -->
  <g>
    <g id="Layer_1">
      <g>
        <path class="cls-1" d="M642.5,61h-130.4c-6.9,0-12.5,5.6-12.5,12.5s5.6,12.5,12.5,12.5h117.9v701.5H25V86h117.9c6.9,0,12.5-5.6,12.5-12.5s-5.6-12.5-12.5-12.5H12.5c-6.9,0-12.5,5.6-12.5,12.5v726.5c0,6.9,5.6,12.5,12.5,12.5h630c6.9,0,12.5-5.6,12.5-12.5V73.5c0-6.9-5.6-12.5-12.5-12.5Z"/>
        <path class="cls-1" d="M285.8,477.6c2.4,2,5.4,3.1,8.3,3.1s5.8-1,8.1-3l137.2-118.3c5.2-4.5,5.8-12.4,1.3-17.6-4.5-5.2-12.4-5.8-17.6-1.3l-128.9,111.1-62.3-55.2c-5.2-4.6-13.1-4.1-17.6,1-4.6,5.2-4.1,13.1,1,17.6l70.5,62.5Z"/>
        <path class="cls-1" d="M224,86h207c6.9,0,12.5-5.6,12.5-12.5s-5.6-12.5-12.5-12.5h-91V12.5c0-6.9-5.6-12.5-12.5-12.5s-12.5,5.6-12.5,12.5v48.5h-91c-6.9,0-12.5,5.6-12.5,12.5s5.6,12.5,12.5,12.5Z"/>
      </g>
    </g>
  </g>
</svg>