<?xml version="1.0" encoding="utf-8"?>
<!-- Generator: Adobe Illustrator 28.3.0, SVG Export Plug-In . SVG Version: 6.00 Build 0)  -->
<svg version="1.1" id="Layer_1" xmlns="http://www.w3.org/2000/svg" xmlns:xlink="http://www.w3.org/1999/xlink" x="0px" y="0px"
	 viewBox="0 0 17.258 17.114" style="enable-background:new 0 0 17.258 17.114;" xml:space="preserve">
<g>
	<path d="M3.89,5.391c0.815,0,1.507-0.529,1.645-1.258c0.026-0.136-0.063-0.266-0.199-0.292C5.203,3.817,5.069,3.904,5.043,4.04
		C4.95,4.533,4.465,4.891,3.89,4.891S2.829,4.533,2.736,4.04C2.71,3.904,2.575,3.817,2.444,3.841
		C2.308,3.867,2.219,3.997,2.245,4.133C2.383,4.862,3.075,5.391,3.89,5.391z"/>
	<path d="M13.369,5.391c0.815,0,1.507-0.529,1.646-1.258c0.025-0.136-0.063-0.266-0.199-0.292c-0.134-0.024-0.267,0.063-0.293,0.199
		c-0.093,0.493-0.578,0.851-1.153,0.851s-1.061-0.358-1.153-0.851c-0.026-0.136-0.159-0.223-0.293-0.199
		c-0.136,0.026-0.225,0.156-0.199,0.292C11.862,4.862,12.553,5.391,13.369,5.391z"/>
	<path d="M17.258,3.89c0-2.145-1.745-3.89-3.89-3.89c-1.117,0-2.118,0.48-2.828,1.236c-0.016-0.003-0.026-0.018-0.042-0.018H6.797
		c-0.027,0-0.046,0.021-0.07,0.029C6.016,0.485,5.012,0,3.89,0C1.745,0,0,1.745,0,3.89c0,0.57,0.13,1.117,0.361,1.615v7.51
		c0,0.846,0.688,1.533,1.533,1.533h5.453L6.83,16.614H5.101c-0.138,0-0.25,0.112-0.25,0.25s0.112,0.25,0.25,0.25h7.057
		c0.138,0,0.25-0.112,0.25-0.25s-0.112-0.25-0.25-0.25h-1.73l-0.516-2.065h5.453c0.846,0,1.533-0.688,1.533-1.533V5.562
		c0-0.01-0.01-0.016-0.011-0.026C17.126,5.029,17.258,4.471,17.258,3.89z M13.369,0.5c1.869,0,3.39,1.521,3.39,3.39
		c0,1.171-0.6,2.244-1.604,2.87c-0.081,0.051-0.126,0.143-0.117,0.237c0.01,0.094,0.072,0.176,0.161,0.209
		c0.334,0.126,0.657,0.287,0.98,0.491c0.066,0.034,0.148,0.088,0.163,0.104c0.014,0.021,0.039,0.023,0.057,0.038V9.15
		c-0.006,0.01-0.019,0.013-0.024,0.024c-0.037,0.088-0.17,0.283-0.174,0.289c-0.814,1.26-2.884,2.397-4.817,2.647
		c-0.072,0.008-0.517,0.063-0.981,0.064c0.03-0.024,0.073-0.041,0.1-0.067c0.274-0.253,0.324-0.509,0.332-0.615
		c0.026-0.118,0.073-0.477-0.205-0.859c-0.145-0.198-0.358-0.364-0.625-0.504c0.691-0.048,1.317-0.142,1.374-0.151
		c1.372-0.354,2.396-0.837,2.881-1.361c0.094-0.101,0.088-0.259-0.014-0.354c-0.101-0.093-0.259-0.087-0.354,0.014
		c-0.196,0.212-0.847,0.754-2.614,1.212c-0.014,0.002-1.475,0.22-2.361,0.152c-0.03-0.072-0.068-0.134-0.099-0.203
		c0.03-0.02,0.058-0.044,0.078-0.077c0.111-0.19,0.472-0.613,0.6-0.758c0.56-0.621,1.267-1.103,2.046-1.396
		c0.089-0.033,0.151-0.114,0.161-0.209c0.009-0.095-0.036-0.187-0.117-0.237C10.58,6.133,9.979,5.061,9.979,3.89
		C9.979,2.021,11.5,0.5,13.369,0.5z M16.398,6.317v0.931c-0.194-0.122-0.395-0.234-0.602-0.331
		C16.021,6.738,16.221,6.536,16.398,6.317z M10.143,1.719C9.724,2.339,9.479,3.087,9.479,3.89c0,1.19,0.539,2.292,1.463,3.027
		c-0.687,0.324-1.309,0.785-1.82,1.352C9.08,8.317,8.772,8.67,8.575,8.944C8.046,8.036,7.315,7.371,6.32,6.915
		C7.241,6.18,7.779,5.079,7.779,3.89c0-0.804-0.245-1.551-0.664-2.171H10.143z M3.89,0.5c1.869,0,3.39,1.521,3.39,3.39
		c0,1.17-0.6,2.244-1.605,2.87C5.593,6.811,5.548,6.902,5.558,6.997c0.009,0.094,0.071,0.176,0.161,0.209
		c1.279,0.481,2.123,1.289,2.667,2.49C8.068,9.66,7.727,9.636,7.351,9.63c-2.464-0.041-3.03-0.659-3.404-1.068
		C3.853,8.46,3.695,8.453,3.593,8.547C3.492,8.64,3.484,8.798,3.578,8.9c0.549,0.6,1.292,1.189,3.765,1.23
		c2.006,0.033,2.66,0.506,2.872,0.784c0.187,0.246,0.132,0.464,0.131,0.469c-0.006,0.021-0.01,0.054-0.011,0.074
		c0,0.006-0.009,0.146-0.202,0.309c-0.343,0.289-1.35,0.719-4.26,0.344C3.8,11.843,1.821,10.833,1.068,9.67
		c0,0-0.081-0.149-0.165-0.284c-0.01-0.016-0.03-0.018-0.042-0.031V7.848c0.371-0.266,0.775-0.482,1.2-0.642
		C2.15,7.173,2.212,7.091,2.222,6.997C2.231,6.902,2.186,6.811,2.105,6.76C1.1,6.134,0.5,5.061,0.5,3.89
		C0.5,2.021,2.021,0.5,3.89,0.5z M1.462,6.917c-0.211,0.099-0.404,0.23-0.602,0.354V6.318C1.038,6.536,1.238,6.738,1.462,6.917z
		 M9.913,16.614H7.346l0.517-2.065h1.534L9.913,16.614z M15.365,14.048H1.894c-0.569,0-1.033-0.464-1.033-1.033v-2.806
		c0.946,1.168,2.905,2.134,4.948,2.397c0.787,0.101,1.484,0.151,2.092,0.151c0.665,0,1.214-0.064,1.661-0.185
		c0.019,0.01,0.03,0.031,0.052,0.036c0.238,0.051,0.518,0.067,0.787,0.067c0.479,0,0.926-0.054,1.05-0.069
		c1.915-0.247,3.957-1.334,4.947-2.585v2.994C16.398,13.584,15.934,14.048,15.365,14.048z"/>
</g>
</svg>
