<?xml version="1.0" encoding="UTF-8"?>
<svg xmlns="http://www.w3.org/2000/svg" version="1.1" viewBox="0 0 615.2 615.2">
  <defs>
    <style>
      .cls-1 {
        fill: #040000;
      }
    </style>
  </defs>
  <!-- Generator: Adobe Illustrator 28.7.1, SVG Export Plug-In . SVG Version: 1.2.0 Build 142)  -->
  <g>
    <g id="Layer_1">
      <path class="cls-1" d="M525.1,90C467.1,32,389.8,0,307.6,0S148,32,90,90c-120,120-120,315.2,0,435.2,58.1,58.1,135.3,90,217.6,90s159.5-32,217.6-90,90-135.3,90-217.6-32-159.6-90-217.6ZM470,320.1h-150v150c0,6.9-5.6,12.5-12.5,12.5s-12.5-5.6-12.5-12.5v-150h-150c-6.9,0-12.5-5.6-12.5-12.5s5.6-12.5,12.5-12.5h150v-150c0-6.9,5.6-12.5,12.5-12.5s12.5,5.6,12.5,12.5v150h150c6.9,0,12.5,5.6,12.5,12.5s-5.6,12.5-12.5,12.5Z"/>
    </g>
  </g>
</svg>