<?xml version="1.0" encoding="UTF-8"?>
<svg xmlns="http://www.w3.org/2000/svg" version="1.1" viewBox="0 0 459.5 443">
  <defs>
    <style>
      .cls-1 {
        fill: #040000;
      }
    </style>
  </defs>
  <!-- Generator: Adobe Illustrator 28.7.1, SVG Export Plug-In . SVG Version: 1.2.0 Build 142)  -->
  <g>
    <g id="Layer_1">
      <path class="cls-1" d="M160.4,295.1v74.1c0,6.9-5.6,12.5-12.5,12.5s-12.5-5.6-12.5-12.5v-43.9l-114,114.1c-2.4,2.4-5.6,3.7-8.8,3.7s-6.4-1.2-8.8-3.7c-4.9-4.9-4.9-12.8,0-17.7l114-114.1h-48.6c-6.9,0-12.5-5.6-12.5-12.5s5.6-12.5,12.5-12.5h78.8c3.2,0,6.4,1.2,8.8,3.7h0c2.3,2.3,3.7,5.4,3.7,8.8ZM341.7,307.6h48.3c6.9,0,12.5-5.6,12.5-12.5s-5.6-12.5-12.5-12.5h-78.5c-3.2,0-6.4,1.2-8.8,3.7s-3.7,5.6-3.7,8.8v74.1c0,6.9,5.6,12.5,12.5,12.5s12.5-5.6,12.5-12.5v-44l114.1,114.1c2.4,2.4,5.6,3.7,8.8,3.7s6.4-1.2,8.8-3.7c4.9-4.9,4.9-12.8,0-17.7l-114.1-114ZM147.9,56.8c-6.9,0-12.5,5.6-12.5,12.5v48.4L21.3,3.7C16.5-1.2,8.6-1.2,3.7,3.7s-4.9,12.8,0,17.7l114,114.1h-48.6c-6.9,0-12.5,5.6-12.5,12.5s5.6,12.5,12.5,12.5h78.8c6.9,0,12.5-5.6,12.5-12.5v-78.6c0-6.9-5.6-12.5-12.5-12.5ZM302.7,156.7c2.3,2.3,5.4,3.7,8.8,3.7h78.5c6.9,0,12.5-5.6,12.5-12.5s-5.6-12.5-12.5-12.5h-48.3l114.1-114.1c4.9-4.9,4.9-12.8,0-17.7s-12.8-4.9-17.7,0l-114.1,114.1v-48.4c0-6.9-5.6-12.5-12.5-12.5s-12.5,5.6-12.5,12.5v78.6c0,3.2,1.2,6.4,3.7,8.8h0Z"/>
    </g>
  </g>
</svg>