<?xml version="1.0" encoding="UTF-8"?>
<svg xmlns="http://www.w3.org/2000/svg" version="1.1" viewBox="0 0 655 828.6">
  <defs>
    <style>
      .cls-1 {
        fill: #010101;
      }
    </style>
  </defs>
  <!-- Generator: Adobe Illustrator 28.7.1, SVG Export Plug-In . SVG Version: 1.2.0 Build 142)  -->
  <g>
    <g id="Layer_1">
      <path class="cls-1" d="M654.6,211.6c-.2-2.9-1.1-5.8-3.3-7.9L451.3,3.7c-2.2-2.2-5-3.1-7.9-3.3-.3,0-.6-.4-.9-.4H12.5C5.6,0,0,5.6,0,12.5v787.5c0,6.9,5.6,12.5,12.5,12.5h269.5c6.9,0,12.5-5.6,12.5-12.5s-5.6-12.5-12.5-12.5H25V25h405v187.5c0,6.9,5.6,12.5,12.5,12.5h187.5v126.1c0,6.9,5.6,12.5,12.5,12.5s12.5-5.6,12.5-12.5v-138.6c0-.4-.4-.6-.4-.9ZM455,200V42.7l157.3,157.3h-157.3ZM500.7,394c-86.6,0-154.3,40.1-154.3,91.2s0,.4,0,.6v83.3c0,0,0,.1,0,.2,0,.2,0,.4,0,.6v167.1c0,0,0,0,0,.2s0,0,0,.2c0,51.1,67.7,91.1,154.1,91.2h.3c86.4,0,154-40.1,154-91.2v-167.4c0-.2,0-.4,0-.6s0-.1,0-.2v-83.3s0,0,0,0c0-.2,0-.4,0-.6,0-51.2-67.8-91.2-154.3-91.2ZM500.7,419c70.1,0,129.3,30.3,129.3,66.2s-59.2,66.3-129.3,66.3-128.7-30.1-129.2-65.8v-.2c0,0,0-.1,0-.2s0,0,0-.1c0-35.9,59.2-66.2,129.3-66.2ZM629.9,737.4c0,35.9-59.2,66.2-129.2,66.2-70.1,0-129.2-30.3-129.2-66.2s0,0,0-.2,0,0,0-.2v-33.4c27.3,24.8,74.3,41,129.1,41h.3c54.8,0,101.8-16.2,129-41v33.7h0ZM629.9,653.5c0,35.9-59.2,66.2-129.2,66.3-70.1,0-129.2-30.4-129.2-66.3v-33.8c27.3,24.8,74.4,40.9,129.2,40.9s101.9-16.1,129.2-40.9v33.8ZM629.9,569.9c-.5,35.7-59.5,65.7-129.2,65.7s-128.7-30.1-129.2-65.7v-34.2c27.3,24.8,74.4,40.9,129.2,40.9s101.9-16.1,129.2-40.9v34.2Z"/>
    </g>
  </g>
</svg>