<?xml version="1.0" encoding="UTF-8"?>
<svg xmlns="http://www.w3.org/2000/svg" version="1.1" viewBox="0 0 740.9 812.5">
  <defs>
    <style>
      .cls-1 {
        fill: #040000;
      }
    </style>
  </defs>
  <!-- Generator: Adobe Illustrator 28.7.1, SVG Export Plug-In . SVG Version: 1.2.0 Build 142)  -->
  <g>
    <g id="Layer_1">
      <path class="cls-1" d="M521.9,704.5c3.7,3.6,5.6,8,5.6,13.2s-1.9,10.4-5.6,13.8-8.1,5-13.2,5-9.5-1.7-13.3-4.9c-3.8-3.3-5.7-7.9-5.7-13.8s1.8-9.6,5.5-13.2c3.6-3.7,8.1-5.5,13.3-5.5s9.7,1.8,13.5,5.5ZM509.5,546.9c-5.9,0-10.7,1.9-14.3,5.8-3.6,3.9-5.5,9.3-5.5,16.2s.4,13.5,1.1,25.2l4,60c.8,7.8,2,13.5,3.8,17.3s4.9,5.7,9.4,5.7,7.6-2,9.5-5.9c1.9-3.9,3.2-9.6,3.8-16.9l5.4-61.7c.6-5.7.9-11.3.9-16.8,0-9.3-1.2-16.5-3.6-21.5-2.4-4.9-7.2-7.4-14.4-7.4ZM734.2,783.9c-10.4,18-31.2,28-58.6,28h-333.9c-27.4,0-48.2-10-58.6-28-10.4-18.1-8.6-41.1,5.1-64.8l166.9-289.3c13.7-23.7,32.8-36.8,53.6-36.8s39.9,13.1,53.6,36.8l167,289.3c13.7,23.7,15.5,46.7,5,64.8ZM707.5,731.6l-167-289.3c-9-15.7-20.4-24.3-31.9-24.3s-22.9,8.6-31.9,24.3l-167,289.3c-9,15.7-10.8,29.8-5.1,39.8,5.8,10,18.9,15.5,37,15.5h333.9c18.1,0,31.2-5.5,37-15.5,5.8-10,4-24.1-5.1-39.8ZM195.8,800c0,6.9-5.6,12.5-12.5,12.5H12.5c-6.9,0-12.5-5.6-12.5-12.5V12.5C0,5.6,5.6,0,12.5,0h430c.3,0,.6.3.9.4,2.9.2,5.8,1.1,7.9,3.3l200,200c2.2,2.1,3,5,3.3,7.9,0,.4.4.6.4.9v196.2c0,6.9-5.6,12.5-12.5,12.5s-12.5-5.6-12.5-12.5v-183.7h-187.5c-6.9,0-12.5-5.6-12.5-12.5V25H25v762.5h158.3c6.9,0,12.5,5.6,12.5,12.5ZM455,42.7v157.3h157.3L455,42.7Z"/>
    </g>
  </g>
</svg>