<?xml version="1.0" encoding="UTF-8"?>
<svg xmlns="http://www.w3.org/2000/svg" version="1.1" viewBox="0 0 655 823.9">
  <defs>
    <style>
      .cls-1 {
        fill: #040000;
      }
    </style>
  </defs>
  <!-- Generator: Adobe Illustrator 28.7.1, SVG Export Plug-In . SVG Version: 1.2.0 Build 142)  -->
  <g>
    <g id="Layer_1">
      <path class="cls-1" d="M451.6,417c-112.2,0-203.4,91.2-203.4,203.4s91.3,203.4,203.4,203.4,203.4-91.3,203.4-203.4-91.2-203.4-203.4-203.4ZM451.6,798.9c-98.4,0-178.4-80-178.4-178.4s80-178.4,178.4-178.4,178.4,80,178.4,178.4-80,178.4-178.4,178.4ZM545.7,564.1c4.5,5.2,3.9,13.1-1.3,17.6l-111.8,96.3c-2.3,2-5.2,3-8.2,3s-5.9-1.1-8.3-3.2l-57.4-50.9c-5.2-4.5-5.6-12.5-1-17.6,4.5-5.2,12.5-5.7,17.7-1l49.2,43.7,103.5-89.2c5.2-4.5,13.1-3.9,17.6,1.3ZM654.6,211.6c-.2-2.9-1.1-5.8-3.3-7.9L451.3,3.7c-2.2-2.2-5-3.1-7.9-3.3-.3,0-.6-.4-.9-.4H12.5C5.6,0,0,5.6,0,12.5v787.5c0,6.9,5.6,12.5,12.5,12.5h207.7c6.9,0,12.5-5.6,12.5-12.5s-5.6-12.5-12.5-12.5H25V25h405v187.5c0,6.9,5.6,12.5,12.5,12.5h187.5v183.8c0,6.9,5.6,12.5,12.5,12.5s12.5-5.6,12.5-12.5v-196.3c0-.4-.4-.6-.4-.9ZM455,200V42.7l157.3,157.3h-157.3Z"/>
    </g>
  </g>
</svg>