<?xml version="1.0" encoding="UTF-8"?>
<svg xmlns="http://www.w3.org/2000/svg" version="1.1" viewBox="0 0 22.357 25">
  <defs>
    <style>
      .cls-1 {
        fill: #222;
      }
    </style>
  </defs>
  <!-- Generator: Adobe Illustrator 28.7.1, SVG Export Plug-In . SVG Version: 1.2.0 Build 142)  -->
  <g>
    <g id="Layer_1">
      <g>
        <polygon class="cls-1" points="6.064 10.486 6.064 6.034 7.604 6.034 7.604 5.339 3.731 5.339 3.731 6.034 5.271 6.034 5.271 10.486 6.064 10.486"/>
        <path class="cls-1" d="M8.661,9.002h1.862l.532,1.484h.836l-1.909-5.115-.012-.032h-.741l-1.888,5.08-.025.067h.814l.532-1.484ZM9.478,6.7c.024-.071.047-.147.07-.229.012-.041.026-.087.041-.138.015.05.029.095.042.136l.074.227c.023.074.049.149.078.226.028.077.061.167.098.269l.396,1.117h-1.37l.403-1.116c.038-.103.069-.193.095-.271l.074-.221Z"/>
        <polygon class="cls-1" points="12.217 10.486 13.12 10.486 14.373 8.372 15.611 10.462 15.625 10.486 16.562 10.486 14.901 7.833 16.43 5.416 16.479 5.339 15.583 5.339 14.428 7.28 13.282 5.363 13.267 5.339 12.322 5.339 13.879 7.805 12.264 10.41 12.217 10.486"/>
        <path class="cls-1" d="M22.21,22.061l-2.651-2.651c.631-.783,1.025-1.764,1.025-2.846,0-2.517-2.047-4.563-4.563-4.563s-4.563,2.047-4.563,4.563,2.047,4.562,4.563,4.562c1.074,0,2.049-.388,2.83-1.011l2.653,2.653c.098.098.226.146.354.146s.256-.049.354-.146c.195-.195.195-.512,0-.707ZM12.458,16.563c0-1.965,1.599-3.563,3.563-3.563s3.563,1.599,3.563,3.563-1.599,3.562-3.563,3.562-3.563-1.598-3.563-3.562Z"/>
        <path class="cls-1" d="M19.7,24H1V1h18.2v9.437c0,.276.224.5.5.5s.5-.224.5-.5V.5c0-.276-.224-.5-.5-.5H.5C.224,0,0,.224,0,.5v24c0,.276.224.5.5.5h19.2c.276,0,.5-.224.5-.5s-.224-.5-.5-.5Z"/>
      </g>
    </g>
  </g>
</svg>