<?xml version="1.0" encoding="UTF-8"?>
<svg xmlns="http://www.w3.org/2000/svg" version="1.1" viewBox="0 0 724.8 757">
  <defs>
    <style>
      .cls-1 {
        fill: #040000;
      }
    </style>
  </defs>
  <!-- Generator: Adobe Illustrator 28.7.1, SVG Export Plug-In . SVG Version: 1.2.0 Build 142)  -->
  <g>
    <g id="Layer_1">
      <path class="cls-1" d="M712.2,87.7h-136.1V14.3c0-8.9-5.6-15.2-12.5-14.2L12.5,85.7c-6.9,1.1-12.5,7.5-12.5,14.4v565c0,6.9,5.6,13.3,12.5,14.2l551.1,77.4c6.9,1,12.5-5.5,12.5-14.4v-64.8h136.1c6.9,0,12.5-5.6,12.5-12.5V100.2c0-6.9-5.6-12.5-12.5-12.5ZM576.1,253.9h121.1c1,0,1.6-.8,2.5-1v118.3c-.9-.2-1.5-1-2.5-1h-121.1v-116.2ZM576.1,395.2h121.1c1,0,1.6-.8,2.5-1v118.4c-.9-.2-1.5-1.1-2.5-1.1h-121.1v-116.3ZM699.7,112.7v117.3c-.9-.2-1.5-1-2.5-1h-121.1v-116.3h123.6ZM551.1,723.2L25,655.9V109.1L551.1,34v689.2ZM576.1,652.7v-116.3h121.1c1,0,1.6-.8,2.5-1.1v117.3h-123.6ZM165.1,522.9l101.2-142.2-101.2-140.7c-4.4-5.5-3.6-14,1.8-19.2,5.3-5.2,13.2-5,17.6.5l98,136.6,109.2-153.4c4.4-6.8,12.2-8.4,17.6-3.5,5.3,4.8,6.1,14.3,1.8,21.1l-112.4,158.3,112.4,156.7c4.4,6.7,3.6,16.2-1.8,21.1-2.3,2.1-5.1,3.1-7.9,2.9-3.6-.2-7.2-2.4-9.7-6.2l-109.2-151.8-98,138.1c-2.5,3.1-6,4.6-9.7,4.3-2.8-.2-5.6-1.4-7.9-3.6-5.3-5.1-6.1-13.7-1.8-19.2Z"/>
    </g>
  </g>
</svg>