<?xml version="1.0" encoding="UTF-8"?>
<svg xmlns="http://www.w3.org/2000/svg" version="1.1" viewBox="0 0 428.8 588.7">
  <defs>
    <style>
      .cls-1 {
        fill: #040000;
      }
    </style>
  </defs>
  <!-- Generator: Adobe Illustrator 28.7.1, SVG Export Plug-In . SVG Version: 1.2.0 Build 142)  -->
  <g>
    <g id="Layer_1">
      <g id="Layer_1-2" data-name="Layer_1">
        <path class="cls-1" d="M416.3,0c-6.9,0-12.5,5.6-12.5,12.5v563.7c0,6.9,5.6,12.5,12.5,12.5s12.5-5.6,12.5-12.5V12.5c0-6.9-5.6-12.5-12.5-12.5ZM328.835,294.405c0,3.5-1.5,6.8-4,9.2L21.035,585.405c-5,4.6-12.9,4.4-17.7-.7-4.7-5.1-4.4-12.9.7-17.7l293.9-272.6L4.035,21.705C-1.065,17.005-1.365,9.105,3.335,4.005,8.135-.995,16.035-1.295,21.035,3.305l303.8,281.9c2.5,2.4,4,5.7,4,9.2h0Z"/>
      </g>
    </g>
  </g>
</svg>