<?xml version="1.0" encoding="UTF-8"?>
<svg xmlns="http://www.w3.org/2000/svg" version="1.1" viewBox="0 0 880.4 605">
  <defs>
    <style>
      .cls-1 {
        fill: #040000;
      }
    </style>
  </defs>
  <!-- Generator: Adobe Illustrator 28.7.1, SVG Export Plug-In . SVG Version: 1.2.0 Build 142)  -->
  <g>
    <g id="Layer_1">
      <path class="cls-1" d="M500,367.6c0-6.9,5.6-12.5,12.5-12.5h125c6.9,0,12.5,5.6,12.5,12.5s-5.6,12.5-12.5,12.5h-125c-6.9,0-12.5-5.6-12.5-12.5ZM880.4,212.5v280c0,62-50.5,112.5-112.5,112.5H242.9c-57.8,0-104.9-43.9-111.2-100h-19.2c-62,0-112.5-50.5-112.5-112.5V112.5C0,50.5,50.5,0,112.5,0h525c57.7,0,104.9,43.9,111.2,100h19.2c62,0,112.5,50.5,112.5,112.5ZM767.9,125h-17.9v105.1h105.4v-17.6c0-48.2-39.2-87.5-87.5-87.5ZM25,112.5v17.6h700v-17.6c0-48.2-39.3-87.5-87.5-87.5H112.5c-48.2,0-87.5,39.3-87.5,87.5ZM112.5,480h525c48.2,0,87.5-39.3,87.5-87.5v-237.4H25v237.4c0,48.2,39.3,87.5,87.5,87.5ZM855.4,492.5v-237.4h-105.4v137.4c0,62-50.5,112.5-112.5,112.5H156.7c6.1,42.3,42.3,75,86.2,75h525c48.2,0,87.5-39.3,87.5-87.5Z"/>
    </g>
  </g>
</svg>