<?xml version="1.0" encoding="UTF-8"?>
<svg xmlns="http://www.w3.org/2000/svg" version="1.1" viewBox="0 0 12.577 17.625">
  <!-- Generator: Adobe Illustrator 28.7.1, SVG Export Plug-In . SVG Version: 1.2.0 Build 142)  -->
  <g>
    <g id="Layer_1">
      <path d="M12.577,6.288c0-3.473-2.815-6.288-6.288-6.288S0,2.815,0,6.288c0,1.297.393,2.699,1.067,3.701h0s0,.001,0,.001c.004.006.008.013.013.019l5.209,7.616,5.208-7.616c.004-.006.008-.013.013-.019h0s0-.001,0-.001c.673-1.001,1.067-2.403,1.067-3.701ZM6.289,9.308c-1.683,0-3.048-1.365-3.048-3.048s1.365-3.048,3.048-3.048,3.048,1.365,3.048,3.048-1.365,3.048-3.048,3.048Z"/>
    </g>
  </g>
</svg>