<?xml version="1.0" encoding="UTF-8"?>
<svg xmlns="http://www.w3.org/2000/svg" version="1.1" viewBox="0 0 615.4 615.4">
  <defs>
    <style>
      .cls-1 {
        fill: #040000;
      }
    </style>
  </defs>
  <!-- Generator: Adobe Illustrator 28.7.1, SVG Export Plug-In . SVG Version: 1.2.0 Build 142)  -->
  <g>
    <g id="Layer_1">
      <path class="cls-1" d="M307.7,0C138,0,0,138,0,307.7s138,307.7,307.7,307.7,307.7-138,307.7-307.7C615.4,138,477.4,0,307.7,0ZM306.9,380.3c-6.9,0-12.5-5.6-12.5-12.5v-36.7l-112.4,112.4c-2.4,2.4-5.6,3.7-8.8,3.7s-6.4-1.2-8.8-3.7c-4.9-4.9-4.9-12.8,0-17.7l112.4-112.4h-36.7c-6.9,0-12.5-5.6-12.5-12.5s5.6-12.5,12.5-12.5h66.9c6.9,0,12.5,5.6,12.5,12.5v66.9c0,6.9-5.6,12.5-12.5,12.5ZM454.8,434.6c0,6.9-5.6,12.5-12.5,12.5h-115.2c-6.9,0-12.5-5.6-12.5-12.5s5.6-12.5,12.5-12.5h102.7v-228.9h-244.1v89.6c0,6.9-5.6,12.5-12.5,12.5s-12.5-5.6-12.5-12.5v-102.1c0-6.9,5.6-12.5,12.5-12.5h269.1c6.9,0,12.5,5.6,12.5,12.5v253.9h0Z"/>
    </g>
  </g>
</svg>