<?xml version="1.0" encoding="UTF-8"?>
<svg xmlns="http://www.w3.org/2000/svg" version="1.1" viewBox="0 0 739.4 818.1">
  <defs>
    <style>
      .cls-1 {
        fill: #040000;
      }
    </style>
  </defs>
  <!-- Generator: Adobe Illustrator 28.7.1, SVG Export Plug-In . SVG Version: 1.2.0 Build 142)  -->
  <g>
    <g id="Layer_1">
      <g>
        <path class="cls-1" d="M170,279.6h326.7c6.9,0,12.5-5.6,12.5-12.5s-5.6-12.5-12.5-12.5H170c-6.9,0-12.5,5.6-12.5,12.5s5.6,12.5,12.5,12.5Z"/>
        <path class="cls-1" d="M509.1,372.1c0-6.9-5.6-12.5-12.5-12.5H170c-6.9,0-12.5,5.6-12.5,12.5s5.6,12.5,12.5,12.5h326.7c6.9,0,12.5-5.6,12.5-12.5Z"/>
        <path class="cls-1" d="M115.4,777.5c-6.9,0-12.5,5.6-12.5,12.5v10c0,6.9,5.6,12.5,12.5,12.5s12.5-5.6,12.5-12.5v-10c0-6.9-5.6-12.5-12.5-12.5Z"/>
        <path class="cls-1" d="M218.2,777.5c-6.9,0-12.5,5.6-12.5,12.5v10c0,6.9,5.6,12.5,12.5,12.5s12.5-5.6,12.5-12.5v-10c0-6.9-5.6-12.5-12.5-12.5Z"/>
        <path class="cls-1" d="M321.2,777.5c-6.9,0-12.5,5.6-12.5,12.5v10c0,6.9,5.6,12.5,12.5,12.5s12.5-5.6,12.5-12.5v-10c0-6.9-5.6-12.5-12.5-12.5Z"/>
        <path class="cls-1" d="M654.5,501.1c0-.4.5-.7.5-1.1V12.5c0-6.9-5.6-12.5-12.5-12.5H12.5C5.6,0,0,5.6,0,12.5v787.5c0,6.9,5.6,12.5,12.5,12.5s12.5-5.6,12.5-12.5V25h605v472.3c-94.4-11.1-215.6,8.2-215.6,58.3v200c0,8.2,4,15.4,9.8,22,0,0-.1,0-.2,0-6.9,0-12.5,5.6-12.5,12.5v10c0,6.9,5.6,12.5,12.5,12.5s12.5-5.6,12.5-12.5v-10c0-1-.9-1.7-1.1-2.6,29.3,20.1,85.3,30.8,141.5,30.8,80.8,0,162.5-21.5,162.5-62.5v-200c0-27.4-36.6-45.4-84.9-54.5ZM714.4,655.6c0,12.7-48.5,37.5-137.5,37.5s-137.5-24.8-137.5-37.5v-65.6c30.2,18.4,83.8,28.1,137.5,28.1s107.2-9.7,137.5-28.1v65.6ZM576.9,518.1c89,0,137.5,24.8,137.5,37.5s-48.5,37.5-137.5,37.5-137.5-24.8-137.5-37.5,48.5-37.5,137.5-37.5ZM576.9,793.1c-89,0-137.5-24.8-137.5-37.5v-65.6c30.2,18.4,83.8,28.1,137.5,28.1s107.2-9.7,137.5-28.1v65.6c0,12.7-48.5,37.5-137.5,37.5Z"/>
      </g>
    </g>
  </g>
</svg>