<?xml version="1.0" encoding="utf-8"?>
<!-- Generator: Adobe Illustrator 27.9.4, SVG Export Plug-In . SVG Version: 9.03 Build 54784)  -->
<svg version="1.1" id="Layer_1" xmlns="http://www.w3.org/2000/svg" xmlns:xlink="http://www.w3.org/1999/xlink" x="0px" y="0px"
	 viewBox="0 0 150 150" style="enable-background:new 0 0 150 150;" xml:space="preserve">
<g>
	<path d="M64.158,136.513H4.749V47.126h129.002V62.24c0,1.315,1.067,2.38,2.374,2.38c1.308,0,2.374-1.064,2.374-2.38V15.588
		c0-1.315-1.067-2.38-2.374-2.38h-32.397V2.38c0-1.315-1.067-2.38-2.374-2.38c-1.308,0-2.374,1.064-2.374,2.38v10.829H38.94V2.38
		c0-1.315-1.062-2.38-2.374-2.38c-1.312,0-2.374,1.064-2.374,2.38v10.829H2.374C1.062,13.208,0,14.273,0,15.588v123.304
		c0,1.311,1.062,2.38,2.374,2.38h61.784c1.312,0,2.374-1.069,2.374-2.38S65.47,136.513,64.158,136.513z M34.191,17.967v11.182
		c0,1.315,1.062,2.38,2.374,2.38c1.312,0,2.374-1.064,2.374-2.38V17.967h60.04v11.182c0,1.315,1.067,2.38,2.374,2.38
		c1.308,0,2.374-1.064,2.374-2.38V17.967h30.022v24.4H4.749v-24.4H34.191z"/>
	<path d="M111.362,72.553c-21.304,0-38.634,17.373-38.634,38.723S90.058,150,111.362,150S150,132.627,150,111.277
		S132.666,72.553,111.362,72.553z M111.362,145.241c-18.689,0-33.885-15.235-33.885-33.964s15.197-33.964,33.885-33.964
		s33.89,15.235,33.89,33.964S130.05,145.241,111.362,145.241z"/>
	<path d="M125.876,100.308l-19.653,16.973l-9.349-8.31c-0.992-0.874-2.486-0.771-3.357,0.204c-0.863,0.985-0.779,2.491,0.204,3.365
		l10.907,9.686c0.454,0.4,1.011,0.595,1.577,0.595c0.556,0,1.104-0.195,1.549-0.576l21.221-18.33
		c0.992-0.855,1.104-2.361,0.25-3.356C128.362,99.565,126.869,99.453,125.876,100.308z"/>
</g>
</svg>
