<?xml version="1.0" encoding="UTF-8"?>
<svg xmlns="http://www.w3.org/2000/svg" version="1.1" viewBox="0 0 455.9 439.6">
  <defs>
    <style>
      .cls-1 {
        fill: #040000;
      }
    </style>
  </defs>
  <!-- Generator: Adobe Illustrator 28.7.1, SVG Export Plug-In . SVG Version: 1.2.0 Build 142)  -->
  <g>
    <g id="Layer_1">
      <path class="cls-1" d="M155.6,283.9c4.9,4.9,4.9,12.8,0,17.7l-112.9,112.9h48c6.9,0,12.5,5.6,12.5,12.5s-5.6,12.5-12.5,12.5H12.5c-3.2,0-6.4-1.2-8.8-3.7h0c-2.3-2.3-3.7-5.4-3.7-8.8v-73.5c0-6.9,5.6-12.5,12.5-12.5s12.5,5.6,12.5,12.5v43.4l112.9-112.9c4.9-4.9,12.8-4.9,17.7,0ZM443.4,341c-6.9,0-12.5,5.6-12.5,12.5v43.4l-113-112.9c-4.9-4.9-12.8-4.9-17.7,0s-4.9,12.8,0,17.7l113,112.9h-47.8c-6.9,0-12.5,5.6-12.5,12.5s5.6,12.5,12.5,12.5h77.9c3.2,0,6.4-1.2,8.8-3.7s3.7-5.6,3.7-8.8v-73.5c0-6.9-5.6-12.5-12.5-12.5ZM42.7,25h48c6.9,0,12.5-5.6,12.5-12.5S97.6,0,90.6,0H12.5C5.6,0,0,5.6,0,12.5v78c0,6.9,5.6,12.5,12.5,12.5s12.5-5.6,12.5-12.5v-47.8l112.9,112.9c2.4,2.4,5.6,3.7,8.8,3.7s6.4-1.2,8.8-3.7c4.9-4.9,4.9-12.8,0-17.7L42.7,25ZM452.2,3.7s0,0,0,0c-2.3-2.3-5.4-3.7-8.8-3.7h-77.9c-6.9,0-12.5,5.6-12.5,12.5s5.6,12.5,12.5,12.5h47.8l-113,112.9c-4.9,4.9-4.9,12.8,0,17.7,2.4,2.4,5.6,3.7,8.8,3.7s6.4-1.2,8.8-3.7l113-112.9v47.8c0,6.9,5.6,12.5,12.5,12.5s12.5-5.6,12.5-12.5V12.5c0-3.2-1.2-6.4-3.7-8.9Z"/>
    </g>
  </g>
</svg>