<?xml version="1.0" encoding="UTF-8"?>
<svg xmlns="http://www.w3.org/2000/svg" version="1.1" viewBox="0 0 641.8 487.1">
  <!-- Generator: Adobe Illustrator 28.7.1, SVG Export Plug-In . SVG Version: 1.2.0 Build 142)  -->
  <g>
    <g id="Layer_1">
      <path d="M641.8,458.5c0,6.9-5.6,12.5-12.5,12.5H149.3c-6.9,0-12.5-5.6-12.5-12.5s5.6-12.5,12.5-12.5h480c6.9,0,12.5,5.6,12.5,12.5ZM149.3,41h480c6.9,0,12.5-5.6,12.5-12.5s-5.6-12.5-12.5-12.5H149.3c-6.9,0-12.5,5.6-12.5,12.5s5.6,12.5,12.5,12.5ZM629.3,231H149.3c-6.9,0-12.5,5.6-12.5,12.5s5.6,12.5,12.5,12.5h480c6.9,0,12.5-5.6,12.5-12.5s-5.6-12.5-12.5-12.5ZM28.5,0C12.8,0,0,12.8,0,28.5s12.8,28.5,28.5,28.5,28.5-12.8,28.5-28.5S44.3,0,28.5,0ZM28.5,215c-15.8,0-28.5,12.8-28.5,28.5s12.8,28.5,28.5,28.5,28.5-12.8,28.5-28.5-12.8-28.5-28.5-28.5ZM28.5,430c-15.8,0-28.5,12.8-28.5,28.5s12.8,28.5,28.5,28.5,28.5-12.8,28.5-28.5-12.8-28.5-28.5-28.5Z"/>
    </g>
  </g>
</svg>