<?xml version="1.0" encoding="UTF-8"?>
<svg xmlns="http://www.w3.org/2000/svg" version="1.1" viewBox="0 0 701.6 812.5">
  <!-- Generator: Adobe Illustrator 28.7.1, SVG Export Plug-In . SVG Version: 1.2.0 Build 142)  -->
  <g>
    <g id="Layer_1">
      <path d="M68.6,12.5c0-6.9,5.6-12.5,12.5-12.5h536.3c6.9,0,12.5,5.6,12.5,12.5s-5.6,12.5-12.5,12.5H81.1c-6.9,0-12.5-5.6-12.5-12.5ZM478.4,341.3c0-.8.3-1.4.3-2.2-.2-2.8-1.1-5.4-3.1-7.5l-82.2-86.9c-4.8-5-12.6-5.2-17.7-.5-5,4.7-5.2,12.6-.5,17.7l62.2,65.8h-205.3c-6.9,0-12.5,5.6-12.5,12.5s5.6,12.5,12.5,12.5h205.3l-62.2,65.8c-4.7,5-4.5,12.9.5,17.7,2.4,2.3,5.5,3.4,8.6,3.4s6.6-1.3,9.1-3.9l82.2-86.9c.4-.4.2-1,.6-1.5.6-.8,1.4-1.3,1.8-2.2.5-1.2.3-2.5.4-3.8ZM701.6,588.8v211.2c0,6.9-5.6,12.5-12.5,12.5H12.5c-6.9,0-12.5-5.6-12.5-12.5v-211.2c0-6.9,5.6-12.5,12.5-12.5h35.8V66.4c0-6.9,5.6-12.5,12.5-12.5h580c6.9,0,12.5,5.6,12.5,12.5v509.9h35.8c6.9,0,12.5,5.6,12.5,12.5ZM73.3,576.3h555V78.9H73.3v497.4ZM676.6,601.3H25v186.2h651.6v-186.2Z"/>
    </g>
  </g>
</svg>