<?xml version="1.0" encoding="UTF-8"?>
<svg xmlns="http://www.w3.org/2000/svg" version="1.1" viewBox="0 0 13.1 16.25">
  <!-- Generator: Adobe Illustrator 28.7.1, SVG Export Plug-In . SVG Version: 1.2.0 Build 142)  -->
  <g>
    <g id="Layer_1">
      <g>
        <path d="M9.365,12.023c.846,0,1.533-.688,1.533-1.533s-.688-1.533-1.533-1.533-1.534.688-1.534,1.533.688,1.533,1.534,1.533ZM9.365,9.457c.569,0,1.033.464,1.033,1.033s-.464,1.033-1.033,1.033-1.034-.464-1.034-1.033.464-1.033,1.034-1.033Z"/>
        <path d="M13.092,4.231c-.005-.059-.022-.115-.065-.158L9.026.073c-.044-.043-.1-.061-.158-.066-.007,0-.012-.008-.018-.008H.25c-.138,0-.25.112-.25.25v15.75c0,.138.112.25.25.25h4.154c.138,0,.25-.112.25-.25s-.112-.25-.25-.25H.5V.5h8.1v3.75c0,.138.112.25.25.25h3.75v3.675c0,.138.112.25.25.25s.25-.112.25-.25v-3.925c0-.007-.007-.012-.008-.019ZM9.1,4V.854l3.146,3.146h-3.146Z"/>
        <path d="M11.605,12.529c.492-.541.8-1.252.8-2.039,0-1.677-1.363-3.041-3.04-3.041s-3.041,1.364-3.041,3.041c0,.787.309,1.499.801,2.04l-1.526,3.366c-.035.078-.029.168.018.239.046.071.125.114.21.114h2.667c.089,0,.172-.048.216-.124l.643-1.106.563,1.094c.043.083.129.136.223.136h2.712c.084,0,.163-.043.209-.113.047-.07.054-.159.021-.237l-1.474-3.37ZM9.365,7.95c1.4,0,2.54,1.14,2.54,2.541s-1.14,2.541-2.54,2.541-2.541-1.14-2.541-2.541,1.14-2.541,2.541-2.541ZM8.35,15.75h-2.135l1.299-2.865c.296.23.633.402,1.002.51l.565,1.097-.73,1.258ZM10.29,15.75l-1.154-2.242c.077.006.151.023.229.023.699,0,1.335-.247,1.849-.644l1.253,2.863h-2.178Z"/>
      </g>
    </g>
  </g>
</svg>