<?xml version="1.0" encoding="UTF-8"?>
<svg xmlns="http://www.w3.org/2000/svg" version="1.1" viewBox="0 0 674.8 812.5">
  <!-- Generator: Adobe Illustrator 28.7.1, SVG Export Plug-In . SVG Version: 1.2.0 Build 142)  -->
  <g>
    <g id="Layer_1">
      <path d="M357.9,800c0,6.9-5.6,12.5-12.5,12.5H12.5c-6.9,0-12.5-5.6-12.5-12.5V12.5C0,5.6,5.6,0,12.5,0h630c6.9,0,12.5,5.6,12.5,12.5v487.5c0,6.9-5.6,12.5-12.5,12.5s-12.5-5.6-12.5-12.5V25H25v762.5h320.4c6.9,0,12.5,5.6,12.5,12.5ZM671.8,655.5c-3.6,4.2-89.5,102.5-198.2,102.5s-194.7-98.3-198.3-102.5c-4-4.7-4-11.6,0-16.3,3.6-4.2,89.5-102.5,198.3-102.5s194.6,98.3,198.2,102.5c4,4.7,4,11.6,0,16.3ZM554.8,647.3c0-44.8-36.4-81.2-81.2-81.2s-81.2,36.4-81.2,81.2,36.4,81.2,81.2,81.2,81.2-36.4,81.2-81.2ZM301.9,647.3c14,14.2,46.1,43.9,87.6,64.3-13.7-17.9-22.2-40-22.2-64.3s8.5-46.4,22.3-64.3c-41.5,20.4-73.7,50.1-87.7,64.3ZM645.2,647.3c-14-14.2-46.2-43.9-87.7-64.3,13.8,17.9,22.3,40,22.3,64.3s-8.5,46.5-22.3,64.4c41.6-20.4,73.7-50.2,87.8-64.4ZM473.5,621.5c-14.3,0-25.9,11.6-25.9,25.9s11.6,25.9,25.9,25.9,25.9-11.6,25.9-25.9-11.6-25.9-25.9-25.9Z"/>
    </g>
  </g>
</svg>