<?xml version="1.0" encoding="UTF-8"?>
<svg xmlns="http://www.w3.org/2000/svg" version="1.1" viewBox="0 0 520 500">
  <defs>
    <style>
      .cls-1 {
        fill: #040000;
      }
    </style>
  </defs>
  <!-- Generator: Adobe Illustrator 28.7.1, SVG Export Plug-In . SVG Version: 1.2.0 Build 142)  -->
  <g>
    <g id="Layer_1">
      <g>
        <path class="cls-1" d="M180.8,150c-3.9-3.6-8.6-6.5-14.4-8.5-5.8-2-12.4-3.1-20-3.1h-48.5v143.2h13.9v-56.6h34.6c7.3,0,13.8-1,19.5-3.2,5.7-2.1,10.5-5.1,14.4-8.8,3.9-3.8,6.9-8.2,8.9-13.2,2-5,3.1-10.5,3.1-16.3v-4.2c0-5.8-1-11.3-2.9-16.3-1.9-5-4.8-9.4-8.6-13ZM178.2,183.1c0,9-2.8,16.2-8.3,21.5-5.6,5.3-14.5,8-26.8,8h-31.2v-61.6h33.4c11.3,0,19.6,2.6,24.9,7.9,5.4,5.3,8,12.2,8,20.7v3.6Z"/>
        <path class="cls-1" d="M259.2,138.4h-44.7v143.2h44.7c18.1,0,32.3-5.3,42.6-15.8,10.3-10.5,15.4-25.7,15.4-45.6v-20.5c0-19.9-5.1-35.1-15.4-45.6-10.3-10.5-24.5-15.8-42.6-15.8ZM303.3,219.2c0,8.6-1.1,16-3.3,22.2-2.2,6.2-5.2,11.4-9,15.6-3.8,4.2-8.5,7.3-13.9,9.2-5.4,2-11.3,3-17.7,3h-31v-118.6h31c6.4,0,12.2,1,17.7,3,5.4,2,10.1,5.1,13.9,9.2,3.8,4.2,6.9,9.4,9,15.7,2.2,6.3,3.3,13.7,3.3,22.1v18.5Z"/>
        <path class="cls-1" d="M423.1,217.2c-3.6-3.2-8.4-6-14.5-8.4-6.1-2.5-13.8-4.7-23-6.9-6.5-1.5-11.9-3-16.3-4.8-4.4-1.7-7.8-3.6-10.4-5.6-2.6-2-4.4-4.2-5.6-6.8-1.1-2.5-1.7-5.3-1.7-8.3v-4c0-3.7.9-7,2.7-9.9,1.8-2.9,4.2-5.4,7.2-7.5s6.5-3.6,10.4-4.7c4-1,8.1-1.6,12.5-1.6,7.4,0,14.1,1,20.1,2.9,6,1.9,11.3,4.5,15.9,7.9l6.5-11.3c-4.9-3.4-10.8-6.3-17.7-8.6-6.9-2.3-15.2-3.5-24.8-3.5s-13,.9-18.8,2.7-10.7,4.3-14.9,7.5c-4.2,3.2-7.4,7-9.7,11.4-2.3,4.4-3.5,9.4-3.5,14.8v4.6c0,4.5.7,8.6,2.1,12.4,1.4,3.8,3.8,7.2,7.2,10.3,3.4,3.1,7.9,5.9,13.5,8.4,5.6,2.5,12.6,4.6,21,6.5,7.7,1.7,13.9,3.5,18.8,5.3,4.8,1.8,8.6,3.8,11.4,6,2.8,2.2,4.7,4.6,5.8,7.3,1.1,2.6,1.6,5.6,1.6,8.9v4.2c0,3.2-.8,6.3-2.4,9.2s-4,5.6-7,7.9c-3.1,2.3-6.9,4.2-11.3,5.5-4.4,1.3-9.4,2-15,2s-13.1-1.2-20-3.5c-6.8-2.3-13.8-6-21-11.2l-7.2,11.7c6.4,4.9,13.7,8.8,22,11.6,8.3,2.8,17.2,4.3,26.7,4.3s14.6-1,20.8-3c6.2-2,11.3-4.7,15.5-8.2s7.4-7.4,9.6-11.9c2.2-4.5,3.4-9.3,3.4-14.5v-4.6c0-5.2-.7-9.7-2.2-13.7-1.5-4-4-7.6-7.6-10.7Z"/>
        <path class="cls-1" d="M470,0H50C22.4,0,0,22.4,0,50v320c0,27.6,22.4,50,50,50h167.2l-15,60h-52.2c-5.5,0-10,4.5-10,10s4.5,10,10,10h220c5.5,0,10-4.5,10-10s-4.5-10-10-10h-52.2l-15-60h167.2c27.6,0,50-22.4,50-50V50c0-27.6-22.4-50-50-50ZM297.2,480h-74.4l15-60h44.4l15,60ZM500,370c0,16.5-13.5,30-30,30H50c-16.5,0-30-13.5-30-30V50c0-16.5,13.5-30,30-30h420c16.5,0,30,13.5,30,30v320Z"/>
      </g>
    </g>
  </g>
</svg>