<?xml version="1.0" encoding="UTF-8"?>
<svg xmlns="http://www.w3.org/2000/svg" version="1.1" viewBox="0 0 655 812.5">
  <defs>
    <style>
      .cls-1 {
        fill: #040000;
      }
    </style>
  </defs>
  <!-- Generator: Adobe Illustrator 28.7.1, SVG Export Plug-In . SVG Version: 1.2.0 Build 142)  -->
  <g>
    <g id="Layer_1">
      <g>
        <path class="cls-1" d="M654.6,211.6c-.2-2.9-1.1-5.8-3.3-7.9L451.3,3.7c-2.2-2.2-5-3.1-7.9-3.3-.3,0-.6-.4-.9-.4H12.5C5.6,0,0,5.6,0,12.5v787.5c0,6.9,5.6,12.5,12.5,12.5h630c6.9,0,12.5-5.6,12.5-12.5V212.5c0-.4-.4-.6-.4-.9ZM612.3,200h-157.3V42.7l157.3,157.3ZM25,787.5V25h405v187.5c0,6.9,5.6,12.5,12.5,12.5h187.5v562.5H25Z"/>
        <path class="cls-1" d="M423.2,366l-129,111.2-62.3-55.3c-5.2-4.6-13.1-4.1-17.6,1-4.6,5.2-4.1,13.1,1,17.7l70.5,62.5c2.4,2.1,5.3,3.2,8.3,3.2s5.8-1,8.1-3l137.2-118.3c5.2-4.5,5.8-12.4,1.3-17.6-4.5-5.2-12.4-5.8-17.6-1.3Z"/>
      </g>
    </g>
  </g>
</svg>