<?xml version="1.0" encoding="UTF-8"?>
<svg xmlns="http://www.w3.org/2000/svg" version="1.1" viewBox="0 0 772.6 879.7">
  <defs>
    <style>
      .cls-1 {
        fill: #040000;
      }
    </style>
  </defs>
  <!-- Generator: Adobe Illustrator 28.7.1, SVG Export Plug-In . SVG Version: 1.2.0 Build 142)  -->
  <g>
    <g id="Layer_1">
      <path class="cls-1" d="M630,25H25v775c0,6.9-5.6,12.5-12.5,12.5s-12.5-5.6-12.5-12.5V12.5C0,5.6,5.6,0,12.5,0h630c6.9,0,12.5,5.6,12.5,12.5v410.6c0,6.9-5.6,12.5-12.5,12.5s-12.5-5.6-12.5-12.5V25h0ZM170,254.6c-6.9,0-12.5,5.6-12.5,12.5s5.6,12.5,12.5,12.5h326.7c6.9,0,12.5-5.6,12.5-12.5s-5.6-12.5-12.5-12.5H170ZM509.2,372.1c0-6.9-5.6-12.5-12.5-12.5H170c-6.9,0-12.5,5.6-12.5,12.5s5.6,12.5,12.5,12.5h326.7c6.9,0,12.5-5.6,12.5-12.5ZM115.4,777.5c-6.9,0-12.5,5.6-12.5,12.5v10c0,6.9,5.6,12.5,12.5,12.5s12.5-5.6,12.5-12.5v-10c0-6.9-5.6-12.5-12.5-12.5ZM218.3,777.5c-6.9,0-12.5,5.6-12.5,12.5v10c0,6.9,5.6,12.5,12.5,12.5s12.5-5.6,12.5-12.5v-10c0-6.9-5.6-12.5-12.5-12.5ZM321.2,777.5c-6.9,0-12.5,5.6-12.5,12.5v10c0,6.9,5.6,12.5,12.5,12.5s12.5-5.6,12.5-12.5v-10c0-6.9-5.6-12.5-12.5-12.5ZM713.1,820.2c-38.3,38.4-89.4,59.5-143.8,59.5s-105.5-21.1-143.9-59.5c-79.3-79.3-79.3-208.3,0-287.7,38.4-38.4,89.5-59.5,143.8-59.5s105.5,21.1,143.8,59.5c79.3,79.3,79.3,208.4,0,287.7ZM747.6,676.4c0-47.7-18.5-92.5-52.2-126.1s-78.4-52.2-126.1-52.2-92.5,18.5-126.2,52.2c-69.5,69.6-69.5,182.7,0,252.3,33.6,33.6,78.5,52.2,126.2,52.2s92.5-18.5,126.1-52.2,52.2-78.5,52.2-126.2ZM645.1,607.2c-4.9-4.9-12.8-4.9-17.7,0l-52.9,52.9-52.9-52.9c-4.9-4.9-12.8-4.9-17.7,0s-4.9,12.8,0,17.7l52.9,52.9-52.9,52.9c-4.9,4.9-4.9,12.8,0,17.7,2.4,2.4,5.6,3.7,8.8,3.7s6.4-1.2,8.8-3.7l52.9-52.9,52.9,52.9c2.4,2.4,5.6,3.7,8.8,3.7s6.4-1.2,8.8-3.7c4.9-4.9,4.9-12.8,0-17.7l-52.9-52.9,52.9-52.9c4.9-4.9,4.9-12.8,0-17.7Z"/>
    </g>
  </g>
</svg>