<?xml version="1.0" encoding="UTF-8"?>
<svg xmlns="http://www.w3.org/2000/svg" version="1.1" viewBox="0 0 763.9 687.8">
  <!-- Generator: Adobe Illustrator 28.7.1, SVG Export Plug-In . SVG Version: 1.2.0 Build 142)  -->
  <g>
    <g id="Layer_1">
      <path d="M759.1,291.3L389.6,2.7c-4.5-3.6-10.9-3.6-15.4,0L4.8,291.3c-5.4,4.2-6.4,12.1-2.2,17.5,2.5,3.1,6.1,4.8,9.8,4.8s5.4-.9,7.7-2.7l58.1-45.4v409.7c0,6.9,5.6,12.5,12.5,12.5h173.6c6.9,0,12.5-5.6,12.5-12.5v-228h210.1v228c0,6.9,5.6,12.5,12.5,12.5h173.6c6.9,0,12.5-5.6,12.5-12.5v-409.7l58.1,45.4c5.5,4.2,13.3,3.2,17.6-2.1,4.2-5.4,3.3-13.3-2.2-17.5ZM660.6,662.8h-148.6v-228c0-6.9-5.6-12.5-12.5-12.5h-235.1c-6.9,0-12.5,5.6-12.5,12.5v228H103.3V246.1L381.9,28.4l278.7,217.7v416.7h0Z"/>
    </g>
  </g>
</svg>