<?xml version="1.0" encoding="UTF-8"?>
<svg xmlns="http://www.w3.org/2000/svg" version="1.1" viewBox="0 0 833 815.5">
  <defs>
    <style>
      .cls-1 {
        fill: #040000;
      }
    </style>
  </defs>
  <!-- Generator: Adobe Illustrator 28.7.1, SVG Export Plug-In . SVG Version: 1.2.0 Build 142)  -->
  <g>
    <g id="Layer_1">
      <path class="cls-1" d="M672.1,579.4c-37,0-67,30.1-67,67.1s30.1,67,67,67,67-30.1,67-67-30.1-67.1-67-67.1ZM672.1,688.5c-23.2,0-42-18.8-42-42s18.8-42.1,42-42.1,42,18.9,42,42.1-18.8,42-42,42ZM805.3,666.5c1-6.7,1.5-13.4,1.5-20s-.5-13.4-1.5-20.1l24.6-27.7c3.6-4,4.2-9.9,1.5-14.5l-25.7-44.5c-2.7-4.6-8.1-7-13.3-6l-36.4,7.4c-10.5-8.4-22.1-15.1-34.6-20l-11.7-35.2c-1.7-5.1-6.5-8.5-11.9-8.5h-51.4c-5.4,0-10.2,3.5-11.9,8.5l-11.7,35.2c-12.5,4.9-24.1,11.6-34.6,20l-36.4-7.4c-5.2-1-10.6,1.4-13.3,6l-25.7,44.5c-2.7,4.6-2.1,10.5,1.5,14.5l24.6,27.7c-1,6.8-1.6,13.5-1.6,20.1s.5,13.2,1.6,20l-24.6,27.7c-3.6,4-4.2,9.9-1.5,14.5l25.7,44.5c2.7,4.6,8.1,6.9,13.3,6l36.4-7.4c10.5,8.4,22.1,15.1,34.6,20l11.7,35.2c1.7,5.1,6.5,8.5,11.9,8.5h51.4c5.4,0,10.2-3.5,11.9-8.5l11.7-35.2c12.5-4.9,24.1-11.6,34.6-20l36.4,7.4c5.2.9,10.6-1.4,13.3-6l25.7-44.5c2.7-4.6,2.1-10.5-1.5-14.5l-24.6-27.7ZM781.8,646.5c0,7.1-.7,14.3-2.1,21.4-.8,3.8.3,7.8,2.9,10.7l22.6,25.4-16.7,28.9-33.5-6.8c-3.9-.7-7.8.2-10.7,2.9-10.8,9.5-23.2,16.7-36.9,21.4-3.7,1.2-6.6,4.2-7.8,7.9l-10.8,32.3h-33.3l-10.8-32.3c-1.2-3.7-4.2-6.6-7.8-7.9-13.7-4.6-26.1-11.9-37-21.4-2.9-2.6-6.9-3.6-10.7-2.9l-33.5,6.8-16.7-28.9,22.6-25.4c2.6-2.9,3.7-6.9,2.9-10.7-1.4-7.3-2.2-14.5-2.2-21.4s.7-14.2,2.2-21.5c.8-3.8-.3-7.8-2.9-10.7l-22.6-25.4,16.7-28.9,33.5,6.8c3.8.7,7.8-.3,10.7-2.9,10.9-9.5,23.3-16.8,37-21.4,3.7-1.2,6.6-4.2,7.8-7.9l10.8-32.3h33.3l10.8,32.3c1.2,3.7,4.2,6.6,7.8,7.9,13.6,4.6,26,11.8,36.9,21.4,2.9,2.6,6.8,3.6,10.7,2.9l33.5-6.8,16.7,28.9-22.6,25.4c-2.6,2.9-3.7,6.9-2.9,10.7,1.4,7.1,2.1,14.3,2.1,21.5ZM436.8,582.7c6.9,0,12.5-5.6,12.5-12.5s-5.6-12.5-12.5-12.5H25V194.9h713.8v212.5c0,6.9,5.6,12.5,12.5,12.5s12.5-5.6,12.5-12.5V12.5c0-6.9-5.6-12.5-12.5-12.5H12.5C5.6,0,0,5.6,0,12.5v557.7c0,6.9,5.6,12.5,12.5,12.5h356.9v147.5h-141c-6.9,0-12.5,5.6-12.5,12.5s5.6,12.5,12.5,12.5h206.9c6.9,0,12.5-5.6,12.5-12.5s-5.6-12.5-12.5-12.5h-41v-147.5h42.4ZM738.8,25v144.9H25V25h713.8ZM71.1,99.5c0-11.9,9.6-21.5,21.4-21.5s21.4,9.6,21.4,21.5-9.6,21.4-21.4,21.4-21.4-9.6-21.4-21.4ZM149.7,99.5c0-11.9,9.6-21.5,21.4-21.5s21.5,9.6,21.5,21.5-9.6,21.4-21.4,21.4c-11.8,0-21.5-9.6-21.5-21.4ZM228.2,99.5c0-11.9,9.6-21.5,21.5-21.5s21.5,9.6,21.5,21.5-9.6,21.4-21.5,21.4c-11.8,0-21.5-9.6-21.5-21.4Z"/>
    </g>
  </g>
</svg>