<?xml version="1.0" encoding="UTF-8"?>
<svg xmlns="http://www.w3.org/2000/svg" version="1.1" viewBox="0 0 34.269 31.731">
  <!-- Generator: Adobe Illustrator 28.7.1, SVG Export Plug-In . SVG Version: 1.2.0 Build 142)  -->
  <g>
    <g id="Layer_1">
      <path d="M17.135,0C7.671,0,0,6.948,0,15.519c0,3.973,1.663,7.586,4.374,10.331l-2.759,5.88,6.769-2.886c2.563,1.384,5.549,2.194,8.75,2.194,9.463,0,17.135-6.948,17.135-15.519S26.598,0,17.135,0ZM9.842,17c-.956,0-1.731-.775-1.731-1.731s.775-1.731,1.731-1.731,1.731.775,1.731,1.731-.775,1.731-1.731,1.731ZM17.135,17c-.956,0-1.731-.775-1.731-1.731s.775-1.731,1.731-1.731,1.731.775,1.731,1.731-.775,1.731-1.731,1.731ZM24.427,17c-.956,0-1.731-.775-1.731-1.731s.775-1.731,1.731-1.731,1.731.775,1.731,1.731-.775,1.731-1.731,1.731Z"/>
    </g>
  </g>
</svg>