<?xml version="1.0" encoding="UTF-8"?>
<svg xmlns="http://www.w3.org/2000/svg" version="1.1" viewBox="0 0 740.5 812.5">
  <defs>
    <style>
      .cls-1 {
        fill: #040000;
      }
    </style>
  </defs>
  <!-- Generator: Adobe Illustrator 28.7.1, SVG Export Plug-In . SVG Version: 1.2.0 Build 142)  -->
  <g>
    <g id="Layer_1">
      <path class="cls-1" d="M183.3,787.5H25V25h405v187.5c0,6.9,5.6,12.5,12.5,12.5h187.5v183.7c0,6.9,5.6,12.5,12.5,12.5s12.5-5.6,12.5-12.5v-196.2c0-.4-.4-.6-.4-.9-.2-2.9-1.1-5.8-3.3-7.9L451.3,3.7c-2.1-2.1-5-3-7.9-3.2-.4,0-.6-.4-1-.4H12.5C5.6,0,0,5.6,0,12.5v787.5c0,6.9,5.6,12.5,12.5,12.5h170.8c6.9,0,12.5-5.6,12.5-12.5s-5.6-12.5-12.5-12.5ZM455,42.7l145.2,145.1,12.2,12.2h-157.4V42.7ZM729.2,724.4l-170.6-295.5c-13-22.5-30.7-34.8-50-34.8s-37,12.4-50,34.8l-170.6,295.5c-13,22.5-14.8,44-5.2,60.7,9.6,16.7,29.2,25.9,55.2,25.9h341.3c26,0,45.5-9.2,55.2-25.9,9.6-16.7,7.8-38.2-5.2-60.7ZM522.1,734.3c-3.8,3.4-8.3,5.1-13.4,5.1s-9.8-1.7-13.6-5c-3.9-3.4-5.8-8.1-5.8-14.2s1.8-9.8,5.6-13.5c3.7-3.7,8.2-5.6,13.6-5.6s10,1.8,13.8,5.6c3.8,3.7,5.7,8.2,5.7,13.5,0,6-1.9,10.7-5.8,14.1ZM527,592.4l-5.5,63.1c-.6,7.5-1.9,13.3-3.8,17.3s-5.2,6-9.7,6-7.8-1.9-9.6-5.8-3.1-9.8-3.8-17.7l-4.1-61.3c-.8-11.9-1.2-20.5-1.2-25.7s1.8-12.6,5.6-16.6c3.7-4,8.6-6,14.7-6s12.2,2.5,14.7,7.6c2.5,5.1,3.7,12.4,3.7,22,0,5.6-.3,11.3-.9,17.1Z"/>
    </g>
  </g>
</svg>