<?xml version="1.0" encoding="UTF-8"?>
<svg xmlns="http://www.w3.org/2000/svg" version="1.1" viewBox="0 0 750 705">
  <defs>
    <style>
      .cls-1 {
        fill: #040000;
      }
    </style>
  </defs>
  <!-- Generator: Adobe Illustrator 28.7.1, SVG Export Plug-In . SVG Version: 1.2.0 Build 142)  -->
  <g>
    <g id="Layer_1">
      <g>
        <path class="cls-1" d="M637.5,0H112.5C50.5,0,0,50.5,0,112.5v480c0,62,50.5,112.5,112.5,112.5h525c62,0,112.5-50.5,112.5-112.5V112.5c0-62-50.5-112.5-112.5-112.5ZM637.5,680H112.5c-48.2,0-87.5-39.3-87.5-87.5V112.5c0-48.2,39.3-87.5,87.5-87.5h525c48.2,0,87.5,39.3,87.5,87.5v111.5h-335.5c-70.9,0-128.5,57.6-128.5,128.5s57.6,128.5,128.5,128.5h335.5v111.5c0,48.2-39.3,87.5-87.5,87.5ZM725,456h-335.5c-57.1,0-103.5-46.4-103.5-103.5s46.4-103.5,103.5-103.5h335.5v207Z"/>
        <path class="cls-1" d="M346,352.5c0,24,19.5,43.5,43.5,43.5s43.5-19.5,43.5-43.5-19.5-43.5-43.5-43.5-43.5,19.5-43.5,43.5Z"/>
      </g>
    </g>
  </g>
</svg>