<?xml version="1.0" encoding="UTF-8"?>
<svg xmlns="http://www.w3.org/2000/svg" version="1.1" viewBox="0 0 768.4 809.1">
  <defs>
    <style>
      .cls-1 {
        fill: #040000;
      }
    </style>
  </defs>
  <!-- Generator: Adobe Illustrator 28.7.1, SVG Export Plug-In . SVG Version: 1.2.0 Build 142)  -->
  <g>
    <g id="Layer_1">
      <g>
        <path class="cls-1" d="M384.2,255.4c-82.2,0-149.1,66.9-149.1,149.1s66.9,149.1,149.1,149.1,149.1-66.9,149.1-149.1-66.9-149.1-149.1-149.1ZM384.2,528.6c-68.4,0-124.1-55.7-124.1-124.1s55.7-124.1,124.1-124.1,124.1,55.7,124.1,124.1-55.7,124.1-124.1,124.1Z"/>
        <path class="cls-1" d="M698,460.6c3.3-18.7,5-37.5,5-56s-1.7-37.4-5-56l67.3-75.9c3.6-4,4.2-9.9,1.5-14.5l-64.4-111.5c-2.7-4.7-8.1-7.1-13.3-6l-99.9,20.4c-28.8-24.3-61.3-43.1-96.6-55.9l-32.1-96.5c-1.7-5.1-6.5-8.5-11.9-8.5h-128.7c-5.4,0-10.2,3.4-11.9,8.5l-32.1,96.5c-35.2,12.8-67.7,31.5-96.6,55.9l-99.9-20.4c-5.4-1.1-10.7,1.3-13.3,6L1.7,258c-2.7,4.7-2.1,10.5,1.5,14.5l67.3,75.9c-3.3,18.6-5,37.5-5,56s1.7,37.4,5,56L3.1,536.5c-3.6,4-4.2,9.9-1.5,14.5l64.4,111.5c2.7,4.6,7.9,6.9,13.3,6l99.9-20.5c28.9,24.4,61.3,43.1,96.6,55.9l32.1,96.5c1.7,5.1,6.5,8.5,11.9,8.5h128.7c5.4,0,10.2-3.5,11.9-8.5l32.1-96.5c35.3-12.8,67.8-31.5,96.6-55.9l99.9,20.5c5.2.9,10.6-1.4,13.3-6l64.4-111.5c2.7-4.6,2.1-10.5-1.5-14.5l-67.4-75.9ZM685.3,642.2l-97.1-19.9c-3.9-.7-7.9.3-10.7,2.9-29,25.5-62.3,44.8-98.7,57.2-3.7,1.2-6.6,4.2-7.9,7.9l-31.2,93.8h-110.7l-31.2-93.8c-1.2-3.7-4.1-6.6-7.8-7.9-36.4-12.4-69.6-31.6-98.8-57.2-3-2.6-7-3.6-10.8-2.9l-97.1,19.9-55.3-95.8,65.4-73.8c2.6-2.9,3.7-6.9,2.9-10.7-3.8-19-5.7-38.3-5.7-57.3s1.9-38.3,5.7-57.3c.8-3.8-.3-7.8-2.9-10.7l-65.4-73.8,55.4-95.9,97.1,19.9c3.9.8,7.8-.3,10.7-2.9,29.2-25.6,62.4-44.8,98.8-57.1,3.7-1.3,6.6-4.2,7.8-7.9l31.2-93.8h110.7l31.2,93.8c1.2,3.7,4.2,6.6,7.8,7.9,36.5,12.4,69.7,31.6,98.8,57.1,2.9,2.6,6.9,3.7,10.7,2.9l97.1-19.9,55.3,95.9-65.4,73.8c-2.6,2.9-3.7,6.9-2.9,10.7,3.8,19.1,5.7,38.4,5.7,57.4s-1.9,38.2-5.7,57.4c-.8,3.8.3,7.8,2.9,10.7l65.4,73.8-55.3,95.8Z"/>
      </g>
    </g>
  </g>
</svg>