<?xml version="1.0" encoding="UTF-8"?>
<svg xmlns="http://www.w3.org/2000/svg" version="1.1" viewBox="0 0 135.3 706.7">
  <defs>
    <style>
      .cls-1 {
        fill: #040000;
      }
    </style>
  </defs>
  <!-- Generator: Adobe Illustrator 28.7.1, SVG Export Plug-In . SVG Version: 1.2.0 Build 142)  -->
  <g>
    <g id="Layer_1">
      <path class="cls-1" d="M67.6,135.3c37.3,0,67.7-30.4,67.7-67.6S105,0,67.7,0,0,30.4,0,67.7s30.3,67.6,67.6,67.6ZM67.6,25c23.5,0,42.7,19.1,42.7,42.7s-19.1,42.6-42.7,42.6-42.6-19.1-42.6-42.6c0-23.5,19.1-42.7,42.6-42.7ZM67.6,285.7c-37.3,0-67.6,30.4-67.6,67.7s30.4,67.7,67.6,67.7,67.7-30.4,67.7-67.7-30.4-67.7-67.7-67.7ZM67.6,396.1c-23.5,0-42.6-19.1-42.6-42.7s19.1-42.7,42.6-42.7,42.7,19.1,42.7,42.7-19.2,42.7-42.7,42.7ZM67.6,571.4c-37.3,0-67.6,30.4-67.6,67.7s30.4,67.7,67.6,67.7,67.7-30.4,67.7-67.7-30.4-67.7-67.7-67.7ZM67.6,681.7c-23.5,0-42.6-19.1-42.6-42.7s19.1-42.7,42.6-42.7,42.7,19.1,42.7,42.7-19.2,42.7-42.7,42.7Z"/>
    </g>
  </g>
</svg>