<?xml version="1.0" encoding="UTF-8"?>
<svg xmlns="http://www.w3.org/2000/svg" version="1.1" viewBox="0 0 689.5 729.1">
  <defs>
    <style>
      .cls-1 {
        fill: #040000;
      }
    </style>
  </defs>
  <!-- Generator: Adobe Illustrator 28.7.1, SVG Export Plug-In . SVG Version: 1.2.0 Build 142)  -->
  <g>
    <g id="Layer_1">
      <path class="cls-1" d="M677,554.1c6.9,0,12.5-5.6,12.5-12.5V12.5c0-6.9-5.6-12.5-12.5-12.5H12.5C5.6,0,0,5.6,0,12.5v529.1c0,6.9,5.6,12.5,12.5,12.5h327v150H12.5c-6.9,0-12.5,5.6-12.5,12.5s5.6,12.5,12.5,12.5h664.5c6.9,0,12.5-5.6,12.5-12.5s-5.6-12.5-12.5-12.5h-312.5v-150h312.5ZM25,529.1V25h639.5v504.1h-300V251.8l84.7,84.7c4.9,4.9,12.8,4.9,17.7,0s4.9-12.8,0-17.7l-106.1-106.1c-2.3-2.3-5.4-3.7-8.8-3.7s-6.6,1.4-8.8,3.7l-106.1,106c-4.9,4.9-4.9,12.8,0,17.7,2.4,2.4,5.6,3.7,8.8,3.7s6.4-1.2,8.8-3.7l84.7-84.7v277.3H25Z"/>
    </g>
  </g>
</svg>