<?xml version="1.0" encoding="utf-8"?>
<!-- Generator: Adobe Illustrator 28.3.0, SVG Export Plug-In . SVG Version: 6.00 Build 0)  -->
<svg version="1.1" id="Layer_1" xmlns="http://www.w3.org/2000/svg" xmlns:xlink="http://www.w3.org/1999/xlink" x="0px" y="0px"
	 viewBox="0 0 19.348 18.951" style="enable-background:new 0 0 19.348 18.951;" xml:space="preserve">
<path d="M19.275,2.466l-2.393-2.393C16.835,0.026,16.772,0,16.706,0s-0.13,0.026-0.177,0.073l-2.75,2.75H1.552
	C0.696,2.823,0,3.52,0,4.375v10.418c0,0.856,0.696,1.553,1.552,1.553h5.54l-0.526,2.104H4.808c-0.138,0-0.25,0.112-0.25,0.25
	s0.112,0.25,0.25,0.25h7.162c0.138,0,0.25-0.112,0.25-0.25s-0.112-0.25-0.25-0.25h-1.758l-0.526-2.104h5.54
	c0.855,0,1.552-0.696,1.552-1.553V5.317l2.497-2.497C19.373,2.722,19.373,2.564,19.275,2.466z M11.263,5.427l-0.156,2.416
	l-3.682,3.174L5.551,9.353C5.447,9.261,5.289,9.27,5.198,9.374C5.106,9.477,5.116,9.635,5.219,9.727l2.039,1.809
	c0.047,0.041,0.107,0.062,0.166,0.062c0.058,0,0.116-0.021,0.163-0.061l3.913-3.373l2.414-0.079
	c0.063-0.002,0.124-0.028,0.169-0.073l0.364-0.364v6.037c0,0.21-0.171,0.381-0.381,0.381H2.712c-0.21,0-0.381-0.171-0.381-0.381
	V5.484c0-0.21,0.171-0.38,0.381-0.38h8.786l-0.162,0.162C11.292,5.309,11.267,5.366,11.263,5.427z M9.696,18.451H7.082l0.526-2.104
	H9.17L9.696,18.451z M16.278,14.793c0,0.58-0.472,1.053-1.052,1.053H1.552c-0.58,0-1.052-0.473-1.052-1.053V4.375
	c0-0.58,0.472-1.052,1.052-1.052h11.726l-1.281,1.281H2.712c-0.486,0-0.881,0.395-0.881,0.88v8.201c0,0.485,0.395,0.881,0.881,0.881
	h11.354c0.485,0,0.881-0.396,0.881-0.881V7.148l1.331-1.331V14.793z M16.353,5.035c0,0-0.001,0-0.002,0.001l-2.553,2.553
	l-2.178,0.072l0.135-2.107l0.522-0.522c0.001-0.001,0.001-0.001,0.002-0.002l1.78-1.779c0,0,0,0,0-0.001l2.646-2.646l2.039,2.04
	L16.353,5.035z"/>
</svg>
