<?xml version="1.0" encoding="UTF-8"?>
<svg xmlns="http://www.w3.org/2000/svg" version="1.1" viewBox="0 0 633 432">
  <!-- Generator: Adobe Illustrator 28.7.1, SVG Export Plug-In . SVG Version: 1.2.0 Build 142)  -->
  <g>
    <g id="Layer_1">
      <path d="M630,279.6c-17.5-35.7-47.2-64.2-83-80.5,26-21.1,41.5-52.9,41.5-87.1s-15.1-65.6-41.4-87c-26.3-21.4-60.8-29.6-94.6-22.6-28.4,5.9-53.8,23.7-69.9,48.3-11.3-6.2-23.5-10.8-36.4-13.5-33.1-6.9-66.7-1.8-95.4,13.8-16.1-24.7-41.6-42.6-70.1-48.6-33.9-7.1-68.4,1.2-94.7,22.6-26.3,21.4-41.4,53.1-41.4,87s15.5,66,41.5,87.1c-35.8,16.3-65.5,44.8-83,80.5-4.4,9-3.9,19.5,1.3,27.9,5.1,8.3,14,13.2,23.8,13.2h145.5c-19.5,17.8-35.9,39.2-47.8,63.3-5.2,10.5-4.6,22.7,1.5,32.6,6,9.6,16.3,15.4,27.7,15.4h322.7c11.4,0,21.7-5.7,27.7-15.4,6.2-9.9,6.7-22.1,1.5-32.6-11.8-24.1-28.2-45.4-47.8-63.3h145.6c9.7,0,18.6-4.9,23.8-13.2,5.3-8.5,5.8-18.9,1.3-27.9ZM28.1,300.7c-3.9,0-5.9-2.3-6.8-3.8-1.6-2.6-1.7-5.7-.3-8.5,18.1-36.8,50.7-65,89.6-77.4,3.8-1.2,6.5-4.6,6.9-8.6.4-4-1.6-7.8-5.1-9.7-29.5-16.2-47.8-47.1-47.8-80.7s12.4-53.9,34-71.5c21.6-17.6,50.1-24.4,78-18.5,23.2,4.8,43.8,19.8,57,40-1.4,1-2.9,2-4.2,3.1-32.5,26.4-51.1,65.5-51.1,107.3s20.5,84,54.5,110c-11.8,5.1-23.1,11.3-33.7,18.4H28.1ZM489,392.8c2.1,4.3,1.9,9.2-.6,13.2-2.3,3.8-6.2,5.9-10.7,5.9H155.1c-4.5,0-8.4-2.2-10.7-5.9-2.5-4-2.7-8.9-.6-13.2,23-46.8,64.6-82.7,114-98.5,3.8-1.2,6.5-4.6,6.9-8.6.4-4-1.6-7.8-5.1-9.7-37.9-20.8-61.4-60.5-61.4-103.6s15.9-69.2,43.7-91.8c21.2-17.3,47.6-26.4,74.8-26.4s16.8.9,25.3,2.6c45.2,9.4,81.5,46.3,90.3,91.8,10,51.3-13.8,102.5-59,127.4-3.5,1.9-5.5,5.8-5.1,9.7.4,4,3.1,7.3,6.9,8.6,49.4,15.8,91,51.7,114,98.5ZM611.6,297c-.9,1.4-2.9,3.8-6.8,3.8h-171c-10.6-7.1-21.9-13.3-33.7-18.4,41.6-31.6,62.1-84.6,51.8-137.5-6.5-33.5-25.8-63-52.3-83.1,13.2-20.1,33.7-34.9,56.8-39.8,27.9-5.8,56.3.9,78,18.5,21.6,17.6,34,43.6,34,71.5s-18.3,64.5-47.8,80.7c-3.5,1.9-5.5,5.8-5.1,9.7.4,4,3.1,7.3,6.9,8.6,38.8,12.4,71.5,40.6,89.5,77.4,1.4,2.8,1.3,6-.4,8.5ZM316.5,243.3c-39.4,0-72.9-25.5-79.5-60.7-1-5.4,2.5-10.7,8-11.7,5.5-1,10.7,2.5,11.7,8,4.9,25.7,30.1,44.4,59.9,44.4s55-18.7,59.9-44.4c1-5.4,6.3-9,11.7-8,5.4,1,9,6.3,8,11.7-6.7,35.1-40.1,60.7-79.5,60.7Z"/>
    </g>
  </g>
</svg>