<?xml version="1.0" encoding="UTF-8"?>
<svg xmlns="http://www.w3.org/2000/svg" version="1.1" viewBox="0 0 16.68 16.68">
  <!-- Generator: Adobe Illustrator 28.7.1, SVG Export Plug-In . SVG Version: 1.2.0 Build 142)  -->
  <g>
    <g id="Layer_1">
      <path d="M8.34,0C3.742,0,0,3.742,0,8.34c0,2.384,1.033,4.661,2.834,6.25,1.528,1.348,3.483,2.09,5.506,2.09s3.978-.742,5.505-2.09c1.802-1.588,2.835-3.866,2.835-6.25C16.68,3.742,12.939,0,8.34,0ZM2.895,13.965c-.175-.169-.339-.348-.496-.531l.97-.97,2.05-2.049c.139.149.272.303.435.431-.352.164-.682.365-.99.591-.103.075-.189.168-.286.25-.195.163-.388.326-.56.513-.102.111-.186.237-.279.356-.142.181-.283.361-.403.558-.084.138-.15.286-.223.431-.071.141-.157.272-.217.42ZM10.635.844l-2.948,2.948c-1.681.279-3.003,1.601-3.281,3.282l-3.559,3.558c-.136-.442-.229-.898-.286-1.361L9.273.561c.467.056.923.149,1.362.284ZM4.367,7.467c-.006.087-.026.17-.026.259,0,.418.086.818.21,1.203l-1.588,1.589-1.522,1.522c-.198-.368-.362-.753-.499-1.147l3.426-3.426ZM4.643,9.191c.15.376.34.733.598,1.048l-2.999,3c-.249-.309-.472-.635-.671-.975l.975-.975,2.097-2.097ZM16.18,8.34c0,.349-.032.694-.078,1.036l-3.167,3.168c-.09-.115-.171-.236-.27-.343-.165-.18-.351-.336-.538-.494l4.019-4.02c.018.216.033.433.033.653ZM11.942,11.538c-.042-.033-.08-.069-.123-.101-.277-.203-.577-.378-.89-.532l4.897-4.898c.136.437.229.893.287,1.359l-4.172,4.172ZM11.814,9.665c.33-.585.526-1.242.526-1.938,0-.072-.018-.14-.021-.211l2.026-2.026.886-.886c.198.364.36.749.5,1.145l-3.917,3.916ZM14.426,3.407c.249.306.47.634.671.976l-2.811,2.81c-.06-.448-.192-.869-.389-1.258l2.528-2.528ZM14.262,3.217l-2.489,2.489c-.201-.34-.445-.647-.733-.912l2.398-2.398c.295.253.569.528.824.822ZM12.269,1.566c.342.199.67.421.977.668l-2.4,2.4c-.311-.252-.651-.466-1.028-.617l1.659-1.659.792-.791ZM12.046,1.434l-2.499,2.498c-.383-.122-.783-.206-1.207-.206-.089,0-.172.02-.259.026l2.393-2.393.423-.423c.397.138.783.3,1.149.497ZM13.694,13.787c-.037-.084-.084-.161-.125-.243-.072-.144-.138-.291-.221-.428-.079-.13-.168-.25-.257-.373l2.947-2.947c-.187.977-.562,1.906-1.097,2.743l-1.246,1.247ZM8.34.5c.205,0,.407.015.608.031L.531,8.948c-.016-.202-.031-.404-.031-.608,0-.371.035-.734.085-1.092L7.248.585c.358-.05.721-.085,1.092-.085ZM6.831.649L.649,6.831c.198-1.012.593-1.954,1.141-2.787l2.253-2.253c.833-.549,1.775-.943,2.788-1.141ZM3.297,14.329c.026-.072.055-.143.084-.213.036-.087.071-.174.111-.258.045-.094.096-.184.147-.275.045-.081.087-.162.136-.24.056-.089.118-.174.179-.26.052-.074.102-.149.158-.22.066-.085.139-.164.211-.244.058-.066.114-.134.176-.197.078-.08.162-.153.244-.228.062-.057.122-.116.187-.17.091-.075.188-.143.284-.212.063-.046.123-.095.188-.138.11-.073.227-.136.343-.201.056-.031.109-.067.167-.096.175-.09.356-.17.542-.24.089-.034.151-.115.161-.21.009-.095-.036-.187-.117-.236-1.038-.647-1.658-1.755-1.658-2.964,0-1.93,1.57-3.5,3.5-3.5s3.5,1.57,3.5,3.5c0,1.209-.62,2.316-1.657,2.964-.081.05-.126.142-.117.236.01.095.072.176.161.21.186.07.366.15.542.24.057.029.11.065.166.096.116.065.232.128.343.201.065.043.124.092.187.137.096.069.194.137.285.213.065.053.124.113.186.169.083.075.167.149.245.229.062.063.118.132.176.198.071.08.144.159.21.243.056.071.106.147.159.221.061.086.122.17.178.259.049.078.092.161.137.242.05.09.101.18.146.273.041.085.076.173.112.26.029.07.058.14.084.212-1.416,1.195-3.199,1.851-5.042,1.851s-3.626-.656-5.043-1.851Z"/>
    </g>
  </g>
</svg>