<?xml version="1.0" encoding="UTF-8"?>
<svg xmlns="http://www.w3.org/2000/svg" version="1.1" viewBox="0 0 520 500">
  <defs>
    <style>
      .cls-1 {
        fill: #040000;
      }
    </style>
  </defs>
  <!-- Generator: Adobe Illustrator 28.7.1, SVG Export Plug-In . SVG Version: 1.2.0 Build 142)  -->
  <g>
    <g id="Layer_1">
      <path class="cls-1" d="M364,301.9c0,5.5-4.5,10-10,10h-188c-5.5,0-10-4.5-10-10s4.5-10,10-10h188c5.5,0,10,4.5,10,10ZM520,50v320c0,27.6-22.4,50-50,50h-167.2l15,60h52.2c5.5,0,10,4.5,10,10s-4.5,10-10,10h-220c-5.5,0-10-4.5-10-10s4.5-10,10-10h52.2l15-60H50c-27.6,0-50-22.4-50-50V50C0,22.4,22.4,0,50,0h420c27.6,0,50,22.4,50,50ZM282.2,420h-44.4l-15,60h74.4l-15-60ZM431.3,400v-178.2h-105.1c-5.5,0-10-4.5-10-10v-105.1H88.7v293.3h342.6ZM336.2,201.8h81l-81-81v81ZM500,50c0-16.5-13.5-30-30-30H50c-16.5,0-30,13.5-30,30v320c0,16.5,13.5,30,30,30h18.7V96.7c0-5.5,4.5-10,10-10h247.5c.5,0,.9.2,1.3.3.4,0,.8.1,1.2.2,1.7.5,3.3,1.2,4.6,2.4l115.1,115.1c1.3,1.3,2,2.9,2.4,4.5.1.4.2.8.2,1.2,0,.4.3.9.3,1.3v188.2h18.7c16.5,0,30-13.5,30-30V50Z"/>
    </g>
  </g>
</svg>