<?xml version="1.0" encoding="UTF-8"?>
<svg xmlns="http://www.w3.org/2000/svg" version="1.1" viewBox="0 0 750.9 775.8">
  <defs>
    <style>
      .cls-1 {
        fill: #040000;
      }
    </style>
  </defs>
  <!-- Generator: Adobe Illustrator 28.7.1, SVG Export Plug-In . SVG Version: 1.2.0 Build 142)  -->
  <g>
    <g id="Layer_1">
      <path class="cls-1" d="M652,403.4l21.8-289.2h38.4c6.9,0,12.5-5.6,12.5-12.5s-5.6-12.5-12.5-12.5h-337.4V12.5c0-6.9-5.6-12.5-12.5-12.5s-12.5,5.6-12.5,12.5v76.7H12.5c-6.9,0-12.5,5.6-12.5,12.5s5.6,12.5,12.5,12.5h38.4l42.1,557.3c4.4,58.5,53.8,104.2,112.4,104.2h314c2.4,0,4.2-1.4,6.1-2.5,8.3,1,16.4,2.5,24.9,2.5,110.5,0,200.5-89.9,200.5-200.5,0-73.3-40-136.9-98.9-171.9ZM205.4,750.8c-45.6,0-84-35.6-87.4-81L76,114.2h572.8l-20.9,276.2c-23.9-10-50.1-15.6-77.5-15.6s-31.8,2.5-46.8,6.1l11.2-167.1c.5-6.9-4.7-12.8-11.6-13.3-6.6-.6-12.8,4.7-13.3,11.6l-11.8,176.7c-44.4,17.3-80.6,50-103.1,91.5V212.9c0-6.9-5.6-12.5-12.5-12.5s-12.5,5.6-12.5,12.5v352.2c0,.8.7,1.3.8,2-.1,2.8-.8,5.4-.8,8.2,0,76,43,141.5,105.6,175.5h-250.1ZM550.4,750.8c-96.8,0-175.5-78.7-175.5-175.5s78.7-175.5,175.5-175.5,175.5,78.8,175.5,175.5-78.7,175.5-175.5,175.5ZM643.2,519.7c4.5,5.2,3.9,13.1-1.3,17.6l-110.1,94.9c-2.3,2-5.2,3-8.2,3s-5.9-1.1-8.3-3.1l-56.5-50.2c-5.2-4.6-5.6-12.5-1.1-17.7,4.6-5.1,12.5-5.7,17.7-1.1l48.3,42.9,101.8-87.7c5.2-4.5,13.1-3.9,17.6,1.3ZM235,212.1l27.4,408.8c.5,6.9-4.8,12.8-11.6,13.3-.3,0-.6,0-.9,0-6.5,0-12-5.1-12.5-11.7l-27.4-408.8c-.5-6.9,4.8-12.8,11.6-13.3,6.7-.4,12.8,4.7,13.3,11.7Z"/>
    </g>
  </g>
</svg>