<?xml version="1.0" encoding="UTF-8"?>
<svg xmlns="http://www.w3.org/2000/svg" version="1.1" viewBox="0 0 744.2 750.3">
  <!-- Generator: Adobe Illustrator 28.7.1, SVG Export Plug-In . SVG Version: 1.2.0 Build 142)  -->
  <g>
    <g id="Layer_1">
      <path d="M509.9,750.3c-37.8,0-80.5-8.1-128-28.2l-4.2-1.8c-51.5-22.1-92.1-39.5-163-102.3-48.9-43.4-81.7-87.5-83.1-89.4-27.7-34.6-78.3-107.8-103.4-166.3C-73.9,121.3,133.6,6.1,135.7,4.9c1-.6,2.1-1,3.3-1.2,39.7-8.6,50.9-1.4,69.2,13.3l5.7,6.4c28.5,34.5,55.5,67.1,78.4,120.5,19.5,68-14.4,95.4-50.3,124.5l-11.9,9.8c-2.4,1.8-4.4,3.1-6.7,4.6-8.7,5.6-17.6,11.3-21.6,28.1-3.1,35.6,41.6,95.7,59,115.6.7.8,38.2,47,56.9,63.1.2,0,.4.3.6.5.6.6,59.8,57.4,118.2,58.3,13.7-3.6,19.5-12.6,25-21.3,1.4-2.2,2.8-4.3,4.2-6.2l10.2-12.5c29.1-35.9,56.7-69.7,122.9-50.7,54.8,23.3,87.4,50.2,121.8,78.7l4.8,4c16.5,20.1,23.7,31.5,15,71-.2,1.1-.6,2.2-1.2,3.2-.9,1.5-75.4,135.7-229.3,135.7ZM146.1,27.7c-19,10.8-184.7,112.9-94.9,324.7,24.1,56.2,73.1,127,100.2,160.9.6.8,33.1,44.4,79.9,85.9,67.9,60.3,104.9,76.1,156.2,98.1l4.2,1.8c211.5,89.7,313.9-76,324.7-95,6-28.1,2.4-32.5-8.7-46.4l-3-2.1c-33.1-27.3-64.3-53.1-114.3-74.5-49-13.9-66.4,7.5-95.2,43l-10,12.3c-.6.9-1.7,2.5-2.7,4.2-6.3,9.8-16.8,26.1-43.4,32.4-69.8-.7-132.6-59.5-138-64.7-20.5-17.7-57.9-63.7-59.5-65.6-2.5-2.9-69.6-80-64.5-135.7,6.5-28.3,22.9-38.8,32.7-45.1,1.7-1.1,3.3-2.1,4.7-3.1l11.7-9.6c35.5-28.8,56.9-46.2,42.5-96.7-20.9-48.6-46.8-79.8-74.1-112.9l-3.8-4.6c-12.2-9.7-16.5-13.2-44.7-7.3Z"/>
    </g>
  </g>
</svg>