<?xml version="1.0" encoding="UTF-8"?>
<svg xmlns="http://www.w3.org/2000/svg" version="1.1" viewBox="0 0 750 505">
  <defs>
    <style>
      .cls-1 {
        fill: #040000;
      }
    </style>
  </defs>
  <!-- Generator: Adobe Illustrator 28.7.1, SVG Export Plug-In . SVG Version: 1.2.0 Build 142)  -->
  <g>
    <g id="Layer_1">
      <path class="cls-1" d="M637.5,0H112.5C50.5,0,0,50.5,0,112.5v280c0,62,50.5,112.5,112.5,112.5h525c62,0,112.5-50.5,112.5-112.5V112.5c0-62-50.5-112.5-112.5-112.5ZM112.5,25h525c48.2,0,87.5,39.3,87.5,87.5v17.6H25v-17.6c0-48.2,39.3-87.5,87.5-87.5ZM637.5,480H112.5c-48.2,0-87.5-39.3-87.5-87.5v-237.4h700v237.4c0,48.2-39.3,87.5-87.5,87.5ZM650,367.6c0,6.9-5.6,12.5-12.5,12.5h-125c-6.9,0-12.5-5.6-12.5-12.5s5.6-12.5,12.5-12.5h125c6.9,0,12.5,5.6,12.5,12.5Z"/>
    </g>
  </g>
</svg>