<?xml version="1.0" encoding="UTF-8"?>
<svg xmlns="http://www.w3.org/2000/svg" version="1.1" viewBox="0 0 763.8 755.3">
  <defs>
    <style>
      .cls-1 {
        fill: #040000;
      }
    </style>
  </defs>
  <!-- Generator: Adobe Illustrator 28.7.1, SVG Export Plug-In . SVG Version: 1.2.0 Build 142)  -->
  <g>
    <g id="Layer_1">
      <g>
        <path class="cls-1" d="M751.3,0H12.5C5.6,0,0,5.6,0,12.5v557.7c0,6.9,5.6,12.5,12.5,12.5h356.9v147.6h-141c-6.9,0-12.5,5.6-12.5,12.5s5.6,12.5,12.5,12.5h306.9c6.9,0,12.5-5.6,12.5-12.5s-5.6-12.5-12.5-12.5h-141v-147.6h356.9c6.9,0,12.5-5.6,12.5-12.5V12.5c0-6.9-5.6-12.5-12.5-12.5ZM738.8,557.7H25V25h713.8v532.7Z"/>
        <path class="cls-1" d="M132.9,138.4h326.7c6.9,0,12.5-5.6,12.5-12.5s-5.6-12.5-12.5-12.5H132.9c-6.9,0-12.5,5.6-12.5,12.5s5.6,12.5,12.5,12.5Z"/>
        <path class="cls-1" d="M132.9,243.4h326.7c6.9,0,12.5-5.6,12.5-12.5s-5.6-12.5-12.5-12.5H132.9c-6.9,0-12.5,5.6-12.5,12.5s5.6,12.5,12.5,12.5Z"/>
        <path class="cls-1" d="M132.9,348.4h169.2c6.9,0,12.5-5.6,12.5-12.5s-5.6-12.5-12.5-12.5h-169.2c-6.9,0-12.5,5.6-12.5,12.5s5.6,12.5,12.5,12.5Z"/>
      </g>
    </g>
  </g>
</svg>