<?xml version="1.0" encoding="UTF-8"?>
<svg xmlns="http://www.w3.org/2000/svg" version="1.1" viewBox="0 0 21.87 26.809">
  <!-- Generator: Adobe Illustrator 28.7.1, SVG Export Plug-In . SVG Version: 1.2.0 Build 142)  -->
  <g>
    <g id="Layer_1">
      <g>
        <path d="M9.75,12.684c-1.888,0-3.49-1.223-3.809-2.907-.051-.271.127-.533.398-.584.278-.051.533.127.584.398.23,1.213,1.418,2.093,2.827,2.093s2.597-.88,2.828-2.093c.052-.272.311-.448.585-.398.271.052.449.313.397.584-.32,1.685-1.923,2.907-3.81,2.907Z"/>
        <path d="M15.917,26.809H3.583c-1.976,0-3.583-1.607-3.583-3.583,0-3.73,2.175-7.146,5.496-8.764-1.525-1.259-2.412-3.112-2.412-5.112,0-3.676,2.991-6.667,6.667-6.667s6.667,2.991,6.667,6.667c0,1.999-.888,3.853-2.411,5.112,3.32,1.617,5.495,5.033,5.495,8.764,0,1.976-1.607,3.583-3.584,3.583ZM9.75,3.684c-3.125,0-5.667,2.542-5.667,5.667,0,1.958,1.003,3.751,2.684,4.797.162.101.252.285.233.475s-.144.352-.322.418c-3.397,1.276-5.679,4.565-5.679,8.186,0,1.424,1.159,2.583,2.583,2.583h12.333c1.425,0,2.584-1.159,2.584-2.583,0-3.62-2.282-6.909-5.679-8.186-.179-.066-.303-.229-.322-.418-.019-.189.072-.374.233-.475,1.681-1.046,2.684-2.84,2.684-4.797,0-3.125-2.542-5.667-5.667-5.667Z"/>
      </g>
      <path d="M16.63,5.395c-.132,0-.261-.053-.355-.148-.118-.119-.168-.29-.134-.455l.244-1.163c-.146-.322-.221-.658-.221-.999,0-1.45,1.279-2.63,2.853-2.63s2.853,1.18,2.853,2.63-1.279,2.63-2.853,2.63c-.317,0-.63-.049-.931-.145l-1.358.27c-.032.007-.065.01-.098.01ZM18.122,4.098c.06,0,.118.011.175.032.231.086.474.13.721.13,1.021,0,1.853-.731,1.853-1.63s-.831-1.63-1.853-1.63-1.853.731-1.853,1.63c0,.233.062.466.186.693.057.104.074.226.05.342l-.124.592.748-.148c.032-.006.065-.01.098-.01Z"/>
    </g>
  </g>
</svg>