<?xml version="1.0" encoding="UTF-8"?>
<svg xmlns="http://www.w3.org/2000/svg" version="1.1" viewBox="0 0 715.5 626">
  <defs>
    <style>
      .cls-1 {
        fill: #040000;
      }
    </style>
  </defs>
  <!-- Generator: Adobe Illustrator 28.7.1, SVG Export Plug-In . SVG Version: 1.2.0 Build 142)  -->
  <g>
    <g id="Layer_1">
      <path class="cls-1" d="M715.1,109.8c0-.5.2-.9.2-1.4,0-60.7-81.3-108.3-185.1-108.3s-185.1,47.6-185.1,108.3.1.5.1.7h0v101.3c0,.1-.1.2-.1.3,0,.2.1.5.1.7v47.5c-31.6-32.5-90.5-54.3-160.2-54.3-99.9,0-178.2,44.2-184,101.7-.2,1-1.1,1.6-1.1,2.7v217.2c0,2.3,1.4,4,2.4,5.8,11.8,53.6,87.3,93.9,182.7,93.9s146.4-28.5,172.7-69.4c26.2,40.9,92.5,69.4,172.6,69.4s185.1-47.6,185.1-108.3V110.7c0-.4-.4-.6-.4-.9ZM530.3,25c86.8,0,160.1,38.2,160.1,83.3s-73.3,83.3-160.1,83.3-160.1-38.2-160.1-83.3,73.3-83.3,160.1-83.3ZM530.3,216.7c69.7,0,128.6-21.8,160.2-54.3v48c0,.1-.2.2-.2.4,0,45.2-73.3,83.3-160.1,83.3s-159.3-37.8-160-82.7v-48.6c31.7,32.4,90.4,54,160,54ZM530.3,319c69.7,0,128.6-21.8,160.2-54.3v48.3c0,45.2-73.3,83.3-160.1,83.3s-160.1-38.1-160.1-83.3v-48c31.6,32.4,90.4,54,160,54ZM185.1,229.7c86.8,0,160.1,38.2,160.1,83.3s-73.3,83.3-160.1,83.3S25,358.2,25,313s73.3-83.3,160.1-83.3ZM185.1,421.3c69.6,0,128.5-21.7,160.1-54.1v48.2c0,45.2-73.3,83.3-160.1,83.3S25,460.5,25,415.4v-48.1c31.6,32.4,90.5,54.1,160.1,54.1ZM185.1,601c-86.8,0-160.1-38.1-160.1-83.3v-48.1c31.6,32.4,90.4,54.1,160.1,54.1s128.5-21.7,160.1-54.1v48.2c0,45.2-73.3,83.3-160.1,83.3ZM690.5,517.7c0,45.2-73.3,83.3-160.1,83.3s-160.1-38.1-160.1-83.3v-48.1c31.6,32.4,90.5,54.1,160.1,54.1s128.5-21.7,160.1-54.1v48.1ZM690.5,415.4c0,45.2-73.3,83.3-160.1,83.3s-160.1-38.1-160.1-83.3v-48.1c31.6,32.4,90.5,54.1,160.1,54.1s128.5-21.7,160.1-54.1v48.1Z"/>
    </g>
  </g>
</svg>