<?xml version="1.0" encoding="UTF-8"?>
<svg xmlns="http://www.w3.org/2000/svg" version="1.1" viewBox="0 0 729.1 689.5">
  <defs>
    <style>
      .cls-1 {
        fill: #040000;
      }
    </style>
  </defs>
  <!-- Generator: Adobe Illustrator 28.7.1, SVG Export Plug-In . SVG Version: 1.2.0 Build 142)  -->
  <g>
    <g id="Layer_1">
      <g>
        <path class="cls-1" d="M716.6,0H12.5C5.6,0,0,5.6,0,12.5v518.4c0,6.9,5.6,12.5,12.5,12.5s12.5-5.6,12.5-12.5V143h679.1v521.5H163.9c-6.9,0-12.5,5.6-12.5,12.5s5.6,12.5,12.5,12.5h552.7c6.9,0,12.5-5.6,12.5-12.5V12.5c0-6.9-5.6-12.5-12.5-12.5ZM25,118V25h679.1v93H25Z"/>
        <path class="cls-1" d="M350,477c0,6.9,5.6,12.5,12.5,12.5s12.5-5.6,12.5-12.5v-150c0-6.9-5.6-12.5-12.5-12.5h-150c-6.9,0-12.5,5.6-12.5,12.5s5.6,12.5,12.5,12.5h119.8L3.7,668.2c-4.9,4.9-4.9,12.8,0,17.7,2.4,2.4,5.6,3.7,8.8,3.7s6.4-1.2,8.8-3.7l328.7-328.6v119.8Z"/>
      </g>
    </g>
  </g>
</svg>