<?xml version="1.0" encoding="UTF-8"?>
<svg xmlns="http://www.w3.org/2000/svg" version="1.1" viewBox="0 0 428.8 588.7">
  <defs>
    <style>
      .cls-1 {
        fill: #040000;
      }
    </style>
  </defs>
  <!-- Generator: Adobe Illustrator 28.7.1, SVG Export Plug-In . SVG Version: 1.2.0 Build 142)  -->
  <g>
    <g id="Layer_1">
      <g id="Layer_1-2" data-name="Layer_1">
        <path class="cls-1" d="M0,12.5v563.7c0,6.9,5.6,12.5,12.5,12.5,6.9,0,12.5-5.6,12.5-12.5V12.5C25,5.6,19.4,0,12.5,0S0,5.6,0,12.5ZM99.965,294.405c0-3.5,1.5-6.8,4-9.2L407.765,3.305c5-4.6,12.9-4.3,17.7.7,4.7,5.1,4.4,13-.7,17.7L130.865,294.405l293.9,272.6c5.1,4.8,5.4,12.6.7,17.7-4.8,5.1-12.7,5.3-17.7.7L103.965,303.605c-2.5-2.4-4-5.7-4-9.2h0Z"/>
      </g>
    </g>
  </g>
</svg>