<?xml version="1.0" encoding="UTF-8"?>
<svg xmlns="http://www.w3.org/2000/svg" version="1.1" viewBox="0 0 820.2 730.4">
  <defs>
    <style>
      .cls-1 {
        fill: #040000;
      }
    </style>
  </defs>
  <!-- Generator: Adobe Illustrator 28.7.1, SVG Export Plug-In . SVG Version: 1.2.0 Build 142)  -->
  <g>
    <g id="Layer_1">
      <path class="cls-1" d="M646.8,0c-95.7,0-173.4,77.8-173.4,173.4s.4.7.5,1.2c0,.5-.5.7-.5,1.2v49.6H112.5C50.5,225.4,0,275.8,0,337.9v280c0,62,50.5,112.5,112.5,112.5h425c62,0,112.5-50.5,112.5-112.5v-280c0-62-50.5-112.5-112.5-112.5h-39.1v-49.6c0-.5-.4-.7-.5-1.2,0-.5.5-.7.5-1.2,0-81.8,66.6-148.4,148.4-148.4s148.4,66.6,148.4,148.4v60.4c0,6.9,5.6,12.5,12.5,12.5s12.5-5.6,12.5-12.5v-60.4c0-95.6-77.8-173.4-173.4-173.4ZM625,337.9v280c0,48.2-39.3,87.5-87.5,87.5H112.5c-48.2,0-87.5-39.3-87.5-87.5v-280c0-48.2,39.3-87.5,87.5-87.5h425c48.2,0,87.5,39.3,87.5,87.5ZM274.9,430.8c0-27.7,22.4-50.1,50.1-50.1s50.1,22.4,50.1,50.1-16.1,41.9-37.6,47.6v96.7c0,6.9-5.6,12.5-12.5,12.5s-12.5-5.6-12.5-12.5v-96.7c-21.5-5.7-37.6-24.3-37.6-47.6Z"/>
    </g>
  </g>
</svg>