<?xml version="1.0" encoding="UTF-8"?>
<svg xmlns="http://www.w3.org/2000/svg" version="1.1" viewBox="0 0 763.8 750.7">
  <defs>
    <style>
      .cls-1 {
        fill: #040000;
      }
    </style>
  </defs>
  <!-- Generator: Adobe Illustrator 28.7.1, SVG Export Plug-In . SVG Version: 1.2.0 Build 142)  -->
  <g>
    <g id="Layer_1">
      <path class="cls-1" d="M759.4,315L390,3c-4.6-3.9-11.5-4-16.1,0L4.4,315c-2.8,2.4-4.4,5.9-4.4,9.5v413.6c0,6.9,5.6,12.5,12.5,12.5h738.8c6.9,0,12.5-5.6,12.5-12.5v-413.6c0-3.7-1.6-7.2-4.4-9.6ZM738.8,725.7H25v-395.3L381.9,28.9l356.9,301.5v395.3ZM251.9,444.7c0,71.7,58.3,130,130,130s130-58.3,130-130-58.3-130-130-130-130,58.3-130,130ZM486.9,444.7c0,57.9-47.1,105-105,105s-105-47.1-105-105,47.1-105,105-105,105,47.1,105,105Z"/>
    </g>
  </g>
</svg>