<?xml version="1.0" encoding="UTF-8"?>
<svg xmlns="http://www.w3.org/2000/svg" version="1.1" viewBox="0 0 565.2 565.2">
  <defs>
    <style>
      .cls-1 {
        fill: #070404;
      }
    </style>
  </defs>
  <!-- Generator: Adobe Illustrator 28.7.1, SVG Export Plug-In . SVG Version: 1.2.0 Build 142)  -->
  <g>
    <g id="Layer_1">
      <path class="cls-1" d="M482.5,82.6C427.3,27.5,355,0,282.6,0S137.8,27.5,82.7,82.6c-110.2,110.2-110.2,289.6,0,399.8,53.3,53.3,124.3,82.7,199.9,82.7s146.6-29.4,199.9-82.7,82.7-124.3,82.7-199.9c0-75.6-29.4-146.6-82.7-199.9ZM386,291.7l-161.4,149.7c-2.4,2.2-5.4,3.3-8.5,3.3s-6.7-1.4-9.2-4c-4.7-5.1-4.4-13,.7-17.7l151.5-140.5-151.5-140.5c-5.1-4.7-5.4-12.6-.7-17.6,4.7-5.1,12.7-5.4,17.6-.7l161.4,149.7c2.5,2.4,4,5.7,4,9.2s-1.5,6.8-4,9.1Z"/>
    </g>
  </g>
</svg>