<?xml version="1.0" encoding="UTF-8"?>
<svg xmlns="http://www.w3.org/2000/svg" version="1.1" viewBox="0 0 706.4 832.2">
  <!-- Generator: Adobe Illustrator 28.7.1, SVG Export Plug-In . SVG Version: 1.2.0 Build 142)  -->
  <g>
    <g id="Layer_1">
      <path d="M294.9,800c0,6.9-5.6,12.5-12.5,12.5H12.5c-6.9,0-12.5-5.6-12.5-12.5V12.5C0,5.6,5.6,0,12.5,0h630c6.9,0,12.5,5.6,12.5,12.5v415.1c0,6.9-5.6,12.5-12.5,12.5s-12.5-5.6-12.5-12.5V25H25v762.5h257.4c6.9,0,12.5,5.6,12.5,12.5ZM204.7,350.4v-127.8h53v-22H127.1v22h53.2v127.8h24.4ZM387.4,350.4h-26.7l-14.8-35.8h-67.7l-14.8,35.8h-25.8l63-149.8h23.8l62.8,149.8ZM312.2,231.9l-25.1,60.9h50l-24.9-60.9ZM417.2,350.4l41.7-57.5,40.8,56.5.8,1h29.2l-55.3-76.3,50.6-69.6,2.9-4h-28.8l-39.9,55.3-38.8-54.3-.8-1h-29.6l53.3,74.1-55.2,75.7h28.9ZM706.4,569.7v200c0,41-81.7,62.5-162.5,62.5s-162.5-21.5-162.5-62.5v-200c0-82,325-82,325,0ZM681.4,604.1c-30.3,18.4-83.8,28.1-137.5,28.1s-107.2-9.7-137.5-28.1v65.6c0,12.7,48.5,37.5,137.5,37.5s137.5-24.8,137.5-37.5v-65.6ZM406.4,569.7c0,12.7,48.5,37.5,137.5,37.5s137.5-24.8,137.5-37.5-48.5-37.5-137.5-37.5-137.5,24.8-137.5,37.5ZM681.4,769.7v-65.6c-30.3,18.4-83.8,28.1-137.5,28.1s-107.2-9.7-137.5-28.1v65.6c0,12.7,48.5,37.5,137.5,37.5s137.5-24.8,137.5-37.5Z"/>
    </g>
  </g>
</svg>