<?xml version="1.0" encoding="UTF-8"?>
<svg xmlns="http://www.w3.org/2000/svg" version="1.1" viewBox="0 0 19.5 24.125">
  <!-- Generator: Adobe Illustrator 28.7.1, SVG Export Plug-In . SVG Version: 1.2.0 Build 142)  -->
  <g>
    <g id="Layer_1">
      <g>
        <path d="M13.56,7.093c.052-.271-.127-.533-.397-.584-.276-.05-.533.126-.585.398-.23,1.213-1.42,2.093-2.827,2.093s-2.597-.88-2.827-2.093c-.051-.271-.308-.446-.584-.398-.271.051-.449.313-.398.584.32,1.684,1.922,2.907,3.81,2.907s3.489-1.222,3.81-2.907Z"/>
        <path d="M14.005,11.779c1.524-1.26,2.412-3.113,2.412-5.112,0-3.676-2.991-6.667-6.667-6.667S3.083,2.991,3.083,6.667c0,1.999.887,3.853,2.412,5.112-3.32,1.617-5.495,5.032-5.495,8.763,0,1.976,1.607,3.583,3.583,3.583h12.333c1.976,0,3.583-1.607,3.583-3.583,0-3.73-2.175-7.146-5.495-8.763ZM15.917,23.125H3.583c-1.424,0-2.583-1.159-2.583-2.583,0-3.62,2.282-6.909,5.679-8.185.178-.067.303-.229.322-.419s-.072-.373-.233-.474c-1.681-1.047-2.684-2.841-2.684-4.798,0-3.125,2.542-5.667,5.667-5.667s5.667,2.542,5.667,5.667c0,1.957-1.004,3.75-2.685,4.798-.161.101-.252.284-.232.474.019.189.144.352.321.419,3.396,1.275,5.679,4.564,5.679,8.185,0,1.424-1.159,2.583-2.583,2.583Z"/>
      </g>
    </g>
  </g>
</svg>