<?xml version="1.0" encoding="UTF-8"?>
<svg xmlns="http://www.w3.org/2000/svg" version="1.1" viewBox="0 0 14.1 16.526">
  <!-- Generator: Adobe Illustrator 28.7.1, SVG Export Plug-In . SVG Version: 1.2.0 Build 142)  -->
  <g>
    <g id="Layer_1">
      <g>
        <path d="M6.908,15.75H.5V.5h12.1v7.5c0,.138.112.25.25.25s.25-.112.25-.25V.25c0-.138-.112-.25-.25-.25H.25c-.138,0-.25.112-.25.25v15.75c0,.138.112.25.25.25h6.658c.138,0,.25-.112.25-.25s-.112-.25-.25-.25Z"/>
        <path d="M14.026,16.099l-2.153-2.153c.52-.599.846-1.372.846-2.226,0-1.882-1.531-3.414-3.414-3.414s-3.414,1.532-3.414,3.414,1.531,3.414,3.414,3.414c.848,0,1.615-.322,2.213-.836l2.154,2.154c.049.049.112.073.177.073s.128-.024.177-.073c.098-.098.098-.256,0-.354ZM6.392,11.72c0-1.606,1.307-2.913,2.914-2.913s2.914,1.307,2.914,2.913-1.308,2.914-2.914,2.914-2.914-1.308-2.914-2.914Z"/>
      </g>
    </g>
  </g>
</svg>