<?xml version="1.0" encoding="UTF-8"?>
<svg xmlns="http://www.w3.org/2000/svg" version="1.1" viewBox="0 0 22.357 25">
  <defs>
    <style>
      .cls-1 {
        fill: #222;
      }
    </style>
  </defs>
  <!-- Generator: Adobe Illustrator 28.7.1, SVG Export Plug-In . SVG Version: 1.2.0 Build 142)  -->
  <g>
    <g id="Layer_1">
      <g>
        <path class="cls-1" d="M22.21,22.061l-2.651-2.651c.631-.783,1.025-1.764,1.025-2.846,0-2.517-2.047-4.563-4.563-4.563s-4.563,2.047-4.563,4.563,2.047,4.562,4.563,4.562c1.074,0,2.049-.388,2.83-1.011l2.653,2.653c.098.098.226.146.354.146s.256-.049.354-.146c.195-.195.195-.512,0-.707ZM12.458,16.563c0-1.965,1.599-3.563,3.563-3.563s3.563,1.599,3.563,3.563-1.599,3.562-3.563,3.562-3.563-1.598-3.563-3.562Z"/>
        <path class="cls-1" d="M19.7,24H1V1h18.2v9.437c0,.276.224.5.5.5s.5-.224.5-.5V.5c0-.276-.224-.5-.5-.5H.5C.224,0,0,.224,0,.5v24c0,.276.224.5.5.5h19.2c.276,0,.5-.224.5-.5s-.224-.5-.5-.5Z"/>
        <path class="cls-1" d="M3.383,6.854c0,.207.168.375.375.375h.674l.728,2.67h.941l.755-2.67h.802l.773,2.67h.941l.713-2.67h.673c.207,0,.375-.168.375-.375s-.168-.375-.375-.375h-.472l.521-1.952h-.888l-.481,1.952h-1.153l-.559-1.952h-.921l-.547,1.952h-1.153l-.493-1.952h-.917l.532,1.952h-.47c-.207,0-.375.168-.375.375ZM7.069,6.479l.184-.65.188.65h-.372ZM9.254,7.229l-.348,1.414-.405-1.414h.753ZM6.048,7.229l-.396,1.414-.357-1.414h.753Z"/>
      </g>
    </g>
  </g>
</svg>