<?xml version="1.0" encoding="UTF-8"?>
<svg xmlns="http://www.w3.org/2000/svg" version="1.1" viewBox="0 0 588.3 728.5">
  <defs>
    <style>
      .cls-1 {
        fill: #040000;
      }
    </style>
  </defs>
  <!-- Generator: Adobe Illustrator 28.7.1, SVG Export Plug-In . SVG Version: 1.2.0 Build 142)  -->
  <g>
    <g id="Layer_1">
      <path class="cls-1" d="M501.2,0H87C39,0,0,39,0,87v568.9c0,40,32.5,72.6,72.6,72.6h452.6c34.9,0,63.2-28.4,63.2-63.2V87.1c0-48-39.1-87.1-87.1-87.1ZM563.4,665.3c0,21.1-17.1,38.2-38.2,38.2H72.6c-26.2,0-47.6-21.3-47.6-47.6V87c0-34.2,27.8-62,62-62h414.3c34.2,0,62.1,27.9,62.1,62.1v578.2h0ZM470.1,156c0,6.9-5.6,12.5-12.5,12.5H131.1c-6.9,0-12.5-5.6-12.5-12.5s5.6-12.5,12.5-12.5h326.5c6.9,0,12.5,5.6,12.5,12.5ZM470.1,277c0,6.9-5.6,12.5-12.5,12.5H131.1c-6.9,0-12.5-5.6-12.5-12.5s5.6-12.5,12.5-12.5h326.5c6.9,0,12.5,5.6,12.5,12.5ZM270,398.1c0,6.9-5.6,12.5-12.5,12.5h-126.5c-6.9,0-12.5-5.6-12.5-12.5s5.6-12.5,12.5-12.5h126.5c6.9,0,12.5,5.6,12.5,12.5Z"/>
    </g>
  </g>
</svg>