<?xml version="1.0" encoding="UTF-8"?>
<svg xmlns="http://www.w3.org/2000/svg" version="1.1" viewBox="0 0 11.75 14.562">
  <!-- Generator: Adobe Illustrator 28.7.1, SVG Export Plug-In . SVG Version: 1.2.0 Build 142)  -->
  <g>
    <g id="Layer_1">
      <path d="M8.361,7.121c.955-.756,1.514-1.893,1.514-3.121,0-2.206-1.794-4-4-4S1.875,1.794,1.875,4c0,1.228.558,2.364,1.513,3.121-2.044.958-3.388,3.041-3.388,5.317,0,1.172.953,2.125,2.125,2.125h7.5c1.172,0,2.125-.953,2.125-2.125,0-2.276-1.344-4.358-3.389-5.317ZM2.375,4c0-1.93,1.57-3.5,3.5-3.5s3.5,1.57,3.5,3.5c0,1.209-.62,2.316-1.656,2.963-1.929.674-3.569.049-3.684.003,0,0-.001-.002-.002-.002-1.038-.646-1.658-1.754-1.658-2.963ZM9.625,14.062H2.125c-.896,0-1.625-.729-1.625-1.625,0-2.158,1.327-4.115,3.314-4.946.148.18.491.464,1.255.589-.25.554-.549,1.307-.549,1.744,0,.747,1.132,2.98,1.364,2.98s1.251-2.135,1.251-2.953c0-.473-.277-1.215-.512-1.762.819-.126,1.133-.442,1.252-.627,2.022.815,3.376,2.794,3.376,4.975,0,.896-.729,1.625-1.625,1.625Z"/>
    </g>
  </g>
</svg>