<?xml version="1.0" encoding="UTF-8"?>
<svg xmlns="http://www.w3.org/2000/svg" version="1.1" viewBox="0 0 748.2 763.5">
  <!-- Generator: Adobe Illustrator 28.7.1, SVG Export Plug-In . SVG Version: 1.2.0 Build 142)  -->
  <g>
    <g id="Layer_1">
      <path d="M463.2,687.8l-90.6,42.9v-394.5l319.9-147.6v246.5c0,6.9,5.6,12.5,12.5,12.5s12.5-5.6,12.5-12.5V169.1c0-1.4-.7-2.6-1.1-3.8-.2-.5.2-1,0-1.4,0-.2-.4-.2-.5-.4-1.2-2.4-3-4.4-5.5-5.6L379.9,1.2c-3.2-1.5-7-1.6-10.4-.2L7.5,159.5c-2.7,1.2-4.5,3.3-5.8,5.7-.1.3-.5.3-.6.6-.2.5.1,1.1,0,1.6-.4,1.2-1.1,2.2-1.1,3.5v411.2c0,4.8,2.7,9.1,7,11.2l346.6,168.8c1.7.8,3.6,1.3,5.5,1.3s.5-.2.7-.2c.1,0,.2.2.4.2.5,0,.8-.5,1.3-.5,1-.2,2-.2,3-.7l109.5-51.9c6.2-2.9,8.9-10.4,5.9-16.7-2.9-6.2-10.3-8.9-16.7-5.9ZM374.3,26.2l301.2,142.7-137.3,63.4L233.3,88l141.1-61.8ZM347.7,731.5L25,574.4V190.3l322.7,145.9v395.2ZM360.1,314.4L43.3,171.1l159.6-69.9,305.7,144.6-148.5,68.5ZM748.2,566.6c0,6.9-5.6,12.5-12.5,12.5h-205.3l62.2,65.8c4.7,5,4.5,12.9-.5,17.7-2.4,2.3-5.5,3.4-8.6,3.4s-6.6-1.3-9.1-3.9l-82.2-86.9c-.4-.4-.2-1-.6-1.5-.6-.8-1.4-1.3-1.8-2.2-.5-1.2-.3-2.5-.4-3.8,0-.8-.3-1.4-.3-2.2.2-2.8,1.1-5.4,3.1-7.5l82.2-86.9c4.7-5,12.6-5.2,17.7-.5,5,4.7,5.2,12.7.5,17.7l-62.2,65.8h205.3c6.9,0,12.5,5.6,12.5,12.5Z"/>
    </g>
  </g>
</svg>