<?xml version="1.0" encoding="UTF-8"?>
<svg xmlns="http://www.w3.org/2000/svg" version="1.1" viewBox="0 0 664.6 891.2">
  <defs>
    <style>
      .cls-1 {
        fill: #040000;
      }
    </style>
  </defs>
  <!-- Generator: Adobe Illustrator 28.7.1, SVG Export Plug-In . SVG Version: 1.2.0 Build 142)  -->
  <g>
    <g id="Layer_1">
      <g>
        <path class="cls-1" d="M369,65v309.9c0,6.9,5.6,12.5,12.5,12.5s12.5-5.6,12.5-12.5V117.5c0-22.1,17.9-40,40-40s40,17.9,40,40v257.4c0,6.9,5.6,12.5,12.5,12.5s12.5-5.6,12.5-12.5v-152.4c0-22.1,17.9-40,40-40s40,17.9,40,40v280c0,6.9,5.6,12.5,12.5,12.5s12.5-5.6,12.5-12.5V222.5c0-35.8-29.2-65-65-65s-28.9,6.1-40,15.1v-55c0-35.8-29.2-65-65-65s-28.9,6.1-40,15.1v-2.6c0-35.8-29.2-65-65-65s-65,29.2-65,65v2.6c-11.1-8.9-24.6-15.1-40-15.1-35.8,0-65,29.2-65,65v342.5l-31.5-107.9c-4.9-16.7-15.9-30.5-31.1-38.8-15.2-8.3-32.8-10.2-49.4-5.4-34.4,10-54.2,46.2-44.3,80.1l98.4,389.8c1.4,5.7,6.5,9.4,12.1,9.4s2,0,3-.4c6.7-1.7,10.8-8.5,9.1-15.2L26.7,381.4c-6.2-21.2,6-43.4,27.2-49.6,10.3-3,21-1.8,30.4,3.3,9.3,5.1,16.2,13.6,19.1,23.9l56,192c2,6.5,8.9,10.3,15.5,8.5,6.6-2,10.5-8.9,8.5-15.5l-.9-3.1c.4-1.2,1.4-2,1.4-3.3V117.5c0-22.1,17.9-40,40-40s40,17.9,40,40v259c0,6.9,5.6,12.5,12.5,12.5s12.5-5.6,12.5-12.5V65c0-22.1,17.9-40,40-40,22.1,0,40,17.9,40,40Z"/>
        <path class="cls-1" d="M503.7,655.1c-37,0-67.1,30.1-67.1,67s30.1,67.1,67.1,67.1,67-30.1,67-67.1-30.1-67-67-67ZM503.7,764.3c-23.2,0-42.1-18.9-42.1-42.1s18.9-42,42.1-42,42,18.8,42,42-18.8,42.1-42,42.1Z"/>
        <path class="cls-1" d="M636.9,742.3c1-6.6,1.5-13.4,1.5-20.1s-.5-13.4-1.5-20.1l24.5-27.6c3.6-4,4.2-9.9,1.5-14.5l-25.7-44.5c-2.7-4.6-7.8-7-13.4-6l-36.4,7.5c-10.5-8.4-22.1-15.1-34.5-20l-11.7-35.2c-1.7-5.1-6.5-8.5-11.9-8.5h-51.4c-5.4,0-10.2,3.5-11.9,8.5l-11.7,35.2c-12.5,4.9-24,11.6-34.5,20l-36.4-7.5c-5.2-1-10.6,1.4-13.3,6l-25.7,44.5c-2.7,4.6-2.1,10.5,1.5,14.5l24.5,27.7c-1,6.7-1.5,13.4-1.5,20s.5,13.3,1.5,20.1l-24.5,27.7c-3.6,4-4.2,9.9-1.5,14.5l25.7,44.5c2.7,4.6,7.9,6.8,13.3,6l36.3-7.4c10.5,8.4,22.1,15.1,34.6,20l11.7,35.2c1.7,5.1,6.5,8.5,11.9,8.5h51.4c5.4,0,10.2-3.5,11.9-8.5l11.7-35.2c12.5-4.9,24-11.6,34.6-20l36.4,7.4c5.2.8,10.6-1.4,13.3-6l25.7-44.5c2.7-4.6,2.1-10.5-1.5-14.5l-24.5-27.7ZM611.3,700.8c1.4,7,2.2,14.2,2.2,21.3s-.7,14.4-2.2,21.4c-.8,3.9.3,7.9,2.9,10.8l22.6,25.4-16.7,28.9-33.5-6.8c-3.9-.8-7.8.2-10.7,2.9-10.9,9.5-23.3,16.7-36.9,21.3-3.7,1.2-6.6,4.2-7.9,7.9l-10.8,32.3h-33.3l-10.8-32.3c-1.2-3.7-4.2-6.6-7.9-7.9-13.6-4.6-26-11.8-36.9-21.3-2.9-2.6-6.9-3.6-10.7-2.9l-33.5,6.8-16.7-28.9,22.5-25.4c2.6-2.9,3.7-6.9,2.9-10.7-1.4-7.2-2.2-14.5-2.2-21.5s.7-14.2,2.2-21.4c.7-3.8-.3-7.8-2.9-10.7l-22.5-25.4,16.7-28.9,33.4,6.9c4.1.6,7.9-.3,10.8-2.9,10.9-9.5,23.3-16.7,36.9-21.4,3.7-1.3,6.6-4.2,7.8-7.9l10.8-32.3h33.3l10.8,32.3c1.2,3.7,4.2,6.6,7.8,7.9,13.6,4.7,26,11.9,36.9,21.4,2.9,2.6,6.6,3.6,10.8,2.9l33.5-6.9,16.7,28.9-22.6,25.4c-2.6,2.9-3.6,6.9-2.9,10.8Z"/>
      </g>
    </g>
  </g>
</svg>