<?xml version="1.0" encoding="UTF-8"?>
<svg xmlns="http://www.w3.org/2000/svg" version="1.1" viewBox="0 0 22.357 25">
  <defs>
    <style>
      .cls-1 {
        fill: #222;
      }
    </style>
  </defs>
  <!-- Generator: Adobe Illustrator 28.7.1, SVG Export Plug-In . SVG Version: 1.2.0 Build 142)  -->
  <g>
    <g id="Layer_1">
      <g>
        <path class="cls-1" d="M22.21,22.061l-2.651-2.651c.631-.783,1.025-1.764,1.025-2.846,0-2.517-2.047-4.563-4.563-4.563s-4.563,2.047-4.563,4.563,2.047,4.562,4.563,4.562c1.074,0,2.049-.388,2.83-1.011l2.653,2.653c.098.098.226.146.354.146s.256-.049.354-.146c.195-.195.195-.512,0-.707ZM12.458,16.563c0-1.965,1.599-3.563,3.563-3.563s3.563,1.599,3.563,3.563-1.599,3.562-3.563,3.562-3.563-1.598-3.563-3.562Z"/>
        <path class="cls-1" d="M19.7,24H1V1h18.2v9.437c0,.276.224.5.5.5s.5-.224.5-.5V.5c0-.276-.224-.5-.5-.5H.5C.224,0,0,.224,0,.5v24c0,.276.224.5.5.5h19.2c.276,0,.5-.224.5-.5s-.224-.5-.5-.5Z"/>
        <path class="cls-1" d="M10.1,4.596h-5.884c-.069,0-.125.056-.125.125s.056.125.125.125h5.884c.069,0,.125-.056.125-.125s-.056-.125-.125-.125Z"/>
        <path class="cls-1" d="M10.1,6.501h-5.884c-.069,0-.125.056-.125.125s.056.125.125.125h5.884c.069,0,.125-.056.125-.125s-.056-.125-.125-.125Z"/>
        <path class="cls-1" d="M10.1,8.406h-5.884c-.069,0-.125.056-.125.125s.056.125.125.125h5.884c.069,0,.125-.056.125-.125s-.056-.125-.125-.125Z"/>
        <path class="cls-1" d="M10.225,10.437c0-.069-.056-.125-.125-.125h-5.884c-.069,0-.125.056-.125.125s.056.125.125.125h5.884c.069,0,.125-.056.125-.125Z"/>
        <rect class="cls-1" x="4.07" y="12.599" width="2.796" height="2.796"/>
      </g>
    </g>
  </g>
</svg>