<?xml version="1.0" encoding="utf-8"?>
<!-- Generator: Adobe Illustrator 27.2.0, SVG Export Plug-In . SVG Version: 6.00 Build 0)  -->
<svg version="1.1" id="Layer_1" xmlns="http://www.w3.org/2000/svg" xmlns:xlink="http://www.w3.org/1999/xlink" x="0px" y="0px"
	 viewBox="0 0 12.7 15" style="enable-background:new 0 0 12.7 15;" xml:space="preserve">
<path d="M12.7,2.4v10.3c0,0.1-0.1,0.2-0.2,0.2h-0.9c-0.1,0-0.2-0.1-0.2-0.2s0.1-0.2,0.2-0.2h0.7V2.5l-0.1-0.1h-1.8V0.6l-0.1-0.1H2.7
	v0.7c0,0.1-0.1,0.2-0.2,0.2S2.2,1.3,2.2,1.2V0.2C2.2,0.1,2.3,0,2.4,0h7.9c0.1,0,0.1,0,0.2,0.1l2.2,2.2C12.7,2.3,12.7,2.3,12.7,2.4z
	 M10.5,4.3c0,0,0.1,0.1,0.1,0.2v10.3c0,0.1-0.1,0.2-0.2,0.2h-10C0.1,15,0,14.9,0,14.8V2.3c0-0.1,0.1-0.2,0.2-0.2h7.9
	c0.1,0,0.1,0,0.2,0.1L10.5,4.3z M10,4.6L9.9,4.5H8.1V2.7L8,2.6H0.5v11.9H10V4.6z M8.1,6.5H2.4c-0.1,0-0.2,0.1-0.2,0.2S2.3,7,2.4,7
	h5.7c0.1,0,0.2-0.1,0.2-0.2S8.3,6.5,8.1,6.5z M8.1,8.3H2.4c-0.1,0-0.2,0.1-0.2,0.2s0.1,0.2,0.2,0.2h5.7c0.1,0,0.2-0.1,0.2-0.2
	S8.3,8.3,8.1,8.3z M5.3,10.1H2.4c-0.1,0-0.2,0.1-0.2,0.2s0.1,0.2,0.2,0.2h2.9c0.1,0,0.2-0.1,0.2-0.2S5.4,10.1,5.3,10.1z"/>
</svg>
