<?xml version="1.0" encoding="utf-8"?>
<!-- Generator: Adobe Illustrator 27.2.0, SVG Export Plug-In . SVG Version: 6.00 Build 0)  -->
<svg version="1.1" id="Layer_1" xmlns="http://www.w3.org/2000/svg" xmlns:xlink="http://www.w3.org/1999/xlink" x="0px" y="0px"
	 viewBox="0 0 12.689 15.042" style="enable-background:new 0 0 12.689 15.042;" xml:space="preserve">
<style type="text/css">
	.st0{fill:#1E88E3;}
</style>
<path class="st0" d="M12.689,2.413v10.281c0,0.138-0.112,0.25-0.25,0.25h-0.911c-0.138,0-0.25-0.112-0.25-0.25s0.112-0.25,0.25-0.25
	h0.661V2.517l-0.104-0.104h-1.81v-1.81L10.173,0.5H2.661v0.664c0,0.138-0.112,0.25-0.25,0.25s-0.25-0.112-0.25-0.25V0.25
	C2.161,0.112,2.273,0,2.411,0h7.865c0.066,0,0.13,0.026,0.177,0.073l2.163,2.163C12.663,2.283,12.689,2.347,12.689,2.413z
	 M10.456,4.334c0.047,0.047,0.073,0.11,0.073,0.177v10.281c0,0.138-0.112,0.25-0.25,0.25H0.25c-0.138,0-0.25-0.112-0.25-0.25V2.348
	c0-0.138,0.112-0.25,0.25-0.25h7.865c0.066,0,0.13,0.026,0.177,0.073L10.456,4.334z M10.029,4.614L9.926,4.511h-1.81v-1.81
	L8.012,2.598H0.5v11.944h9.529V4.614z M8.115,6.535H2.411c-0.138,0-0.25,0.112-0.25,0.25s0.112,0.25,0.25,0.25h5.704
	c0.138,0,0.25-0.112,0.25-0.25S8.253,6.535,8.115,6.535z M8.115,8.302H2.411c-0.138,0-0.25,0.112-0.25,0.25s0.112,0.25,0.25,0.25
	h5.704c0.138,0,0.25-0.112,0.25-0.25S8.253,8.302,8.115,8.302z M5.265,10.105H2.411c-0.138,0-0.25,0.112-0.25,0.25
	s0.112,0.25,0.25,0.25h2.854c0.138,0,0.25-0.112,0.25-0.25S5.403,10.105,5.265,10.105z"/>
</svg>
