<?xml version="1.0" encoding="utf-8"?>
<!-- Generator: Adobe Illustrator 25.2.1, SVG Export Plug-In . SVG Version: 6.00 Build 0)  -->
<svg version="1.1" id="Layer_1" xmlns="http://www.w3.org/2000/svg" xmlns:xlink="http://www.w3.org/1999/xlink" x="0px" y="0px"
	 viewBox="0 0 26.4 25.9" style="enable-background:new 0 0 26.4 25.9;" xml:space="preserve">
<style type="text/css">
	.st0{fill:#FFFFFF;}
	.st1{fill:#222222;}
	.st2{fill:#FF8B00;}
</style>
<g>
	<g>
		<path class="st0" d="M0.7,3.2v15.9c0,1.4,1.1,2.5,2.5,2.5h16c1.4,0,2.5-1.1,2.5-2.5V3.2c0-1.4-1.1-2.5-2.5-2.5h-16
			C1.9,0.7,0.7,1.9,0.7,3.2z"/>
		<path class="st1" d="M19.3,22.4h-16c-1.8,0-3.2-1.5-3.2-3.2V3.2C0,1.5,1.5,0,3.2,0h16c1.8,0,3.2,1.5,3.2,3.2v15.9
			C22.5,20.9,21.1,22.4,19.3,22.4z M3.2,1.5c-1,0-1.7,0.8-1.7,1.7v15.9c0,1,0.8,1.7,1.7,1.7h16c1,0,1.7-0.8,1.7-1.7V3.2
			c0-1-0.8-1.7-1.7-1.7H3.2z"/>
	</g>
	<g>
		<path class="st1" d="M16.1,8.1H6.4C6,8.1,5.6,7.8,5.6,7.3S6,6.6,6.4,6.6h9.7c0.4,0,0.8,0.3,0.8,0.8S16.5,8.1,16.1,8.1z"/>
		<path class="st1" d="M10.9,11.9H6.4c-0.4,0-0.8-0.3-0.8-0.8s0.3-0.8,0.8-0.8h4.5c0.4,0,0.8,0.3,0.8,0.8S11.3,11.9,10.9,11.9z"/>
	</g>
	<g>
		<path class="st0" d="M22,18.1c1.1-0.7,1.8-1.8,1.8-3.2c0-2.1-1.7-3.7-3.7-3.7s-3.7,1.7-3.7,3.7c0,1.3,0.7,2.5,1.8,3.2
			c-2.1,0.8-3.6,2.8-3.6,5.2c0,1,0.8,1.9,1.9,1.9h7.5c1,0,1.9-0.8,1.9-1.9C25.6,20.9,24.1,18.9,22,18.1z"/>
		<path class="st2" d="M23.7,25.9h-7.5c-1.4,0-2.6-1.2-2.6-2.6c0-2.2,1.2-4.3,3-5.4c-0.7-0.8-1.2-1.9-1.2-3c0-2.5,2-4.5,4.5-4.5
			c2.5,0,4.5,2,4.5,4.5c0,1.1-0.4,2.2-1.2,3c1.8,1.1,3,3.2,3,5.4C26.4,24.8,25.2,25.9,23.7,25.9z M20,11.9c-1.6,0-3,1.3-3,3
			c0,1,0.5,2,1.4,2.5c0.2,0.2,0.4,0.4,0.3,0.7s-0.2,0.5-0.5,0.6c-1.9,0.7-3.1,2.5-3.1,4.5c0,0.6,0.5,1.1,1.1,1.1h7.5
			c0.6,0,1.1-0.5,1.1-1.1c0-2-1.3-3.8-3.1-4.5c-0.3-0.1-0.5-0.3-0.5-0.6s0.1-0.6,0.3-0.7c0.9-0.6,1.4-1.5,1.4-2.5
			C23,13.3,21.7,11.9,20,11.9z"/>
	</g>
</g>
</svg>
