<?xml version="1.0" encoding="utf-8"?>
<!-- Generator: Adobe Illustrator 27.4.1, SVG Export Plug-In . SVG Version: 6.00 Build 0)  -->
<svg version="1.1" id="Layer_1" xmlns="http://www.w3.org/2000/svg" xmlns:xlink="http://www.w3.org/1999/xlink" x="0px" y="0px"
	 viewBox="0 0 15.921 14.816" style="enable-background:new 0 0 15.921 14.816;" xml:space="preserve">
<style type="text/css">
	.st0{fill:#FFCDC0;}
	.st1{fill:#FFFFFF;}
</style>
<g>
	<path class="st0" d="M14.718,14.816c-0.056,0-0.113-0.01-0.167-0.029l-3.008-1.067c-1.135,0.527-2.339,0.795-3.582,0.795
		c-4.39,0-7.96-3.256-7.96-7.258C0,3.256,3.571,0,7.96,0s7.961,3.256,7.961,7.257c0,1.43-0.461,2.809-1.335,4.004l0.621,2.953
		c0.037,0.177-0.024,0.36-0.16,0.479C14.954,14.773,14.837,14.816,14.718,14.816z"/>
</g>
<circle class="st1" cx="4.145" cy="7.47" r="1.198"/>
<circle class="st1" cx="7.96" cy="7.47" r="1.198"/>
<circle class="st1" cx="11.776" cy="7.47" r="1.198"/>
</svg>
