<?xml version="1.0" encoding="utf-8"?>
<!-- Generator: Adobe Illustrator 27.2.0, SVG Export Plug-In . SVG Version: 6.00 Build 0)  -->
<svg version="1.1" id="Layer_1" xmlns="http://www.w3.org/2000/svg" xmlns:xlink="http://www.w3.org/1999/xlink" x="0px" y="0px"
	 viewBox="0 0 14.034 13.38" style="enable-background:new 0 0 14.034 13.38;" xml:space="preserve">
<path d="M13.034,13.38H9.59c-0.551,0-1-0.449-1-1V9.512c0-0.868-0.706-1.573-1.573-1.573S5.444,8.644,5.444,9.512v2.868
	c0,0.551-0.449,1-1,1H1c-0.551,0-1-0.449-1-1V5.69c0-0.311,0.141-0.598,0.386-0.789l6.017-4.689c0.361-0.283,0.867-0.282,1.229,0
	l6.017,4.688c0.245,0.191,0.385,0.479,0.385,0.789v6.69C14.034,12.932,13.585,13.38,13.034,13.38z M7.017,6.939
	c1.419,0,2.573,1.154,2.573,2.573v2.868h3.444V5.69L7.017,1.001L1,5.69v6.69h3.444V9.512C4.444,8.093,5.598,6.939,7.017,6.939z"/>
</svg>
