<?xml version="1.0" encoding="utf-8"?>
<!-- Generator: Adobe Illustrator 28.3.0, SVG Export Plug-In . SVG Version: 6.00 Build 0)  -->
<svg version="1.1" id="Layer_1" xmlns="http://www.w3.org/2000/svg" xmlns:xlink="http://www.w3.org/1999/xlink" x="0px" y="0px"
	 viewBox="0 0 32.679 29.455" style="enable-background:new 0 0 32.679 29.455;" xml:space="preserve">
<style type="text/css">
	.st0{fill:#D5D5D5;}
	.st1{fill:#0E5CE9;}
	.st2{fill:#FFFFFF;}
</style>
<g>
	<path class="st0" d="M15.562,22.026c0-2.482,1.02-4.729,2.66-6.349c-0.718-0.469-1.489-0.865-2.304-1.171
		c2.226-1.387,3.719-3.837,3.719-6.652C19.637,3.517,16.12,0,11.782,0S3.927,3.517,3.927,7.855c0,2.815,1.493,5.265,3.719,6.652
		C3.182,16.183,0,20.478,0,25.528c0,2.169,1.758,3.927,3.927,3.927h15.619C17.147,27.853,15.562,25.122,15.562,22.026z"/>
	<path class="st1" d="M25.249,14.597c-4.097,0-7.429,3.333-7.429,7.429s3.333,7.429,7.429,7.429s7.429-3.333,7.429-7.429
		S29.346,14.597,25.249,14.597z"/>
	<path class="st2" d="M26.005,22.305c0,0.098-0.02,0.195-0.058,0.287c-0.038,0.092-0.093,0.175-0.162,0.244l-2.233,2.062
		c-0.146,0.146-0.338,0.22-0.53,0.22s-0.384-0.073-0.53-0.22c-0.293-0.293-0.293-0.768,0-1.061l2.013-1.842l-0.005-3.611
		c0-0.414,0.336-0.75,0.75-0.75s0.75,0.336,0.75,0.75L26.005,22.305z"/>
</g>
</svg>
