<?xml version="1.0" encoding="utf-8"?>
<!-- Generator: Adobe Illustrator 27.2.0, SVG Export Plug-In . SVG Version: 6.00 Build 0)  -->
<svg version="1.1" id="Layer_1" xmlns="http://www.w3.org/2000/svg" xmlns:xlink="http://www.w3.org/1999/xlink" x="0px" y="0px"
	 viewBox="0 0 10.398 7.743" style="enable-background:new 0 0 10.398 7.743;" xml:space="preserve">
<path d="M10.398,3.872c0,0.414-0.336,0.75-0.75,0.75H2.56L4.4,6.462c0.293,0.293,0.293,0.768,0,1.061
	c-0.146,0.146-0.338,0.22-0.53,0.22s-0.384-0.073-0.53-0.22L0.219,4.402C0.15,4.333,0.095,4.25,0.057,4.158
	c-0.076-0.183-0.076-0.39,0-0.573C0.095,3.493,0.15,3.41,0.219,3.341L3.34,0.22c0.293-0.293,0.768-0.293,1.061,0
	s0.293,0.768,0,1.061L2.559,3.122h7.089C10.062,3.122,10.398,3.458,10.398,3.872z"/>
</svg>
