<?xml version="1.0" encoding="UTF-8"?>
<svg xmlns="http://www.w3.org/2000/svg" version="1.1" viewBox="0 0 13.377 8.094">
  <!-- Generator: Adobe Illustrator 28.7.0, SVG Export Plug-In . SVG Version: 1.2.0 Build 136)  -->
  <g>
    <g id="Layer_1">
      <g>
        <path d="M6.685,6.683c-1.471,0-2.668-1.197-2.668-2.668s1.197-2.668,2.668-2.668,2.668,1.197,2.668,2.668-1.197,2.668-2.668,2.668ZM6.685,2.146c-1.03,0-1.868.838-1.868,1.868s.838,1.868,1.868,1.868,1.868-.838,1.868-1.868-.838-1.868-1.868-1.868Z"/>
        <path d="M6.685,8.094c-3.348,0-5.414-1.955-6.347-3.119-.454-.568-.451-1.356.008-1.917H.347C1.279,1.915,3.343,0,6.685,0c3.365,0,5.433,1.936,6.367,3.09.431.534.434,1.312.008,1.849-.933,1.178-3.001,3.154-6.375,3.154ZM6.685.8C3.673.8,1.809,2.531.966,3.563h0c-.218.267-.219.642-.003.911.843,1.053,2.709,2.819,5.723,2.819,3.037,0,4.905-1.786,5.748-2.851.195-.247.194-.604-.004-.85-.843-1.042-2.711-2.793-5.744-2.793ZM.656,3.31h.01-.01Z"/>
      </g>
    </g>
  </g>
</svg>