<?xml version="1.0" encoding="utf-8"?>
<!-- Generator: Adobe Illustrator 27.9.4, SVG Export Plug-In . SVG Version: 9.03 Build 54784)  -->
<svg version="1.1" id="Layer_1" xmlns="http://www.w3.org/2000/svg" xmlns:xlink="http://www.w3.org/1999/xlink" x="0px" y="0px"
	 viewBox="0 0 51.557 54.028" style="enable-background:new 0 0 51.557 54.028;" xml:space="preserve">
<style type="text/css">
	.st0{fill:#FFFFFF;}
	.st1{fill:#48E596;}
	.st2{fill:#222222;}
	.st3{fill:url(#SVGID_1_);}
	.st4{fill:#25B5FE;}
	.st5{display:none;fill:#FFFFFF;}
	.st6{display:none;fill:#48E596;}
</style>
<g>
	<path class="st0" d="M25.649,51.245h-0.026c-0.328,0-0.654-0.006-0.979-0.019l0.02-0.5c0.318,0.013,0.639,0.019,0.96,0.019
		L25.649,51.245z M26.655,51.227l-0.021-0.5c0.329-0.014,0.657-0.032,0.984-0.059l0.039,0.498
		C27.325,51.192,26.991,51.213,26.655,51.227z M23.64,51.169c-0.335-0.025-0.669-0.058-1.001-0.097l0.058-0.496
		c0.325,0.037,0.653,0.069,0.981,0.095L23.64,51.169z M28.659,51.067l-0.059-0.496c0.327-0.039,0.652-0.084,0.977-0.136l0.078,0.494
		C29.325,50.981,28.992,51.028,28.659,51.067z M21.642,50.938c-0.332-0.053-0.662-0.11-0.989-0.175l0.096-0.49
		c0.321,0.062,0.646,0.12,0.972,0.171L21.642,50.938z M30.646,50.752l-0.098-0.49c0.323-0.063,0.645-0.135,0.963-0.211l0.117,0.486
		C31.302,50.615,30.975,50.687,30.646,50.752z M19.669,50.55c-0.327-0.078-0.651-0.162-0.974-0.253l0.136-0.48
		c0.315,0.089,0.633,0.171,0.954,0.247L19.669,50.55z M32.602,50.283l-0.137-0.48c0.317-0.09,0.632-0.186,0.943-0.287l0.154,0.475
		C33.245,50.094,32.925,50.191,32.602,50.283z M17.733,50.008c-0.321-0.104-0.639-0.214-0.954-0.33l0.173-0.469
		c0.309,0.114,0.62,0.221,0.934,0.322L17.733,50.008z M34.513,49.66l-0.172-0.469c0.307-0.113,0.612-0.233,0.914-0.358l0.191,0.461
		C35.139,49.423,34.827,49.545,34.513,49.66z M15.841,49.312c-0.312-0.129-0.619-0.263-0.924-0.404l0.21-0.453
		c0.298,0.138,0.6,0.27,0.905,0.395L15.841,49.312z M36.365,48.891l-0.211-0.453c0.298-0.139,0.594-0.281,0.886-0.431l0.227,0.445
		C36.969,48.604,36.669,48.75,36.365,48.891z M14.01,48.469c-0.299-0.152-0.596-0.312-0.888-0.474l0.243-0.438
		c0.287,0.16,0.578,0.315,0.872,0.466L14.01,48.469z M38.151,47.979l-0.246-0.436c0.287-0.161,0.57-0.328,0.85-0.499l0.262,0.426
		C38.731,47.645,38.442,47.813,38.151,47.979z M12.253,47.484c-0.287-0.176-0.569-0.356-0.848-0.543l0.278-0.416
		c0.273,0.183,0.55,0.36,0.831,0.533L12.253,47.484z M39.862,46.928l-0.277-0.416c0.273-0.183,0.542-0.37,0.807-0.563l0.295,0.404
		C40.416,46.55,40.142,46.741,39.862,46.928z M10.579,46.367c-0.271-0.197-0.54-0.399-0.803-0.607l0.31-0.393
		c0.258,0.204,0.521,0.402,0.787,0.596L10.579,46.367z M41.487,45.744l-0.311-0.393c0.258-0.203,0.512-0.412,0.761-0.625
		l0.326,0.379C42.009,45.324,41.749,45.537,41.487,45.744z M8.999,45.122c-0.254-0.218-0.505-0.441-0.752-0.668l0.339-0.367
		c0.242,0.222,0.488,0.44,0.738,0.654L8.999,45.122z M43.015,44.438l-0.34-0.367c0.242-0.224,0.479-0.451,0.711-0.684l0.354,0.354
		C43.503,43.978,43.261,44.211,43.015,44.438z M7.521,43.757c-0.237-0.236-0.47-0.478-0.697-0.724l0.366-0.34
		c0.224,0.24,0.452,0.478,0.685,0.71L7.521,43.757z M44.437,43.018l-0.367-0.34c0.224-0.241,0.442-0.487,0.656-0.737l0.379,0.326
		C44.887,42.521,44.664,42.771,44.437,43.018z M6.155,42.283c-0.218-0.255-0.431-0.514-0.639-0.776l0.393-0.311
		c0.204,0.259,0.413,0.512,0.626,0.761L6.155,42.283z M45.742,41.49L45.35,41.18c0.204-0.258,0.403-0.52,0.597-0.786l0.404,0.295
		C46.153,40.959,45.95,41.227,45.742,41.49z M4.908,40.707c-0.197-0.271-0.389-0.545-0.576-0.823l0.415-0.279
		c0.184,0.274,0.372,0.543,0.565,0.808L4.908,40.707z M46.927,39.862l-0.416-0.277c0.184-0.275,0.362-0.552,0.534-0.832l0.426,0.262
		C47.295,39.301,47.114,39.583,46.927,39.862z M3.789,39.038c-0.175-0.285-0.346-0.573-0.51-0.864l0.436-0.246
		c0.161,0.287,0.328,0.569,0.5,0.849L3.789,39.038z M47.981,38.146l-0.436-0.244c0.16-0.287,0.315-0.577,0.466-0.871l0.445,0.227
		C48.305,37.558,48.146,37.854,47.981,38.146z M2.804,37.29c-0.152-0.297-0.298-0.598-0.44-0.901l0.453-0.211
		c0.139,0.298,0.282,0.593,0.432,0.884L2.804,37.29z M48.898,36.353l-0.455-0.209c0.138-0.3,0.271-0.602,0.397-0.906l0.461,0.191
		C49.173,35.739,49.038,36.047,48.898,36.353z M1.96,35.469c-0.128-0.308-0.25-0.618-0.367-0.933l0.469-0.174
		c0.115,0.309,0.234,0.613,0.36,0.915L1.96,35.469z M49.669,34.491L49.2,34.317c0.114-0.309,0.222-0.62,0.323-0.935L50,33.537
		C49.896,33.857,49.785,34.175,49.669,34.491z M1.262,33.587c-0.104-0.318-0.202-0.639-0.293-0.962l0.481-0.137
		c0.09,0.317,0.186,0.632,0.288,0.942L1.262,33.587z M50.289,32.574l-0.48-0.135c0.089-0.316,0.172-0.635,0.248-0.954l0.486,0.115
		C50.465,31.928,50.38,32.252,50.289,32.574z M0.714,31.652C0.636,31.327,0.563,31,0.498,30.67l0.49-0.098
		c0.065,0.322,0.135,0.644,0.212,0.963L0.714,31.652z M50.758,30.619l-0.49-0.098c0.063-0.321,0.121-0.646,0.172-0.972l0.494,0.078
		C50.881,29.96,50.823,30.29,50.758,30.619z M0.32,29.68c-0.052-0.33-0.099-0.662-0.138-0.996l0.496-0.059
		c0.04,0.326,0.085,0.652,0.136,0.977L0.32,29.68z M51.069,28.632l-0.496-0.059c0.038-0.325,0.07-0.651,0.096-0.98l0.498,0.038
		C51.142,27.967,51.109,28.301,51.069,28.632z M0.082,27.684c-0.027-0.333-0.047-0.668-0.061-1.004l0.5-0.02
		c0.013,0.33,0.033,0.658,0.059,0.984L0.082,27.684z M51.226,26.628l-0.5-0.02c0.013-0.327,0.02-0.656,0.02-0.986l-0.001-0.105h0.5
		l0.001,0.098C51.245,25.959,51.238,26.294,51.226,26.628z M0.158,25.658L0,25.63c0-0.326,0.006-0.644,0.017-0.959l0.5,0.018
		C0.506,24.998,0.5,25.31,0.5,25.623L0.158,25.658z M50.723,24.533c-0.015-0.33-0.034-0.658-0.062-0.984l0.498-0.041
		c0.027,0.333,0.049,0.667,0.063,1.004L50.723,24.533z M0.572,23.704l-0.499-0.037c0.025-0.335,0.057-0.669,0.095-1.001l0.497,0.058
		C0.627,23.048,0.597,23.375,0.572,23.704z M50.562,22.568c-0.04-0.328-0.086-0.653-0.139-0.976l0.494-0.08
		c0.053,0.33,0.101,0.662,0.141,0.997L50.562,22.568z M0.797,21.745l-0.494-0.076c0.051-0.333,0.109-0.663,0.174-0.991l0.49,0.097
		C0.904,21.096,0.848,21.419,0.797,21.745z M50.247,20.622c-0.065-0.323-0.138-0.644-0.215-0.963l0.486-0.118
		c0.079,0.325,0.151,0.652,0.219,0.981L50.247,20.622z M1.176,19.811l-0.486-0.115c0.077-0.327,0.161-0.651,0.251-0.974l0.481,0.134
		C1.334,19.172,1.252,19.49,1.176,19.811z M49.782,18.707c-0.091-0.317-0.188-0.631-0.29-0.943l0.475-0.156
		c0.104,0.317,0.203,0.638,0.296,0.961L49.782,18.707z M1.705,17.912l-0.476-0.153c0.103-0.32,0.212-0.639,0.328-0.954l0.47,0.172
		C1.914,17.286,1.806,17.598,1.705,17.912z M49.163,16.833c-0.114-0.308-0.234-0.612-0.361-0.914l0.461-0.193
		c0.129,0.308,0.253,0.619,0.369,0.933L49.163,16.833z M2.386,16.056l-0.462-0.19c0.128-0.311,0.262-0.62,0.402-0.924L2.78,15.15
		C2.643,15.449,2.512,15.75,2.386,16.056z M48.406,15.021c-0.14-0.298-0.283-0.593-0.434-0.884l0.445-0.229
		c0.152,0.296,0.3,0.597,0.441,0.901L48.406,15.021z M3.21,14.26l-0.445-0.227c0.152-0.3,0.31-0.596,0.474-0.889l0.437,0.244
		C3.514,13.676,3.359,13.966,3.21,14.26z M47.504,13.272c-0.162-0.287-0.33-0.569-0.502-0.848l0.426-0.263
		c0.176,0.284,0.346,0.572,0.512,0.864L47.504,13.272z M4.173,12.537l-0.427-0.261c0.175-0.287,0.355-0.57,0.542-0.849l0.416,0.277
		C4.521,11.979,4.344,12.256,4.173,12.537z M46.469,11.597c-0.184-0.272-0.372-0.541-0.566-0.806l0.402-0.296
		c0.198,0.271,0.391,0.544,0.578,0.822L46.469,11.597z M5.268,10.894l-0.405-0.293c0.197-0.272,0.399-0.54,0.607-0.804l0.393,0.31
		C5.659,10.365,5.46,10.628,5.268,10.894z M45.304,10.007c-0.204-0.257-0.413-0.511-0.627-0.76l0.379-0.325
		c0.218,0.254,0.433,0.512,0.641,0.774L45.304,10.007z M6.487,9.344L6.106,9.02c0.217-0.255,0.44-0.506,0.667-0.753l0.368,0.339
		C6.918,8.848,6.701,9.094,6.487,9.344z M44.021,8.514c-0.225-0.241-0.453-0.477-0.686-0.709l0.352-0.354
		c0.238,0.236,0.471,0.477,0.699,0.723L44.021,8.514z M7.823,7.893L7.469,7.54c0.237-0.238,0.478-0.471,0.723-0.699l0.341,0.366
		C8.292,7.432,8.055,7.66,7.823,7.893z M42.622,7.123c-0.243-0.223-0.489-0.44-0.74-0.653l0.324-0.381
		c0.255,0.217,0.507,0.438,0.754,0.666L42.622,7.123z M9.268,6.552l-0.325-0.38c0.254-0.218,0.512-0.431,0.775-0.639l0.311,0.392
		C9.77,6.129,9.517,6.338,9.268,6.552z M41.118,5.846c-0.259-0.204-0.521-0.401-0.788-0.594l0.293-0.405
		c0.272,0.197,0.541,0.399,0.804,0.606L41.118,5.846z M10.812,5.328l-0.295-0.403c0.27-0.198,0.544-0.39,0.822-0.578l0.279,0.415
		C11.346,4.945,11.077,5.134,10.812,5.328z M39.518,4.689c-0.273-0.182-0.551-0.358-0.832-0.53l0.26-0.427
		c0.287,0.175,0.57,0.355,0.85,0.541L39.518,4.689z M12.446,4.229l-0.263-0.426c0.285-0.175,0.573-0.345,0.864-0.51l0.246,0.435
		C13.008,3.889,12.725,4.056,12.446,4.229z M37.833,3.662c-0.287-0.16-0.578-0.314-0.872-0.463l0.227-0.446
		c0.3,0.152,0.597,0.31,0.89,0.473L37.833,3.662z M14.16,3.261l-0.229-0.444c0.297-0.153,0.598-0.3,0.902-0.441l0.211,0.453
		C14.746,2.967,14.452,3.111,14.16,3.261z M36.071,2.769c-0.299-0.137-0.601-0.268-0.906-0.393l0.189-0.463
		c0.312,0.128,0.621,0.262,0.926,0.402L36.071,2.769z M15.944,2.432L15.75,1.971c0.308-0.129,0.619-0.251,0.933-0.369l0.175,0.469
		C16.55,2.186,16.245,2.306,15.944,2.432z M34.246,2.018c-0.311-0.113-0.622-0.22-0.937-0.321l0.152-0.476
		c0.32,0.103,0.638,0.212,0.954,0.327L34.246,2.018z M17.788,1.746L17.633,1.27c0.318-0.104,0.638-0.202,0.962-0.294l0.137,0.48
		C18.415,1.547,18.1,1.644,17.788,1.746z M32.364,1.415c-0.315-0.088-0.634-0.169-0.955-0.245l0.115-0.486
		c0.327,0.077,0.651,0.16,0.975,0.25L32.364,1.415z M19.685,1.207L19.566,0.72c0.325-0.079,0.653-0.151,0.982-0.217l0.099,0.49
		C20.324,1.058,20.003,1.129,19.685,1.207z M30.445,0.963C30.124,0.9,29.8,0.844,29.474,0.793l0.076-0.494
		c0.332,0.051,0.662,0.109,0.991,0.172L30.445,0.963z M21.617,0.818l-0.079-0.494c0.33-0.053,0.662-0.099,0.996-0.14l0.061,0.496
		C22.266,0.72,21.94,0.766,21.617,0.818z M28.497,0.663c-0.326-0.037-0.653-0.068-0.982-0.092l0.037-0.499
		c0.335,0.025,0.668,0.057,1.002,0.094L28.497,0.663z M23.575,0.582l-0.04-0.498c0.333-0.027,0.667-0.047,1.004-0.062l0.021,0.5
		C24.229,0.536,23.901,0.556,23.575,0.582z M26.53,0.516C26.229,0.505,25.927,0.5,25.623,0.5h-0.079V0h0.079
		c0.31,0,0.619,0.005,0.925,0.016L26.53,0.516z"/>
	<circle class="st1" cx="45.416" cy="47.886" r="6.141"/>
	<path class="st0" d="M46.188,48.409c-0.025-0.132-0.049-0.263-0.074-0.395c0.634-0.282,1.078-0.915,1.078-1.653
		c0-1-0.811-1.811-1.811-1.811c-1,0-1.811,0.811-1.811,1.811c0,0.739,0.444,1.372,1.078,1.653c-0.025,0.136-0.051,0.272-0.076,0.408
		c-1.024,0.209-1.841,0.788-2.177,1.533c-0.151,0.336,0.087,0.719,0.455,0.719h5.132c0.37,0,0.606-0.385,0.453-0.722
		C48.091,49.192,47.244,48.605,46.188,48.409z"/>
	<g>
		<circle class="st0" cx="25.623" cy="25.622" r="19.793"/>
		<g>
			<path class="st2" d="M24.132,26.539c-0.056-0.297-0.111-0.595-0.166-0.892c2.21-0.982,3.396-3.852,1.456-6.574
				c-0.072-0.101-0.166-0.196-0.267-0.268c-3.333-2.388-6.936-0.061-6.936,3.108c0,1.668,1.002,3.098,2.434,3.734
				c-0.057,0.307-0.115,0.615-0.172,0.922c-2.445,0.5-4.37,1.934-5.037,3.757c-0.236,0.646,0.264,1.329,0.952,1.329l11.984,0
				c0.69,0,1.188-0.687,0.95-1.335C28.647,28.461,26.652,27.007,24.132,26.539z"/>
			<linearGradient id="SVGID_1_" gradientUnits="userSpaceOnUse" x1="27.4066" y1="20.6062" x2="35.4645" y2="30.867">
				<stop  offset="0" style="stop-color:#25B5FE"/>
				<stop  offset="0.5" style="stop-color:#2EDDEE"/>
				<stop  offset="1" style="stop-color:#48E596"/>
			</linearGradient>
			<path class="st3" d="M30.6,26.539c-0.056-0.297-0.111-0.595-0.166-0.892c2.219-0.986,3.405-3.875,1.433-6.606
				c-0.032-0.045-0.075-0.088-0.119-0.122c-1.933-1.46-3.847-1.32-5.211-0.408c-0.207,0.138-0.231,0.423-0.093,0.629
				c0.534,0.793,0.847,1.747,0.847,2.773c0,1.166-0.413,2.267-1.124,3.139c0.288,0.239,0.608,0.441,0.954,0.595
				c-0.057,0.307-0.115,0.615-0.172,0.922c-0.008,0.002-0.015,0.005-0.023,0.006c1.952,1.024,3.282,2.673,3.513,4.563
				c0.021,0.175,0.004,0.351-0.047,0.517l5.164,0c0.267,0,0.493-0.23,0.455-0.494C35.688,28.907,33.489,27.075,30.6,26.539z"/>
		</g>
	</g>
	<g>
		<circle class="st4" cx="7.814" cy="8.526" r="7.721"/>
	</g>
	<path class="st0" d="M8.784,9.184C8.753,9.018,8.722,8.853,8.692,8.687C9.64,8.266,10.25,7.22,9.984,6.068
		C9.801,5.274,9.166,4.615,8.377,4.41C6.858,4.017,5.493,5.154,5.493,6.609c0,0.929,0.558,1.724,1.355,2.079
		C6.816,8.858,6.784,9.029,6.752,9.2c-1.351,0.276-2.417,1.065-2.795,2.069c-0.14,0.371,0.176,0.762,0.572,0.762l6.558,0
		c0.425,0,0.719-0.433,0.558-0.826C11.238,10.21,10.149,9.437,8.784,9.184z"/>
	<circle class="st5" cx="45.416" cy="47.369" r="5.31"/>
	<path class="st6" d="M46.083,47.821c-0.021-0.114-0.042-0.228-0.064-0.342c0.548-0.244,0.932-0.791,0.932-1.429
		c0-0.865-0.701-1.566-1.566-1.566c-0.865,0-1.566,0.701-1.566,1.566c0,0.639,0.384,1.186,0.932,1.429
		c-0.022,0.118-0.044,0.235-0.066,0.353c-1.089,0.223-1.908,0.929-2.013,1.791c-0.01,0.084,0.061,0.156,0.146,0.156h5.196
		c0.085,0,0.156-0.072,0.146-0.156C48.052,48.745,47.203,48.029,46.083,47.821z"/>
</g>
</svg>
