<?xml version="1.0" encoding="utf-8"?>
<!-- Generator: Adobe Illustrator 25.2.1, SVG Export Plug-In . SVG Version: 6.00 Build 0)  -->
<svg version="1.1" id="Layer_1" xmlns="http://www.w3.org/2000/svg" xmlns:xlink="http://www.w3.org/1999/xlink" x="0px" y="0px"
	 viewBox="0 0 22.5 22.4" style="enable-background:new 0 0 22.5 22.4;" xml:space="preserve">
<style type="text/css">
	.st0{fill:#FFFFFF;}
	.st1{fill:#222222;}
	.st2{fill:#FF8B00;}
</style>
<g>
	<g>
		<path class="st0" d="M0.7,3.2v15.9c0,1.4,1.1,2.5,2.5,2.5h16c1.4,0,2.5-1.1,2.5-2.5V3.2c0-1.4-1.1-2.5-2.5-2.5h-16
			C1.9,0.8,0.7,1.9,0.7,3.2z"/>
		<path class="st1" d="M19.3,22.4h-16c-1.8,0-3.2-1.5-3.2-3.2V3.2C0,1.5,1.5,0,3.2,0h16c1.8,0,3.2,1.5,3.2,3.2v15.9
			C22.5,20.9,21.1,22.4,19.3,22.4z M3.2,1.5c-1,0-1.7,0.8-1.7,1.7v15.9c0,1,0.8,1.7,1.7,1.7h16c1,0,1.7-0.8,1.7-1.7V3.2
			c0-1-0.8-1.7-1.7-1.7H3.2z"/>
	</g>
	<g>
		<path class="st1" d="M16.1,8.1H6.4C6,8.1,5.6,7.8,5.6,7.3S6,6.6,6.4,6.6h9.7c0.4,0,0.8,0.3,0.8,0.8S16.5,8.1,16.1,8.1z"/>
		<path class="st1" d="M10.9,11.9H6.4c-0.4,0-0.8-0.3-0.8-0.8c0-0.4,0.3-0.8,0.8-0.8h4.5c0.4,0,0.8,0.3,0.8,0.8
			C11.7,11.6,11.3,11.9,10.9,11.9z"/>
	</g>
	<circle class="st2" cx="15.8" cy="15.6" r="1.8"/>
</g>
</svg>
