<?xml version="1.0" encoding="utf-8"?>
<!-- Generator: Adobe Illustrator 25.2.1, SVG Export Plug-In . SVG Version: 6.00 Build 0)  -->
<svg version="1.1" id="Layer_1" xmlns="http://www.w3.org/2000/svg" xmlns:xlink="http://www.w3.org/1999/xlink" x="0px" y="0px"
	 viewBox="0 0 29.7 23" style="enable-background:new 0 0 29.7 23;" xml:space="preserve">
<style type="text/css">
	.st0{fill:#FFFFFF;}
	.st1{fill:#222222;}
	.st2{opacity:0.5;fill:#222222;}
	.st3{fill:#FF8B00;}
</style>
<g>
	<g>
		<path class="st0" d="M3.9,10.3l3-8.1c0.4-0.9,1.3-1.4,2.3-1.4h11.4c1,0,1.9,0.5,2.3,1.4l3,8.1H3.9z"/>
		<path class="st1" d="M25.9,11.1h-22c-0.3,0-0.5-0.1-0.6-0.3c-0.1-0.2-0.2-0.5-0.1-0.7l3-8.1C6.8,0.7,7.9,0,9.2,0h11.4
			c1.3,0,2.4,0.7,3,1.8l3.1,8.2c0.1,0.2,0.1,0.5-0.1,0.7C26.4,11,26.2,11.1,25.9,11.1z M5,9.6h19.8l-2.6-7.1
			c-0.3-0.5-0.9-0.9-1.6-0.9H9.2c-0.7,0-1.3,0.4-1.6,1L5,9.6z"/>
	</g>
	<path class="st2" d="M14.9,11.1c-0.4,0-0.8-0.3-0.8-0.8V0.8c0-0.4,0.3-0.8,0.8-0.8s0.8,0.3,0.8,0.8v9.6
		C15.6,10.8,15.3,11.1,14.9,11.1z"/>
	<g>
		<path class="st0" d="M29,18.7H0.8v-5.9c0-1.4,1.1-2.5,2.5-2.5h23.2c1.4,0,2.5,1.1,2.5,2.5V18.7z"/>
		<path class="st1" d="M29,19.5H0.8c-0.4,0-0.8-0.3-0.8-0.8v-5.8c0-1.8,1.5-3.3,3.3-3.3h23c1.8,0,3.3,1.5,3.3,3.3v5.8
			C29.7,19.2,29.4,19.5,29,19.5z M1.5,18h26.6v-5.1c0-1-0.8-1.8-1.8-1.8h-23c-1,0-1.8,0.8-1.8,1.8V18z"/>
	</g>
	<g>
		<circle class="st0" cx="8" cy="18.8" r="3.4"/>
		<path class="st3" d="M8,23c-2.3,0-4.2-1.9-4.2-4.2s1.9-4.2,4.2-4.2s4.2,1.9,4.2,4.2S10.3,23,8,23z M8,16.2c-1.4,0-2.6,1.2-2.6,2.6
			c0,1.4,1.2,2.6,2.6,2.6s2.6-1.2,2.6-2.6C10.6,17.4,9.4,16.2,8,16.2z"/>
	</g>
	<g>
		<circle class="st0" cx="21.5" cy="18.8" r="3.4"/>
		<path class="st3" d="M21.5,23c-2.3,0-4.2-1.9-4.2-4.2s1.9-4.2,4.2-4.2s4.2,1.9,4.2,4.2S23.8,23,21.5,23z M21.5,16.2
			c-1.4,0-2.6,1.2-2.6,2.6c0,1.4,1.2,2.6,2.6,2.6c1.4,0,2.6-1.2,2.6-2.6C24.1,17.4,22.9,16.2,21.5,16.2z"/>
	</g>
</g>
</svg>
