<?xml version="1.0" encoding="utf-8"?>
<!-- Generator: Adobe Illustrator 27.1.1, SVG Export Plug-In . SVG Version: 6.00 Build 0)  -->
<svg version="1.1" id="Layer_1" xmlns="http://www.w3.org/2000/svg" xmlns:xlink="http://www.w3.org/1999/xlink" x="0px" y="0px"
	 viewBox="0 0 83.823 69.937" style="enable-background:new 0 0 83.823 69.937;" xml:space="preserve">
<style type="text/css">
	.st0{fill:#666666;}
	.st1{fill:#FFFFFF;}
	.st2{fill:#999999;}
	.st3{opacity:0.2;}
	.st4{fill:#00BE64;}
</style>
<g>
	<polygon class="st0" points="7.8,52.981 5.3,52.981 5.3,0 60.711,0 60.711,2.5 7.8,2.5 	"/>
	<g>
		<g>
			<path class="st1" d="M35.412,56.642v-0.898h28.736V9.658h-49.19v46.984c0,5.426,3.314,10.076,8.031,12.045h4.393
				C32.098,66.719,35.412,62.068,35.412,56.642z"/>
			<path class="st0" d="M27.382,69.937h-4.393c-0.165,0-0.329-0.033-0.481-0.096c-5.346-2.23-8.8-7.411-8.8-13.198V9.658
				c0-0.69,0.56-1.25,1.25-1.25h49.19c0.69,0,1.25,0.56,1.25,1.25v46.085c0,0.69-0.56,1.25-1.25,1.25h-27.49
				c-0.137,5.645-3.559,10.661-8.795,12.847C27.711,69.904,27.547,69.937,27.382,69.937z M23.246,67.437h3.879
				c4.283-1.891,7.037-6.101,7.037-10.794v-0.898c0-0.69,0.56-1.25,1.25-1.25h27.486V10.908h-46.69v45.734
				C16.208,61.336,18.962,65.546,23.246,67.437z"/>
		</g>
		<g>
			<path class="st1" d="M35.412,55.744v0.898c0,5.426-3.314,10.076-8.031,12.045h37.645c4.716-1.968,8.03-6.618,8.03-12.045v-0.898
				H35.412z"/>
			<path class="st2" d="M65.027,69.937H27.382c-0.596,0-1.108-0.42-1.226-1.004c-0.117-0.584,0.194-1.17,0.744-1.399
				c4.411-1.84,7.262-6.115,7.262-10.891v-0.898c0-0.69,0.56-1.25,1.25-1.25h37.646c0.69,0,1.25,0.56,1.25,1.25v0.898
				c0,5.787-3.454,10.968-8.799,13.198C65.356,69.904,65.192,69.937,65.027,69.937z M31.746,67.437H64.77
				c4.176-1.843,6.898-5.892,7.032-10.443H36.658C36.559,61.084,34.735,64.844,31.746,67.437z"/>
		</g>
		<g class="st3">
			<path class="st4" d="M35.412,55.744v0.898c0,5.426-3.314,10.076-8.031,12.045h37.645c4.716-1.968,8.03-6.618,8.03-12.045v-0.898
				H35.412z"/>
			<path class="st0" d="M65.027,69.937H27.382c-0.596,0-1.108-0.42-1.226-1.004c-0.117-0.584,0.194-1.17,0.744-1.399
				c4.411-1.84,7.262-6.115,7.262-10.891v-0.898c0-0.69,0.56-1.25,1.25-1.25h37.646c0.69,0,1.25,0.56,1.25,1.25v0.898
				c0,5.787-3.454,10.968-8.799,13.198C65.356,69.904,65.192,69.937,65.027,69.937z M31.746,67.437H64.77
				c4.176-1.843,6.898-5.892,7.032-10.443H36.658C36.559,61.084,34.735,64.844,31.746,67.437z"/>
		</g>
		<path class="st0" d="M65.027,69.937H27.382c-0.596,0-1.108-0.42-1.226-1.004c-0.117-0.584,0.194-1.17,0.744-1.399
			c4.411-1.84,7.262-6.115,7.262-10.891v-0.898c0-0.69,0.56-1.25,1.25-1.25h37.646c0.69,0,1.25,0.56,1.25,1.25v0.898
			c0,5.787-3.454,10.968-8.799,13.198C65.356,69.904,65.192,69.937,65.027,69.937z M31.746,67.437H64.77
			c4.176-1.843,6.898-5.892,7.032-10.443H36.658C36.559,61.084,34.735,64.844,31.746,67.437z"/>
	</g>
	<g>
		<g>
			<polygon class="st0" points="56.558,25.858 47.926,25.858 47.926,16.829 50.426,16.829 50.426,23.358 56.558,23.358 			"/>
		</g>
		<rect x="23.258" y="25.399" class="st4" width="14.876" height="2.5"/>
		<rect x="23.258" y="34.031" class="st4" width="14.876" height="2.5"/>
		<rect x="30.972" y="42.664" class="st4" width="7.162" height="2.5"/>
		<rect x="23.258" y="42.664" class="st4" width="3.856" height="2.5"/>
	</g>
	<polygon class="st4" points="4.8,61.697 2.4,61.697 2.4,64.097 0,64.097 0,66.597 2.4,66.597 2.4,68.997 4.8,68.997 4.8,66.597 
		7.3,66.597 7.3,64.097 4.8,64.097 	"/>
	<g>
		<g>
			<circle class="st1" cx="62.381" cy="47.043" r="13.205"/>
			<path class="st0" d="M62.382,61.499c-7.971,0-14.456-6.484-14.456-14.455s6.485-14.456,14.456-14.456s14.455,6.485,14.455,14.456
				S70.352,61.499,62.382,61.499z M62.382,35.088c-6.593,0-11.956,5.363-11.956,11.956s5.363,11.955,11.956,11.955
				c6.592,0,11.955-5.363,11.955-11.955S68.974,35.088,62.382,35.088z"/>
		</g>
		<g>
			<line class="st1" x1="82.573" y1="64.678" x2="72.803" y2="55.64"/>
			<path class="st0" d="M82.573,65.928c-0.304,0-0.608-0.11-0.849-0.333l-9.771-9.038c-0.507-0.469-0.538-1.259-0.069-1.766
				c0.47-0.508,1.26-0.538,1.767-0.069l9.771,9.038c0.507,0.469,0.538,1.259,0.069,1.766C83.244,65.793,82.909,65.928,82.573,65.928
				z"/>
		</g>
	</g>
</g>
</svg>
