<?xml version="1.0" encoding="utf-8"?>
<!-- Generator: Adobe Illustrator 27.9.4, SVG Export Plug-In . SVG Version: 9.03 Build 54784)  -->
<svg version="1.1" id="Layer_1" xmlns="http://www.w3.org/2000/svg" xmlns:xlink="http://www.w3.org/1999/xlink" x="0px" y="0px"
	 viewBox="0 0 142.706 120" style="enable-background:new 0 0 142.706 120;" xml:space="preserve">
<style type="text/css">
	.st0{fill:#FFBF00;}
</style>
<path class="st0" d="M138.366,50.945L120.882,8.036C118.902,3.177,114.177,0,108.93,0H31.806c-5.421,0-10.265,3.388-12.124,8.481
	L4.115,51.131C1.596,53.486,0,56.813,0,60.533v25.321c0,6.162,4.326,11.296,10.1,12.58v12.962c0,4.752,3.852,8.604,8.604,8.604
	h5.308c4.752,0,8.604-3.852,8.604-8.604V98.76h77.436v12.636c0,4.752,3.852,8.604,8.604,8.604h5.307
	c4.752,0,8.604-3.852,8.604-8.604v-12.95c5.795-1.269,10.139-6.417,10.139-12.593V60.533
	C142.706,56.708,141.01,53.308,138.366,50.945z M27.706,81.716c-5.229,0-9.469-4.24-9.469-9.469c0-5.23,4.24-9.469,9.469-9.469
	s9.469,4.239,9.469,9.469C37.175,77.476,32.935,81.716,27.706,81.716z M115.382,81.716c-5.229,0-9.469-4.24-9.469-9.469
	c0-5.23,4.24-9.469,9.469-9.469c5.23,0,9.469,4.239,9.469,9.469C124.852,77.476,120.612,81.716,115.382,81.716z M123.335,49.357
	L71.328,49.38h-52.39c-1.146,0-1.934-1.154-1.516-2.221l11.61-32.043c1.221-3.121,4.23-5.175,7.582-5.175h34.714l33.408-0.023
	c3.351,0,6.361,2.054,7.582,5.175l12.534,32.043C125.269,48.203,124.482,49.357,123.335,49.357z"/>
</svg>
