<?xml version="1.0" encoding="utf-8"?>
<!-- Generator: Adobe Illustrator 27.1.1, SVG Export Plug-In . SVG Version: 6.00 Build 0)  -->
<svg version="1.1" id="Layer_1" xmlns="http://www.w3.org/2000/svg" xmlns:xlink="http://www.w3.org/1999/xlink" x="0px" y="0px"
	 viewBox="0 0 93.773 78.966" style="enable-background:new 0 0 93.773 78.966;" xml:space="preserve">
<style type="text/css">
	.st0{fill:#FFFFFF;}
	.st1{fill:#666666;}
	.st2{opacity:0.2;fill:#FF5050;}
	.st3{fill:#FF5050;}
</style>
<g>
	<g>
		<g>
			<path class="st0" d="M62.774,74.296c-1.5-1.4-1.3-10.1-1.4-10.2c-0.5-0.7-7.8-0.2-9.6,0.1c-1.8-0.2-6.2-0.7-6.6-0.1
				c-0.1,0.1,0.1,8.8-1.4,10.2c-1.5,1.4-3.6,2.4-3.4,2.8c0.1,0.4,0.6,0.3,0.6,0.3h10h4.6h10c0,0,0.5,0.1,0.6-0.3
				C66.374,76.696,64.274,75.696,62.774,74.296z"/>
			<path class="st1" d="M65.774,78.596c-0.1,0-0.2,0-0.3,0h-24.3c-0.7,0.1-1.6-0.3-1.9-1.2c-0.3-1.1,0.5-1.7,1.8-2.5
				c0.6-0.4,1.4-1,2-1.6c0.2-0.3,0.8-1.7,0.9-8.6c0-1,0-1.2,0.2-1.5c0.4-0.6,0.9-1.3,7.6-0.5c1.3-0.2,9.5-1.1,10.6,0.5
				c0.2,0.3,0.2,0.5,0.3,1.5c0.1,6.8,0.7,8.3,1,8.6c0.6,0.6,1.4,1.1,2,1.5c1.2,0.8,2.1,1.4,1.8,2.5
				C67.174,78.296,66.474,78.596,65.774,78.596z M65.174,77.696L65.174,77.696L65.174,77.696z M43.474,76.196h19.7
				c-0.4-0.3-0.8-0.6-1.2-1l0,0c-1.1-1.1-1.6-3.9-1.7-10.2c-1.8-0.2-6.3,0.1-8.2,0.3c-0.1,0-0.2,0-0.3,0c-2.9-0.4-4.5-0.4-5.3-0.4
				c-0.1,6.3-0.6,9.1-1.7,10.2C44.274,75.496,43.874,75.896,43.474,76.196z M60.774,65.096L60.774,65.096L60.774,65.096z
				 M45.874,64.996L45.874,64.996L45.874,64.996z"/>
		</g>
		<g>
			<path class="st2" d="M87.474,59.839c0,0.573-0.483,1.051-1.159,1.051H20.633c-0.58,0-1.159-0.478-1.159-1.051V16.733
				c0-0.573,0.483-1.051,1.159-1.051h65.682c0.58,0,1.159,0.478,1.159,1.051V59.839z"/>
			<path class="st1" d="M91.174,66.796h-75.4c-1.4,0-2.5-1.1-2.5-2.5v-52.4c0-1.4,1.1-2.5,2.5-2.5h75.4c1.4,0,2.5,1.1,2.5,2.5v52.3
				C93.674,65.596,92.574,66.796,91.174,66.796z M15.774,11.896l-0.1,52.4l75.5,0.1l0.1-0.1v-52.4H15.774z"/>
		</g>
		<g>
			<g>
				<path class="st0" d="M14.474,64.196c0,0.7,0.6,1.3,1.3,1.3h75.4c0.7,0,1.3-0.6,1.3-1.3v-7.9h-78L14.474,64.196z"/>
				<path class="st1" d="M91.174,66.796h-75.4c-1.4,0-2.5-1.1-2.5-2.5v-9.2h80.5v9.2C93.674,65.596,92.574,66.796,91.174,66.796z
					 M15.674,57.496v6.7c0,0,0,0.1,0.1,0.1h75.4v-6.8C91.174,57.496,15.674,57.496,15.674,57.496z"/>
			</g>
		</g>
	</g>
	<g>
		<g>
			<path class="st0" d="M27.697,14.475c0,7.303-5.919,13.223-13.224,13.223c-7.302,0-13.223-5.92-13.223-13.223
				C1.25,7.171,7.171,1.25,14.473,1.25C21.778,1.25,27.697,7.171,27.697,14.475z"/>
			<path class="st1" d="M14.473,28.948C6.493,28.948,0,22.456,0,14.475C0,6.494,6.493,0,14.473,0
				c7.981,0,14.474,6.494,14.474,14.475C28.947,22.456,22.454,28.948,14.473,28.948z M14.473,2.5C7.871,2.5,2.5,7.872,2.5,14.475
				c0,6.602,5.371,11.973,11.973,11.973c6.603,0,11.974-5.371,11.974-11.973C26.447,7.872,21.076,2.5,14.473,2.5z"/>
		</g>
		<polygon class="st3" points="13.055,19.723 8.003,14.671 9.51,13.164 12.967,16.621 19.438,9.973 20.944,11.48 		"/>
	</g>
	<polygon class="st3" points="78.951,71.666 76.551,71.666 76.551,74.066 74.151,74.066 74.151,76.566 76.551,76.566 76.551,78.966 
		78.951,78.966 78.951,76.566 81.451,76.566 81.451,74.066 78.951,74.066 	"/>
	<g>
		<g>
			<g>
				<g>
					<g>
						<g>
							<g>
								<polygon class="st0" points="36.538,47.321 36.538,56.296 45.174,56.296 53.813,56.296 62.451,56.296 71.089,56.296 
									71.089,48.874 71.089,41.451 71.089,34.031 71.089,26.608 69.156,25.057 67.226,23.503 65.294,21.947 63.363,20.396 
									56.656,20.396 49.951,20.396 43.244,20.396 36.538,20.396 36.538,41.831 								"/>
								<path class="st1" d="M72.338,57.546h-37.05v-38.4h28.514l8.536,6.862V57.546z M37.788,55.046h32.05V27.208l-6.915-5.562
									H37.788V55.046z"/>
							</g>
						</g>
					</g>
				</g>
			</g>
		</g>
		<g>
			<polyline class="st0" points="61.896,20.396 61.896,28.761 71.089,28.761 			"/>
			<polygon class="st1" points="71.088,30.011 60.646,30.011 60.646,20.396 63.146,20.396 63.146,27.511 71.088,27.511 			"/>
		</g>
		<rect x="44.817" y="36.912" class="st1" width="18.394" height="2.5"/>
		<rect x="44.817" y="44.746" class="st1" width="18.394" height="2.5"/>
	</g>
</g>
</svg>
