<?xml version="1.0" encoding="utf-8"?>
<!-- Generator: Adobe Illustrator 27.1.1, SVG Export Plug-In . SVG Version: 6.00 Build 0)  -->
<svg version="1.1" id="Layer_1" xmlns="http://www.w3.org/2000/svg" xmlns:xlink="http://www.w3.org/1999/xlink" x="0px" y="0px"
	 viewBox="0 0 72.426 68.19" style="enable-background:new 0 0 72.426 68.19;" xml:space="preserve">
<style type="text/css">
	.st0{fill:#666666;}
	.st1{fill:#00BE64;}
	.st2{fill:#FFFFFF;}
	.st3{opacity:0.2;fill:#00BE64;}
</style>
<g>
	<path class="st0" d="M60.499,60.099H27.334c-0.69,0-1.25-0.56-1.25-1.25s0.56-1.25,1.25-1.25h31.915v-45.99l-9.107-9.107
		L17.14,2.556v25.565c0,0.69-0.56,1.25-1.25,1.25c-0.69,0-1.25-0.56-1.25-1.25V1.308c0-0.689,0.559-1.249,1.248-1.25L50.656,0
		c0.001,0,0.001,0,0.002,0c0.331,0,0.649,0.132,0.884,0.366l9.841,9.841c0.234,0.234,0.366,0.552,0.366,0.884v47.758
		C61.749,59.539,61.189,60.099,60.499,60.099z"/>
	<g>
		<polygon class="st0" points="65.126,63.29 65.126,65.79 67.526,65.79 67.526,68.19 69.926,68.19 69.926,65.79 72.426,65.79 
			72.426,63.29 69.926,63.29 69.926,60.89 67.526,60.89 67.526,63.29 		"/>
		<rect x="67.526" y="26.972" class="st0" width="2.4" height="30.718"/>
		<polygon class="st1" points="4.8,9.521 2.4,9.521 2.4,11.921 0,11.921 0,14.421 2.4,14.421 2.4,16.821 4.8,16.821 4.8,14.421 
			7.3,14.421 7.3,11.921 4.8,11.921 		"/>
	</g>
	<g>
		<polygon class="st0" points="54.782,15.602 46.15,15.602 46.15,6.572 48.65,6.572 48.65,13.102 54.782,13.102 		"/>
	</g>
	<g>
		<line class="st2" x1="37.5" y1="28.122" x2="49.2" y2="28.122"/>
		<rect x="37.5" y="26.872" class="st1" width="11.7" height="2.5"/>
	</g>
	<g>
		<line class="st2" x1="37.5" y1="36.754" x2="49.2" y2="36.754"/>
		<rect x="37.5" y="35.504" class="st1" width="11.7" height="2.5"/>
	</g>
	<polygon class="st3" points="3.102,58.715 18.513,38.496 27.912,37.053 28.921,46.049 13.289,66.89 	"/>
	<path class="st0" d="M11.518,65.117c-0.283,0-0.56-0.096-0.782-0.275L0.549,56.668c-0.529-0.425-0.623-1.193-0.212-1.733
		l15.594-20.463c0.196-0.257,0.484-0.429,0.805-0.478l9.399-1.443c0.333-0.051,0.679,0.036,0.949,0.243
		c0.271,0.207,0.444,0.515,0.482,0.854l1.009,8.996c0.035,0.316-0.051,0.634-0.242,0.889L12.518,64.617
		c-0.203,0.271-0.508,0.448-0.844,0.49C11.623,65.114,11.57,65.117,11.518,65.117z M3.065,55.481l8.229,6.603l14.742-19.655
		l-0.808-7.209l-7.614,1.169L3.065,55.481z"/>
</g>
</svg>
