<?xml version="1.0" encoding="utf-8"?>
<!-- Generator: Adobe Illustrator 27.1.1, SVG Export Plug-In . SVG Version: 6.00 Build 0)  -->
<svg version="1.1" id="Layer_1" xmlns="http://www.w3.org/2000/svg" xmlns:xlink="http://www.w3.org/1999/xlink" x="0px" y="0px"
	 viewBox="0 0 15.083 14.291" style="enable-background:new 0 0 15.083 14.291;" xml:space="preserve">
<style type="text/css">
	.st0{fill:#FF253A;}
</style>
<g>
	<path class="st0" d="M14.583,0H10.48c-0.276,0-0.5,0.224-0.5,0.5S10.204,1,10.48,1h2.942L7.631,6.792
		c-0.195,0.195-0.195,0.512,0,0.707c0.098,0.098,0.226,0.146,0.354,0.146S8.24,7.596,8.338,7.499l5.745-5.745v2.849
		c0,0.276,0.224,0.5,0.5,0.5s0.5-0.224,0.5-0.5V0.5C15.083,0.224,14.859,0,14.583,0z"/>
	<path class="st0" d="M14.583,8.645c-0.276,0-0.5,0.224-0.5,0.5v3.647c0,0.274-0.223,0.498-0.497,0.498H1.498
		C1.223,13.291,1,13.067,1,12.792V1.497C1,1.223,1.223,1,1.498,1h4.044c0.276,0,0.5-0.224,0.5-0.5S5.818,0,5.542,0H1.498
		C0.672,0,0,0.671,0,1.497v11.295c0,0.826,0.672,1.498,1.498,1.498h12.088c0.825,0,1.497-0.672,1.497-1.498V9.145
		C15.083,8.869,14.859,8.645,14.583,8.645z"/>
</g>
</svg>
