<?xml version="1.0" encoding="utf-8"?>
<!-- Generator: Adobe Illustrator 27.1.1, SVG Export Plug-In . SVG Version: 6.00 Build 0)  -->
<svg version="1.1" id="Layer_1" xmlns="http://www.w3.org/2000/svg" xmlns:xlink="http://www.w3.org/1999/xlink" x="0px" y="0px"
	 viewBox="0 0 83.333 72.736" style="enable-background:new 0 0 83.333 72.736;" xml:space="preserve">
<style type="text/css">
	.st0{fill:#666666;}
	.st1{opacity:0.2;fill:#FF5050;}
	.st2{fill:#FFFFFF;}
	.st3{fill:#FF5050;}
</style>
<g>
	<g>
		<g>
			<path class="st0" d="M61.706,64.461H38.745v-2.5h22.961c2.198,0,3.986-1.788,3.986-3.986v-15.91h2.5v15.91
				C68.192,61.551,65.283,64.461,61.706,64.461z"/>
			<polygon class="st0" points="42.406,69.501 36.116,63.211 42.406,56.919 44.174,58.687 39.651,63.211 44.174,67.733 			"/>
		</g>
		<g>
			<path class="st0" d="M15.576,27.8h-2.5V11.892c0-3.577,2.91-6.486,6.486-6.486h22.963v2.5H19.562
				c-2.198,0-3.986,1.788-3.986,3.986V27.8z"/>
			<polygon class="st0" points="38.862,12.946 37.094,11.179 41.617,6.656 37.094,2.134 38.862,0.366 45.152,6.656 			"/>
		</g>
	</g>
	<g>
		<rect x="59.561" y="5.384" class="st1" width="23.772" height="29.384"/>
		<g>
			<g>
				<g>
					<g>
						<g>
							<g>
								<path class="st0" d="M80.029,31.707H53.856V0h20.13l6.043,5.768V31.707z M56.356,29.207h21.173V6.839L72.985,2.5H56.356
									V29.207z"/>
							</g>
						</g>
					</g>
				</g>
			</g>
			<g>
				<polyline class="st2" points="72.48,1.25 72.48,7.517 78.779,7.517 				"/>
				<polygon class="st0" points="78.779,8.767 71.23,8.767 71.23,1.25 73.73,1.25 73.73,6.267 78.779,6.267 				"/>
			</g>
			<rect x="60.778" y="13.311" class="st3" width="12.604" height="2.5"/>
			<rect x="60.778" y="19.181" class="st3" width="12.604" height="2.5"/>
		</g>
	</g>
	<polygon class="st3" points="4.8,6.052 2.4,6.052 2.4,8.452 0,8.452 0,10.952 2.4,10.952 2.4,13.352 4.8,13.352 4.8,10.952 
		7.3,10.952 7.3,8.452 4.8,8.452 	"/>
	<g>
		<polygon class="st0" points="72.48,64.393 72.48,66.893 74.88,66.893 74.88,69.293 77.28,69.293 77.28,66.893 79.78,66.893 
			79.78,64.393 77.28,64.393 77.28,61.993 74.88,61.993 74.88,64.393 		"/>
		<rect x="74.88" y="42.072" class="st0" width="2.4" height="16.722"/>
	</g>
	<g>
		<rect x="6.922" y="43.352" class="st1" width="23.772" height="29.384"/>
		<g>
			<g>
				<g>
					<g>
						<g>
							<g>
								<path class="st0" d="M27.39,69.675H1.217V37.968h20.13l6.043,5.768V69.675z M3.717,67.175H24.89V44.808l-4.544-4.339H3.717
									V67.175z"/>
							</g>
						</g>
					</g>
				</g>
			</g>
			<g>
				<polyline class="st2" points="19.841,39.218 19.841,45.485 26.14,45.485 				"/>
				<polygon class="st0" points="26.14,46.735 18.591,46.735 18.591,39.218 21.091,39.218 21.091,44.235 26.14,44.235 				"/>
			</g>
			<rect x="8.139" y="51.279" class="st3" width="12.604" height="2.5"/>
			<rect x="8.139" y="57.149" class="st3" width="12.604" height="2.5"/>
		</g>
	</g>
</g>
</svg>
