<?xml version="1.0" encoding="utf-8"?>
<!-- Generator: Adobe Illustrator 27.2.0, SVG Export Plug-In . SVG Version: 6.00 Build 0)  -->
<svg version="1.1" id="Layer_1" xmlns="http://www.w3.org/2000/svg" xmlns:xlink="http://www.w3.org/1999/xlink" x="0px" y="0px"
	 viewBox="0 0 14.583 13.791" style="enable-background:new 0 0 14.583 13.791;" xml:space="preserve">
<style type="text/css">
	.st0{fill:#1D88E3;}
	.st1{opacity:0.3;}
</style>
<g>
	<path class="st0" d="M12.653,13.791H1.93c-1.064,0-1.93-0.866-1.93-1.93V1.93C0,0.866,0.866,0,1.93,0h10.723
		c1.064,0,1.93,0.866,1.93,1.93v9.93C14.583,12.925,13.717,13.791,12.653,13.791z M1.93,0.5C1.141,0.5,0.5,1.142,0.5,1.93v9.93
		c0,0.789,0.641,1.43,1.43,1.43h10.723c0.789,0,1.43-0.642,1.43-1.43V1.93c0-0.789-0.641-1.43-1.43-1.43H1.93z"/>
	<g class="st1">
		<path class="st0" d="M5.057,1.93v9.93c0,0.928-0.752,1.68-1.68,1.68H1.93c-0.928,0-1.68-0.752-1.68-1.68l0-9.93
			c0-0.928,0.752-1.68,1.68-1.68h1.448C4.305,0.25,5.057,1.002,5.057,1.93z"/>
		<path class="st0" d="M3.377,13.791H1.93c-1.064,0-1.93-0.866-1.93-1.93V1.93C0,0.866,0.866,0,1.93,0h1.448
			c1.064,0,1.93,0.866,1.93,1.93v9.93C5.307,12.925,4.441,13.791,3.377,13.791z M1.93,0.5C1.141,0.5,0.5,1.142,0.5,1.93v9.93
			c0,0.789,0.641,1.43,1.43,1.43h1.448c0.788,0,1.43-0.642,1.43-1.43V1.93c0-0.789-0.642-1.43-1.43-1.43H1.93z"/>
	</g>
</g>
</svg>
