<?xml version="1.0" encoding="utf-8"?>
<!-- Generator: Adobe Illustrator 28.2.0, SVG Export Plug-In . SVG Version: 6.00 Build 0)  -->
<svg version="1.1" id="Layer_1" xmlns="http://www.w3.org/2000/svg" xmlns:xlink="http://www.w3.org/1999/xlink" x="0px" y="0px"
	 viewBox="0 0 18.2 28.7" style="enable-background:new 0 0 18.2 28.7;" xml:space="preserve">
<path d="M17.4,12.6L3.9,0.6C3.5,0.2,2.8,0,2.2,0c-0.7,0-1.3,0.4-1.7,0.9c-0.7,1-0.6,2.3,0.2,3.2l11.5,10.3L0.9,24.5
	c-1,0.8-1.2,2.2-0.4,3.3l0.1,0.2c0.5,0.5,1.1,0.7,1.8,0.7c0.6,0,1-0.2,1.3-0.4l13.6-12.1l0.1-0.1c0.5-0.5,0.7-1.1,0.7-1.8
	S17.9,13.1,17.4,12.6z"/>
</svg>
