<?xml version="1.0" encoding="utf-8"?>
<!-- Generator: Adobe Illustrator 27.9.4, SVG Export Plug-In . SVG Version: 9.03 Build 54784)  -->
<svg version="1.1" id="Layer_1" xmlns="http://www.w3.org/2000/svg" xmlns:xlink="http://www.w3.org/1999/xlink" x="0px" y="0px"
	 viewBox="0 0 15.083 14.291" style="enable-background:new 0 0 15.083 14.291;" xml:space="preserve">
<style type="text/css">
	.st0{fill:#0E5CE9;}
	.st1{opacity:0.6;fill:#0E5CE9;}
</style>
<g>
	<path class="st0" d="M13.582,14.291H1.5c-0.827,0-1.5-0.673-1.5-1.5V1.5C0,0.673,0.673,0,1.5,0h12.082c0.827,0,1.5,0.673,1.5,1.5
		v11.29C15.083,13.617,14.409,14.291,13.582,14.291z M1.5,1C1.224,1,1,1.225,1,1.5v11.29c0,0.276,0.224,0.5,0.5,0.5h12.082
		c0.276,0,0.5-0.225,0.5-0.5V1.5c0-0.276-0.225-0.5-0.5-0.5H1.5z"/>
	<path class="st1" d="M14.583,3.884H0.5c-0.276,0-0.5-0.224-0.5-0.5s0.224-0.5,0.5-0.5h14.083c0.276,0,0.5,0.224,0.5,0.5
		S14.859,3.884,14.583,3.884z"/>
	<g>
		<path class="st0" d="M3.181,6.149c0.202-0.264,0.444-0.476,0.726-0.636c0.28-0.161,0.641-0.241,1.079-0.241
			c0.286,0,0.545,0.037,0.775,0.11S6.189,5.558,6.352,5.69c0.163,0.132,0.289,0.292,0.379,0.481c0.09,0.188,0.135,0.395,0.135,0.62
			v0.084c0,0.118-0.013,0.246-0.037,0.383c-0.025,0.138-0.072,0.27-0.14,0.396s-0.157,0.243-0.27,0.35S6.164,8.199,5.989,8.266
			C6.394,8.339,6.692,8.5,6.883,8.747c0.19,0.247,0.286,0.545,0.286,0.894v0.126c0,0.231-0.045,0.453-0.135,0.667
			c-0.09,0.213-0.227,0.402-0.409,0.565s-0.413,0.293-0.691,0.392c-0.278,0.098-0.603,0.147-0.974,0.147
			c-0.354,0-0.695-0.055-1.024-0.165c-0.329-0.109-0.637-0.279-0.924-0.51l0.531-0.843c0.146,0.107,0.28,0.197,0.4,0.27
			c0.121,0.073,0.238,0.131,0.351,0.173s0.222,0.072,0.329,0.088c0.106,0.017,0.222,0.025,0.346,0.025
			c0.382,0,0.663-0.076,0.843-0.228s0.27-0.363,0.27-0.632v-0.11c0-0.298-0.087-0.516-0.261-0.653
			C5.646,8.816,5.365,8.747,4.977,8.747H4.16V7.819h0.725c0.191,0,0.348-0.021,0.468-0.063c0.121-0.042,0.216-0.101,0.283-0.177
			C5.703,7.503,5.749,7.41,5.774,7.301c0.025-0.11,0.038-0.229,0.038-0.358V6.875c0-0.23-0.074-0.398-0.224-0.502
			C5.44,6.269,5.239,6.217,4.986,6.217c-0.259,0-0.468,0.048-0.629,0.143c-0.16,0.096-0.308,0.217-0.442,0.363L3.181,6.149z"/>
		<path class="st0" d="M12.364,8.874c0,0.866-0.183,1.526-0.548,1.981c-0.365,0.456-0.917,0.683-1.653,0.683
			c-0.725,0-1.284-0.23-1.678-0.691s-0.59-1.119-0.59-1.973V7.929c0-0.854,0.195-1.511,0.586-1.969s0.942-0.688,1.656-0.688
			c0.72,0,1.271,0.229,1.653,0.688c0.382,0.458,0.573,1.114,0.573,1.969V8.874z M11.276,7.92c0-0.349-0.032-0.629-0.097-0.843
			c-0.064-0.213-0.149-0.378-0.253-0.493c-0.104-0.115-0.225-0.192-0.362-0.232c-0.139-0.039-0.28-0.059-0.427-0.059
			c-0.14,0-0.279,0.02-0.417,0.059C9.583,6.392,9.458,6.47,9.349,6.588C9.24,6.706,9.151,6.872,9.083,7.085
			C9.016,7.299,8.982,7.578,8.982,7.92v0.961c0,0.349,0.035,0.63,0.105,0.843c0.07,0.214,0.162,0.379,0.274,0.498
			s0.239,0.197,0.38,0.236c0.14,0.04,0.28,0.059,0.421,0.059c0.146,0,0.287-0.02,0.422-0.059c0.135-0.039,0.253-0.116,0.354-0.232
			c0.101-0.115,0.183-0.279,0.244-0.493c0.062-0.213,0.093-0.498,0.093-0.852V7.92z"/>
	</g>
</g>
</svg>
