<?xml version="1.0" encoding="utf-8"?>
<!-- Generator: Adobe Illustrator 25.2.1, SVG Export Plug-In . SVG Version: 6.00 Build 0)  -->
<svg version="1.1" id="Layer_1" xmlns="http://www.w3.org/2000/svg" xmlns:xlink="http://www.w3.org/1999/xlink" x="0px" y="0px"
	 viewBox="0 0 40 38.6" style="enable-background:new 0 0 40 38.6;" xml:space="preserve">
<g>
	<path d="M0,7c0-3.8,3.1-7,7-7s7,3.1,7,7s-3.1,7-7,7S0,10.8,0,7z"/>
	<path d="M26,7c0-3.8,3.1-7,7-7s7,3.1,7,7s-3.1,7-7,7S26,10.8,26,7z"/>
	<path d="M0,31.7c0-3.8,3.1-7,7-7s7,3.1,7,7s-3.1,7-7,7S0,35.5,0,31.7z"/>
	<path d="M26,31.7c0-3.8,3.1-7,7-7s7,3.1,7,7s-3.1,7-7,7S26,35.5,26,31.7z"/>
</g>
</svg>
