<?xml version="1.0" encoding="utf-8"?>
<!-- Generator: Adobe Illustrator 27.9.4, SVG Export Plug-In . SVG Version: 9.03 Build 54784)  -->
<svg version="1.1" id="Layer_1" xmlns="http://www.w3.org/2000/svg" xmlns:xlink="http://www.w3.org/1999/xlink" x="0px" y="0px"
	 viewBox="0 0 126.808 120" style="enable-background:new 0 0 126.808 120;" xml:space="preserve">
<style type="text/css">
	.st0{fill:#66D76A;}
</style>
<g>
	<path class="st0" d="M67.237,31.264h57.829L111.433,4.87C109.41,1.819,106.019,0,102.364,0H67.237V31.264z"/>
	<path class="st0" d="M2.176,31.264H60.71V0H24.444c-3.655,0-7.042,1.819-9.188,5.07L1.819,31.137
		c-0.046,0.069-0.06,0.151-0.104,0.22C1.872,31.334,2.012,31.264,2.176,31.264z"/>
	<path class="st0" d="M125.771,37.792H2.176c-0.83,0-1.569-0.336-2.145-0.847C0.029,37.016,0,37.082,0,37.154v71.967
		c0,6,4.879,10.879,10.879,10.879h105.05c6,0,10.879-4.879,10.879-10.879V37.582C126.478,37.694,126.139,37.792,125.771,37.792z
		 M82.213,65.04h-36.47c-1.802,0-3.264-1.462-3.264-3.264s1.462-3.264,3.264-3.264h36.47c1.802,0,3.264,1.462,3.264,3.264
		S84.014,65.04,82.213,65.04z"/>
</g>
</svg>
