<?xml version="1.0" encoding="utf-8"?>
<!-- Generator: Adobe Illustrator 28.2.0, SVG Export Plug-In . SVG Version: 6.00 Build 0)  -->
<svg version="1.1" id="Layer_1" xmlns="http://www.w3.org/2000/svg" xmlns:xlink="http://www.w3.org/1999/xlink" x="0px" y="0px"
	 viewBox="0 0 17.857 17.25" style="enable-background:new 0 0 17.857 17.25;" xml:space="preserve">
<g>
	<path d="M12.369,15.75H1.5V1.5h10.869c0.414,0,0.75-0.336,0.75-0.75S12.783,0,12.369,0H0.75C0.336,0,0,0.336,0,0.75V16.5
		c0,0.414,0.336,0.75,0.75,0.75h11.619c0.414,0,0.75-0.336,0.75-0.75S12.783,15.75,12.369,15.75z"/>
	<path d="M17.857,8.457c0-0.1-0.02-0.198-0.058-0.289c-0.038-0.091-0.093-0.173-0.161-0.242l-3.059-3.058
		c-0.293-0.293-0.768-0.293-1.061,0s-0.293,0.768,0,1.061l1.778,1.778H5.775c-0.414,0-0.75,0.336-0.75,0.75s0.336,0.75,0.75,0.75
		h9.521l-1.778,1.778c-0.293,0.293-0.293,0.768,0,1.061c0.146,0.146,0.338,0.22,0.53,0.22s0.384-0.073,0.53-0.22l3.059-3.058
		c0.069-0.069,0.123-0.151,0.161-0.242C17.837,8.655,17.857,8.557,17.857,8.457z"/>
</g>
</svg>
