<?xml version="1.0" encoding="utf-8"?>
<!-- Generator: Adobe Illustrator 27.1.1, SVG Export Plug-In . SVG Version: 6.00 Build 0)  -->
<svg version="1.1" id="Layer_1" xmlns="http://www.w3.org/2000/svg" xmlns:xlink="http://www.w3.org/1999/xlink" x="0px" y="0px"
	 viewBox="0 0 73.548 70.58" style="enable-background:new 0 0 73.548 70.58;" xml:space="preserve">
<style type="text/css">
	.st0{fill:#666666;}
	.st1{fill:#FF5050;}
	.st2{fill:#FFFFFF;}
	.st3{opacity:0.2;fill:#FF5050;}
</style>
<g>
	<path class="st0" d="M62.586,62.175H17.977c-0.69,0-1.25-0.56-1.25-1.25V3.385c0-0.689,0.559-1.249,1.248-1.25l34.769-0.059
		c0.315,0.022,0.65,0.131,0.886,0.366l9.841,9.841c0.234,0.234,0.366,0.552,0.366,0.884v47.758
		C63.836,61.615,63.277,62.175,62.586,62.175z M19.227,59.675h42.109v-45.99l-9.107-9.107L19.227,4.633V59.675z"/>
	<g>
		<polygon class="st1" points="4.8,0 2.4,0 2.4,2.4 0,2.4 0,4.9 2.4,4.9 2.4,7.3 4.8,7.3 4.8,4.9 7.3,4.9 7.3,2.4 4.8,2.4 		"/>
	</g>
	<g>
		<polygon class="st0" points="56.869,17.678 48.237,17.678 48.237,8.648 50.737,8.648 50.737,15.178 56.869,15.178 		"/>
	</g>
	<g>
		<circle class="st2" cx="57.788" cy="54.82" r="14.51"/>
		<path class="st0" d="M57.788,70.58c-8.69,0-15.761-7.07-15.761-15.76c0-8.69,7.07-15.76,15.761-15.76s15.76,7.07,15.76,15.76
			C73.548,63.51,66.479,70.58,57.788,70.58z M57.788,41.56c-7.312,0-13.261,5.949-13.261,13.26s5.949,13.26,13.261,13.26
			s13.26-5.948,13.26-13.26S65.1,41.56,57.788,41.56z"/>
	</g>
	<polygon class="st1" points="30.371,27.711 26.403,23.988 27.764,22.627 30.291,24.909 35.108,19.931 36.469,21.292 	"/>
	<polygon class="st1" points="30.371,38.313 26.403,34.591 27.764,33.23 30.291,35.511 35.108,30.534 36.469,31.895 	"/>
	<polygon class="st1" points="30.371,48.916 26.403,45.193 27.764,43.832 30.291,46.114 35.108,41.136 36.469,42.497 	"/>
	<polygon class="st0" points="34.414,70.58 7.975,70.58 7.975,15.169 10.475,15.169 10.475,68.08 34.414,68.08 	"/>
	<circle class="st3" cx="57.788" cy="54.82" r="10.574"/>
	<g>
		<polygon class="st0" points="63.225,57.66 53.219,57.66 51.425,50.404 49.41,50.404 49.41,48.404 52.992,48.404 54.786,55.66 
			61.698,55.66 62.737,51.843 55.41,51.843 55.41,49.843 65.354,49.843 		"/>
		<circle class="st0" cx="54.765" cy="60.643" r="1.561"/>
		<circle class="st0" cx="61.686" cy="60.643" r="1.561"/>
	</g>
</g>
</svg>
