<?xml version="1.0" encoding="utf-8"?>
<!-- Generator: Adobe Illustrator 27.9.0, SVG Export Plug-In . SVG Version: 6.00 Build 0)  -->
<svg version="1.1" id="Layer_1" xmlns="http://www.w3.org/2000/svg" xmlns:xlink="http://www.w3.org/1999/xlink" x="0px" y="0px"
	 viewBox="0 0 25.741 25.935" style="enable-background:new 0 0 25.741 25.935;" xml:space="preserve">
<style type="text/css">
	.st0{fill:#FFFFFF;}
	.st1{fill:#222222;}
	.st2{fill:#FF8B00;}
</style>
<g>
	<g>
		<path class="st0" d="M0.75,3.235v15.886c0,1.373,1.113,2.485,2.485,2.485h16.039c1.373,0,2.485-1.113,2.485-2.485V3.235
			c0-1.373-1.113-2.485-2.485-2.485H3.235C1.863,0.75,0.75,1.863,0.75,3.235z"/>
		<path class="st1" d="M19.274,22.356H3.235C1.451,22.356,0,20.905,0,19.122V3.235C0,1.451,1.451,0,3.235,0h16.039
			c1.784,0,3.235,1.451,3.235,3.235v15.886C22.509,20.905,21.058,22.356,19.274,22.356z M3.235,1.5C2.278,1.5,1.5,2.278,1.5,3.235
			v15.886c0,0.956,0.778,1.734,1.735,1.734h16.039c0.957,0,1.735-0.778,1.735-1.734V3.235c0-0.957-0.778-1.735-1.735-1.735H3.235z"
			/>
	</g>
	<g>
		<path class="st1" d="M11.291,13.862c-2.493,0-4.521-2.028-4.521-4.521c0-2.493,2.028-4.521,4.521-4.521
			c2.493,0,4.521,2.028,4.521,4.521C15.812,11.834,13.784,13.862,11.291,13.862z M11.291,6.32c-1.666,0-3.021,1.355-3.021,3.021
			c0,1.666,1.355,3.021,3.021,3.021c1.666,0,3.021-1.355,3.021-3.021C14.312,7.675,12.957,6.32,11.291,6.32z"/>
		<path class="st1" d="M10.113,17.537H6.51c-0.255,0-0.492-0.13-0.63-0.344s-0.158-0.483-0.053-0.716l2.152-4.749
			c0.171-0.377,0.615-0.544,0.993-0.374c0.377,0.171,0.544,0.615,0.374,0.993l-1.672,3.689h2.008l0.96-1.655
			c0.208-0.359,0.668-0.479,1.025-0.273c0.358,0.208,0.48,0.667,0.272,1.025l-1.177,2.029
			C10.628,17.394,10.381,17.537,10.113,17.537z"/>
		<path class="st1" d="M16,17.537h-3.665c-0.281,0-0.538-0.157-0.667-0.407l-1.947-3.783c-0.189-0.368-0.044-0.821,0.324-1.01
			c0.37-0.188,0.82-0.044,1.01,0.324l1.738,3.377h2.061l-1.618-3.698c-0.166-0.38,0.007-0.822,0.386-0.988
			c0.382-0.167,0.822,0.008,0.988,0.386l2.078,4.749c0.101,0.232,0.079,0.499-0.06,0.711S16.252,17.537,16,17.537z"/>
	</g>
	<g>
		<g>
			<path class="st0" d="M22.991,25.185h-6.348c-1.105,0-2-0.895-2-2V14.15c0-1.105,0.895-2,2-2h6.348c1.105,0,2,0.895,2,2v9.035
				C24.991,24.289,24.096,25.185,22.991,25.185z"/>
			<path class="st2" d="M22.991,25.935h-6.348c-1.517,0-2.75-1.233-2.75-2.75V14.15c0-1.516,1.233-2.75,2.75-2.75h6.348
				c1.517,0,2.75,1.234,2.75,2.75v9.035C25.741,24.702,24.507,25.935,22.991,25.935z M16.643,12.9c-0.689,0-1.25,0.561-1.25,1.25
				v9.035c0,0.689,0.561,1.25,1.25,1.25h6.348c0.689,0,1.25-0.561,1.25-1.25V14.15c0-0.689-0.561-1.25-1.25-1.25H16.643z"/>
		</g>
		<g>
			<g>
				<circle class="st2" cx="18.032" cy="15.604" r="0.767"/>
			</g>
			<g>
				<circle class="st2" cx="21.602" cy="15.604" r="0.767"/>
			</g>
			<g>
				<circle class="st2" cx="18.032" cy="18.667" r="0.767"/>
			</g>
			<g>
				<circle class="st2" cx="21.602" cy="18.667" r="0.767"/>
			</g>
			<g>
				<circle class="st2" cx="18.032" cy="21.73" r="0.767"/>
			</g>
			<g>
				<circle class="st2" cx="21.602" cy="21.73" r="0.767"/>
			</g>
		</g>
	</g>
</g>
</svg>
