<?xml version="1.0" encoding="UTF-8"?>
<svg xmlns="http://www.w3.org/2000/svg" version="1.1" viewBox="0 0 13.477 9.93">
  <!-- Generator: Adobe Illustrator 28.7.0, SVG Export Plug-In . SVG Version: 1.2.0 Build 136)  -->
  <g>
    <g id="Layer_1">
      <g>
        <path d="M11.129,2.351l2.187-1.63c.177-.132.214-.383.081-.56-.131-.176-.381-.212-.56-.082L.59,9.209c-.177.132-.213.382-.082.56.079.105.199.161.321.161.083,0,.167-.026.239-.08l2.117-1.578c1.083.537,2.257.821,3.5.821,3.373,0,5.442-1.977,6.375-3.153.427-.539.424-1.317-.008-1.85-.396-.489-1.043-1.15-1.924-1.739ZM8.553,5.014c0,1.03-.838,1.868-1.868,1.868-.411,0-.805-.135-1.127-.379l2.865-2.136c.077.207.129.422.129.647ZM12.433,5.442c-.844,1.065-2.712,2.85-5.748,2.85-.977,0-1.903-.196-2.77-.564l.995-.742c.487.439,1.111.697,1.775.697,1.471,0,2.668-1.197,2.668-2.669,0-.4-.09-.79-.26-1.146l1.352-1.008c.925.569,1.59,1.245,1.984,1.734.198.244.199.601.003.849Z"/>
        <path d="M1.349,6.892c.104,0,.209-.041.287-.122.154-.158.15-.412-.009-.565-.27-.262-.491-.514-.665-.73-.216-.27-.215-.645.003-.911.843-1.032,2.708-2.763,5.72-2.763.519,0,1.029.052,1.516.155.213.046.428-.092.474-.309.045-.216-.093-.428-.31-.474-.541-.114-1.106-.171-1.68-.171C3.343,1,1.279,2.915.347,4.057c-.459.562-.462,1.35-.008,1.917.223.279.47.55.732.805.078.075.178.113.278.113Z"/>
      </g>
    </g>
  </g>
</svg>