<?xml version="1.0" encoding="utf-8"?>
<!-- Generator: Adobe Illustrator 25.2.1, SVG Export Plug-In . SVG Version: 6.00 Build 0)  -->
<svg version="1.1" id="Layer_1" xmlns="http://www.w3.org/2000/svg" xmlns:xlink="http://www.w3.org/1999/xlink" x="0px" y="0px"
	 viewBox="0 0 22.5 22.4" style="enable-background:new 0 0 22.5 22.4;" xml:space="preserve">
<style type="text/css">
	.st0{fill:#FFFFFF;}
	.st1{fill:#222222;}
	.st2{fill:#FF8B00;}
</style>
<g>
	<g>
		<path class="st0" d="M0.7,3.2v15.9c0,1.4,1.1,2.5,2.5,2.5h16c1.4,0,2.5-1.1,2.5-2.5V3.2c0-1.4-1.1-2.5-2.5-2.5h-16
			C1.9,0.8,0.7,1.9,0.7,3.2z"/>
		<path class="st1" d="M19.3,22.4h-16c-1.8,0-3.2-1.5-3.2-3.2V3.2C0,1.5,1.5,0,3.2,0h16c1.8,0,3.2,1.5,3.2,3.2v15.9
			C22.5,20.9,21.1,22.4,19.3,22.4z M3.2,1.5c-1,0-1.7,0.8-1.7,1.7v15.9c0,1,0.8,1.7,1.7,1.7h16c1,0,1.7-0.8,1.7-1.7V3.2
			c0-1-0.8-1.7-1.7-1.7H3.2z"/>
	</g>
	<g>
		<path class="st2" d="M11.3,14.1c-2.7,0-4.9-2.2-4.9-4.9c0-2.7,2.2-4.9,4.9-4.9c2.7,0,4.9,2.2,4.9,4.9C16.2,11.9,14,14.1,11.3,14.1
			z M11.3,5.7c-1.9,0-3.4,1.5-3.4,3.4s1.5,3.4,3.4,3.4c1.9,0,3.4-1.5,3.4-3.4S13.2,5.7,11.3,5.7z"/>
		<path class="st2" d="M11.3,7.5c-0.9,0-1.6,0.7-1.6,1.6s0.7,1.6,1.6,1.6s1.6-0.7,1.6-1.6S12.2,7.5,11.3,7.5z"/>
		<path class="st2" d="M10,18.1H6c-0.3,0-0.5-0.1-0.6-0.3s-0.2-0.5-0.1-0.7l2.4-5.3c0.2-0.4,0.6-0.5,1-0.4c0.4,0.2,0.5,0.6,0.4,1
			l-1.9,4.2h2.4l1.1-1.9c0.2-0.4,0.7-0.5,1-0.3c0.4,0.2,0.5,0.7,0.3,1l-1.3,2.2C10.5,18,10.3,18.1,10,18.1z"/>
		<path class="st2" d="M16.5,18.1h-4.1c-0.3,0-0.5-0.2-0.7-0.4l-2.2-4.2c-0.2-0.4,0-0.8,0.3-1c0.4-0.2,0.8,0,1,0.3l1.9,3.8h2.5
			l-1.8-4.2c-0.2-0.4,0-0.8,0.4-1c0.4-0.2,0.8,0,1,0.4l2.3,5.3c0.1,0.2,0.1,0.5-0.1,0.7S16.8,18.1,16.5,18.1z"/>
	</g>
</g>
</svg>
