<?xml version="1.0" encoding="utf-8"?>
<!-- Generator: Adobe Illustrator 27.9.0, SVG Export Plug-In . SVG Version: 6.00 Build 0)  -->
<svg version="1.1" id="Layer_1" xmlns="http://www.w3.org/2000/svg" xmlns:xlink="http://www.w3.org/1999/xlink" x="0px" y="0px"
	 viewBox="0 0 26.023 25.935" style="enable-background:new 0 0 26.023 25.935;" xml:space="preserve">
<style type="text/css">
	.st0{fill:#FFFFFF;}
	.st1{fill:#222222;}
	.st2{fill:#FF8B00;}
</style>
<g>
	<g>
		<path class="st0" d="M0.75,3.235v15.886c0,1.373,1.113,2.485,2.485,2.485h16.039c1.373,0,2.485-1.113,2.485-2.485V3.235
			c0-1.373-1.113-2.485-2.485-2.485H3.235C1.863,0.75,0.75,1.863,0.75,3.235z"/>
		<path class="st1" d="M19.274,22.356H3.235C1.451,22.356,0,20.905,0,19.122V3.235C0,1.451,1.451,0,3.235,0h16.039
			c1.784,0,3.235,1.451,3.235,3.235v15.886C22.51,20.905,21.059,22.356,19.274,22.356z M3.235,1.5C2.278,1.5,1.5,2.278,1.5,3.235
			v15.886c0,0.956,0.778,1.734,1.735,1.734h16.039c0.957,0,1.735-0.778,1.735-1.734V3.235c0-0.957-0.778-1.735-1.735-1.735H3.235z"
			/>
	</g>
	<g>
		<path class="st1" d="M11.291,13.862c-2.493,0-4.521-2.028-4.521-4.521c0-2.493,2.028-4.521,4.521-4.521s4.521,2.028,4.521,4.521
			C15.812,11.834,13.784,13.862,11.291,13.862z M11.291,6.32c-1.666,0-3.021,1.355-3.021,3.021c0,1.666,1.355,3.021,3.021,3.021
			c1.666,0,3.021-1.355,3.021-3.021C14.312,7.675,12.957,6.32,11.291,6.32z"/>
		<path class="st1" d="M10.113,17.537H6.51c-0.255,0-0.492-0.13-0.63-0.344s-0.158-0.483-0.053-0.716l2.152-4.749
			c0.171-0.377,0.615-0.544,0.993-0.374c0.377,0.171,0.544,0.615,0.374,0.993l-1.672,3.689h2.008l0.961-1.655
			c0.208-0.359,0.667-0.48,1.025-0.272s0.48,0.667,0.272,1.025l-1.178,2.029C10.628,17.394,10.381,17.537,10.113,17.537z"/>
		<path class="st1" d="M16,17.537h-3.665c-0.281,0-0.538-0.157-0.667-0.407l-1.947-3.783c-0.189-0.368-0.044-0.821,0.324-1.01
			c0.369-0.188,0.821-0.044,1.01,0.324l1.738,3.377h2.061l-1.619-3.698c-0.166-0.379,0.007-0.822,0.386-0.988
			c0.382-0.166,0.821,0.007,0.988,0.386l2.078,4.749c0.101,0.232,0.079,0.499-0.06,0.711S16.253,17.537,16,17.537z"/>
	</g>
	<g>
		<path class="st0" d="M21.637,18.076c1.058-0.659,1.768-1.825,1.768-3.163c0-2.063-1.672-3.735-3.735-3.735
			s-3.735,1.672-3.735,3.735c0,1.339,0.71,2.504,1.768,3.163c-2.123,0.797-3.636,2.84-3.636,5.241c0,1.031,0.836,1.868,1.868,1.868
			h7.47c1.031,0,1.868-0.836,1.868-1.868C25.273,20.916,23.76,18.874,21.637,18.076z"/>
		<path class="st2" d="M23.405,25.935h-7.47c-1.443,0-2.618-1.175-2.618-2.618c0-2.217,1.178-4.263,3.027-5.404
			c-0.74-0.812-1.159-1.871-1.159-2.999c0-2.473,2.012-4.485,4.485-4.485c2.473,0,4.484,2.012,4.484,4.485
			c0,1.128-0.419,2.187-1.159,2.999c1.849,1.142,3.027,3.188,3.027,5.404C26.023,24.76,24.849,25.935,23.405,25.935z M19.671,11.928
			c-1.646,0-2.985,1.339-2.985,2.985c0,1.03,0.529,1.975,1.415,2.526c0.242,0.151,0.378,0.427,0.35,0.711s-0.215,0.527-0.482,0.628
			c-1.884,0.707-3.15,2.531-3.15,4.538c0,0.616,0.502,1.118,1.118,1.118h7.47c0.616,0,1.118-0.502,1.118-1.118
			c0-2.007-1.266-3.831-3.15-4.538c-0.268-0.101-0.454-0.344-0.482-0.628s0.107-0.56,0.35-0.711
			c0.886-0.552,1.415-1.496,1.415-2.526C22.655,13.268,21.316,11.928,19.671,11.928z"/>
	</g>
</g>
</svg>
