<?xml version="1.0" encoding="utf-8"?>
<!-- Generator: Adobe Illustrator 27.2.0, SVG Export Plug-In . SVG Version: 6.00 Build 0)  -->
<svg version="1.1" id="Layer_1" xmlns="http://www.w3.org/2000/svg" xmlns:xlink="http://www.w3.org/1999/xlink" x="0px" y="0px"
	 viewBox="0 0 10.512 10.203" style="enable-background:new 0 0 10.512 10.203;" xml:space="preserve">
<style type="text/css">
	.st0{fill:#3395FF;}
	.st1{fill:#2FC155;}
	.st2{fill:#FF8383;}
	.st3{fill:#FFB564;}
</style>
<g>
	<path class="st0" d="M0,2.252C0,1.008,1.008,0,2.252,0s2.252,1.008,2.252,2.252S3.496,4.504,2.252,4.504S0,3.496,0,2.252z"/>
	<path class="st1" d="M6.008,2.252C6.008,1.008,7.016,0,8.26,0s2.252,1.008,2.252,2.252S9.504,4.504,8.26,4.504
		S6.008,3.496,6.008,2.252z"/>
	<path class="st2" d="M0,7.95c0-1.244,1.008-2.252,2.252-2.252S4.504,6.707,4.504,7.95s-1.008,2.252-2.252,2.252S0,9.194,0,7.95z"/>
	<path class="st3" d="M6.008,7.95c0-1.244,1.008-2.252,2.252-2.252s2.252,1.008,2.252,2.252s-1.008,2.252-2.252,2.252
		S6.008,9.194,6.008,7.95z"/>
</g>
</svg>
