<?xml version="1.0" encoding="UTF-8"?>
<svg xmlns="http://www.w3.org/2000/svg" version="1.1" viewBox="0 0 13.31 5.678">
  <!-- Generator: Adobe Illustrator 28.7.0, SVG Export Plug-In . SVG Version: 1.2.0 Build 136)  -->
  <g>
    <g id="Layer_1">
      <path d="M11.924,1.978c.603-.501,1.043-.996,1.303-1.335.135-.175.102-.426-.073-.561-.176-.134-.426-.101-.562.074-.675.878-2.604,2.92-5.937,2.92S1.392,1.034.717.156C.583-.018.332-.052.156.082-.019.217-.052.468.083.643c.258.336.693.826,1.289,1.323L.12,3.19c-.158.155-.161.408-.006.566.079.08.182.12.286.12.101,0,.202-.038.28-.114l1.341-1.311c.613.419,1.344.807,2.221,1.072l-.583,1.619c-.075.208.033.438.241.512.045.017.091.024.136.024.164,0,.317-.102.376-.265l.616-1.709c.508.1,1.041.172,1.628.172s1.119-.072,1.627-.172l.616,1.709c.059.163.212.265.376.265.045,0,.091-.008.136-.024.208-.074.315-.304.24-.512l-.584-1.619c.87-.263,1.597-.647,2.207-1.062l1.342,1.312c.077.076.179.114.279.114.104,0,.208-.041.286-.121.154-.157.151-.411-.007-.565l-1.251-1.223Z"/>
    </g>
  </g>
</svg>