<?xml version="1.0" encoding="utf-8"?>
<!-- Generator: Adobe Illustrator 25.2.1, SVG Export Plug-In . SVG Version: 6.00 Build 0)  -->
<svg version="1.1" id="Layer_1" xmlns="http://www.w3.org/2000/svg" xmlns:xlink="http://www.w3.org/1999/xlink" x="0px" y="0px"
	 viewBox="0 0 28 20" style="enable-background:new 0 0 28 20;" xml:space="preserve">
<style type="text/css">
	.st0{fill:#FFFFFF;}
	.st1{fill:#FF8B00;}
</style>
<g>
	<g>
		<rect x="0.8" y="0.8" class="st0" width="23" height="15.2"/>
		<path d="M23.8,16.7h-23c-0.4,0-0.8-0.3-0.8-0.8V0.8C0,0.3,0.3,0,0.8,0h23c0.4,0,0.8,0.3,0.8,0.8v15.2
			C24.5,16.4,24.2,16.7,23.8,16.7z M1.5,15.2H23V1.5H1.5V15.2z"/>
	</g>
	<path d="M27.2,20H3.6c-0.4,0-0.8-0.3-0.8-0.8c0-0.4,0.3-0.8,0.8-0.8h22.8V3.7c0-0.4,0.3-0.8,0.8-0.8c0.4,0,0.8,0.3,0.8,0.8v15.5
		C28,19.7,27.6,20,27.2,20z"/>
	<path class="st1" d="M16.4,7.8h-0.7l0.6-2.3h-1l-0.6,2.3h-1.3l-0.7-2.3h-1.1L11,7.8H9.7L9.1,5.4H8l0.6,2.3H7.9v0.9h1l0.9,3.2h1.1
		l0.9-3.2h0.9l0.9,3.2h1.1l0.8-3.2h0.9V7.8z M14.5,8.7l-0.4,1.7l-0.5-1.7H14.5z M10.8,8.7l-0.5,1.7L9.9,8.7H10.8z M12,7.8L12.2,7
		l0.2,0.8H12z"/>
</g>
</svg>
