<?xml version="1.0" encoding="utf-8"?>
<!-- Generator: Adobe Illustrator 25.2.1, SVG Export Plug-In . SVG Version: 6.00 Build 0)  -->
<svg version="1.1" id="Layer_1" xmlns="http://www.w3.org/2000/svg" xmlns:xlink="http://www.w3.org/1999/xlink" x="0px" y="0px"
	 viewBox="0 0 20 20" style="enable-background:new 0 0 20 20;" xml:space="preserve">
<style type="text/css">
	.st0{fill:#FFFFFF;}
</style>
<g>
	<path class="st0" d="M10.1,10.2c1.8,0,3.2-1.4,3.2-3.2s-1.4-3.2-3.2-3.2C8.3,3.8,6.9,5.2,6.9,7S8.3,10.2,10.1,10.2z M10.1,5.3
		C11,5.3,11.8,6,11.8,7c0,0.9-0.8,1.7-1.7,1.7C9.1,8.7,8.4,7.9,8.4,7C8.4,6,9.1,5.3,10.1,5.3z"/>
	<path class="st0" d="M18.5,19l-3.2-7.4C16.4,10.3,17,8.7,17,7c0-3.8-3.1-7-7-7c-3.8,0-7,3.1-7,7c0,1.8,0.7,3.3,1.8,4.6l-3.4,7.4
		c-0.1,0.2-0.1,0.5,0.1,0.7C1.7,19.9,1.9,20,2.2,20h5.9c0.3,0,0.5-0.1,0.6-0.4l1.3-2.2l1.1,2.1c0.1,0.2,0.4,0.4,0.7,0.4h6
		c0.3,0,0.5-0.1,0.6-0.3C18.6,19.5,18.6,19.2,18.5,19z M10.1,1.5c3,0,5.5,2.5,5.5,5.5s-2.5,5.5-5.5,5.5S4.6,10,4.6,7S7,1.5,10.1,1.5
		z M7.7,18.5H3.3L6,12.6c0.6,0.4,1.3,0.8,2,1l1.2,2.3L7.7,18.5z M12.2,18.5l-2.4-4.6c0.1,0,0.1,0,0.2,0c1.5,0,2.9-0.5,4.1-1.3
		l2.6,5.9H12.2z"/>
</g>
</svg>
