<?xml version="1.0" encoding="utf-8"?>
<!-- Generator: Adobe Illustrator 25.2.1, SVG Export Plug-In . SVG Version: 6.00 Build 0)  -->
<svg version="1.1" id="Layer_1" xmlns="http://www.w3.org/2000/svg" xmlns:xlink="http://www.w3.org/1999/xlink" x="0px" y="0px"
	 viewBox="0 0 24.3 23.7" style="enable-background:new 0 0 24.3 23.7;" xml:space="preserve">
<style type="text/css">
	.st0{fill:#FFFFFF;}
	.st1{fill:#222222;}
	.st2{fill:#FF8B00;}
</style>
<g>
	<g>
		<g>
			<polygon class="st0" points="19.8,18.7 2.8,18.7 0.8,4.3 21.8,4.3 			"/>
			<path class="st1" d="M19.8,19.5h-17c-0.4,0-0.7-0.3-0.7-0.6L0,4.4c0-0.2,0-0.4,0.2-0.6s0.3-0.3,0.6-0.3h21c0.2,0,0.4,0.1,0.6,0.3
				s0.2,0.4,0.2,0.6l-2,14.5C20.5,19.2,20.1,19.5,19.8,19.5z M3.4,18h15.7l1.8-13H1.6L3.4,18z"/>
		</g>
		<path class="st1" d="M14.3,8.6c-0.4,0-0.8-0.3-0.8-0.8V0.8c0-0.4,0.3-0.8,0.8-0.8S15,0.3,15,0.8v7.1C15,8.2,14.7,8.6,14.3,8.6z"/>
		<path class="st1" d="M8.3,8.6c-0.4,0-0.8-0.3-0.8-0.8V0.8C7.5,0.3,7.8,0,8.3,0S9,0.3,9,0.8v7.1C9,8.2,8.7,8.6,8.3,8.6z"/>
	</g>
	<g>
		<g>
			<path class="st0" d="M13.5,14.2v7.6c0,0.7,0.5,1.2,1.2,1.2h7.7c0.7,0,1.2-0.5,1.2-1.2v-7.6c0-0.7-0.5-1.2-1.2-1.2h-7.7
				C14,13,13.5,13.5,13.5,14.2z"/>
			<path class="st2" d="M22.3,23.7h-7.7c-1.1,0-1.9-0.9-1.9-1.9v-7.6c0-1.1,0.9-1.9,1.9-1.9h7.7c1.1,0,1.9,0.9,1.9,1.9v7.6
				C24.3,22.8,23.4,23.7,22.3,23.7z M14.7,13.7c-0.2,0-0.4,0.2-0.4,0.4v7.6c0,0.2,0.2,0.4,0.4,0.4h7.7c0.2,0,0.4-0.2,0.4-0.4v-7.6
				c0-0.2-0.2-0.4-0.4-0.4H14.7z"/>
		</g>
		<g>
			<path class="st2" d="M20.9,17.3h-4.7c-0.4,0-0.8-0.3-0.8-0.8s0.3-0.8,0.8-0.8h4.7c0.4,0,0.8,0.3,0.8,0.8S21.3,17.3,20.9,17.3z"/>
		</g>
		<g>
			<path class="st2" d="M18.1,20.1h-1.9c-0.4,0-0.8-0.3-0.8-0.8s0.3-0.8,0.8-0.8h1.9c0.4,0,0.8,0.3,0.8,0.8S18.5,20.1,18.1,20.1z"/>
		</g>
	</g>
</g>
</svg>
