<?xml version="1.0" encoding="utf-8"?>
<!-- Generator: Adobe Illustrator 27.8.1, SVG Export Plug-In . SVG Version: 6.00 Build 0)  -->
<svg version="1.1" id="Layer_1" xmlns="http://www.w3.org/2000/svg" xmlns:xlink="http://www.w3.org/1999/xlink" x="0px" y="0px"
	 viewBox="0 0 24.876 18.807" style="enable-background:new 0 0 24.876 18.807;" xml:space="preserve">
<style type="text/css">
	.st0{fill:#55B6FF;}
</style>
<g>
	<path class="st0" d="M19.661,10.413c0-3.983-3.229-7.211-7.211-7.211s-7.211,3.229-7.211,7.211c0,1.718,0.603,3.293,1.605,4.531
		l-0.738,2.643c-0.07,0.252,0.16,0.485,0.413,0.419l3.338-0.871c0.806,0.312,1.679,0.489,2.594,0.489
		C16.433,17.625,19.661,14.396,19.661,10.413z"/>
	<path class="st0" d="M22.264,6.892c-0.013,0-0.023,0.007-0.035,0.007C20.788,2.885,16.954,0,12.45,0
		C7.944,0,4.109,2.887,2.669,6.904c-0.02-0.001-0.037-0.012-0.057-0.012c-0.094,0-0.186,0.011-0.275,0.03
		C1.028,7.088,0,8.421,0,10.029c0,1.718,1.175,3.124,2.612,3.124c0.728,0,1.324-0.596,1.324-1.324V8.216
		c0-0.344-0.141-0.653-0.358-0.889C4.854,3.65,8.344,1,12.45,1c4.097,0,7.58,2.64,8.864,6.304c-0.228,0.238-0.373,0.558-0.373,0.911
		v3.613c0,0.438,0.23,0.809,0.56,1.05c-0.393,1.435-1.114,2.764-2.13,3.871c-0.329-0.04-0.717,0.089-1.026,0.397
		c-0.461,0.461-0.558,1.113-0.216,1.455s0.993,0.245,1.455-0.216c0.25-0.25,0.382-0.553,0.406-0.835
		c1.188-1.252,2.028-2.773,2.477-4.42c0.024-0.004,0.049-0.003,0.072-0.008c1.309-0.166,2.337-1.499,2.337-3.107
		C24.876,8.298,23.701,6.892,22.264,6.892z"/>
</g>
</svg>
