<?xml version="1.0" encoding="utf-8"?>
<!-- Generator: Adobe Illustrator 27.1.1, SVG Export Plug-In . SVG Version: 6.00 Build 0)  -->
<svg version="1.1" id="Layer_1" xmlns="http://www.w3.org/2000/svg" xmlns:xlink="http://www.w3.org/1999/xlink" x="0px" y="0px"
	 viewBox="0 0 80.939 71.561" style="enable-background:new 0 0 80.939 71.561;" xml:space="preserve">
<style type="text/css">
	.st0{fill:#FFFFFF;}
	.st1{fill:#999999;}
	.st2{opacity:0.2;}
	.st3{fill:#00BE64;}
	.st4{fill:#666666;}
	.st5{fill:none;}
</style>
<g>
	<g>
		<g>
			<path class="st0" d="M75.469,47.255c0,1.87-1.515,2.708-3.383,2.708H31.912c-1.869,0-3.384-0.838-3.384-2.708V14.384
				c0-1.87,1.515-3.385,3.384-3.385h40.174c1.869,0,3.383,1.515,3.383,3.385V47.255z"/>
			<path class="st1" d="M72.086,51.213H31.912c-2.815,0-4.634-1.554-4.634-3.958V14.384c0-2.556,2.079-4.635,4.634-4.635h40.174
				c2.555,0,4.633,2.079,4.633,4.635v32.871C76.719,49.659,74.9,51.213,72.086,51.213z M31.912,12.249
				c-1.177,0-2.134,0.958-2.134,2.135v32.871c0,1.205,1.161,1.458,2.134,1.458h40.174c0.973,0,2.133-0.253,2.133-1.458V14.384
				c0-1.177-0.957-2.135-2.133-2.135H31.912z"/>
		</g>
		<g class="st2">
			<path class="st3" d="M75.469,47.255c0,1.87-1.515,2.708-3.383,2.708H31.912c-1.869,0-3.384-0.838-3.384-2.708V14.384
				c0-1.87,1.515-3.385,3.384-3.385h40.174c1.869,0,3.383,1.515,3.383,3.385V47.255z"/>
			<path class="st4" d="M72.086,51.213H31.912c-2.815,0-4.634-1.554-4.634-3.958V14.384c0-2.556,2.079-4.635,4.634-4.635h40.174
				c2.555,0,4.633,2.079,4.633,4.635v32.871C76.719,49.659,74.9,51.213,72.086,51.213z M31.912,12.249
				c-1.177,0-2.134,0.958-2.134,2.135v32.871c0,1.205,1.161,1.458,2.134,1.458h40.174c0.973,0,2.133-0.253,2.133-1.458V14.384
				c0-1.177-0.957-2.135-2.133-2.135H31.912z"/>
		</g>
		<path class="st4" d="M72.086,51.213H31.912c-2.815,0-4.634-1.554-4.634-3.958V14.384c0-2.556,2.079-4.635,4.634-4.635h40.174
			c2.555,0,4.633,2.079,4.633,4.635v32.871C76.719,49.659,74.9,51.213,72.086,51.213z M31.912,12.249
			c-1.177,0-2.134,0.958-2.134,2.135v32.871c0,1.205,1.161,1.458,2.134,1.458h40.174c0.973,0,2.133-0.253,2.133-1.458V14.384
			c0-1.177-0.957-2.135-2.133-2.135H31.912z"/>
		<g>
			<g>
				<path class="st0" d="M57.045,45.685h22.644v1.175v1.176v0.498v1.174c0,0.468-0.095,0.914-0.266,1.317
					c-0.172,0.406-0.419,0.771-0.726,1.077c-0.306,0.306-0.67,0.554-1.075,0.725c-0.405,0.172-0.85,0.266-1.318,0.266H64.152H51.999
					H39.845H27.693c-0.468,0-0.913-0.094-1.318-0.266c-0.404-0.171-0.768-0.419-1.075-0.725c-0.307-0.307-0.554-0.671-0.726-1.077
					c-0.171-0.403-0.266-0.85-0.266-1.317v-1.174v-0.498v-1.176v-1.175h22.644H57.045z"/>
				<path class="st4" d="M76.305,54.342H27.693c-0.627,0-1.235-0.123-1.806-0.365c-0.55-0.233-1.045-0.566-1.471-0.991
					c-0.426-0.427-0.761-0.923-0.994-1.476c-0.241-0.567-0.364-1.175-0.364-1.803v-5.272h57.88v5.272
					c0,0.626-0.123,1.234-0.365,1.805c-0.234,0.553-0.568,1.049-0.994,1.474c-0.425,0.424-0.92,0.758-1.472,0.991
					C77.54,54.219,76.933,54.342,76.305,54.342z M25.559,46.935v2.772c0,0.291,0.056,0.569,0.166,0.829
					c0.108,0.257,0.263,0.485,0.459,0.682c0.196,0.196,0.425,0.35,0.678,0.457c0.261,0.111,0.541,0.167,0.831,0.167h48.611
					c0.291,0,0.57-0.056,0.829-0.166c0.256-0.108,0.484-0.262,0.68-0.458s0.351-0.425,0.458-0.68
					c0.111-0.262,0.167-0.541,0.167-0.831v-2.772H25.559z"/>
			</g>
		</g>
	</g>
	<g>
		<g>
			<g>
				<g>
					<g>
						<g>
							<polygon class="st0" points="40.162,23.155 40.162,30.457 46.079,30.457 51.999,30.457 57.917,30.457 63.836,30.457 
								63.836,24.419 63.836,18.38 63.836,12.343 63.836,6.304 62.511,5.042 61.189,3.777 59.865,2.512 58.542,1.25 53.947,1.25 
								49.352,1.25 44.757,1.25 40.162,1.25 40.162,18.688 							"/>
							<path class="st4" d="M65.086,31.707H38.912V0h20.13l6.043,5.768V31.707z M41.412,29.207h21.173V6.839L58.042,2.5H41.412
								V29.207z"/>
						</g>
					</g>
				</g>
			</g>
		</g>
	</g>
	<g>
		<path class="st3" d="M47.386,11.905h1.976l5.291,6.371v-6.501h2.366v10.596h-1.976L49.752,16v6.5h-2.366V11.905z"/>
	</g>
	<g>
		<g>
			<path class="st0" d="M40.256,60.958c0-9.615-8.716-17.432-19.589-17.432c-10.783,0-19.589,7.818-19.589,17.432v9.525h8.446
				V60.149v10.333h22.195V60.149v10.333h8.446v-9.525H40.256z"/>
			<path class="st4" d="M40.256,71.561H1.078C0.449,71.561,0,71.112,0,70.483v-9.525c0-10.244,9.255-18.51,20.667-18.51
				s20.667,8.357,20.667,18.51v9.525C41.334,71.112,40.795,71.561,40.256,71.561z M32.887,69.404h6.29v-8.446
				c0-8.986-8.267-16.354-18.421-16.354S2.336,51.972,2.336,60.958v8.446h6.29v-9.255c0-0.629,0.449-1.078,1.078-1.078
				s1.078,0.449,1.078,1.078v9.165h19.858v-9.165c0-0.629,0.449-1.078,1.078-1.078s1.078,0.449,1.078,1.078v9.255H32.887z"/>
		</g>
		<g>
			<g>
				<path class="st0" d="M35.403,34.899c0,4.044-1.617,7.728-4.313,10.423s-6.38,4.313-10.423,4.313s-7.728-1.617-10.423-4.313
					s-4.313-6.38-4.313-10.423s1.617-7.728,4.313-10.423s6.38-4.313,10.423-4.313s7.728,1.617,10.423,4.313
					C33.696,27.172,35.403,30.856,35.403,34.899z"/>
				<path class="st4" d="M20.667,50.714c-4.223,0-8.177-1.617-11.142-4.673c-2.965-2.965-4.673-6.919-4.673-11.142
					s1.617-8.177,4.673-11.142c2.965-2.965,6.919-4.673,11.142-4.673s8.177,1.617,11.232,4.673
					c2.965,2.965,4.673,6.919,4.673,11.142s-1.617,8.177-4.673,11.142C28.844,49.097,24.89,50.714,20.667,50.714z M20.667,21.331
					c-3.684,0-7.099,1.438-9.615,3.954c-2.606,2.606-3.954,6.02-3.954,9.615c0,3.594,1.438,7.099,3.954,9.615
					c2.606,2.606,6.02,3.954,9.615,3.954s7.099-1.438,9.615-3.954c2.606-2.606,3.954-6.02,3.954-9.615
					c0-3.594-1.438-7.099-3.954-9.615C27.676,22.679,24.261,21.331,20.667,21.331z"/>
			</g>
			<g>
				<g>
					<line class="st5" x1="15.545" y1="31.934" x2="15.545" y2="34.181"/>
					<path class="st4" d="M15.545,35.259c-0.629,0-1.078-0.449-1.078-1.078v-2.246c0-0.629,0.449-1.078,1.078-1.078
						s1.078,0.449,1.078,1.078v2.246C16.623,34.81,16.084,35.259,15.545,35.259z"/>
				</g>
				<g>
					<line class="st5" x1="25.789" y1="31.934" x2="25.789" y2="34.181"/>
					<path class="st4" d="M25.789,35.259c-0.629,0-1.078-0.449-1.078-1.078v-2.246c0-0.629,0.449-1.078,1.078-1.078
						c0.629,0,1.078,0.449,1.078,1.078v2.246C26.867,34.81,26.418,35.259,25.789,35.259z"/>
				</g>
			</g>
			<g>
				<path class="st0" d="M24.8,40.111c-1.078,1.078-2.516,1.707-4.133,1.707l0,0l0,0c-1.617,0-3.055-0.629-4.133-1.707"/>
				<path class="st4" d="M20.667,42.897c-1.887,0-3.594-0.719-4.852-1.977c-0.449-0.449-0.449-1.168,0-1.528
					c0.449-0.449,1.168-0.449,1.528,0c0.899,0.899,2.067,1.348,3.325,1.348s2.426-0.449,3.325-1.348
					c0.449-0.449,1.168-0.449,1.528,0c0.449,0.449,0.449,1.168,0,1.528C24.261,42.178,22.464,42.897,20.667,42.897z"/>
			</g>
		</g>
	</g>
	<polygon class="st3" points="15.434,3.165 13.034,3.165 13.034,5.565 10.634,5.565 10.634,8.065 13.034,8.065 13.034,10.465 
		15.434,10.465 15.434,8.065 17.934,8.065 17.934,5.565 15.434,5.565 	"/>
	<polygon class="st4" points="52.723,60.415 50.223,60.415 50.223,62.815 47.823,62.815 47.823,65.215 50.223,65.215 50.223,67.715 
		52.723,67.715 52.723,65.215 55.123,65.215 55.123,62.815 52.723,62.815 	"/>
	<rect x="58.323" y="62.815" class="st4" width="20.962" height="2.4"/>
	<g>
		<polyline class="st0" points="57.537,1.25 57.537,7.517 63.836,7.517 		"/>
		<polygon class="st4" points="63.836,8.768 56.287,8.768 56.287,1.25 58.787,1.25 58.787,6.268 63.836,6.268 		"/>
	</g>
</g>
</svg>
