<?xml version="1.0" encoding="utf-8"?>
<!-- Generator: Adobe Illustrator 27.1.1, SVG Export Plug-In . SVG Version: 6.00 Build 0)  -->
<svg version="1.1" id="Layer_1" xmlns="http://www.w3.org/2000/svg" xmlns:xlink="http://www.w3.org/1999/xlink" x="0px" y="0px"
	 viewBox="0 0 15.582 14.791" style="enable-background:new 0 0 15.582 14.791;" xml:space="preserve">
<style type="text/css">
	.st0{fill:#1E88E3;}
</style>
<g>
	<path class="st0" d="M14.832,0h-4.103c-0.414,0-0.75,0.336-0.75,0.75s0.336,0.75,0.75,0.75h2.339L7.703,6.865
		c-0.293,0.293-0.293,0.768,0,1.061c0.146,0.146,0.338,0.22,0.53,0.22s0.384-0.073,0.53-0.22l5.318-5.318v2.246
		c0,0.414,0.336,0.75,0.75,0.75s0.75-0.336,0.75-0.75V0.75C15.582,0.336,15.246,0,14.832,0z"/>
	<path class="st0" d="M14.832,8.646c-0.414,0-0.75,0.336-0.75,0.75v3.648c0,0.136-0.11,0.247-0.247,0.247H1.747
		c-0.137,0-0.247-0.111-0.247-0.247V1.748C1.5,1.611,1.61,1.5,1.747,1.5h4.044c0.414,0,0.75-0.336,0.75-0.75S6.205,0,5.791,0H1.747
		C0.784,0,0,0.784,0,1.748v11.296c0,0.963,0.784,1.747,1.747,1.747h12.088c0.963,0,1.747-0.784,1.747-1.747V9.396
		C15.582,8.981,15.246,8.646,14.832,8.646z"/>
</g>
</svg>
