<?xml version="1.0" encoding="utf-8"?>
<!-- Generator: Adobe Illustrator 24.1.1, SVG Export Plug-In . SVG Version: 6.00 Build 0)  -->
<svg version="1.1" id="Layer_1" xmlns="http://www.w3.org/2000/svg" xmlns:xlink="http://www.w3.org/1999/xlink" x="0px" y="0px"
	 viewBox="0 0 16 16" style="enable-background:new 0 0 16 16;" xml:space="preserve">
<g>
	<path d="M9.94,5.96c0.42,0,0.76,0.34,0.76,0.76V9.4c0,0.42-0.34,0.76-0.76,0.76H5.61c-0.42,0-0.76-0.34-0.76-0.76V6.72
		c0-0.42,0.34-0.76,0.76-0.76H9.94z"/>
	<path d="M0.72,9.89c0.35-0.13,0.74,0.06,0.86,0.41c0.6,1.65,1.8,2.98,3.4,3.73c1.6,0.75,3.39,0.83,5.04,0.24
		c1.65-0.6,2.98-1.8,3.73-3.4c0.75-1.6,0.84-3.39,0.24-5.04c-0.6-1.65-1.8-2.98-3.4-3.73C8.99,1.34,7.2,1.26,5.55,1.85
		C4.58,2.2,3.71,2.77,3.01,3.51l2.05-0.16l0,0c0.02,0,0.03-0.01,0.05-0.01c0.37,0,0.68,0.3,0.68,0.68c0,0.35-0.28,0.64-0.62,0.66
		l0,0.01L1.54,4.97c-0.02,0-0.04,0-0.05,0c-0.18,0-0.35-0.07-0.47-0.2C0.87,4.64,0.8,4.45,0.82,4.25l0.27-3.63
		C1.12,0.25,1.44-0.02,1.81,0c0.37,0.03,0.65,0.35,0.62,0.72l-0.12,1.6C3.1,1.57,4.04,0.97,5.09,0.59c1.99-0.72,4.15-0.62,6.07,0.29
		c1.92,0.9,3.37,2.5,4.09,4.49c0.72,1.99,0.61,4.15-0.29,6.07c-0.9,1.92-2.5,3.37-4.49,4.09C9.6,15.84,8.69,16,7.78,16
		c-1.15,0-2.3-0.25-3.38-0.76c-1.92-0.9-3.37-2.5-4.09-4.49C0.19,10.4,0.37,10.01,0.72,9.89z"/>
</g>
</svg>
