<?xml version="1.0" encoding="utf-8"?>
<!-- Generator: Adobe Illustrator 25.2.1, SVG Export Plug-In . SVG Version: 6.00 Build 0)  -->
<svg version="1.1" id="Layer_1" xmlns="http://www.w3.org/2000/svg" xmlns:xlink="http://www.w3.org/1999/xlink" x="0px" y="0px"
	 viewBox="0 0 18 17.2" style="enable-background:new 0 0 18 17.2;" xml:space="preserve">
<style type="text/css">
	.st0{fill:#FFCC00;}
</style>
<g>
	<path class="st0" d="M9.4,0.3l2.4,4.8c0.1,0.1,0.2,0.2,0.4,0.3l5.3,0.8C18,6.2,18.1,6.7,17.9,7l-3.8,3.8c-0.1,0.1-0.2,0.3-0.1,0.4
		l0.8,5.3c0.1,0.4-0.4,0.7-0.7,0.5l-4.8-2.4c-0.1-0.1-0.3-0.1-0.5,0L4,17.1c-0.4,0.2-0.8-0.1-0.7-0.5l0.8-5.3c0-0.2,0-0.3-0.1-0.4
		L0.1,7C-0.1,6.7,0,6.2,0.4,6.2l5.3-0.8c0.2,0,0.3-0.1,0.4-0.3l2.4-4.8C8.7-0.1,9.3-0.1,9.4,0.3z"/>
</g>
</svg>
