<?xml version="1.0" encoding="utf-8"?>
<!-- Generator: Adobe Illustrator 27.9.4, SVG Export Plug-In . SVG Version: 9.03 Build 54784)  -->
<svg version="1.1" id="Layer_1" xmlns="http://www.w3.org/2000/svg" xmlns:xlink="http://www.w3.org/1999/xlink" x="0px" y="0px"
	 viewBox="0 0 150 150" style="enable-background:new 0 0 150 150;" xml:space="preserve">
<path d="M87.398,75.266l59.423-59.426c3.503-3.503,3.503-9.178,0-12.681s-9.178-3.503-12.681,0L74.717,62.585L15.294,3.16
	c-3.503-3.503-9.178-3.503-12.681,0s-3.503,9.178,0,12.681l59.423,59.426L2.613,134.692c-3.503,3.503-3.503,9.178,0,12.681
	C4.365,149.124,6.659,150,8.954,150s4.589-0.876,6.34-2.627l59.423-59.426l59.423,59.426c1.751,1.752,4.04,2.627,6.34,2.627
	c2.3,0,4.589-0.876,6.34-2.627c3.503-3.503,3.503-9.178,0-12.681L87.398,75.266z"/>
</svg>
