<?xml version="1.0" encoding="utf-8"?>
<!-- Generator: Adobe Illustrator 24.1.1, SVG Export Plug-In . SVG Version: 6.00 Build 0)  -->
<svg version="1.1" id="Layer_1" xmlns="http://www.w3.org/2000/svg" xmlns:xlink="http://www.w3.org/1999/xlink" x="0px" y="0px"
	 viewBox="0 0 16 16" style="enable-background:new 0 0 16 16;" xml:space="preserve">
<g>
	<path d="M6.06,5.96C5.64,5.96,5.3,6.3,5.3,6.72V9.4c0,0.42,0.34,0.76,0.76,0.76h4.33c0.42,0,0.76-0.34,0.76-0.76V6.72
		c0-0.42-0.34-0.76-0.76-0.76H6.06z"/>
	<path d="M15.28,9.89c-0.35-0.13-0.74,0.06-0.86,0.41c-0.6,1.65-1.8,2.98-3.4,3.73c-1.6,0.75-3.39,0.83-5.04,0.24
		c-1.65-0.6-2.98-1.8-3.73-3.4C1.5,9.27,1.42,7.48,2.01,5.82c0.6-1.65,1.8-2.98,3.4-3.73c1.6-0.75,3.39-0.84,5.04-0.24
		c0.97,0.35,1.83,0.92,2.54,1.66l-2.05-0.16l0,0c-0.02,0-0.03-0.01-0.05-0.01c-0.37,0-0.68,0.3-0.68,0.68
		c0,0.35,0.28,0.64,0.62,0.66l0,0.01l3.63,0.28c0.02,0,0.04,0,0.05,0c0.18,0,0.35-0.07,0.47-0.2c0.14-0.14,0.21-0.33,0.2-0.53
		l-0.27-3.63C14.88,0.25,14.56-0.02,14.19,0c-0.37,0.03-0.65,0.35-0.62,0.72l0.12,1.6c-0.79-0.76-1.73-1.36-2.78-1.74
		C8.91-0.13,6.76-0.03,4.84,0.87c-1.92,0.9-3.37,2.5-4.09,4.49c-0.72,1.99-0.61,4.15,0.29,6.07c0.9,1.92,2.5,3.37,4.49,4.09
		C6.4,15.84,7.31,16,8.22,16c1.15,0,2.3-0.25,3.38-0.76c1.92-0.9,3.37-2.5,4.09-4.49C15.81,10.4,15.63,10.01,15.28,9.89z"/>
</g>
</svg>
