<?xml version="1.0" encoding="utf-8"?>
<!-- Generator: Adobe Illustrator 24.3.0, SVG Export Plug-In . SVG Version: 6.00 Build 0)  -->
<svg version="1.1" id="Layer_1" xmlns="http://www.w3.org/2000/svg" xmlns:xlink="http://www.w3.org/1999/xlink" x="0px" y="0px"
	 viewBox="0 0 16 16" style="enable-background:new 0 0 16 16;" xml:space="preserve">
<g>
	<path d="M15.15,14.29H0.85c-0.41,0-0.75,0.34-0.75,0.75s0.34,0.75,0.75,0.75h14.29c0.41,0,0.75-0.34,0.75-0.75
		S15.56,14.29,15.15,14.29z"/>
	<path d="M7.47,12.39c0.07,0.07,0.15,0.12,0.24,0.16C7.8,12.59,7.9,12.61,8,12.61s0.2-0.02,0.29-0.06c0.09-0.04,0.17-0.09,0.24-0.16
		l3.12-3.12c0.29-0.29,0.29-0.77,0-1.06s-0.77-0.29-1.06,0l-1.84,1.84V0.96c0-0.41-0.34-0.75-0.75-0.75S7.25,0.54,7.25,0.96v9.09
		L5.41,8.21c-0.29-0.29-0.77-0.29-1.06,0s-0.29,0.77,0,1.06L7.47,12.39z"/>
</g>
</svg>
