<?xml version="1.0" encoding="utf-8"?>
<!-- Generator: Adobe Illustrator 27.2.0, SVG Export Plug-In . SVG Version: 6.00 Build 0)  -->
<svg version="1.1" id="Layer_1" xmlns="http://www.w3.org/2000/svg" xmlns:xlink="http://www.w3.org/1999/xlink" x="0px" y="0px"
	 viewBox="0 0 27.325 27.1" style="enable-background:new 0 0 27.325 27.1;" xml:space="preserve">
<style type="text/css">
	.st0{fill:#E54160;}
</style>
<path class="st0" d="M3.503,6.692C3.441,6.367,3.655,6.053,3.98,5.991c0.323-0.064,0.64,0.152,0.701,0.478
	c0.127,0.67,0.797,1.156,1.592,1.156s1.465-0.486,1.592-1.156c0.062-0.325,0.38-0.538,0.701-0.478
	c0.326,0.062,0.54,0.375,0.478,0.701c-0.233,1.236-1.398,2.133-2.77,2.133S3.737,7.928,3.503,6.692z M21.051,8.825
	c1.371,0,2.537-0.897,2.771-2.132c0.062-0.326-0.152-0.64-0.479-0.701c-0.319-0.061-0.639,0.152-0.701,0.478
	c-0.127,0.67-0.796,1.156-1.592,1.156S19.585,7.14,19.458,6.47c-0.062-0.325-0.381-0.539-0.701-0.478
	c-0.326,0.062-0.54,0.375-0.479,0.701C18.514,7.928,19.68,8.825,21.051,8.825z M26.76,8.87c0,0.004,0.002,0.007,0.002,0.011V20.5
	c0,1.434-1.166,2.6-2.6,2.6H15.93l0.7,2.801h2.531c0.331,0,0.6,0.269,0.6,0.6s-0.269,0.6-0.6,0.6H16.17
	c-0.003,0-0.005,0.001-0.008,0.001c-0.002,0-0.004-0.001-0.006-0.001h-4.988c-0.002,0-0.004,0.001-0.006,0.001
	c-0.003,0-0.005-0.001-0.008-0.001H8.163c-0.332,0-0.6-0.269-0.6-0.6s0.269-0.6,0.6-0.6h2.531l0.7-2.801H3.163
	c-1.434,0-2.6-1.166-2.6-2.6V8.864C0.197,8.065,0,7.186,0,6.274C0,2.814,2.814,0,6.274,0c1.763,0,3.355,0.733,4.496,1.907
	c0.013,0,0.024-0.007,0.037-0.007h5.756c1.14-1.17,2.73-1.9,4.489-1.9c3.459,0,6.273,2.814,6.273,6.274
	C27.325,7.188,27.127,8.069,26.76,8.87z M15.977,6.274c0,1.752,0.899,3.358,2.404,4.296c0.193,0.121,0.302,0.341,0.279,0.568
	c-0.022,0.228-0.172,0.422-0.386,0.502c-1.183,0.444-2.257,1.177-3.106,2.12c-0.271,0.308-0.765,0.898-0.911,1.148
	c-0.008,0.014-0.024,0.02-0.034,0.033c0.015,0.033,0.029,0.067,0.044,0.1c1.368,0.07,3.47-0.244,3.492-0.248
	c1.84-0.478,3.34-1.165,3.953-1.825c0.225-0.244,0.605-0.256,0.848-0.032c0.243,0.226,0.257,0.605,0.031,0.848
	c-0.785,0.846-2.416,1.622-4.593,2.182c-0.082,0.014-0.74,0.113-1.56,0.19c0.198,0.155,0.376,0.32,0.512,0.505
	c0.466,0.641,0.406,1.254,0.358,1.488c-0.013,0.166-0.084,0.477-0.34,0.814c0.484-0.026,0.878-0.075,0.959-0.085
	c2.959-0.381,6.12-2.113,7.36-4.032c0.009-0.013,0.2-0.291,0.256-0.42c0.005-0.011,0.014-0.018,0.02-0.028v-1.86
	c-0.017-0.019-0.038-0.031-0.053-0.053c0.015,0.021-0.101-0.053-0.177-0.093c-0.506-0.318-0.997-0.562-1.506-0.754
	c-0.214-0.08-0.363-0.275-0.386-0.502c-0.022-0.227,0.086-0.448,0.279-0.568c1.505-0.937,2.404-2.543,2.404-4.296
	c0-2.798-2.276-5.074-5.074-5.074S15.977,3.476,15.977,6.274z M1.2,6.274c0,1.752,0.898,3.358,2.404,4.296
	c0.194,0.121,0.302,0.341,0.28,0.568c-0.022,0.228-0.172,0.422-0.386,0.502c-0.614,0.231-1.194,0.544-1.735,0.92v2.134
	c0.01,0.014,0.026,0.022,0.035,0.037c0.133,0.216,0.262,0.451,0.262,0.451c1.117,1.725,4.209,3.295,7.332,3.696
	c4.372,0.559,5.912-0.045,6.441-0.456c0.257-0.2,0.279-0.361,0.279-0.368c-0.003-0.068,0.006-0.096,0.025-0.161
	c0.002-0.009,0.051-0.259-0.181-0.555c-0.312-0.399-1.287-1.077-4.304-1.128c-3.938-0.064-5.134-1.016-6.02-1.985
	c-0.224-0.244-0.207-0.624,0.038-0.848c0.243-0.222,0.623-0.208,0.848,0.038c0.559,0.61,1.402,1.533,5.154,1.595
	c0.464,0.008,0.891,0.035,1.299,0.072c-0.829-1.652-2.092-2.757-3.921-3.444c-0.214-0.08-0.364-0.275-0.386-0.502
	c-0.022-0.227,0.086-0.448,0.28-0.568c1.505-0.938,2.404-2.543,2.404-4.296c0-2.798-2.276-5.074-5.074-5.074S1.2,3.476,1.2,6.274z
	 M14.694,23.099h-2.063l-0.7,2.801h3.463L14.694,23.099z M25.563,20.5v-4.08c-1.681,1.81-4.623,3.283-7.477,3.649
	c-0.194,0.026-0.9,0.111-1.662,0.111c-0.433,0-0.884-0.027-1.271-0.109c-0.026-0.006-0.046-0.022-0.071-0.031
	c-0.702,0.176-1.56,0.265-2.572,0.265c-0.955,0-2.046-0.078-3.272-0.236c-2.98-0.383-5.859-1.718-7.476-3.381V20.5
	c0,0.771,0.628,1.4,1.4,1.4h21C24.934,21.9,25.563,21.271,25.563,20.5z"/>
</svg>
