<?xml version="1.0" encoding="utf-8"?>
<!-- Generator: Adobe Illustrator 27.9.1, SVG Export Plug-In . SVG Version: 6.00 Build 0)  -->
<svg version="1.1" id="Layer_1" xmlns="http://www.w3.org/2000/svg" xmlns:xlink="http://www.w3.org/1999/xlink" x="0px" y="0px"
	 viewBox="0 0 35.542 25.586" style="enable-background:new 0 0 35.542 25.586;" xml:space="preserve">
<style type="text/css">
	.st0{fill:#6DC34A;}
</style>
<g>
	<path class="st0" d="M20.698,8.306c-0.4-0.076-0.8,0.189-0.877,0.597c-0.172,0.91-1.079,1.57-2.156,1.57s-1.984-0.66-2.157-1.57
		c-0.077-0.407-0.468-0.674-0.877-0.597c-0.407,0.077-0.674,0.47-0.597,0.877c0.307,1.617,1.834,2.79,3.631,2.79
		s3.324-1.173,3.631-2.791C21.373,8.776,21.105,8.383,20.698,8.306z"/>
	<path class="st0" d="M35.346,18.813c-1.022-2.084-2.731-3.767-4.8-4.768c1.473-1.283,2.345-3.154,2.345-5.15
		c0-2.066-0.92-3.999-2.524-5.303c-1.605-1.305-3.709-1.806-5.769-1.376c-0.32,0.067-0.634,0.167-0.944,0.282
		c-1.297-1.329-3.027-2.234-4.932-2.446c-2.348-0.261-4.692,0.485-6.436,2.045c-0.141,0.127-0.27,0.264-0.401,0.4
		c-0.309-0.115-0.621-0.215-0.94-0.281C8.883,1.787,6.78,2.288,5.176,3.592C3.571,4.896,2.651,6.829,2.651,8.895
		c0,1.997,0.873,3.867,2.344,5.15c-2.068,1-3.776,2.683-4.8,4.767c-0.288,0.586-0.256,1.264,0.086,1.813
		c0.335,0.537,0.914,0.858,1.548,0.858h4.536c-0.157,0.494-0.29,0.998-0.381,1.516c-0.111,0.629,0.065,1.275,0.482,1.773
		c0.434,0.517,1.069,0.813,1.743,0.813h19.142c0.674,0,1.309-0.297,1.743-0.813c0.417-0.498,0.593-1.145,0.481-1.774
		c-0.091-0.517-0.224-1.021-0.381-1.515h4.518c0.635,0,1.214-0.321,1.549-0.858C35.603,20.076,35.634,19.397,35.346,18.813z
		 M1.83,19.984c-0.149,0-0.232-0.082-0.275-0.151c-0.032-0.051-0.097-0.188-0.013-0.358c1.057-2.153,2.969-3.806,5.244-4.532
		c0.285-0.092,0.489-0.344,0.518-0.643c0.029-0.298-0.123-0.585-0.385-0.729c-1.707-0.939-2.767-2.73-2.767-4.675
		c0-1.612,0.718-3.121,1.971-4.14c1.252-1.019,2.899-1.409,4.517-1.071c0.082,0.017,0.163,0.045,0.245,0.066
		c-0.862,1.326-1.345,2.88-1.345,4.489c0,2.398,1.033,4.626,2.815,6.179c-2.374,1.21-4.259,3.188-5.389,5.565H1.83z M27.945,23.809
		c-0.148,0.176-0.364,0.277-0.594,0.277H8.209c-0.229,0-0.446-0.102-0.594-0.277c-0.078-0.093-0.2-0.286-0.154-0.55
		c0.639-3.62,3.183-6.676,6.638-7.974c0.267-0.101,0.455-0.344,0.482-0.628c0.028-0.284-0.107-0.56-0.35-0.711
		c-2-1.246-3.193-3.379-3.193-5.708c0-1.915,0.819-3.747,2.248-5.025c1.252-1.12,2.821-1.716,4.484-1.716
		c0.26,0,0.522,0.015,0.785,0.044c3.133,0.348,5.687,2.987,5.942,6.138c0.203,2.52-1.012,4.92-3.171,6.266
		c-0.242,0.151-0.378,0.427-0.35,0.711s0.215,0.527,0.482,0.628c3.455,1.298,5.999,4.354,6.639,7.974
		C28.145,23.522,28.022,23.716,27.945,23.809z M33.987,19.832c-0.043,0.069-0.125,0.151-0.274,0.151h-5.118
		c-1.13-2.377-3.016-4.357-5.39-5.566c1.952-1.705,3.002-4.228,2.789-6.858c-0.112-1.385-0.593-2.687-1.334-3.809
		c0.082-0.021,0.162-0.049,0.245-0.066c1.62-0.338,3.265,0.054,4.517,1.071c1.252,1.019,1.971,2.527,1.971,4.14
		c0,1.944-1.061,3.736-2.768,4.675c-0.263,0.145-0.414,0.432-0.385,0.729c0.028,0.299,0.232,0.551,0.518,0.643
		c2.275,0.728,4.187,2.379,5.244,4.532C34.085,19.644,34.019,19.782,33.987,19.832z"/>
</g>
</svg>
