<?xml version="1.0" encoding="utf-8"?>
<!-- Generator: Adobe Illustrator 27.9.4, SVG Export Plug-In . SVG Version: 9.03 Build 54784)  -->
<svg version="1.1" id="Layer_1" xmlns="http://www.w3.org/2000/svg" xmlns:xlink="http://www.w3.org/1999/xlink" x="0px" y="0px"
	 viewBox="0 0 28.4 25.5" style="enable-background:new 0 0 28.4 25.5;" xml:space="preserve">
<style type="text/css">
	.st0{fill:#1AC6ED;}
</style>
<g>
	<path class="st0" d="M18,12.2c0.1-0.4-0.2-0.8-0.6-0.9c-0.4-0.1-0.8,0.2-0.9,0.6c-0.2,1-1.2,1.7-2.4,1.7c-1.2,0-2.2-0.7-2.4-1.7
		c-0.1-0.4-0.5-0.7-0.9-0.6c-0.4,0.1-0.7,0.5-0.6,0.9c0.3,1.7,1.9,2.9,3.8,2.9C16.1,15.1,17.7,13.9,18,12.2z"/>
	<path class="st0" d="M4.3,12.3c0.1-0.2,0.2-0.5,0-0.8c-0.1-0.2-0.4-0.4-0.6-0.4H3.1c0.8-5.5,5.5-9.7,11.1-9.7
		c4.3,0,8.2,2.4,10.1,6.2c0.2,0.4,0.6,0.5,1,0.3c0.4-0.2,0.5-0.6,0.3-1C23.4,2.7,19.1,0,14.2,0C7.7,0,2.4,4.9,1.6,11.2H0.7
		c-0.3,0-0.5,0.1-0.6,0.4c-0.1,0.2-0.1,0.5,0,0.8l1.5,2.3c0.1,0.2,0.4,0.3,0.6,0.3s0.5-0.1,0.6-0.3L4.3,12.3z"/>
	<path class="st0" d="M28.3,13.2l-1.5-2.3c-0.3-0.4-1-0.4-1.2,0l-1.5,2.3c-0.1,0.2-0.2,0.5,0,0.8c0.1,0.2,0.4,0.4,0.6,0.4h0.6
		c-0.3,2.3-1.3,4.3-2.8,5.9c-1-1.6-2.4-3-4.1-3.8c1.7-1.5,2.5-3.8,2-6.1c-0.5-2.5-2.5-4.5-4.9-5c-1.9-0.4-3.9,0.1-5.4,1.3
		c-1.5,1.2-2.4,3-2.4,5c0,1.9,0.8,3.6,2.2,4.8c-1.7,0.8-3.2,2.2-4.1,3.8c-0.7-0.7-1.3-1.6-1.7-2.5c-0.2-0.4-0.6-0.5-1-0.3
		c-0.4,0.2-0.5,0.6-0.3,1c2.2,4.4,6.5,7.1,11.4,7.1c6.5,0,11.8-4.9,12.6-11.2h0.8c0.3,0,0.5-0.1,0.6-0.4
		C28.5,13.7,28.5,13.4,28.3,13.2z M6.9,21.4c1-1.9,2.7-3.4,4.8-4c0.3-0.1,0.5-0.3,0.5-0.6c0-0.3-0.1-0.6-0.4-0.7
		c-1.6-0.9-2.6-2.5-2.6-4.3c0-1.5,0.7-2.9,1.8-3.8c1.2-0.9,2.7-1.3,4.2-1c1.9,0.4,3.4,1.9,3.8,3.8c0.4,2.1-0.6,4.3-2.5,5.3
		c-0.3,0.1-0.4,0.4-0.4,0.7c0,0.3,0.2,0.5,0.5,0.6c2,0.7,3.8,2.1,4.8,4C19.5,23,17,24,14.2,24C11.5,24,8.9,23.1,6.9,21.4z"/>
</g>
</svg>
