<?xml version="1.0" encoding="utf-8"?>
<!-- Generator: Adobe Illustrator 27.2.0, SVG Export Plug-In . SVG Version: 6.00 Build 0)  -->
<svg version="1.1" id="Layer_1" xmlns="http://www.w3.org/2000/svg" xmlns:xlink="http://www.w3.org/1999/xlink" x="0px" y="0px"
	 viewBox="0 0 25.94 31.253" style="enable-background:new 0 0 25.94 31.253;" xml:space="preserve">
<style type="text/css">
	.st0{fill:#008FD5;}
</style>
<path class="st0" d="M16.976,21.848c0,0.625-0.507,1.132-1.132,1.132c-0.625,0-1.132-0.507-1.132-1.132
	c0-0.625,0.507-1.132,1.132-1.132C16.469,20.716,16.976,21.222,16.976,21.848z M25.94,19.338v5.133c0,0.859-0.623,1.572-1.44,1.719
	v2.313c0,1.516-1.233,2.75-2.75,2.75h-19c-1.517,0-2.75-1.234-2.75-2.75V15.307c0-1.516,1.233-2.75,2.75-2.75H5.5
	c0.706-0.856,1.552-1.575,2.511-2.107C6.834,9.316,6.158,7.76,6.158,6.092C6.158,2.733,8.891,0,12.25,0
	c3.358,0,6.091,2.733,6.091,6.092c0,1.668-0.675,3.224-1.853,4.358c0.959,0.532,1.805,1.25,2.511,2.107h2.75
	c1.517,0,2.75,1.234,2.75,2.75v2.313C25.317,17.767,25.94,18.48,25.94,19.338z M24.44,19.338c0-0.138-0.112-0.25-0.25-0.25h-8.374
	c-1.553,0-2.816,1.264-2.816,2.816c0,1.553,1.264,2.817,2.816,2.817h8.374c0.138,0,0.25-0.112,0.25-0.25V19.338z M7.586,12.557
	h9.329c-0.629-0.529-1.343-0.95-2.116-1.24c-0.268-0.101-0.454-0.344-0.482-0.628s0.107-0.56,0.35-0.711
	c1.361-0.849,2.175-2.302,2.175-3.887c0-2.532-2.06-4.592-4.591-4.592c-2.532,0-4.592,2.06-4.592,4.592
	c0,1.585,0.813,3.038,2.176,3.887c0.242,0.151,0.378,0.427,0.35,0.711s-0.215,0.527-0.482,0.628
	C8.928,11.608,8.214,12.028,7.586,12.557z M23,28.503v-2.281h-7.184c-2.38,0-4.316-1.937-4.316-4.316
	c0-2.38,1.937-4.317,4.316-4.317H23v-2.281c0-0.689-0.561-1.25-1.25-1.25h-3.079c-0.006,0-0.011,0.002-0.017,0.002H5.847
	c-0.006,0-0.011-0.002-0.017-0.002H2.75c-0.689,0-1.25,0.561-1.25,1.25v13.196c0,0.689,0.561,1.25,1.25,1.25h19
	C22.439,29.753,23,29.192,23,28.503z M15.169,6.798c0.077-0.407-0.19-0.799-0.598-0.876c-0.402-0.075-0.8,0.19-0.877,0.597
	c-0.111,0.589-0.732,1.033-1.444,1.033s-1.333-0.444-1.444-1.033c-0.077-0.407-0.478-0.672-0.877-0.597
	c-0.407,0.077-0.675,0.47-0.598,0.876c0.248,1.306,1.476,2.254,2.919,2.254S14.921,8.104,15.169,6.798z"/>
</svg>
