<?xml version="1.0" encoding="utf-8"?>
<!-- Generator: Adobe Illustrator 27.9.1, SVG Export Plug-In . SVG Version: 6.00 Build 0)  -->
<svg version="1.1" id="Layer_1" xmlns="http://www.w3.org/2000/svg" xmlns:xlink="http://www.w3.org/1999/xlink" x="0px" y="0px"
	 viewBox="0 0 27.758 25.548" style="enable-background:new 0 0 27.758 25.548;" xml:space="preserve">
<style type="text/css">
	.st0{fill:#00C0B5;}
</style>
<g>
	<path class="st0" d="M26.008,0h-17.2c-0.965,0-1.75,0.785-1.75,1.75v7.942C7.002,9.699,6.964,9.707,6.902,9.714
		c-1.194,0.139-3.678,0.428-5.516,3.354c-1.25,1.991-1.673,4.364-1.191,6.682c0.453,2.179,1.92,3.884,1.932,3.891
		c0.059,0.085,1.354,1.908,3.685,1.908c0.229,0,0.469-0.018,0.718-0.057c0.277-0.043,0.52-0.122,0.74-0.223
		C7.406,25.41,7.596,25.5,7.808,25.5h18.2c0.965,0,1.75-0.785,1.75-1.75v-22C27.758,0.785,26.973,0,26.008,0z M6.299,24.009
		c-1.832,0.289-2.9-1.166-2.991-1.288c-0.013-0.015-1.274-1.49-1.646-3.276c-0.403-1.937-0.05-3.918,0.993-5.579
		c1.448-2.305,3.292-2.53,4.402-2.659v3.108c0,0.012,0.006,0.022,0.007,0.034c-0.532,0.541-0.965,0.79-1.017,0.821
		c-0.106,0.07-0.293,0.14-0.37,0.113c-0.027-0.009-0.099-0.073-0.172-0.259c-0.153-0.385-0.591-0.575-0.974-0.421
		c-0.385,0.152-0.574,0.589-0.421,0.974c0.299,0.753,0.784,1.038,1.138,1.144c0.819,0.244,1.57-0.26,1.575-0.27
		c0.05-0.027,1.243-0.675,2.302-2.277c0.772-1.169,1.476-1.08,1.606-0.998c0.394,0.265,0.288,0.802,0.121,1.099
		c-0.595,1.056-1.224,1.885-1.729,2.551c-0.199,0.262-0.377,0.497-0.526,0.709c-0.606,0.861-0.937,2.085-0.984,3.638
		C7.558,23.026,7.165,23.875,6.299,24.009z M26.258,23.75c0,0.138-0.112,0.25-0.25,0.25H8.544c0.512-1.002,0.552-2.224,0.569-2.783
		c0.038-1.235,0.284-2.211,0.712-2.819c0.14-0.199,0.308-0.42,0.495-0.666c0.533-0.702,1.196-1.575,1.841-2.721
		c0.545-0.966,0.517-2.335-0.59-3.08c-0.405-0.273-0.957-0.366-1.514-0.253c-0.402,0.08-0.942,0.302-1.499,0.841V1.75
		c0-0.138,0.112-0.25,0.25-0.25h17.2c0.138,0,0.25,0.112,0.25,0.25V23.75z"/>
	<path class="st0" d="M23.168,18.006h-4.701c-0.195,0-0.354,0.159-0.354,0.354s0.159,0.354,0.354,0.354h4.701
		c0.195,0,0.354-0.159,0.354-0.354S23.363,18.006,23.168,18.006z"/>
	<path class="st0" d="M23.168,20.358h-4.701c-0.195,0-0.354,0.159-0.354,0.354s0.159,0.354,0.354,0.354h4.701
		c0.195,0,0.354-0.159,0.354-0.354S23.363,20.358,23.168,20.358z"/>
	<path class="st0" d="M15.017,5.749c0.038-0.049,0.064-0.103,0.082-0.164c0.017-0.06,0.025-0.119,0.025-0.175
		c0-0.057-0.008-0.114-0.025-0.173C15.081,5.18,15.056,5.126,15.02,5.08s-0.083-0.085-0.142-0.113
		c-0.058-0.028-0.129-0.042-0.212-0.042h-2.906c-0.083,0-0.154,0.015-0.213,0.042c-0.058,0.029-0.105,0.066-0.141,0.113
		s-0.063,0.1-0.079,0.158c-0.017,0.059-0.026,0.116-0.026,0.173c0,0.056,0.008,0.115,0.026,0.175
		c0.017,0.061,0.043,0.115,0.079,0.164c0.036,0.05,0.083,0.089,0.141,0.119c0.059,0.03,0.13,0.045,0.213,0.045h0.865v3.551h1.176
		V5.913h0.865c0.083,0,0.153-0.015,0.209-0.045C14.931,5.839,14.979,5.799,15.017,5.749z"/>
	<path class="st0" d="M17.605,5.359c-0.052-0.155-0.145-0.271-0.28-0.351C17.192,4.93,17.053,4.89,16.911,4.89
		c-0.155,0-0.301,0.039-0.439,0.116c-0.137,0.077-0.235,0.195-0.291,0.353l-1.453,4.105h1.221l0.215-0.701h1.453l0.22,0.701h1.244
		L17.605,5.359z M16.458,7.808L16.893,6.4l0.43,1.408H16.458z"/>
	<path class="st0" d="M20.399,9.464l0.836-1.289l0.916,1.289h1.318l-1.503-2.199l1.04-1.543c0.052-0.079,0.084-0.161,0.093-0.244
		c0.01-0.083,0.002-0.162-0.022-0.237C23.051,5.165,23.01,5.1,22.954,5.043c-0.057-0.056-0.122-0.096-0.198-0.119
		c-0.155-0.045-0.297-0.042-0.427,0.008c-0.13,0.052-0.248,0.158-0.353,0.32L21.314,6.31l-0.723-1.064
		c-0.106-0.158-0.229-0.263-0.371-0.317c-0.141-0.052-0.289-0.052-0.443,0c-0.076,0.027-0.142,0.069-0.198,0.128
		c-0.057,0.058-0.098,0.124-0.124,0.198c-0.027,0.074-0.036,0.152-0.029,0.235c0.007,0.083,0.036,0.16,0.085,0.232l1.074,1.526
		L19.11,9.464H20.399z"/>
</g>
</svg>
