<?xml version="1.0" encoding="utf-8"?>
<!-- Generator: Adobe Illustrator 27.2.0, SVG Export Plug-In . SVG Version: 6.00 Build 0)  -->
<svg version="1.1" id="Layer_1" xmlns="http://www.w3.org/2000/svg" xmlns:xlink="http://www.w3.org/1999/xlink" x="0px" y="0px"
	 viewBox="0 0 32.273 25.586" style="enable-background:new 0 0 32.273 25.586;" xml:space="preserve">
<style type="text/css">
	.st0{fill:#6540B6;}
</style>
<path class="st0" d="M29.227,11.688h-6.663v-1.084c0-1.007,0.717-1.876,1.633-1.978c0.865-0.102,1.707,0.438,1.975,1.272
	c0.125,0.394,0.543,0.613,0.942,0.486c0.395-0.126,0.612-0.548,0.485-0.943c-0.482-1.512-1.976-2.485-3.568-2.307
	c-1.663,0.185-2.967,1.708-2.967,3.469v1.084h-1.593c-0.065,0-0.126,0.015-0.19,0.019c0.597-1.271,0.879-2.69,0.761-4.148
	c-0.312-3.854-3.438-7.082-7.271-7.508C10.425-0.21,8.079,0.536,6.335,2.097C4.589,3.659,3.588,5.898,3.588,8.239
	c0,2.398,1.033,4.626,2.815,6.179c-3.323,1.693-5.716,4.878-6.37,8.58c-0.112,0.63,0.064,1.276,0.481,1.773
	c0.434,0.518,1.069,0.814,1.744,0.814H21.4c0.674,0,1.309-0.297,1.743-0.813c0.144-0.172,0.248-0.366,0.332-0.566h5.752
	c1.68,0,3.046-1.366,3.046-3.046v-6.427C32.273,13.055,30.906,11.688,29.227,11.688z M21.993,23.809
	c-0.148,0.176-0.364,0.277-0.594,0.277H2.258c-0.229,0-0.446-0.102-0.594-0.278c-0.077-0.092-0.2-0.286-0.153-0.549
	c0.639-3.62,3.182-6.676,6.638-7.974c0.268-0.101,0.455-0.344,0.482-0.628c0.028-0.284-0.107-0.56-0.35-0.711
	c-1.999-1.246-3.193-3.379-3.193-5.708c0-1.915,0.819-3.747,2.248-5.025c1.252-1.12,2.821-1.716,4.484-1.716
	c0.26,0,0.522,0.015,0.785,0.044c3.132,0.348,5.687,2.987,5.942,6.138c0.203,2.519-1.012,4.92-3.171,6.267
	c-0.242,0.151-0.377,0.426-0.349,0.71c0.028,0.284,0.215,0.527,0.482,0.628c3.455,1.298,5.999,4.354,6.639,7.974
	C22.194,23.522,22.071,23.716,21.993,23.809z M30.773,21.161c0,0.853-0.693,1.546-1.546,1.546h-5.672
	c-0.674-3.319-2.749-6.182-5.63-7.896v-0.077c0-0.852,0.693-1.545,1.546-1.545h9.756c0.853,0,1.546,0.693,1.546,1.545V21.161z
	 M25.499,16.639c0,0.454-0.268,0.837-0.65,1.024v2.062c0,0.276-0.224,0.5-0.5,0.5s-0.5-0.224-0.5-0.5v-2.062
	c-0.381-0.187-0.65-0.571-0.65-1.024c0-0.635,0.515-1.15,1.15-1.15C24.984,15.489,25.499,16.004,25.499,16.639z M15.344,9.183
	c-0.307,1.617-1.833,2.791-3.63,2.791c-1.797,0-3.324-1.173-3.631-2.791c-0.077-0.407,0.19-0.799,0.597-0.876
	c0.407-0.078,0.799,0.189,0.876,0.597c0.172,0.91,1.08,1.57,2.157,1.57c1.077,0,1.984-0.66,2.157-1.57
	c0.077-0.408,0.467-0.675,0.876-0.597C15.154,8.383,15.421,8.776,15.344,9.183z"/>
</svg>
