<?xml version="1.0" encoding="utf-8"?>
<!-- Generator: Adobe Illustrator 27.8.1, SVG Export Plug-In . SVG Version: 6.00 Build 0)  -->
<svg version="1.1" id="Layer_1" xmlns="http://www.w3.org/2000/svg" xmlns:xlink="http://www.w3.org/1999/xlink" x="0px" y="0px"
	 viewBox="0 0 27.447 26.427" style="enable-background:new 0 0 27.447 26.427;" xml:space="preserve">
<style type="text/css">
	.st0{fill:#254A9C;}
</style>
<path class="st0" d="M21.352,17.324c-1.497,0-2.715,1.218-2.715,2.715s1.218,2.715,2.715,2.715s2.715-1.218,2.715-2.715
	S22.849,17.324,21.352,17.324z M21.352,21.254c-0.67,0-1.215-0.545-1.215-1.215s0.545-1.215,1.215-1.215s1.215,0.545,1.215,1.215
	S22.021,21.254,21.352,21.254z M27.259,21.559l-0.792-0.893c0.026-0.209,0.039-0.419,0.039-0.627s-0.013-0.418-0.039-0.628
	l0.791-0.892c0.215-0.241,0.25-0.593,0.089-0.873l-0.926-1.604c-0.161-0.28-0.486-0.426-0.8-0.36l-1.175,0.241
	c-0.334-0.252-0.695-0.461-1.079-0.625l-0.378-1.136c-0.103-0.307-0.389-0.513-0.712-0.513h-1.852c-0.323,0-0.609,0.207-0.712,0.513
	l-0.378,1.136c-0.384,0.164-0.745,0.373-1.079,0.625l-1.175-0.241c-0.312-0.065-0.639,0.08-0.8,0.36l-0.926,1.604
	c-0.161,0.28-0.126,0.631,0.089,0.873l0.791,0.892c-0.026,0.209-0.039,0.419-0.039,0.628s0.013,0.418,0.039,0.627l-0.792,0.893
	c-0.214,0.241-0.249,0.593-0.088,0.873l0.926,1.603c0.161,0.28,0.486,0.424,0.8,0.36l1.175-0.241
	c0.334,0.252,0.694,0.461,1.079,0.625l0.378,1.136c0.103,0.307,0.389,0.513,0.712,0.513h1.852c0.323,0,0.609-0.207,0.712-0.513
	l0.378-1.135c0.384-0.164,0.745-0.373,1.079-0.625l1.175,0.24c0.32,0.065,0.639-0.08,0.8-0.36l0.926-1.603
	C27.508,22.152,27.473,21.8,27.259,21.559z M25.006,20.039c0,0.236-0.024,0.476-0.071,0.712c-0.046,0.23,0.019,0.469,0.174,0.645
	l0.669,0.754l-0.385,0.667l-0.993-0.203c-0.231-0.048-0.469,0.017-0.645,0.171c-0.362,0.318-0.776,0.557-1.229,0.711
	c-0.222,0.076-0.396,0.25-0.47,0.473l-0.319,0.958h-0.77l-0.319-0.958c-0.074-0.223-0.248-0.397-0.47-0.473
	c-0.454-0.155-0.867-0.394-1.229-0.711c-0.176-0.154-0.413-0.218-0.645-0.171l-0.993,0.203l-0.385-0.667l0.669-0.754
	c0.155-0.176,0.22-0.414,0.174-0.645c-0.047-0.237-0.071-0.477-0.071-0.712c0-0.236,0.024-0.476,0.071-0.713
	c0.046-0.23-0.019-0.469-0.175-0.645l-0.668-0.753l0.385-0.667l0.993,0.204c0.231,0.048,0.469-0.017,0.645-0.171
	c0.362-0.318,0.776-0.557,1.229-0.711c0.223-0.076,0.396-0.25,0.471-0.473l0.319-0.959h0.77l0.319,0.959
	c0.074,0.223,0.248,0.397,0.47,0.473c0.453,0.154,0.867,0.394,1.229,0.711c0.176,0.154,0.414,0.22,0.645,0.171l0.993-0.204
	l0.385,0.667l-0.668,0.753c-0.156,0.176-0.221,0.415-0.175,0.645C24.981,19.563,25.006,19.803,25.006,20.039z M13.363,18.661
	c0,0.029-0.013,0.053-0.016,0.081c0.003,0.028,0.016,0.052,0.016,0.081v5.233c0,0.026-0.012,0.048-0.015,0.073
	c0.003,0.025,0.015,0.047,0.015,0.073c0,0.414-0.336,0.75-0.75,0.75H7.685c-0.414,0-0.75-0.336-0.75-0.75s0.336-0.75,0.75-0.75
	h4.179v-4.041H0.75c-0.414,0-0.75-0.336-0.75-0.75V0.75C0,0.336,0.336,0,0.75,0h23.727c0.414,0,0.75,0.336,0.75,0.75v11.103
	c0,0.414-0.336,0.75-0.75,0.75s-0.75-0.336-0.75-0.75V1.5H1.5v16.411h11.113C13.027,17.911,13.363,18.247,13.363,18.661z
	 M15.109,4.039c0.195,0,0.354,0.159,0.354,0.354s-0.159,0.354-0.354,0.354H4.618c-0.195,0-0.354-0.159-0.354-0.354
	s0.159-0.354,0.354-0.354H15.109z M15.109,8.12H4.618c-0.195,0-0.354-0.159-0.354-0.354s0.159-0.354,0.354-0.354h10.491
	c0.195,0,0.354,0.159,0.354,0.354S15.305,8.12,15.109,8.12z M4.618,11.492c-0.195,0-0.354-0.159-0.354-0.354
	s0.159-0.354,0.354-0.354h5.433c0.195,0,0.354,0.159,0.354,0.354s-0.159,0.354-0.354,0.354H4.618z"/>
</svg>
