<?xml version="1.0" encoding="utf-8"?>
<!-- Generator: Adobe Illustrator 27.2.0, SVG Export Plug-In . SVG Version: 6.00 Build 0)  -->
<svg version="1.1" id="Layer_1" xmlns="http://www.w3.org/2000/svg" xmlns:xlink="http://www.w3.org/1999/xlink" x="0px" y="0px"
	 viewBox="0 0 32.273 25.586" style="enable-background:new 0 0 32.273 25.586;" xml:space="preserve">
<style type="text/css">
	.st0{fill:#1CA85A;}
</style>
<path class="st0" d="M15.344,9.183c-0.307,1.617-1.833,2.791-3.63,2.791c-1.797,0-3.324-1.173-3.631-2.791
	c-0.077-0.407,0.19-0.799,0.597-0.876c0.407-0.078,0.799,0.189,0.876,0.597c0.172,0.91,1.08,1.57,2.157,1.57
	c1.077,0,1.984-0.66,2.157-1.57c0.077-0.408,0.467-0.675,0.876-0.597C15.154,8.383,15.421,8.776,15.344,9.183z M32.273,14.413v8.908
	c0,0.414-0.336,0.75-0.75,0.75h-7.994c-0.087,0.251-0.209,0.492-0.386,0.702c-0.435,0.517-1.069,0.813-1.743,0.813H2.258
	c-0.674,0-1.31-0.297-1.744-0.814c-0.417-0.497-0.593-1.144-0.481-1.773c0.653-3.702,3.047-6.887,6.37-8.58
	c-1.782-1.553-2.815-3.781-2.815-6.179c0-2.341,1.001-4.58,2.747-6.143c1.744-1.561,4.09-2.307,6.436-2.045
	c3.615,0.402,6.597,3.296,7.188,6.855h4.807c0.016,0,0.031,0.008,0.048,0.009c0.066,0.004,0.13,0.017,0.193,0.038
	c0.024,0.008,0.047,0.014,0.071,0.025c0.08,0.036,0.155,0.082,0.22,0.147l6.757,6.756c0.064,0.064,0.11,0.14,0.147,0.219
	c0.011,0.023,0.017,0.047,0.025,0.071c0.021,0.063,0.034,0.127,0.038,0.193C32.264,14.382,32.273,14.396,32.273,14.413z
	 M25.516,13.663h4.196l-2.098-2.098l-2.098-2.098V13.663z M22.148,23.259c-0.64-3.62-3.184-6.676-6.639-7.974
	c-0.267-0.101-0.455-0.344-0.482-0.628c-0.028-0.284,0.107-0.56,0.349-0.71c2.16-1.347,3.375-3.748,3.171-6.267
	c-0.256-3.151-2.81-5.79-5.942-6.138c-0.263-0.029-0.525-0.044-0.785-0.044c-1.663,0-3.232,0.596-4.484,1.716
	c-1.428,1.278-2.248,3.11-2.248,5.025c0,2.328,1.194,4.462,3.193,5.708c0.243,0.151,0.378,0.427,0.35,0.711
	c-0.028,0.284-0.215,0.527-0.482,0.628c-3.456,1.298-5.999,4.354-6.638,7.974c-0.047,0.263,0.076,0.457,0.153,0.549
	c0.148,0.177,0.365,0.278,0.594,0.278H21.4c0.229,0,0.445-0.102,0.594-0.277C22.071,23.716,22.194,23.522,22.148,23.259z
	 M30.773,22.571v-7.408h-6.007c-0.414,0-0.75-0.336-0.75-0.75V8.407h-3.955c-0.05,2.317-1.066,4.49-2.808,6.011
	c3.193,1.627,5.511,4.636,6.269,8.153H30.773z"/>
</svg>
