<?xml version="1.0" encoding="utf-8"?>
<!-- Generator: Adobe Illustrator 27.2.0, SVG Export Plug-In . SVG Version: 6.00 Build 0)  -->
<svg version="1.1" id="Layer_1" xmlns="http://www.w3.org/2000/svg" xmlns:xlink="http://www.w3.org/1999/xlink" x="0px" y="0px"
	 viewBox="0 0 30.447 29.836" style="enable-background:new 0 0 30.447 29.836;" xml:space="preserve">
<style type="text/css">
	.st0{fill:#FF8B00;}
</style>
<path class="st0" d="M30.228,3.895L26.553,0.22c-0.293-0.293-0.768-0.293-1.061,0l-4.117,4.117H2.75C1.233,4.336,0,5.57,0,7.086v16
	c0,1.517,1.233,2.75,2.75,2.75h8.04l-0.625,2.5H7.75c-0.414,0-0.75,0.336-0.75,0.75s0.336,0.75,0.75,0.75h11
	c0.414,0,0.75-0.336,0.75-0.75s-0.336-0.75-0.75-0.75h-2.415l-0.625-2.5h8.04c1.517,0,2.75-1.233,2.75-2.75V8.683l3.728-3.728
	C30.521,4.662,30.521,4.188,30.228,3.895z M17.517,8.195c-0.129,0.129-0.206,0.3-0.218,0.482l-0.228,3.556l-5.297,4.565
	l-2.641-2.342c-0.31-0.276-0.785-0.246-1.059,0.063c-0.275,0.31-0.247,0.784,0.063,1.059l3.131,2.777
	c0.142,0.125,0.32,0.188,0.498,0.188c0.174,0,0.349-0.061,0.49-0.182l5.912-5.096l3.578-0.117c0.19-0.006,0.371-0.084,0.506-0.219
	l0.435-0.435v8.887c0,0.396-0.322,0.719-0.719,0.719H4.531c-0.396,0-0.719-0.322-0.719-0.719V8.789c0-0.396,0.322-0.719,0.719-0.719
	h13.11L17.517,8.195z M14.79,28.336H11.71l0.625-2.5h1.829L14.79,28.336z M25,23.086c0,0.689-0.561,1.25-1.25,1.25h-21
	c-0.689,0-1.25-0.561-1.25-1.25v-16c0-0.689,0.561-1.25,1.25-1.25h17.125L18.141,7.57H4.531c-0.672,0-1.219,0.547-1.219,1.219
	v12.594c0,0.672,0.547,1.219,1.219,1.219h17.438c0.672,0,1.219-0.547,1.219-1.219v-9.387L25,10.183V23.086z M25.221,7.84
	c-0.001,0.001-0.001,0.001-0.002,0.001l-3.817,3.818l-2.798,0.091l0.173-2.696l7.245-7.245l2.614,2.614L25.221,7.84z"/>
</svg>
